<?xml version="1.0" encoding="UTF-8"?>
<svg id="Fondo_azul" xmlns="http://www.w3.org/2000/svg" xmlns:xlink="http://www.w3.org/1999/xlink" viewBox="0 0 400 400">
  <defs>
    <style>
      .cls-1 {
        fill: url(#Degradado_sin_nombre_58);
      }

      .cls-2 {
        fill: #4196d2;
      }

      .cls-3 {
        fill: #0483d5;
      }

      .cls-4 {
        fill: url(#Degradado_sin_nombre_55);
      }

      .cls-5 {
        fill: url(#Degradado_sin_nombre_58-2);
      }
    </style>
    <linearGradient id="Degradado_sin_nombre_58" data-name="Degradado sin nombre 58" x1="46.72" y1="239.68" x2="191.04" y2="239.68" gradientUnits="userSpaceOnUse">
      <stop offset="0" stop-color="#009efd"/>
      <stop offset="1" stop-color="#a5c958"/>
    </linearGradient>
    <linearGradient id="Degradado_sin_nombre_58-2" data-name="Degradado sin nombre 58" x1="67.65" y1="217.69" x2="186.77" y2="217.69" xlink:href="#Degradado_sin_nombre_58"/>
    <radialGradient id="Degradado_sin_nombre_55" data-name="Degradado sin nombre 55" cx="267.35" cy="225.15" fx="267.35" fy="225.15" r="178.11" gradientTransform="translate(0 -9.64)" gradientUnits="userSpaceOnUse">
      <stop offset="0" stop-color="#a5c958"/>
      <stop offset="1" stop-color="#009efd"/>
    </radialGradient>
  </defs>
  <ellipse class="cls-2" cx="197.28" cy="253.17" rx="43.64" ry="44.06"/>
  <g>
    <path class="cls-2" d="M212.69,42.21c0-19.7-15.41-35.67-15.41-35.67,0,0-15.41,15.97-15.41,35.67s15.41,35.67,15.41,35.67c0,0,15.41-15.97,15.41-35.67Z"/>
    <path class="cls-2" d="M172.76,46.55c-9.76-17.06-31.01-23.11-31.01-23.11,0,0-5.44,21.61,4.32,38.67,9.76,17.06,31.01,23.11,31.01,23.11,0,0,5.44-21.61-4.32-38.67Z"/>
    <path class="cls-2" d="M221.8,46.55c9.76-17.06,31.01-23.11,31.01-23.11,0,0,5.44,21.61-4.32,38.67-9.76,17.06-31.01,23.11-31.01,23.11,0,0-5.44-21.61,4.32-38.67Z"/>
  </g>
  <g>
    <path class="cls-1" d="M188.9,394.15c-2.92-12.6-6.74-25.3-14.15-36.02-7.15-10.34-17.32-17.41-28.2-23.3-23.71-12.8-48.33-22.84-67.07-43.14-18.64-20.17-31.19-47.13-32.63-74.89-1.39-27.47,8.24-53.94,24.29-75.86,17.83-24.32,43.64-45.03,71.78-55.71.03-.03.05-.03.05-.03-31.11,34.41-68.59,80.7-62.23,130.65,2.94,22.89,14.63,44.8,30.76,60.98,17.17,17.2,39.48,27.91,56.82,44.86,8.6,8.4,14.73,18.05,18.43,28.47,4.87,13.65,5.55,28.65,2.13,43.98Z"/>
    <path class="cls-5" d="M186.77,350.17c-32.08-46.26-119.13-59.88-119.13-136.92,0-83.9,73-126.68,75.28-128.01.03-.03.05-.03.05-.03-31.11,34.41-68.59,80.7-62.23,130.65,2.94,22.89,14.63,44.8,30.76,60.98,17.17,17.2,39.48,27.91,56.82,44.86,8.6,8.4,14.73,18.05,18.43,28.47Z"/>
  </g>
  <g>
    <path class="cls-3" d="M205.66,394.15c2.92-12.6,6.74-25.3,14.15-36.02,7.15-10.34,17.32-17.41,28.2-23.3,23.71-12.8,48.33-22.84,67.07-43.14,18.64-20.17,31.19-47.13,32.63-74.89,1.39-27.47-8.24-53.94-24.29-75.86-17.83-24.32-43.64-45.03-71.78-55.71-.03-.03-.05-.03-.05-.03,31.11,34.41,68.59,80.7,62.23,130.65-2.94,22.89-14.63,44.8-30.76,60.98-17.17,17.2-39.48,27.91-56.82,44.86-8.6,8.4-14.73,18.05-18.43,28.47-4.87,13.65-5.55,28.65-2.13,43.98Z"/>
    <path class="cls-4" d="M207.79,350.17c32.08-46.26,119.13-59.88,119.13-136.92,0-83.9-73-126.68-75.28-128.01-.03-.03-.05-.03-.05-.03,31.11,34.41,68.59,80.7,62.23,130.65-2.94,22.89-14.63,44.8-30.76,60.98-17.17,17.2-39.48,27.91-56.82,44.86-8.6,8.4-14.73,18.05-18.43,28.47Z"/>
  </g>
</svg>