<?xml version="1.0" encoding="UTF-8"?>
<svg xmlns="http://www.w3.org/2000/svg" xmlns:xlink="http://www.w3.org/1999/xlink" viewBox="0 0 342.84 376.07">
  <defs>
    <style>
      .cls-1 {
        fill: #f2ebd1;
        opacity: .61;
      }

      .cls-1, .cls-2, .cls-3, .cls-4, .cls-5, .cls-6, .cls-7, .cls-8, .cls-9, .cls-10, .cls-11, .cls-12, .cls-13, .cls-14, .cls-15, .cls-16, .cls-17, .cls-18, .cls-19, .cls-20 {
        mix-blend-mode: multiply;
      }

      .cls-21, .cls-16, .cls-18 {
        fill: #f4bdb3;
      }

      .cls-22 {
        fill: #fff;
      }

      .cls-2 {
        opacity: .44;
      }

      .cls-2, .cls-3, .cls-23, .cls-12 {
        fill: #d39181;
      }

      .cls-3 {
        opacity: .64;
      }

      .cls-4 {
        opacity: .48;
      }

      .cls-5 {
        opacity: .6;
      }

      .cls-5, .cls-7, .cls-24 {
        fill: #8ed6c3;
      }

      .cls-6 {
        fill: #e2a996;
      }

      .cls-6, .cls-25 {
        opacity: .42;
      }

      .cls-7, .cls-16 {
        opacity: .53;
      }

      .cls-26 {
        clip-path: url(#clippath-2);
      }

      .cls-8, .cls-27 {
        fill: #f5f5ff;
      }

      .cls-28 {
        isolation: isolate;
      }

      .cls-9, .cls-14 {
        opacity: .37;
      }

      .cls-29 {
        fill: #6fa595;
      }

      .cls-30 {
        clip-path: url(#clippath-6);
      }

      .cls-31 {
        stroke-width: 10.61px;
      }

      .cls-31, .cls-32 {
        stroke: #312f44;
        stroke-miterlimit: 10;
      }

      .cls-31, .cls-32, .cls-33 {
        fill: none;
      }

      .cls-34, .cls-13 {
        fill: #bc7d6c;
      }

      .cls-10 {
        opacity: .63;
      }

      .cls-35 {
        clip-path: url(#clippath-7);
      }

      .cls-11 {
        opacity: .57;
      }

      .cls-36 {
        clip-path: url(#clippath-1);
      }

      .cls-37 {
        clip-path: url(#clippath-4);
      }

      .cls-38 {
        fill: #cbcbef;
      }

      .cls-39 {
        fill: #723b3b;
      }

      .cls-32 {
        stroke-width: 9.8px;
      }

      .cls-13 {
        opacity: .5;
      }

      .cls-40 {
        fill: #5971b5;
      }

      .cls-14 {
        fill: #5c9aad;
      }

      .cls-41, .cls-15 {
        fill: #7196cc;
      }

      .cls-15 {
        opacity: .39;
      }

      .cls-42 {
        clip-path: url(#clippath);
      }

      .cls-43 {
        fill: #542424;
      }

      .cls-44 {
        clip-path: url(#clippath-3);
      }

      .cls-45 {
        fill: #312f44;
      }

      .cls-46 {
        clip-path: url(#clippath-5);
      }

      .cls-17 {
        opacity: .68;
      }

      .cls-47 {
        fill: #d0d0ea;
      }

      .cls-20 {
        opacity: .46;
      }
    </style>
    <clipPath id="clippath">
      <circle class="cls-33" cx="171.84" cy="-662.93" r="181.78"/>
    </clipPath>
    <clipPath id="clippath-1">
      <path class="cls-33" d="m405.14-153.93c-.59-38.98-2.85-77.06-8.74-115.33-.95-7.52-2.15-15.01-3.65-22.44-.36-1.8-.75-3.62-1.24-5.4-11.02-56.95-27.29-112.78-44.93-167.99-1.21-3.78-2.51-7.71-5.31-10.52-2.76-2.77-6.62-4.09-10.33-5.32-23.27-7.72-46.62-14.55-70.03-21.27-11.54-14.47-29.06-25.03-45.83-22.62-.2-1.47-.35-2.96-.54-4.44-.02-.12-.03-.24-.05-.36-.13-1.03-.22-2.06-.31-3.09-.06-.92-.11-1.84-.17-2.79-.1-1.57-.21-3.15-.3-4.73-.09-2.1-.17-4.21-.27-6.32,0-.06,0-.12,0-.18-.07-1.5-.09-2.99-.06-4.47,3-1.32,6-2.66,8.98-4.03,5.58-2.56,17.61-6.61,19.57-13.5.04-.1.1-.19.13-.29.51-1.43,1-2.85,1.46-4.27.47-1.42.92-2.84,1.36-4.26.88-2.84,1.71-5.7,2.53-8.6,0,0,0,0,0-.01,2.88-10.17,5.92-20.27,8.91-30.3,2.49,4.81,11.01,3.27,14.68.51,4.49-3.06,7.88-8,11.05-12.32,7.65-10.45,11.61-23.19,11.88-35.62.19-8.56-.98-23.85-12.25-26.35-1.27-.28-2.54-.36-3.79-.28.43-8.86,4.15-19.93,1.65-28.27.37,1.23,2.21,1.4,3.19.58.99-.81,1.32-2.16,1.56-3.42,2.28-11.8,1.69-24.15-1.69-35.69,3.53.34,7.02,1.15,10.33,2.41-2.24-11.55-7.32-22.53-14.63-31.74-3.07-3.87-6.73-7.69-10.91-10.39-2.75-1.78-11.28-5.83-14.44-4.27,4.41-2.17,9.45-3.05,14.34-2.49-10.63-3.82-21.34-7.67-32.51-9.37-11.17-1.7-22.95-1.14-33.22,3.57,3.41-4.11,4.7-9.88,3.37-15.05-4.88,3.32-10.11,6.09-15.02,9.35-2.09,1.38-3.96,2.98-6.16,4.26-1.26.73-5.86,2.05-6.5,3.15,2.89-4.9,4.28-10.68,3.94-16.36-7.2,7.63-16.04,13.71-25.74,17.72,3.45-3.5,5.24-8.58,4.74-13.48-7.05,6.76-16.74,10.08-26.35,11.84-9.61,1.77-19.44,2.18-29.01,4.15-24.59,5.05-43.63,26.37-48.24,50.82-2.27,12.05-1.73,25.81-10.19,34.68,4.94-.33,9.75-2.38,13.41-5.72-2.36,4.41-5.29,8.51-8.71,12.15,3.53.88,7.5-.38,9.87-3.13,2.62,9.67,4.1,19.65,4.4,29.66-1.38.19-2.73.58-3.94,1.19-5.42,2.74-8.32,8.33-9.6,13.8-4.27,18.2,6.12,33.34,15.29,47.84,2.63,4.15,5.73,8.74,10.11,11.22,6.58,3.72,10.33.31,14.87-4.21.06.18.12.36.18.54.62,3.47,1.86,6.8,3.11,10.11,3.18,8.44,6.11,16.89,9.02,25.39,1.19,3.5,2.39,6.99,3.58,10.49.4,1.17.81,2.36,1.32,3.49.51,1.13,1.12,2.2,1.92,3.15.72.85,1.58,1.57,2.5,2.21s1.9,1.2,2.87,1.75c3.32,1.86,6.7,3.6,10.12,5.28.21,3.71.39,7.41.5,11.12,0,0,0,0,.01.01.08,5.48-.19,11.5-1.38,17.24-10.86-1.6-26.37,6.71-39.27,16.03-1.56,1.13-3.03,2.34-4.45,3.6-3.42.85-6.93,1.72-9.9,2.84-1.41.53-2.69,1.12-3.79,1.79-1.75,1.07-2.94,2.49-3.8,4.06-10.07,2.9-20.15,5.76-30.25,8.57-.99-.83-2.01-1.65-3.05-2.44.16,1.05.36,2.09.59,3.12-3.8,1.05-7.6,2.1-11.41,3.13-.77-.1-1.56-.18-2.38-.2.08.26.15.52.22.78-3.05.83-6.1,1.66-9.15,2.47-6.34,1.68-12.9,3.48-17.94,7.67-5.84,4.85-8.86,12.23-11.49,19.35-15.62,42.25-25.42,86.37-33.27,130.65-7.73,43.58-16.41,86.64-20.98,130.69-1.7,16.42-3.01,33.18.44,49.32.32,1.52.72,3.06,1.22,4.55.39,3.49,1.1,6.84,2.2,9.97.75,2.16,1.74,4.3,3.4,5.84,9.46,8.78,30.14,9.29,42.12,9.25,10.09-.03,20.11-1.4,29.94-3.65-.06,4.67-.11,9.35-.17,14.02-1.17,8.78-2.27,17.54-2.5,18.9C1.02-77.73-12.65-3.15-14.78-3.5-1.49-1.32,11.84.61,25.2,2.34c-.7.27-1.4.43-2.12.43,7.89.86,15.78,1.56,23.69,2.15,41.36,4.59,82.95,7.05,124.55,7.33.01.59.01,1.18.03,1.77v-1.77c37.85.25,75.72-1.27,113.42-4.6,5.32-.47,10.66-.97,16-1.45,6.17-.22,12.34-.45,18.5-.73,3.82-.17,8.07-.69,12.46-1.18,9.35-.18,18.67.11,27.93,1.26,1.75.68,3.41,1.53,4.95,2.61-.1-.65-.21-1.31-.31-1.96.18.03.36.05.54.08-.2-.03-.39-.16-.58-.34-2.43-15.62-4.88-31.24-7.34-46.86-.29-1.87-.59-3.74-.88-5.6.2.31.41.61.6.93-.28-.47-.52-1.04-.72-1.68-.37-2.35-.74-4.7-1.11-7.04-.31-4.2-.32-8.68-.72-11.29-1.34-8.63-2.71-17.25-4.09-25.88-.39-2.48-.81-4.95-1.2-7.43-.15-1.43-.31-2.86-.45-4.29,14.04,2.24,28.24,2.77,42.46.61,4.48-.68,7.31-3.55,9.08-7.43.31-.49.62-.99.88-1.55,5.77-12.27,4.56-29.19,4.36-42.36Zm-188.22-362.85c-.25-.89-.49-1.79-.72-2.69.26.87.52,1.77.72,2.69Zm-1.1-4.28c-.01-.06-.03-.12-.04-.18.04.08.09.16.13.24-.03-.02-.06-.04-.09-.06Zm-138.72-159.24c-.13-.34-.29-.67-.48-.98.12.12.23.24.35.37.04.2.09.41.13.61Zm139.79,159.87c-.41-.26-.87-.55-1.14-.91-.14-.6-.28-1.2-.4-1.81-.08-.48-.15-.95-.22-1.43l1.76,4.15Zm-92.09-.24c-.06.02-.11.03-.17.05l.57-1.44c-.13.47-.26.93-.4,1.4Z"/>
    </clipPath>
    <clipPath id="clippath-2">
      <circle class="cls-33" cx="172.61" cy="-228.01" r="181.78"/>
    </clipPath>
    <clipPath id="clippath-3">
      <path class="cls-33" d="m446.97,250.75c-2-13.27-5.47-26.49-8.92-39.5-5.68-21.37-11.38-42.76-17.49-64.05,0-.04-.01-.07-.02-.11-.71-2.76-1.59-5.49-2.39-8.23-.14-.46-.28-.93-.42-1.39-1.43-4.85-2.88-9.7-4.36-14.54-.05-.16-.1-.32-.15-.49-.7-2.29-1.42-4.58-2.14-6.87.88-.6,1.76-1.21,2.64-1.81,10.38-7.11,20.21-13.87,20.27-13.7-13.66-32.64-27.33-65.28-40.99-97.91-6.59-15.75-13.2-31.52-20.88-46.79-5.7-11.33-14.02-33.25-25.42-39.83-8.91-5.15-23.31-6.79-35.31-8.62-3.12-.62-6.25-1.24-9.37-1.86-4.14-.82-8.28-1.63-12.43-2.41-9.63-1.95-19.29-3.74-28.98-5.3-11.1-9.69-30.98-16.21-43.79-14.8-.24-1.03-.45-2.08-.62-3.14,10.24-1.77,20.51-4.78,31.01-9.64-4.37,4.28-8.74,8.56-13.11,12.83,12.87.5,23.75-8.88,33.16-17.67-1.77,5.49-4.78,10.58-8.76,14.77,3.04-3.2,11.97-5.28,16.08-8.6,4.88-3.94,9.09-8.3,12.34-13.67-1.54,2.9-2.41,6.16-2.48,9.45,6.01-5.25,10.29-12.25,13.56-19.41,2.75-6.01,5.84-18.85,3.02-25.25,2.63,5.96,3.85,12.54,3.55,19.05,2.75-7.85,2.5-16.49.81-24.63-1.59-7.63-4.4-14.94-7.12-22.24-.18-.49-.37-.98-.55-1.47-7.43-20.1-13.41-40.75-18.56-61.56-.15-3.48-.62-6.96-1.98-10.15.09.13.19.26.28.38,0-9.49-2.48-20.35-5.67-29.22,1.61.72,3.49.8,5.15.23-5.08-2.28-6.56-8.64-7.53-14.12-1.52-8.54-3.37-17.1-7-24.98-7.92-17.18-26.96-30.97-44.41-37.17-12.18-4.33-26.19-4.82-37.7,1.07,3.22-3.43,6.43-6.85,9.65-10.28-6.48.69-12.73,3.34-17.74,7.51-8.63-2.52-17.89-2.05-26.7-.28-18.16,3.65-35.18,12.84-48.21,26.01-7.3,7.39-13.33,16.01-17.83,25.37-4.45,9.26-5.64,19.7-10.9,28.42-2.77,4.6-7.03,9.61-12.33,8.74,4.76,1.74,10.35.97,14.46-1.99-2.45,4.15-5.79,7.77-9.72,10.56,3.25,1.13,7,.73,9.95-1.05.43,2.56,1.35,13.24-.63,16.25-.66.49-1.2,1.03-1.6,1.63-4.83,4.13-7.05,10.72-7.1,17.08-.04,4.63.63,9.52,1.83,14.42-4.44,9.55-9.61,18.86-14.09,28.38-8.52,18.1-14.65,39.06-7.94,57.9-.1-8.48,1.87-16.97,5.7-24.54-1.27,7.85-3.03,18.25-.86,26.06.76,2.71,2.11,5.27,2.91,8.02.94,3.22,4.2,8.68,4.14,11.87.11-5.66.22-11.31.32-16.97,2.38,12.18,10.52,23.1,21.52,28.86-2.26-5.94-3.62-12.21-4.02-18.55,7.05,12.27,18.79,21.77,32.27,26.08-2.96-5.16-5.92-10.32-8.89-15.49,6.28,5.76,14.96,8.31,23.47,8.7,7.37.34,14.43-.41,21.59-.68-.04,1.84-.07,3.68-.1,5.52,0,.22-.01.44-.01.66,0,.31,0,.65,0,.97,0,.49-.01.97-.01,1.46,0,1.71-.08,3.23-.25,4.6-.28.06-.55.12-.83.18l1.08-4.78c-12.2-.04-24.22,5.24-33.5,13.57-18.08,5.02-36.05,10.43-53.87,16.3-19.75,6.5-38.43,8.38-47.2,29.58C-7.64-22.25-19.55,8.38-32.72,38.38c-3.34,7.59-39.13,77.53-37.25,79.07,6.24,5.12,12.93,9.46,19.96,13.17-.85,3.28-1.66,6.57-2.23,9.87-.16.94-.21,1.76-.2,2.55-3.85,16.8-7.2,33.58-10.42,49.9-4.6,23.38-8.16,46.92-10.64,70.56-.26,2.45-.46,4.99-.34,7.47-.39,3.18-.22,6.34.85,9.33.46,1.29,1.13,2.48,1.86,3.63,6.15,9.73,15.57,15.63,26.8,16.06,20.61.8,41.04-4.14,60.95-9.85,4.46-1.28,8.91-2.62,13.35-3.98-9.81,50.92-22.92,100.52-40.7,149.57,6.31,1.58,12.65,3.04,19,4.45-1.09,7-2.13,13.55-3.04,19.11-1.56,7.73-3.43,15.8-4.49,15.84.56-.02,1.12-.06,1.68-.08-.05.21-.09.4-.14.56.06-.22.45-.43,1.12-.61,6.73-.34,13.4-1.06,20.08-1.49,3.76-.1,7.9-.18,12.38-.23.86.03,1.71.04,2.57.1,14.05.93,28.13,1.47,42.21,1.79,27.64.62,55.29.32,82.94.12,52.58-.38,105.16-2.15,157.65-5.32,12.39-.75,24.78-1.59,37.17-2.49,1.84.4,3.48,1.01,4.77,1.93-.34-.72-.65-1.47-.98-2.2.51-.04,1.03-.07,1.54-.11-.21-.39-.42-.79-.62-1.19-3.92-7.71-6.24-16.14-8.54-24.48-1.34-4.88-2.69-9.76-4.03-14.64,6.35-3.12,12.42-6.53,18.4-10.51,2.39-1.48,4.77-2.99,7.11-4.58-.04.02-.16-.08-.31-.23.28-.21.55-.4.83-.61-5.26-7.39-11.43-14.16-17.12-21.33-5.98-8.4-12.36-17.53-16.86-24.18-1.94-3.03-3.78-6.11-5.41-9.26-7.48-14.57-10.51-29.2-12.6-44.89l15.86,2.64c.95-11.27,1.9-22.55,2.85-33.82,5.54,4.26,11.26,8.33,17.21,12.18,24.26,15.69,53.97,27.63,80.78,17.73,2.23-.82,4.54-1.9,5.82-3.99,1.16-1.89,1.26-4.28,1.24-6.54-.03-3.75-.04-8.45-.6-13.01,1.64-11.83,1.04-23.75-.75-35.64ZM40.83,154.11c.86.11,1.72.23,2.58.34,1.48,16.69.95,33.19-.63,49.62-.76.07-1.51.13-2.27.2-3.35.29-6.72.59-10.11.92,4.02-16.92,7.39-33.98,10.42-51.08ZM217.49-114.97c-.22-.71-.42-1.43-.59-2.17l.59,2.17Z"/>
    </clipPath>
    <clipPath id="clippath-4">
      <circle class="cls-33" cx="173.09" cy="179.24" r="181.78"/>
    </clipPath>
    <clipPath id="clippath-5">
      <path class="cls-33" d="m381.78,566.71c-.16-.76-.3-1.54-.43-2.31-.41-2.99-.84-5.97-1.27-8.96-.03-.25-.07-.5-.1-.75-.04-.29-.09-.59-.13-.88-.77-5.26-1.56-10.52-2.36-15.77-.04-.27-.08-.54-.12-.8-.05-.35-.11-.71-.16-1.06,2.99-2.1,5.88-4.36,8.68-6.74,2.4-1.95,4.78-3.95,7.12-6.08-.15-.54-.32-1.08-.47-1.62-.13-.95-.5-2.12-.97-3.34-9.2-32.34-19.25-64.44-30.2-96.23-8.3-24.11-15.54-51.19-35.52-68.03.05-.02.08-.07.13-.09-1.06-.93-2.08-1.67-3.09-2.25-.92-.69-1.82-1.39-2.8-2.03-13.33-8.84-28.78-14.73-44.66-19.5.08-.06.16-.12.24-.18-.09.07-.22.11-.38.14-12-3.6-24.24-6.56-36.02-9.65-2.56-3.36-5.45-6.43-8.73-9.11,1.29-.07,2.57-.19,3.81-.36,7.99-1.15,15.8-3.55,23.06-7.1,5.73-2.81,11.31-6.53,14.54-12.03,3.7-6.29,2.12-13.15,1.76-20.19,8.75,2.44,18.88-1.47,23.73-9.16,4.31-6.83,4.26-14.88,2.07-22.33-.65-2.22-6.89-19.43-8.23-19.04,9.78-2.84,16.05-13.39,15.87-23.57-.15-8.58-4.18-16.67-9.94-23.12-1.07-1.2-2.21-2.35-3.39-3.43,10.36-4.39,16.86-16.42,14.88-27.49-2.2-12.26-12.86-20.92-22.66-28.62-1.23-.97-2.48-1.97-3.72-2.98-.14-.49-.3-.96-.53-1.4-.62-1.23-3.41-2.56-3.25-4.02.14-1.28,4.99-4.12,5.99-5.39,1.91-2.46,3.2-5.42,3.48-8.54.54-6.04-2.87-8.43-5.66-12.98-2.47-4.04-1.87-8.14-1.57-12.74.74-11.15-5.09-22.5-14.59-28.39-9.5-5.89-22.26-6.06-31.92-.44-.11-9.13-7.53-16.95-16.11-20.08-17.48-6.37-51.96,2.29-68.46,10.22-8.26,3.97-15.82,11.25-16.54,20.39-1.05-3.66-2.21-7.5-4.95-10.14-2.74-2.64-7.61-3.49-10.25-.74-3.56,3.71-.36,9.98,3.7,13.13-7.9-.79-15.96-1.57-23.7.2-13.66,3.13-20.84,13.55-24.84,25.88-3.82,10.55-5.42,22.83-5.44,34.15-.02.31-.05.62-.07.92-6.65,3.09-13.67,5.49-19.72,9.62-5.52,3.77-10.07,8.94-13.11,14.89-2.84,5.55-4.23,12.62-.76,17.79,2.74,4.08,7.73,5.9,12.39,7.47-6.17,5.22-12.39,10.5-17.22,16.97-4.83,6.47-8.23,14.34-7.91,22.41.31,8.07,4.88,16.23,12.32,19.36,3.01,1.27,6.36,1.7,9.25,3.23.8.43,1.59.96,2.06,1.74,1.3,2.14-.27,4.81-1.63,6.92-4.82,7.46-7.49,16.65-5.71,25.35,1.79,8.7,8.64,16.58,17.4,18.05,9.28,1.55,18.92-3.91,27.98-1.38.86.24,1.72.56,2.36,1.19,2.01,1.97.66,5.27-.15,7.96-2.26,7.44,1.29,16.22,8.08,19.99,4.99,2.77,11.13,2.88,16.65,1.43,4.3-1.12,8.3-3.11,12.17-5.33,1.88,1.09,3.1,2.57,4.08,4.22.03.17.06.33.1.49-7.85,2.02-14.99,6.91-19.52,13.69-.62.92-1.16,1.88-1.68,2.85-10.38,2.35-24.53,5.55-24.97,5.67-.03,0,.18.36.59.99-6.98,1.92-13.92,3.95-20.84,6.11-7.55,2.32-15.08,4.79-22.61,7.46-7.06,2.5-14.17,5.06-20.49,9.09-10.23,6.52-17.42,15.87-22.96,26.42-.25.48-.53.94-.77,1.42-.07.13-.13.27-.19.4-.31.62-.59,1.25-.89,1.87-.42.88-.84,1.77-1.25,2.66-.22.48-.43.96-.64,1.45-6.94,15.69-11.72,32.65-16.63,49.27-6.93,19.86-23.37,65.85-30.46,83.35-1.08,2.32-2.16,4.63-3.29,6.92,3.51,2.06,7.11,3.98,10.75,5.8-1.45,4.77-2.87,9.55-4.28,14.34-.65,2.23-1.3,4.45-1.95,6.68-.42,1.44-1.97,4.42-1.55,5.93.02.06.05.12.07.18-4.79,17.32-9.21,34.73-13.25,52.24-2.5,10.81-4.85,21.84-4.58,32.9-.8,4.26-.6,8.84.73,12.75,3.28,9.58,14.65,10.51,23.25,11.17,21.18,1.62,42.37,1.64,63.49.32-.48,5.06-.93,10.11-1.43,15.17-1.26,12.83-19.58,144.97-18.5,145.4,4.6,1.86,9.25,3.55,13.93,5.12-1.59,22.81-3.13,45.65-3.96,68.47-.03.45-.05.9-.08,1.35-.36,5.81-3.46,16.03-.49,20.51,0,.39-.02.77-.02,1.16.37,0,.74-.01,1.11-.02.88.67,2.03,1.09,3.58,1.09.58,0,1.21-.05,1.89-.16,2.89-.46,5.79-.82,8.69-1.15,87.38-1.38,174.78-1.71,262.16-.94,8.72.08,17.4.59,26.11.8,2.28.05,4.54-.04,6.81-.14,1.9.07,3.8.13,5.7.2,3.95.15,8.39.55,10.9,3.59-.68-.82-1.18-1.92-1.58-3.2.22.05.43.07.65.12-1.43-16.85-3.91-33.77-5.68-50.63-1.72-14.49-3.71-28.95-5.69-43.4,5.02-1.78,10.06-3.29,15.15-3.87-8.49.96-25.94-118.73-27.2-130.38-.5-4.64-.92-9.28-1.3-13.93,2.79.47,5.6.9,8.41,1.28,20.23,2.75,43.55,6.1,62.42-3.65,2.5-1.29,4.92-2.89,6.9-4.87,1.26-.67,2.42-1.49,3.29-2.62,1.69-2.19,2.02-5.1,2.24-7.86,2.65-32.37-.27-64.7-4.66-96.97.04-.03.07-.05.11-.07Zm-174.92-254.63c-.13-3.02-.22-6.04-.29-9.07.17.28.4.55.67.81l3.86,9.24c-1.41-.34-2.83-.66-4.24-.98Z"/>
    </clipPath>
    <clipPath id="clippath-6">
      <circle class="cls-33" cx="173.24" cy="601.78" r="181.78"/>
    </clipPath>
    <clipPath id="clippath-7">
      <path class="cls-33" d="m387.19,994.24c-2.87-35.87-13-70.58-20.29-105.69-4.25-20.49-8.88-40.94-14.52-61.18-5.64-20.2-10.83-40.02-21.35-58.79-1.37-2.45-2.88-4.94-5.31-6.64-2.28-1.59-5.15-2.33-7.94-3.04-4.38-1.11-8.8-2.18-13.23-3.24.04-.25.1-.51.14-.76-.26.2-.5.41-.76.61-1.5-.36-3.01-.71-4.51-1.06,1.11-2.6,2.01-5.3,2.65-8.1,3.34-14.84-1.09-30.64-9.17-43.53,8.48-1.3,13.65-10.12,15.78-18.43,5.02-19.56-.53-41.51-14.24-56.34-6.52-7.05-14.62-12.47-21.28-19.38.52-2.47.87-4.97,1.02-7.48.6-10-1.98-29.16-13.29-32.98-.29-1.16-.5-2.32-.65-3.49.02-2.48.04-4.96.04-7.42.01-7.11-.18-14.15-1.45-21.01-.72-3.88-1.79-7.71-3.36-11.46-.16-.5-.31-1-.47-1.5-7.88-23.48-23.31-33.58-43.81-38.19,9.82-3.62,16.88-13.77,17.14-24.2.07-1.6-.03-3.21-.29-4.81-.81-4.85-3.16-9.6-7.13-12.51-3.87-2.84-9.37-3.6-13.56-1.29.38-.73.54-1.52.51-2.33.11-2.84-2.18-5.91-5.1-6.75-3.58-1.04-7.38.29-10.7,2.07,1.34-1.53,2.39-3.31,3.02-5.24-.05,0-.11.01-.16.02.05-.13.11-.26.16-.4-6.35.28-12.46,3.78-15.94,9.1.08-.35.14-.7.14-1.05.29-2.97-2.05-5.99-4.94-7.13-3.28-1.3-6.96-.81-10.43-.2-11.36,2.01-23.01,5.45-31.34,13.42-8.33,7.98-12.21,21.57-6.15,31.39,2.88,4.66,7.51,7.86,12.52,10.2-2.72.64-5.42,1.36-8.09,2.18-15.62,4.77-31.19,12.6-42.34,24.24-.25.26-.5.53-.75.79-7.05,7.6-12.23,16.77-14.38,27.73-.5,2.54-1.47,6.08-1.35,9.23-.23,1.94-.43,3.89-.55,5.85-.11,1.79-.14,3.57-.11,5.32.06,4.88.61,9.63,1.31,14.34-1.76-.58-3.69-.71-5.48-.27-4.57,1.12-8.03,4.94-10.24,9.09-8.07,15.16-3.45,32.33,5.09,46.48-.49.83-.96,1.67-1.41,2.5-7.24,9.39-15.78,17.77-23.26,26.99-8.86,10.92-16.45,23.7-17.22,37.74-.77,14.04,7.08,29.28,20.58,33.23-8.88,7.5-7.91,21.73-2.87,32.22-.33.12-.65.23-.98.35-1.34.49-2.75.98-4.19,1.47-.23.02-.46.07-.68.13-6.73,1.84-13.25,3.55-17.57,6.6-.08-.1-.14-.2-.22-.3l.08.4c-.32.23-.63.47-.92.71-1.65.87-3.23,1.78-4.64,2.79-2.03,1.46-3.19,3.64-4.26,5.74-11.54,22.62-20.1,45.28-26.85,69.35-7.92,28.24-13.84,56.87-18.92,85.6-2.58,14.59-4.94,29.21-7.24,43.83-2.81,17.9-6.77,34.9-3.87,53.02-.68,8.06-1.05,21.71,9.51,23.36,27.16,4.24,54.5-1.46,80.55-9.16-2.84,9.08-5.82,18.1-8.91,27.1.06,0,.11-.02.17-.02-2.22,6.46-4.47,12.91-6.76,19.34-2.93,8.23-20.01,102.8-4.64,104.25,3.1.29,6.2.56,9.31.85-1.94,24.05-4.45,43.57-8.17,51.61,106.99,3.5,214.07,4.09,321.09,1.78-6.8-16.51-17.34-144.44-22.29-172.76.54.14,1.08.28,1.62.43-2.21-6.26-3.69-12.06-4.73-17.86.16-3.02.05-6.04-.17-9.07,10.71,2.28,21.69,3.65,32.73,3.49,10.64-.16,29-.87,37.24-7.68,1.44-1.19,2.28-2.83,2.91-4.48,1.14-2.98,1.64-6.02,1.65-9.07.15-.78.27-1.56.34-2.34,1.13-12.37-.86-25.9-1.86-38.32Z"/>
    </clipPath>
  </defs>
  <g class="cls-28">
    <g id="Capa_6" data-name="Capa 6">
      <g class="cls-42">
        <g class="cls-36">
          <g>
            <path class="cls-27" d="m135.75-517.33c.42-.12.84-.24,1.26-.37,7.76-2.26,16.62-6.53,24.71-6.85,15.08-.59,31.85,2.67,46.25,6.98,41.17,12.32,82.19,23.1,122.97,36.64,3.71,1.23,7.57,2.55,10.33,5.32,2.8,2.81,4.11,6.74,5.31,10.52,19.04,59.59,36.49,119.89,47.46,181.56,7.66,43.1,10.43,85.79,11.1,129.61.2,13.17,1.42,30.09-4.36,42.36-5.17,10.98-19.8,7.33-29.03,3.48-8.55-3.57-16.89-7.66-24.95-12.25,1.9,24.36,5.21,48.67,8.54,72.88.64,4.64,4.56,52.94,9.52,53.74-26.44-4.23-53.41-.99-80.08,1.36C184.98,16.45,84.08,12.7-14.78-3.5-12.65-3.15,1.02-77.73,2.19-84.61c.49-2.86,4.78-38.13,5.53-38.2-21.67,1.98-43.63.67-64.91-3.89-3.84-.82-7.82-1.83-10.79-4.4-3.54-3.06-5.06-7.83-6.04-12.41-3.45-16.15-2.14-32.9-.44-49.32,4.57-44.05,13.25-87.11,20.98-130.69,7.85-44.28,17.65-88.39,33.27-130.65,2.63-7.12,5.65-14.5,11.49-19.35,5.05-4.19,11.6-5.98,17.94-7.67,42.43-11.28,84.35-23.91,126.51-36.15Z"/>
            <path class="cls-8" d="m348.97-91.47c2.68,16.86,5.31,33.72,7.97,50.57,2.58,16.36,5.14,32.72,7.69,49.08-12.17-8.52-31.51-3.33-45.35-2.7-17.14.78-34.29,1.29-51.44,1.64-34.32.7-68.64.71-102.96.73-47.32.02-94.75.04-141.79-5.07,9.15,0,16.79-23.52,18.27-29.96,3.2-13.85,1.56-23.7-1.59-37.47-.27-1.16-.53-2.39-.21-3.54.34-1.22,1.29-2.16,2.2-3.04,3.3-3.19,6.59-6.38,9.89-9.57-16.93,4.36-34.11,7.79-51.42,10.27,2.58-17.85,5.17-35.7,7.75-53.55.13-.88.28-1.82.87-2.49.67-.76,1.73-1,2.72-1.2,39.71-8.08,77.48-23.54,114.98-38.92,15.93-6.53,31.9-13.09,46.94-21.47,1.09,32,3.61,63.84,3.41,96.03-.05,8.36-3.01,98.24-1.17,98.46,25.96,3.01,54.49-.61,80.72-1.04-5.86-6.98-8.58-18.84-11.9-27.19-4.57-11.47-9-23-13.24-34.6-8.23-22.53-15.77-45.32-22.35-68.39-2.18-7.66-4.11-16.28.56-23.02,12.79,5.39,26.24,9.55,40.04,12.41-8.56-13.56-17.87-26.75-27.9-39.5,21.33,3.51,42.66,7.03,63.99,10.54-32.71-21.22-68.99-37.71-105.1-54.1-3.48-1.58-7.26-3.2-11.12-2.69-3.31.44-6.06,2.37-8.68,4.2-29.71,20.78-63.35,37.19-99.11,48.37-12.66,3.95-25.89,7.29-39.3,6.62-2.22-9.37-.6-18.53.07-28.07.21-3.05.5-5.71,2.76-7.9.44-.43,6.32-3.69,6.48-2.3-.25-2.11-.5-4.23-.74-6.34-19.23-1.84-38.83.14-57.3,5.8-12.1,3.71-24.25,9.39-31.77,19.57,5.62-28.05,15.02-55.28,25.3-81.79,9.21-23.74,29.35-43.63,27.13-70.9-.17-2.09-.47-4.24.26-6.23.73-1.99,2.87-3.77,5.22-3.5,2.32.27,5.08,2.25,6.53.62-6.77-6.89-13.54-13.78-20.32-20.67,7.02-14.63,14.03-29.26,21.05-43.89.59-1.22,1.18-2.47,1.35-3.79.25-1.96-.47-3.91-1.12-5.8-2.28-6.61-3.88-13.4-4.79-20.27-.69-5.23-.69-11.21,3.55-14.92,6.9,2.66,13.34,6.25,19.01,10.62-.29-14.37-2.59-28.72-6.82-42.6,9.59.22,15.51,6.33,19.95,13.16-3.43-6.02-5.72-12.54-6.74-19.21,18.4,13.9,29.42,35.08,29.37,56.43,1.15-15.82,2.3-31.65,3.46-47.47.38-5.19.78-12.35,5.32-16.26,4.79-4.11,14.64-4.71,20.99-6.33,15.44-3.94,30.76-8.31,45.62-13.72,7.1-2.58,14.24-4.82,21.53-5.54,16.74-1.65,34.87.48,50.75,5.23,23.64,7.07,45.52,18.02,68.86,25.25.99.31,2.05.65,2.63,1.41.39.52.5,1.16.59,1.78,4.65,29.99,7.16,60.52,10.92,90.72-1.58-12.74,4.17-29.09,7.73-41.35,3.8-13.07,8.74-26.36,14.47-38.81.14-.29.29-.61.6-.77.4-.21.91-.09,1.35.03,8.44,2.32,16.63,4.4,20.79,9.02,2.7,2.99,3.71,7.04,2.01,12.91-5.48,18.99-13.18,37.53-16.79,56.86,9.22-14.93,18.44-29.86,27.66-44.79-3.63,5.88-3.89,17.61-6.38,24.34-3.92,10.61-7.12,21.44-9.58,32.39.64-2.84,19.7,1.65,22.4,2.15,4.82.91,9.65,1.81,14.47,2.72-2.25,6.95-8.23,11.91-13.66,16.8-4.18,3.77-8.19,7.73-12.01,11.87-9.05,9.8,2.68,14.2,10.5,20.49,8.44,6.79,16.92,13.59,24.59,21.27,3.04,2.5,6.13,5.06,8.32,8.33,2.73,4.09,3.87,9.01,4.84,13.82,2.4,11.88,4.1,23.89,5.1,35.97-2.34-1.1-5.19-1.03-7.48.18,2.6,4.5,4.45,9.73,3.6,14.86-.85,5.13-5.09,9.93-10.29,10.04,2.05,2.24,4.07,5.93,1.78,7.93-.86.75-2.06.92-3.19,1.05-4.2.51-8.39,1.02-12.59,1.53,16.11,15.77,29.15,37.68,25.18,59.87-10.63-27.13-36.4-47.74-65.21-52.16-4.39-.67-10.05-.57-12.91,3.39-1.17,1.63-2.12,14.6-4.11,14.53,5.87.21,4.9,5.42,8.22,8.02,3.82,3,9.57,1.66,12.72,6.16,1.26,1.81,1.65,4.06,2.01,6.24,2.56,15.72,5.04,31.45,7.64,47.16,1.96,11.81,3.86,23.63,5.74,35.45Z"/>
            <g class="cls-10">
              <path class="cls-38" d="m171.35,14.02c-1.39-28.63.81-57.29.56-85.91.18-82.76-.23-174.52-1.16-257.75,4.21,85.85,4.87,171.84,3.44,257.77-.28,28.67-2.98,57.22-2.84,85.89h0Z"/>
            </g>
          </g>
        </g>
      </g>
      <g class="cls-26">
        <g class="cls-44">
          <g>
            <path class="cls-29" d="m2.27,475.62c1.31-5.09,169.39-.51,186-.93,31.52-.79,63.03-1.9,94.53-3.34,15.75-.72,31.49-1.51,47.23-2.39,8.03-.45,25.82-4.74,33.12.46-12.92-27.16-14.79-62.56-23.22-91.58-105.87,19.72-215.85,17.06-320.64-7.77-.59-.14-14.5,95.81-17.02,105.55Z"/>
            <path class="cls-14" d="m363.09,465.92c-3.92-7.71-6.24-16.14-8.54-24.48-5.45-19.81-10.9-39.62-16.36-59.44-2.03-7.34-22.55,0-28.85.91-12.48,1.81-25,3.31-37.56,4.5-25.11,2.39-50.33,3.55-75.55,3.49-50.44-.12-100.87-5.13-150.34-15.01-2.24-.45-26.68-5.44-26.61-5.8-3.09,16.57-9.03,33.81-9.8,50.65-.39,8.61,0,16.15-1.69,24.91-.55,2.83-5.16,29.45-7.07,29.51,12.66-.43,25.06-2.58,37.69-1.75,14.05.93,28.13,1.47,42.21,1.79,27.64.62,55.29.32,82.94.12,52.58-.38,105.16-2.15,157.65-5.32,14.17-.86,28.34-1.81,42.5-2.87-.21-.39-.42-.79-.62-1.19Z"/>
            <g>
              <g>
                <g>
                  <path class="cls-34" d="m446.97,250.75c2.03,13.46,2.54,26.97-.02,40.35-3.37,17.65-35.45,4.69-46.49-.07-32.18-13.86-35.98-45.52-45.12-73.12-10.82-32.71-21.64-65.42-32.47-98.13-5.18-15.65-21.08-41.51-9.16-56.77,13.46-17.24,66.7-31.51,76.73-6.18,19.94,50.37,33.79,102.46,47.61,154.43,3.46,13.01,6.93,26.23,8.92,39.5Z"/>
                  <path class="cls-13" d="m438.14,253.62c.78,3.53,1.14,7.13,1.04,10.75-.15,5.07-1.3,10.31-4.7,14.39-4.04,4.85-8.59,5.03-14.64,5.54-5.83.49-10.98,1.89-16.98,1.33-11.55-1.09-21.81-6.72-27.8-15.61-10.68-15.85-13.94-34.63-19.73-52.11-10.82-32.71-21.64-65.42-32.47-98.13-5.18-15.65-21.08-41.51-9.16-56.77,13.46-17.24,66.7-31.51,76.73-6.18,8.55,21.6,15.99,43.54,22.78,65.63,1.68,5.46,3.32,10.93,4.93,16.41.8,2.74,1.67,5.47,2.39,8.23.92,3.57.01,4.06-2.92,6.62-8.8,7.67-18.86,14.07-28.87,20.42-8.35,5.3-16.69,10.59-25.03,15.89,21.59,8.22,44.72,19.96,59.68,36.4,7.18,7.89,12.58,17.29,14.76,27.21Z"/>
                </g>
                <g>
                  <path class="cls-34" d="m-73.5,263.51c-.58,5.55-1,11.54,2.35,16.32,14.52,20.76,56.34,7.07,70.39-5.97,15.8-14.66,22.53-34.95,27.67-54.62,10.11-38.68,16.4-78.12,22.44-117.44-.1.62-33.34-16.74-35.6-18.07-6.05-3.57-12.08-7.16-18.12-10.75-7.11-4.23-14.32-11.9-21.88-14.78-18.05,42.32-27.84,90.25-36.6,134.75-4.6,23.38-8.16,46.92-10.64,70.56Z"/>
                  <path class="cls-13" d="m-63.22,261.35c.16,3.57.96,7.13,2.91,10.27,4.21,6.78,13.19,10.52,21.97,11.2,19.91,1.56,34.28-5.27,45.12-19.08,10.83-13.8,15.99-30.34,20.21-46.49,10.11-38.68,16.4-78.12,22.44-117.44-.1.62-33.34-16.74-35.6-18.07-6.05-3.57-12.08-7.16-18.12-10.75-7.11-4.23-14.32-11.9-21.88-14.78-9.32,21.84-16.19,44.45-21.95,67.22-1.43,5.65-3.11,11.36-4.11,17.08-.93,5.31,1.03,7.84,4.62,12.4,6.73,8.54,15.49,15.78,25.1,21.82,12.86,8.08,27.24,14.09,41.77,19.57-11.86,4.23-23.55,8.8-35.07,13.69-12.23,5.19-24.54,10.95-33.49,19.86-8.29,8.25-13.26,18.99-13.88,29.99-.07,1.17-.08,2.35-.03,3.53Z"/>
                </g>
              </g>
              <g>
                <path class="cls-24" d="m413.72,113.77c10.38-7.11,20.21-13.87,20.27-13.7-13.66-32.64-27.33-65.28-40.99-97.91-6.59-15.75-13.2-31.53-20.88-46.79-5.7-11.33-14.02-33.25-25.42-39.83-11.34-6.55-31.58-7.43-44.44-10.23-17.97-3.92-36.06-7.33-54.29-9.88-40.58-5.68-77.8-10.51-117.82-.3-26.27,6.7-52.32,14.3-78.07,22.78-19.75,6.5-38.43,8.38-47.2,29.58C-7.64-22.25-19.55,8.38-32.72,38.38c-3.34,7.59-39.13,77.53-37.25,79.07,31.16,25.57,73.41,31.76,113.38,36.99,3.11,35.03-2.6,69.23-8.4,103.7-10.22,60.83-24.73,119.58-45.76,177.59,72.42,18.12,147.55,25.16,222.1,21.38,57.59-2.93,116.92-13.08,164.67-45.4-.84.57-36.54-49.98-39.34-55.44-8.99-17.51-11.56-35.11-13.78-54.53-5.56-48.66,2.02-98.32,5.14-146.88,21.24-6.8,42.38-14.47,62.01-25.16,1.99-1.08,13.11-8.69,23.67-15.93Z"/>
                <path class="cls-22" d="m258.02-61.42c7.44-10.82,14.12-21.92,22.75-31.76-18.02-6.07-35.16-11.93-54.04-14.6-21.17-3-42.64-4.27-63.99-2.62-15.21,1.17-28.88,5.9-43.32,10.3-4.56,1.39-36.99,14.39-37.85,13.45,15.87,17.51,29.47,38.48,42.73,58.02,18.14,26.72,35.29,54.11,51.41,82.1C195.22,26.61,214.74-.27,234.25-27.14c8.19-11.28,15.98-22.78,23.78-34.28Z"/>
                <path class="cls-7" d="m392.52,118.53c-11.41,4.2-23.15,7.53-35.07,9.94,2.18-27.14,4.37-54.28,6.55-81.42,1.23-15.28.97-63.16-7.08-65.47-6.27-1.79-16.7-1.97-23.13-2.1,3.09-12.65,5.64-25.44,7.62-38.32-10.38,6.8-18.5,16.97-22.84,28.59,2.38-13.9,4.77-27.8,7.15-41.7-4.38,3.19-7.04,6.65-9.75,11.13-2.57,4.25-7.1,9.84-7.71,14.92,1.99-16.55,10.28-32.27,22.8-43.28-6.43-1.28-12.85-2.55-19.28-3.83-3.26-.65-6.51-1.29-9.77-1.94-14.79-2.93-29.63-5.73-44.53-7.88-15-2.17-29.82-5.46-44.88-7.23-32.69-3.83-68.73-2.36-99.38,11.08-11.22,4.92-10.7,18.1-11.58,28.76-1.24,15.03-3.52,29.71-3.68,44.86-.15,15.01.76,30.03,2.74,44.92.55,4.11,9.6,41.11,8.5,41.9-9.05,6.48-15.87,16.02-19.05,26.69-11.86-40.04-17.01-83.08-31.32-122.17-1.98-5.4-4.3-10.7-7.24-15.66-1.6-2.7-9.03-9.62-9.24-12.2,1.9,23.86,3.28,47.76,4.14,71.69-4.38-14.7-13.9-27.82-26.52-36.54,14.13,32.75,20.94,68.1,24,103.5,1.5,17.42.57,35.66,2.61,52.84,1.89,15.93,9.38,32.92,15.97,47.39,14.11,30.97,34.61,59.05,60.04,81.7-19.79-3.33-39.99-4.24-60-2.7,36.61,34.23,88.27,50.17,138.34,47.97-37.51,7.99-75.02,15.97-112.53,23.96,11.76,14.05,30.22,20.53,48.15,24.3,36.53,7.67,74.86,6.6,110.9-3.11-48.4,15.75-98.89,25.04-149.73,27.56-17.8.88-36.18,1.05-52.5,8.21,3.61,5.44,10.02,8.21,16.13,10.49,55.23,20.55,116.84,23.56,173.82,8.49-11.69,5.3-22.46,12.62-31.7,21.53,12.34,8.19,28.56,6.63,43.11,3.86,32.36-6.16,65.3-17.68,87.58-41.95-2.95,3.18-3.96,14.14-6.26,18.6-3.04,5.89-6.96,11.3-11.3,16.29-9.63,11.07-21.41,18.1-33.15,26.55,17.45-.55,33.99-7.48,50.06-14.3,15.9-6.74,29.47-13.21,42.99-23.58-7.33-10.3-16.44-19.4-23.54-30.05-5.36-8.05-11.41-16.1-15.85-24.72-8.99-17.51-11.56-35.11-13.78-54.53-5.49-48.1,3.56-96.42,3.64-144.6,16.65-6.57,32.59-14.95,47.46-24.92,5.5-3.69,15.11-7.36,18.04-13.52Z"/>
                <path class="cls-5" d="m328.16,11.6c-1.63-1.62-3.56-2.96-5.46-4.28-3.37-2.34-6.74-4.67-10.11-7.01-1.1-.76-2.26-1.6-2.7-2.87-.39-1.14-.11-2.39.15-3.56,3.54-15.53,3.3-31.44,6.15-47.1.08-.45.13-1-.24-1.28-.19-.14-.43-.16-.66-.18-3.93-.28-7.7-1.23-11.68-1.55-2.84-.22-5.69-.34-8.53-.64-1.6-.17-17.52-1.05-17.66-1.96-2.09-13.33-3.7-27.29-11.88-38.41-1.2-1.63-2.53-3.24-4.34-4.14-1.27-.64-2.7-.88-4.11-1.11-14.62-2.44-28.96-5.67-43.77-7.08-.6-.06-1.24-.1-1.76.2-.5.29-.77.83-1.03,1.35-2.88,5.78-6.95,12.28-12.46,15.92-4.94,3.27-11.63,4.3-17.18,6.74-3.24,1.42-35.4,17.61-36.95,14.33,9.44,20.03.39,48.16-2.48,68.96-3.44,24.94-6.88,49.88-10.32,74.83-8.34-1.44-18.53.45-26.51-2.74-2.34-.94-16.43-12.09-12.18-15.63-15.12,12.56-19.71,36.14-10.42,53.46,9.3,17.32,31.49,26.52,50.31,20.86-.75,6.11-3.04,12.8,3.34,16.7,1,.61,2.16,1.12,2.75,2.13.46.78.48,1.73.49,2.64.11,12.32-14.27,136.63-14.38,136.61,66.39,12.18,133.17,22.24,200.2,30.16-.59,0-1.32-13.86-1.42-14.69-3.72-32.57-.75-65.35,1.55-97.9,1.03-14.55.32-29.61,4.57-43.43,4.45-14.5,2.63-31.31,2.13-46.21-.93-27.48-.49-55,1.32-82.44.42-6.34.76-13.24-2.87-18.45-.57-.81-1.21-1.56-1.91-2.25Z"/>
                <g>
                  <g class="cls-4">
                    <path class="cls-29" d="m39.39-62.35c12.92,26.34,13.84,56.56,13.01,85.35-1,27.83-2.53,58.98-4.11,86.77-1.1,19.28-2.35,38.54-3.86,57.79.06-9.66.33-19.31.5-28.96.88-37.34,2.61-78.26,4.4-115.71,1.2-28.67,1.11-58.27-9.93-85.24h0Z"/>
                  </g>
                  <g class="cls-4">
                    <path class="cls-29" d="m14.81-31.06c18.62,15.55,30.99,40.82,31.79,65.08-1.49-5.99-3.15-11.86-5.15-17.6C35.47-.83,26.22-16.8,14.81-31.06h0Z"/>
                  </g>
                  <g class="cls-4">
                    <path class="cls-29" d="m324.83-68.4c-6.73,7.3-8.45,17.43-9.97,26.91-1.54,9.62-2.5,19.31-3.12,29.03-2.21,38.91-.34,78.02,4.97,116.62,2.67,19.31,5.95,38.79,5.46,58.37-.45-9.77-1.57-19.46-3.13-29.09-8.99-48.09-14.21-97.16-9.83-146.08.84-9.77,2.16-19.51,4.09-29.12,2-9.42,4.23-19.78,11.53-26.63h0Z"/>
                  </g>
                  <g class="cls-4">
                    <path class="cls-29" d="m339.57-57.53c-5.86,8.09-10.62,16.79-14.27,26.01-2.94,7.38-5.45,15.9-7.49,23.57-2.12,8.06-4.02,16.13-6.45,24.16,2.65-26.23,8.16-54.97,28.2-73.74h0Z"/>
                  </g>
                  <g class="cls-4">
                    <path class="cls-29" d="m68.21-83.38c16.39,16.14,30.99,34.57,43.98,53.55,12.82,19.11,24.5,39.47,33.74,60.53-11.57-19.81-23.55-39.72-36.45-58.7-12.83-19.02-26.87-37.53-41.27-55.39h0Z"/>
                  </g>
                  <g class="cls-4">
                    <path class="cls-29" d="m48.03,400.75c76.82,9.19,159.23.16,225.9-41.42,9.47-5.9,18.43-12.61,26.93-19.89-8.01,7.83-16.82,14.83-26.05,21.23-65.77,43.97-150.05,53.49-226.78,40.08h0Z"/>
                  </g>
                  <g class="cls-4">
                    <path class="cls-29" d="m321.29,293.14c-32.97,32.54-77.84,53.07-123.82,58-5.68.49-14.15,1-19.81.96,3.28-.4,6.56-.76,9.83-1.09,4.9-.66,14.62-2.28,19.46-3.24,8.99-1.86,19.8-4.69,28.53-7.5,0,0,9.3-3.19,9.3-3.19,4.59-1.71,13.71-5.45,18.18-7.46,11.41-5.25,23.92-12.12,34.44-18.97,4.09-2.69,12.22-8.41,16.13-11.37,2.56-2.07,5.15-4.11,7.76-6.13h0Z"/>
                  </g>
                  <g class="cls-4">
                    <path class="cls-29" d="m61.08,148.39c32.02,59.06,81.79,107.8,140.79,139.75,19.66,10.57,40.55,19.27,62.66,23.11-3.98-.49-8.52-1.13-12.47-1.98-4.11-.84-8.26-1.87-12.28-3.06-24.33-7.15-47.07-19.05-68.26-32.85-47.06-30.83-86.27-74.03-110.43-124.97h0Z"/>
                  </g>
                  <g class="cls-4">
                    <path class="cls-29" d="m71.86,258.11c11.74,5.63,28.3,13.63,40.07,18.75,11.63,5.21,28.89,12.13,40.85,16.98-14.47-3.06-28.61-8.11-42.17-13.99-13.51-6.06-26.71-13.09-38.75-21.73h0Z"/>
                  </g>
                  <g class="cls-4">
                    <path class="cls-29" d="m68.33,102.88c6.03,9.78,14.5,23.62,20.86,32.98,6.19,9.38,15.89,22.62,22.58,31.83-18.42-17.13-34.57-41.26-43.44-64.8h0Z"/>
                  </g>
                </g>
              </g>
            </g>
            <g>
              <path class="cls-23" d="m107.12-83.84c12.7,13.64,24.47,25.97,35.45,41.32,12.48,17.45,24.38,35.31,35.66,53.56,20.5-26.67,40.93-53.39,61.85-79.7,2.08-2.62,15.92-22.31,19.1-21.37-10.29-3.03-20.34-6.85-30.04-11.41-2.66-1.25-5.37-2.62-7.25-4.89-9.09-11-5.95-31.55-6.5-44.63,10.81-6.14,22.16-12.82,28.09-23.75,2.89-5.33,4.28-11.34,5.32-17.31,1.27-7.3,2.07-14.68,2.39-22.08-.1,2.39,5.33,3.95,7.01,3.4,2.04-.67,3.58-2.34,4.92-4.02,11.44-14.26,16.21-33.03,16.08-51.31-.03-4.4-.36-8.9-2.11-12.93-1.76-4.03-5.19-7.56-9.52-8.39-4.32-.83-9.32,1.74-10.3,6.03,1.98-8.71.91-18.66-.33-27.45-1.37-9.68-3.66-19.25-7.3-28.33-7.27-18.15-17.68-33.95-37.84-38.26-10.42-2.23-21.22-1.62-31.82-.59-17.95,1.74-35.95,4.7-52.67,11.45-17.62,7.12-35.92,21.08-39.73,40.65-1.72,8.85-1.31,18.54-1.22,27.58.09,9.68,1.33,20.67,3.71,30.06-1.5-3.28-3.76-6.21-6.55-8.49-3.99-3.26-11.31,0-14.81,2.99-4.83,4.13-7.05,10.72-7.11,17.08-.14,15.97,7.97,35.01,18.24,47.14,2,2.36,19.02,12.89,16.11,2.71,3.47,12.75,5.98,26.98,14,37.83,3.53,4.78,8.13,8.66,13.19,11.73,5.22,3.16,10.85,6.81,16.55,8.98.52,11.45-.23,22.85-.25,34.28-.02,9.38-2.24,13.3-10.52,17.01-7.64,3.43-15.41,6.53-23.18,9.64.45.49.9.98,1.37,1.48Z"/>
              <path class="cls-3" d="m248.35-87.71c1.4.9-35.3,40.19-39.12,43.47-3.77-.54-49.22-5.7-49.31-4.52-.5,6.4-1,12.8-1.5,19.21-13.9-19.37-30.45-37.28-45.63-55.69,1.1-1.39,2.22-2.76,3.24-4.2-3.45.39-7.32,2.79-10.63,4.11.45.49.9.98,1.37,1.48,12.7,13.64,24.47,25.97,35.45,41.32,12.48,17.45,24.38,35.31,35.66,53.56,20.5-26.67,40.93-53.39,61.85-79.7,2.08-2.62,15.92-22.31,19.1-21.37-6.32-1.86-12.53-4.05-18.69-6.36-5.78-2.17-10.85-5.24-16.45-7.82,8.31,5.37,16.33,11.18,24.66,16.5Z"/>
            </g>
            <g>
              <path class="cls-32" d="m216.81-117.45c12.92-1.43,33.06,5.21,44.1,15.05,11.4,10.16,13.36,27.87,14.92,42.34,5.19,48.08.96,96.07-3.66,144.22"/>
              <g>
                <path class="cls-32" d="m139.45-111.97c-17.68-.06-34.99,11.05-44.11,26.44-9.12,15.39-11.85,33.7-12.88,51.56-2.18,37.91,2.52,76.2,13.83,112.45"/>
                <g>
                  <circle class="cls-22" cx="96.35" cy="87" r="32.01"/>
                  <circle class="cls-47" cx="96.35" cy="87" r="21.19"/>
                </g>
              </g>
            </g>
            <g>
              <g>
                <polygon class="cls-22" points="170.51 -34.01 139.97 280.5 340.42 313.85 367.42 -7.02 170.51 -34.01"/>
                <path class="cls-1" d="m340.42,313.85c1.13-13.48,2.27-26.96,3.4-40.44,3.83-45.58,7.67-91.16,11.5-136.74,0-9.58,1.61-19.31,3.52-28.64-27.22,28.21-54.58,56.3-82.07,84.25-3.31-5.93-7.2-11.53-11.6-16.7,22.56-23.96,45.44-47.65,67.33-72.23,8.82-9.91,18.02-19.75,25.82-30.51,6.43-8.86,4.54-25.7,5.45-36.55.59-7.05,1.73-14.07,2.39-21.18-7.6,11.93-17.17,22.46-26.79,32.83-33.25,35.85-67.62,70.65-102.2,105.22,16.39-27.14,34.27-53.36,53.52-78.55,19.47-25.46,35.43-54.07,52.56-81.2,3.62-5.73-18.03-6.21-21.82-6.73-9.57-1.31-19.15-2.63-28.72-3.94-18.56-2.54-38.74-7.88-57.45-7.88-6.27-.86-19.42-5.28-25.1-1.84-1.03,11.33-2.42,22.62-4.17,33.86,6.06,1.32,12.23,2.13,18.42,2.42-2.44,24.29-4.89,48.58-7.33,72.88-14.71-4.64-28.97-10.72-42.5-18.12-1.13-.62-2.35-1.26-3.63-1.13-2.25.23-3.53,2.66-4.17,4.83-1.95,6.58-1.68,13.8.74,20.22-3.52-2.18-6.43-5.35-8.3-9.04-.23,6.13-.86,12.08-1.45,18.18-1.52,15.67-3.04,31.33-4.56,47-.75,7.68-2.47,15.91-2.29,23.62.17,7.63,7.38,14.35,12.43,19.98,8.76,9.79,20.47,18.9,33.56,17.79,5.11-.43,10.34-2.41,15.2-.8,1.83.6,3.46,1.68,5.04,2.78,32.43,22.52,55.32,56.03,85.16,81.81-9.4,7.52-21.42,11.71-33.46,11.64,4.87,2.23,71.65,11.97,71.57,12.92Z"/>
                <polygon class="cls-45" points="218.09 -34.01 215.56 -1.42 329.76 13.55 334.28 -18.75 218.09 -34.01"/>
              </g>
              <g>
                <path class="cls-23" d="m184.43,231.59c7.08,3.92,10.39,6.27,18.78,6.28,7.66,0,15.29-.95,22.88-1.89,18.7-2.32,37.45-4.65,55.76-9.23,2.77-.69,6.3-3.12,4.86-5.63-.8-1.39-2.65-1.56-4.22-1.57-13.11-.13-26.22-.26-39.34-.38,15.64-2.85,31.28-5.71,46.92-8.56,2.21-.4,4.6-.91,6.07-2.65,1.47-1.75,1.15-5.13-1.03-5.65,1.58-.34,3.23-.71,4.47-1.78,1.24-1.07,1.89-3.06.98-4.42-2.17-3.23-12.33-4.68-15.79-5.23-15.48-2.49-32.51-4.86-48.13-2.76-.04-1.08-.38-2.14-.97-3.02,16.36-2.89,32.94-2.98,49.42-1.66,2.47.2,5.82-.2,6.21-2.72.36-2.34-2.31-3.81-4.5-4.52-14.09-4.54-28.6-8.45-43.39-8.31-11.03.11-22.18,2.46-33.02.44,3.2-2.91,7.51-4.05,11.67-5,4.81-1.1,9.47-1.55,13.08-5.42,1.54-1.65,2.74-3.66,3.45-5.83.17-.52.9-6.33.6-6.22-6.63,2.38-13.53,3.97-20.51,4.71-2.68.29-5.57.4-7.87-1.03-6.8,3.49-13.61,6.97-20.41,10.46-1.79.92-3.61,1.85-5.15,3.17-1.53,1.31-2.75,2.96-3.91,4.62-5.01,7.16-9.34,15.17-15.77,21.14-5.38,5-14.23,5.76-21.15,6.36-34.64,3-69.29,6-103.93,9.01-32.68,2.83-67.42,6.43-93.27,29.56-6.85,6.13-12.62,13.67-16.35,22.2-2.82,6.43-6.32,17.45-3.88,24.28.46,1.29,1.13,2.48,1.86,3.63,6.15,9.73,15.57,15.63,26.8,16.06,20.61.8,41.04-4.14,60.95-9.85,46.89-13.46,92.59-31.43,136.31-53.6,9.95-5.04,21.81-10.33,31.51-4.96Z"/>
                <path class="cls-2" d="m248.19,168.3c-6.3-.11-12.6.43-18.87.46-3.24.02-6.48.38-9.73.35-1.6-.01-3.2-.08-4.79-.22-.61-.05-4.04-.91-4.39-.59,3.2-2.91,7.51-4.05,11.67-5,4.81-1.1,9.47-1.55,13.08-5.42,2.09-2.24,4.78-6.43,3.98-9.7-4.83,6.22-12.7,7.43-19.8,9.06-3.5.8-7.12,1.59-10.33,3.3-2.63,1.4-10.84,8.21-3.46,8.35,8.88.18,17.65.61,26.54.1,4.95-.29,9.9-.74,14.86-.65,8.01.15,16.11,1.49,23.91,3.3,2.88.67,5.73,1.46,8.52,2.44,1.62.57,5.42,1.32,6.45,2.82.76,1.11-.34,1.39-1.5,1.28-7.6-.71-15.24-.99-22.87-.84-3.82.08-7.63.26-11.44.56-3.4.26-6.71.03-10.13.42-2.45.27-4.91.69-7.18,1.69-2.27,1-4.34,2.66-5.47,4.92-1.69,3.38,3.18,3.89,5.25,3.67,17.53-1.86,35.31-.97,52.53,2.64,2.63.55,6.18,1.05,7.62,3.6-20.36,1.21-41.14-1.81-60.97,3.25-1.44.37-3.26,1.56-2.61,2.93.24.51.78.8,1.29,1.02,3.57,1.53,7.51,1.07,11.3.87,16.43-.84,32.88-.95,49.31-.31,2.12.08,4.29,1.94,1.85,3.41-1.34.81-5.07.88-6.7,1.26-5.54,1.31-11.2,2.03-16.85,2.6-11.47,1.16-23.13,1.67-34.24,5.15-1.32.41-2.95,1.46-2.5,2.8.3.89,1.35,1.19,2.25,1.32,3.18.45,6.23-.13,9.36.08,3.87.26,7.72.47,11.6.51,7.95.08,15.91-.26,23.87-.01.4.01.84.04,1.15.3.49.41.44,1.25.05,1.78-.39.52-1.01.8-1.61,1.03-2.85,1.09-5.88,1.59-8.88,2.03-21.83,3.19-44.01,8-65.95,4.75-8.08-1.2-15.91-4.04-22.95-8.26-6.64-3.98-10.42-11.28-18.09-7.72-13.62,6.33-27.23,12.66-40.85,18.99-11.63,5.41-23.11,8.12-35.05,12.55-13.44,4.99-26.95,9.8-40.62,14.08-6.82,2.13-13.68,4.14-20.58,5.97-5.71,1.52-15.02,5.71-20.85,4.94-14.69,3.04-29.72,5.12-44.6,3.66-6.45-.63-13.04-2.02-18.39-5.75-5.35-3.74-9.23-10.26-8.42-16.89-4.63,8.06-10.36,19.51-6.94,29.11.46,1.29,1.13,2.48,1.86,3.63,6.15,9.73,15.57,15.63,26.8,16.06,20.61.8,41.04-4.14,60.95-9.85,46.89-13.46,92.59-31.43,136.31-53.6,9.95-5.04,21.81-10.33,31.51-4.96,7.08,3.92,10.39,6.27,18.78,6.28,7.66,0,15.29-.95,22.88-1.89,18.7-2.32,37.45-4.65,55.76-9.23,2.77-.69,6.3-3.12,4.86-5.63-.8-1.39-2.65-1.56-4.22-1.57-13.11-.13-26.22-.26-39.34-.38,15.64-2.85,31.28-5.71,46.92-8.56,2.21-.4,4.6-.91,6.07-2.65,1.47-1.75,1.15-5.13-1.03-5.65,1.58-.34,3.23-.71,4.47-1.78,1.24-1.07,1.89-3.06.98-4.42-2.17-3.23-12.33-4.68-15.79-5.23-15.48-2.49-32.51-4.86-48.13-2.76-.04-1.08-.38-2.14-.97-3.02,16.36-2.89,32.94-2.98,49.42-1.66,2.47.2,5.82-.2,6.21-2.72.36-2.34-2.31-3.81-4.5-4.52-14.09-4.54-28.6-8.45-43.39-8.31-4.64.04-9.31.49-13.96.83"/>
              </g>
              <g>
                <path class="cls-23" d="m370.37,201.71c16.53,8.7,33.88,16.4,47.85,29.14,18.65,17,29.9,42.64,30.1,68.55.02,2.26-.08,4.64-1.24,6.54-1.28,2.09-3.59,3.17-5.82,3.99-26.82,9.9-56.52-2.03-80.78-17.73-55.47-35.88-92-91.07-137.84-138-.88-.9-1.83-1.83-3.04-2.05-1.25-.23-2.49.37-3.65.91-5.41,2.52-11.47,4.13-17.25,2.78-5.16-1.2-9.56-4.61-14-7.63-7.58-5.15-15.74-9.36-24.25-12.51-4.02-1.49-8.41-2.96-10.9-6.6-2.49-3.64-1.35-10.14,2.86-10.76-6.73-4.47-6.88-16.5-.27-21.12-3.82-1.17-6.79-4.95-7.15-9.11-.36-4.16,1.9-8.44,5.46-10.29-5.86-3.81-5.6-14.52.44-17.97,3.47-1.99,7.69-1.61,11.63-1.19,4.32.47,8.64.94,12.96,1.41-4.88-3.87-8.01-7.75-7.74-14.59,8.13,2.55,16.72,3.48,25.17,2.73,2.75-.25,5.56-.66,8.25.04,2.25.59,4.25,1.94,6.2,3.26,3.57,2.42,7.14,4.84,10.71,7.26,4.58,3.11,9.3,6.36,12.28,11.16,3.65,5.89,6.15,13.51,9.15,19.87,4.1,8.7,8.21,17.41,12.31,26.12,1.47,3.11,2.95,6.25,4.99,8.99,2.15,2.89,4.85,5.26,7.56,7.58,32.69,27.94,68.58,49.51,106.03,69.21Z"/>
                <path class="cls-2" d="m188.39,143.54c13.27,5.36,29.97.49,42.11-5.84,7.4,8.72,15.48,16.77,23.62,24.73,33.66,32.89,68.58,64.34,104.67,94.25,11.72,9.72,23.66,19.33,36.96,26.45,10.56,5.65,22.1,9.73,33.97,10.6,12.31.9,15.29-8.09,13.77-20.01,4.81,6.34,4.78,18.01,4.84,25.68.02,2.26-.08,4.64-1.24,6.54-1.28,2.09-3.59,3.17-5.82,3.99-26.82,9.9-56.52-2.03-80.78-17.73-55.47-35.88-92-91.07-137.84-138-.88-.9-1.83-1.83-3.04-2.05-1.25-.23-2.49.37-3.65.91-5.41,2.52-11.47,4.13-17.25,2.78-5.16-1.2-9.56-4.61-14-7.63-7.58-5.15-15.74-9.36-24.25-12.51-5.6-2.07-12.45-4.57-12.42-12.09-.01,3.67,10.2,6.98,12.72,7.65,4.42,1.18,8.69,1.59,12.8,3.77,4.03,2.14,7.75,4.85,11.75,7.03,1.04.56,2.07,1.05,3.1,1.47Z"/>
                <g>
                  <g class="cls-19">
                    <path class="cls-23" d="m168.08,59.59c6.25-.09,12.27,1.01,18.4.98,7.47-.31,15.19.01,22.37,2.37,6.45,1.7,9.99,7.62,15.09,11.3-2.36-.83-4.51-2.27-6.52-3.7-2.01-1.46-3.97-2.86-6.07-3.78-2.13-.93-4.52-1.37-6.81-1.81-5.34-1.05-10.8-1.32-16.25-1.45-6.93-.11-13.62-2.19-20.22-3.91h0Z"/>
                  </g>
                  <g class="cls-19">
                    <path class="cls-23" d="m147.66,80.27c2.73-4.5,9.12-3.33,13.51-3.24,2.37.1,4.72.33,7.08.51,11.78,1.14,23.52,2.81,34.93,6.09-4.77,0-9.49-.31-14.19-.7-6.51-.5-14.58-1.46-21.08-2.33-3.5-.5-7.01-1.01-10.49-1.62-3.3-.54-7.04-1.28-9.75,1.28h0Z"/>
                  </g>
                  <g class="cls-19">
                    <path class="cls-23" d="m149.71,99.55c.72-4.26,6.29-3.95,9.54-4.13,3.61-.12,7.24.06,10.83.53,7.16.96,14.25,2.9,20.65,6.32-3.61-.44-7.11-1.03-10.61-1.58-7-1.08-13.93-1.99-20.97-2.73-3.11-.12-7.51-1.74-9.45,1.6h0Z"/>
                  </g>
                  <g class="cls-19">
                    <path class="cls-23" d="m149.91,120.1c-.23-.56.05-1.26.51-1.65,1.33-1.19,3.2-1.08,4.87-1.23,6.25-.32,13.18.83,17.86,5.35-4.15-.66-7.91-1.37-12.01-1.88-2.47-.34-5.04-.68-7.53-1.22-1.2-.24-3.08-.89-3.69.63h0Z"/>
                  </g>
                </g>
              </g>
            </g>
          </g>
        </g>
      </g>
      <g class="cls-37">
        <g class="cls-46">
          <g>
            <g>
              <path class="cls-41" d="m292.09,837.67c-13.08,3.23-26.37,5.56-39.73,7.25-30.34,3.85-60.98,4.38-91.52,4.49-57.01.21-115.52-1.18-168.43-22.53-1.07-.43,17.24-132.57,18.5-145.4,2.45-24.9,4.7-49.81,6.74-74.75.49-5.94,6.94-57.9,2.46-58.17-28.23-1.74-56.02-10.21-80.46-24.54,1.6.94,34.12-90.75,36.76-99.04,8.34-26.25,15.4-58.84,40.34-74.72,6.32-4.02,13.43-6.59,20.49-9.09,38.26-13.55,76.72-22.17,116.29-30.99,25.58-5.7,51.29.79,75.88,7.71,29.93,8.42,64.4,14.43,90.69,31.85,24.46,16.21,32.21,46.08,41.27,72.39,11.51,33.42,22.06,67.17,31.64,101.19-26.43,24.09-56.43,35.95-91.57,39.9-.65,20.31-.59,40.46-.59,60.71.14,23.85.96,47.72,3.53,71.44,1.26,11.65,18.71,131.34,27.2,130.38-11.66,1.32-23.05,7.56-34.52,10.61-1.65.44-3.3.86-4.96,1.27Z"/>
              <path class="cls-15" d="m280.27,399.25c-20,22.99-43.26,46.54-59.87,72.12-8.4,12.94-13.37,28.79-20.5,42.52-2.47,4.75-20.34,42.98-24.66,42.52,24.94,2.67,50.03,3.9,75.11,3.68-12.44,10.97-23.47,23.55-32.75,37.33,9.45-1.65,18.89-3.3,28.34-4.94-1.24,22.91-2.48,45.81-3.72,68.72-.22,4.1-.47,8.3-2.12,12.05-2.07,4.69-6.11,8.16-10.01,11.46-18.66,15.75-37.32,31.5-55.98,47.25,30.85,1.65,62.04-3.49,90.76-14.96-17.29,30.46-39.93,57.84-66.56,80.48,34.05-.14,68.11-.28,102.16-.43,1.08,5.46,3.13,10.73,6.02,15.47-16.6,6.27-33.58,11.53-50.82,15.74,4.36,3.49,9.5,5.98,14.93,7.24-34.87,14.98-72.47,13.77-109.77,13.91-57.01.21-115.52-1.18-168.43-22.53-1.07-.43,17.24-132.57,18.5-145.4,2.45-24.9,4.7-49.81,6.74-74.75.49-5.94,6.94-57.9,2.46-58.17-28.23-1.74-56.02-10.21-80.46-24.54,11.75-23.82,20.61-48.92,28.81-74.15,7.72-23.75,13.45-49.38,24.55-71.77,6.23-12.56,16.32-23.22,28.64-29.95,5.24-2.86,10.83-5.02,16.44-7.08,37.55-13.73,76.51-22.22,115.43-30.89,25.58-5.7,51.29.79,75.88,7.71,7.73,2.18,15.5,4.21,23.17,6.59,3.8,1.18,7.73,2.04,11.61,3.01,1.68.42,10.22,3.52,11.49,2.58-2.53,1.89-5.06,3.78-7.59,5.67,4.57,4.5,10.44,7.79,16.03,10.93,5.56,3.12,11.53,6.04,17.88,7.08,4.4.72,8.48-.66,12.5-2.3,4.72-1.93,7.77-.67,11.49,2.57-2.48,1.01-2.9,5.84-5.33,6.47,2.2-.57,4.54-.58,6.74-.01-8.95,14.2-13.2,31.03-14.25,47.82-1.05,16.79.97,33.62,3.78,50.2,1.79,10.52,4.95,22.44,14.5,27.08,6.07,2.95,13.21,2.1,19.89,1.18.5,7.69-1.48,15.52-5.57,22.03,4.77-2.29,10.58-2.24,15.3.14-7.28,9.83-15.86,18.68-25.44,26.25,18.51-6.31,36.31-14.73,52.94-25.06-1.04.64,5.7,11.5,3.64,13.56-11.85,11.75-25.89,20.35-41.17,26.93-15.8,6.81-33.86,7.26-49.14,13.64-.85-.6-1.32-1.43-1.4-2.5-6.74-54.17-13.47-108.34-20.21-162.51Z"/>
              <g>
                <g class="cls-20">
                  <path class="cls-40" d="m26.03,349.38c16.42,32.13,14.12,69.68,10.62,104.53-2.87,24.97-5.91,50.38-9.24,75.26-2.98,20.04-9.04,39.46-9.25,59.82-.68-10.11.41-20.28,1.87-30.29,1.5-10.02,3.4-19.95,4.64-29.91,2.34-21.76,5.89-53.62,8.55-75.25,3.68-34.69,6.83-71.26-7.19-104.17h0Z"/>
                </g>
                <g class="cls-20">
                  <path class="cls-40" d="m44.52,342.16c7.04,14.34,6.89,30.94,8.02,46.53,1.75,20.23,1.61,40.79-1.63,60.86,0-13.54,0-26.97-.63-40.46-.29-9.01-1.21-17.93-1.5-26.96-.42-13.45-.27-26.95-4.27-39.98h0Z"/>
                </g>
                <g class="cls-20">
                  <path class="cls-40" d="m323.54,362.37c-18.02,11.95-20.3,35.5-21.95,55.31-2.77,41.31-2.82,82.85-.41,124.2.55,10.39,1.48,20.85.45,31.24-.87,10.35-2.57,20.62-1.7,31.02-2.01-12.88.27-25.93.12-38.86-.73-18.15-3.22-36.14-3.63-54.36-.46-20.79-.62-41.57.22-62.36.48-10.39,1.11-20.79,2.21-31.14,2.09-19.86,5.59-44.28,24.69-55.07h0Z"/>
                </g>
                <g class="cls-20">
                  <path class="cls-40" d="m294.74,515.78c-2.32-24.25-4.74-48.72-5.84-73.06-.9-24.31-.42-49.32,4.8-73.14-2.38,24.17-2.31,48.76-1.27,73,.93,24.33,2.82,48.85,2.31,73.21h0Z"/>
                </g>
                <g class="cls-20">
                  <path class="cls-40" d="m315.7,358.91c-4.42,5.41-8.55,10.7-11.5,16.96-3.03,6.19-4.96,12.89-8.01,19.18.53-14.29,6.18-29.26,19.5-36.15h0Z"/>
                </g>
                <g class="cls-20">
                  <path class="cls-40" d="m266.03,370.08c-6.43,11.54-14.28,22.18-22.64,32.38-8.49,10.09-17.51,19.76-27.67,28.2,6.98-9.03,17.61-21.53,24.95-30.45,7.46-8.89,17.73-21.54,25.36-30.12h0Z"/>
                </g>
              </g>
            </g>
            <g>
              <path class="cls-39" d="m297.21,174.55c-1.07-1.2-2.21-2.35-3.39-3.43,10.36-4.39,16.86-16.42,14.88-27.49-2.2-12.26-12.86-20.92-22.66-28.62-6.71-5.28-13.85-11.1-17.99-18.73-4.68-8.63-5.48-12.73-14.56-18.3-9.12-5.6-19.77-8.3-30.22-10.1-27.97-4.83-57.21-4.13-84.6,3.63-13.39,3.79-25.98,9.83-38.25,16.32-11.19,5.92-18.08,16.65-29.6,22.66-7.55,3.94-15.91,6.39-22.94,11.2-5.52,3.77-10.07,8.94-13.11,14.89-2.84,5.55-4.23,12.62-.76,17.79,2.74,4.08,7.73,5.9,12.39,7.47-6.17,5.22-12.39,10.5-17.22,16.97-4.83,6.47-8.23,14.34-7.91,22.41.31,8.07,4.88,16.23,12.32,19.36,3.01,1.27,6.36,1.7,9.25,3.23.8.43,1.59.96,2.06,1.74,1.3,2.14-.27,4.81-1.63,6.92-4.82,7.46-7.49,16.65-5.71,25.35,1.79,8.7,8.64,16.58,17.4,18.05,9.28,1.55,18.92-3.91,27.98-1.38.86.24,1.72.56,2.36,1.19,2.01,1.97.66,5.27-.15,7.96-2.26,7.44,1.29,16.22,8.08,19.99,4.99,2.77,11.13,2.88,16.65,1.43,5.52-1.44,10.56-4.3,15.44-7.26,1.03,8.79,1.37,14.37,10.29,18.23,7.92,3.42,18.14.1,22.54-7.32,3.36,9.54,15.73,13.39,25.41,10.45,9.68-2.94,17.03-10.77,23.19-18.8,3.79,9.99,17,12.27,27.58,10.76,7.99-1.15,15.8-3.55,23.06-7.1,5.73-2.81,11.31-6.53,14.54-12.03,3.7-6.29,2.12-13.15,1.76-20.19,8.75,2.44,18.88-1.47,23.73-9.15,4.31-6.83,4.26-14.88,2.07-22.33-.65-2.22-6.89-19.43-8.23-19.04,9.78-2.84,16.05-13.39,15.87-23.57-.15-8.58-4.18-16.67-9.94-23.12Z"/>
              <g class="cls-11">
                <path class="cls-43" d="m289.96,171.15c1.5-3.71,2.08-7.88,1.66-11.85-.93-8.73-5.82-16.57-11.52-23.25-5.7-6.68-12.32-12.56-17.74-19.47-7.11-9.07-11.97-19.69-18.49-29.2-15.2-22.14-37.07-23.56-62.18-22.73-12.4.41-31.65.34-42.77,6.5-9.61,5.32-17.67,19.75-25.06,28.14-9.46,10.73-19.25,21.19-29.75,30.92-15,13.89-31.98,27.07-39.77,45.97-2.86,6.94-4.32,14.81-2.05,21.96,2.27,7.15,9.04,13.19,16.54,12.82-7.5,9.95-11.36,22.58-10.71,35.03.23,4.39,1.25,9.17,4.72,11.85,3.33,2.57,7.95,2.47,12.14,2.1,9.68-.86,19.28-2.57,28.66-5.08-1.61,5.74-3.23,11.6-2.91,17.54.31,5.95,2.91,12.11,8.02,15.17,5.1,3.07,12.81,1.85,15.58-3.42-2.52,3.83-4.73,9.16-1.1,13.02,2.61,2.78,6,.92,8.76,2.49,6.64,3.78,5.2,12.43,13.63,16.07,7.92,3.42,18.14.1,22.54-7.32,3.36,9.54,15.73,13.39,25.41,10.45,9.68-2.94,17.03-10.77,23.19-18.79-4.38,5.7,15.71,9.82,18.38,9.46,9.13-1.22,17.29-6.7,22.67-14.08,6.54-8.97,9.27-20.2,10.25-31.26,2.63,3.51,7.75,4.52,11.91,3.14,4.16-1.38,7.43-4.72,9.74-8.45,7.41-12.01,5.23-29.07-4.96-38.83,8.15-1.86,14.82-9.03,16.08-17.3,1.27-8.27-2.95-17.1-10.17-21.32,4.34-2.02,7.48-5.82,9.28-10.28Z"/>
              </g>
              <path class="cls-21" d="m207.76,319.17c.12.3.27.58.44.86,1.16,1.9,3.26,2.99,5.27,3.93,10.29,4.81,21.15,8.36,32.29,10.56-12.54,17.25-25,34.57-38.06,51.42-6.58,8.49-13.29,16.87-20.15,25.14-2.27,2.74-21.77,22.27-20.95,24.46-7.25-18.96-23.63-36.64-35.62-53.01-12.14-16.57-26.29-31.89-35.3-50.52,12.47-3.28,24.68-7.59,36.45-12.88.96-.43,1.97-.91,2.55-1.8.64-.98.62-2.23.58-3.4-.71-20.13-.79-40.11-1.8-60.28.28,5.64,31.72,5.89,35.55,5.89,13.39-.01,26.78-1.82,39.69-5.41-2.12.59-2.01,27.68-2.1,30.78-.26,9.79-.13,19.69.35,29.48.08,1.62.19,3.31.81,4.79Z"/>
              <path class="cls-18" d="m207.76,319.17c.12.3.27.58.44.86,1.16,1.9,3.26,2.99,5.27,3.93,10.29,4.81,21.15,8.36,32.29,10.56-12.54,17.25-25,34.57-38.06,51.42-6.58,8.49-13.29,16.87-20.15,25.14-2.27,2.74-21.77,22.27-20.95,24.46-7.25-18.96-23.63-36.64-35.62-53.01-12.14-16.57-26.29-31.89-35.3-50.52.22.45,11.13-3.22,12.19-3.56,3.64-1.17,6.47-3.23,9.54-.76,6.57,5.3,12.44,11.94,18.37,17.94,12.03,12.18,23.67,24.76,35.16,37.46,10.51-14.33,20.29-29.2,29.29-44.53-14.05-5.94-27.62-13.01-40.54-21.12-9.14-5.74-19.79-12.98-24.15-23.38-2.34-5.56-1.11-13.55-1.28-19.57-.19-6.95-.43-13.91-.78-20.85.28,5.64,31.72,5.89,35.55,5.89,13.39-.01,26.78-1.82,39.69-5.41-2.12.59-2.01,27.68-2.1,30.78-.26,9.79-.13,19.69.35,29.48.08,1.62.19,3.31.81,4.79Z"/>
              <path class="cls-21" d="m105.54,66.96c10.31-7.93,27.18-9.24,39.82-10.7,15.11-1.75,30.45-1.38,45.46,1.08,21.59,3.53,46.45,9.67,56.61,31.43,7.24,15.5,4.85,31.27,7.59,47.47-.73-4.34,8.83-7.43,11.76-6.93,5.12.88,9,6.63,10.55,11.14,1.68,4.86,1.76,10.12,1.65,15.26-.38,16.62-4.49,31.72-14.39,45.4-1.84,2.54-3.97,5.08-6.9,6.21-3.01,1.17-10.55-2.75-9.53-6.91-1.82,7.42-4.07,14.72-6.31,22.03-1.95,6.34-3.96,12.91-7.7,18.47-3.85,5.72-9.01,8.01-14.85,11.32-10.19,5.78-20.52,11.3-30.99,16.55-3.49,1.75-7.05,3.49-10.9,4.14-5.23.88-10.58-.33-15.69-1.77-11.01-3.11-21.62-7.38-31.8-12.58-8.17-4.17-17.61-8.82-23.13-16.36-4.04-5.52-6.55-11.99-8.74-18.48-2.58-7.65-4.76-15.42-6.54-23.29,1.27,5.62-6.62,10.07-11.11,8.8-3.74-1.06-6.5-4.18-8.78-7.33-9.33-12.88-14.35-28.81-14.09-44.71.08-5.18.77-10.53,3.47-14.95,2.69-4.42,7.79-7.7,12.91-6.94,5.61.83,9.55,6.01,11.75,11.24-2.57-6.13-.35-16.97-.74-23.58-.4-6.72.18-13.72,1.16-20.39,2.07-14.09,7.96-26.77,19.44-35.61Z"/>
              <path class="cls-16" d="m105.38,66.96c10.31-7.93,27.18-9.24,39.82-10.7,15.11-1.75,30.45-1.38,45.46,1.08,21.59,3.53,46.45,9.67,56.61,31.43,7.24,15.5,4.85,31.27,7.59,47.47-.73-4.34,8.83-7.43,11.76-6.93,3.27.56,5.89,2.86,7.94,5.33,2.4,2.9,2.5,6.67,4.35,9.61-1.51-2.4-4.44-3.9-7.24-4.08-2.74-.17-5.53.98-7.35,3.03,2.87-.37,4.81,2.85,5.61,5.63,3.34,11.55,1.02,24.59-6.09,34.29,1.44-3.13,1.06-6.95.38-10.25-.38-1.86-1.07-3.64-1.98-5.3-.35-.64-2.95-3.58-2.86-4.05-1.59,8.38-1.7,17.7-.76,26.2.25,2.24.59,4.57,1.93,6.39,1.33,1.81,3.98,2.86,5.91,1.72-3.6,2.13-4.09,7.62-8.93,9.5-4.42,1.71-8.55-2.86-9.46-6.46-1.48-5.85-.87-12.74-.48-18.69.83-12.55,3.2-25.09,1.91-37.69-3.25,2.36-4.42,7.3-8.24,8.54-3.3,1.07-6.9-1.5-8.18-4.72-1.28-3.22-.84-6.85-.28-10.27-3.82.99-7.93-.89-10.6-3.78-2.67-2.9-4.17-6.66-5.47-10.38-1.92-5.49-3.54-11.08-4.84-16.75-1.87,2.85-2.23,6.39-3.25,9.65-1.02,3.25-3.18,6.63-6.55,7.14-3.58.55-6.69-2.31-9.18-4.94-1.6,4.91-4.38,10.76-9.55,10.91-2.09.06-4.08-.91-6.17-1.01-4.9-.22-9.07,4.34-13.97,4.12-4.61-.21-7.85-4.44-10.42-8.27-3.22,5.59-9.75,9.09-16.18,8.69-6.44-.41-12.47-4.71-14.96-10.66-2.08,3-4.4,6.17-7.86,7.34-1.89.64-3.96.6-5.84,1.25-5.1,1.77-7.24,7.83-7.72,13.2-1.3,14.58,4.52,29.68.17,43.66-1.22,3.94-3.26,7.81-2.96,11.92.32,4.49,3.33,8.26,6.11,11.8,4.25,5.43,8.45,11.72,7.89,18.6-.28,3.37-1.7,6.57-2.02,9.94-.31,3.22.78,7.01,3.96,8.41-2.63-1.13-5.07-4.39-6.73-6.66-4.04-5.52-6.55-11.99-8.74-18.48-2.58-7.65-4.76-15.42-6.54-23.29,1.27,5.62-6.62,10.07-11.11,8.8-5.92-1.67-10.64-9.13-13.42-14.23,1.49,2.02,3.02,4.09,5.13,5.46,2.11,1.37,4.95,1.9,7.13.66,1.24-.7,2.15-1.89,2.77-3.17,1.77-3.7,1.26-8.04.72-12.11-.54-4.05-1.08-8.1-1.63-12.15-.12-.92-.48-2.07-1.41-2.12-.54-.03-1.01.37-1.39.76-3.17,3.25-5.22,7.57-5.76,12.08-3.82-8.61-5.42-18.2-4.62-27.58.35-4.08,2.07-9.03,6.13-9.48-1.28-2.51-3.99-4.23-6.81-4.32-2.82-.09-5.63,1.46-7.07,3.88,1.24-6.66,5.89-12.77,13.73-11.61,5.61.83,9.55,6.01,11.75,11.24-2.57-6.13-.35-16.97-.74-23.58-.4-6.72.18-13.72,1.16-20.39,2.07-14.09,7.96-26.77,19.44-35.61Z"/>
              <g>
                <g>
                  <g class="cls-10">
                    <path class="cls-23" d="m271.12,163.65c.39-4.12-.06-8.24-1.37-12.02-1.45-4.22-4.09-9.89-6.79-2.51-2.21,6.69-2.59,13.85-3.13,20.87-.32,5.97-1.41,13.03,1.38,18.53.11.21-.09-.16-.17-.2-.13-.1-.24-.2-.43-.27-.47-.17-.92-.1-1.23.16,2.03-3.07,3.25-6.83,4.59-10.29.05-.15.25-.74.27-.87.4-5.1-1.32-10.25-5.06-14.02,4.55,3.1,7.41,9.06,7.06,14.67-.62,2.84-1.54,5.6-2.55,8.33-.67,1.54-1.14,3.44-2.52,4.61-.84.66-2.2.33-2.65-.67-1.31-2.32-2.04-4.98-2.37-7.55-.53-3.74-.02-8.89.14-12.66.62-7.3,1.18-14.82,3.91-21.73,1.13-2.93,3.94-6.41,7.44-4.42,1.67,1,2.23,2.93,2.86,4.49,1.81,4.95,2.06,10.58.62,15.56h0Z"/>
                  </g>
                  <g class="cls-17">
                    <path class="cls-23" d="m67.14,165.93c1.76-4.76-1.33-9.8.89-14.59.82-1.63,1.66-3.31,3.34-4.27,8.37-3.77,12.14,23.67,12.75,29.1.41,4.33.56,8.69.38,13.04-.2,1.88.06,3.6-.82,5.44-1.03,2-3.43,1.95-4.95.56-1.38-1-2.77-2.21-3.77-3.59-6.32-7.79-2.82-19,6.62-22.06-1.86,1.08-3.54,2.39-4.87,3.98-5.2,6.28-3.01,15.11,3.72,19.15.41.32.83.49.75.44-.05-.01-.17,0-.25.04.8-9.33-.35-19.67-2.22-29.14-.81-4.11-1.79-8.27-3.38-11.96-.6-1.18-1.14-2.4-2.24-2.94-1.57-.45-3.46,3-3.97,4.36-1.3,3.82.26,8.75-1.98,12.43h0Z"/>
                  </g>
                </g>
                <g class="cls-19">
                  <path class="cls-23" d="m178.14,134.66c-3.25,18.28-.51,36.55.9,54.84.16,2.23.3,4.69.38,6.94,0,.4.1.94-.29,1.69-.34.71-1.42.93-2.01.68-2.87-.79-6.66-2.06-7.4-5.37,1.48,2.86,4.85,3.29,7.73,3.66-2.92-18.76-7.53-42.99.7-62.44h0Z"/>
                </g>
                <g class="cls-19">
                  <path class="cls-23" d="m210.54,212.52c-8.03,9.71-21.36,12.03-32.74,15.64-2.31.8-5.42.73-7.77-.13-1.76-.52-3.53-.9-5.4-1.23-4.58-.83-10.05-1.32-14.52-3.42-4.59-2.1-8.45-5.27-12.23-8.49,6.07,1.52,11.94,4.39,18.08,4.69,5.41.33,11.54.32,16.98,1.95,1.6.48,3.68-.4,5.31-.79,10.93-2.84,21.88-3.27,32.29-8.23h0Z"/>
                </g>
                <g>
                  <path class="cls-6" d="m201.82,186.92c-2.41,1.22-4.87,2.99-5.45,5.64-1.45,6.7,8.87,12.21,14.32,13.05,9,1.39,19.79.52,28.29-2.76,3.23-1.25,6.67-3.47,7.06-6.93.43-3.8-3.04-6.87-6.42-8.63-10.71-5.56-27.02-5.85-37.79-.37Z"/>
                  <path class="cls-6" d="m171.46,181.8c0,.09,0,.18,0,.27.07,3.31.19,6.67-.62,9.88-.66-.08-1.32-.15-1.97-.23,1.23,2.3,2.9,4.79,5.18,6.16.97.58,5.09,1.11,5.35,2.29-4.29-19.03-3.83-38.77-3.33-58.27-4.05,12.82-4.87,26.45-4.62,39.89Z"/>
                  <path class="cls-12" d="m155.42,217.49c-4.7,1.21-8.39,2.29-8.25,2.57,5.09,10.06,16.24,16.73,27.51,16.45,11.27-.27,22.08-7.48,26.68-17.77-9.33-1.22-17.58-5.79-27.17-5.45-1.55.06-11.4,2.29-18.77,4.19Z"/>
                  <path class="cls-6" d="m123.01,184.78c-8.68-.33-17.56,1.34-25.1,5.7-1.74,1.01-3.54,2.35-3.95,4.33-.62,3.04,2.3,5.56,5,7.05,12.89,7.06,29.26,7.8,42.67,1.73,5.27-2.39,11.17-8.08,5.03-13.1-5.68-4.64-16.66-5.44-23.65-5.7Z"/>
                </g>
                <g>
                  <path d="m221.21,166.21c.3-3.1.27-7.07-1.29-9.85-1.93-3.45-7.04-3.97-8.83-.08-1.32,2.86-1.44,6.13-1.17,9.27.88,10.13,10.22,11.55,11.29.66Z"/>
                  <path d="m130.04,168.74c.3-3.1.27-7.07-1.29-9.85-1.93-3.45-7.04-3.97-8.83-.08-1.32,2.86-1.44,6.13-1.17,9.27.88,10.13,10.22,11.55,11.29.66Z"/>
                </g>
                <g>
                  <path class="cls-43" d="m95.84,137.6c5.51-7.81,14.06-13.43,23.42-15.38,9.36-1.96,19.44-.23,27.62,4.72,3.4,2.06,6.66,4.95,7.49,8.84-19.47-5.54-40.87-6.21-58.83,4.04"/>
                  <path class="cls-43" d="m230.63,124.82c4.8,2.12,8.8,5.56,11.08,10.82-.75-1.73-12.79-2.53-14.82-2.93-4.48-.9-8.29-1.36-12.96-1.34-10.5.04-21.01.26-31.47,1.3,4.2-5.43,11.27-7.65,17.97-9.16,8.85-1.99,21-2.74,30.19,1.31Z"/>
                </g>
              </g>
              <path class="cls-39" d="m255.48,141.86c2.96-5.92,6.32-13.54,14.43-9.96,2.38,1.05,4.31,2.89,6.18,4.69.95-.96,1.48-2.24,2-3.49,1.64-3.97,3.29-7.97,4.09-12.18.59-3.1,1.1-7.36-.38-10.29-.62-1.23-3.41-2.56-3.25-4.02.14-1.28,4.99-4.12,5.99-5.39,1.91-2.46,3.2-5.42,3.48-8.54.54-6.04-2.87-8.43-5.66-12.98-2.47-4.04-1.87-8.14-1.57-12.74.74-11.15-5.09-22.5-14.59-28.39-9.5-5.89-22.26-6.06-31.92-.44-.11-9.13-7.53-16.95-16.11-20.08-17.48-6.37-51.96,2.29-68.46,10.22-8.26,3.97-15.82,11.25-16.54,20.39-1.05-3.66-2.21-7.5-4.95-10.14-2.74-2.64-7.61-3.49-10.25-.74-3.56,3.71-.36,9.98,3.7,13.13-7.9-.79-15.96-1.57-23.7.2-30.52,6.99-34.01,59.73-27.59,83.95,10.59-2.24,17.88,16.74,18.61,24.56.98,10.57-2.24,21.02-3.93,31.5-.76,4.7-1.15,9.8,1.2,13.94,1.7,3,4.7,5.22,5.87,8.46,2.4,6.62-3.69,12.92-6.77,19.24-2.97,6.09-3.09,13.69.45,19.47,3.54,5.78,10.92,9.18,17.44,7.34,1.74-.49,3.44-1.37,4.55-2.8,2.08-2.7,1.49-6.73-.44-9.53-1.93-2.8-4.92-4.65-7.83-6.43,5.09-1.49,7.7-7.53,7.13-12.8-.57-5.28-3.5-9.95-6.32-14.45-2.81-4.5-5.66-9.26-6.01-14.56-.37-5.51,2.01-10.79,3.29-16.16,2.16-9.09.22-16.92-1.54-25.62-1.39-6.86-5.62-23.07-1.43-29.43,4.14-6.28,14.98-4.6,13.41-15.43-.33-2.31-1.41-4.45-1.86-6.73-.98-5.05,1.32-10.32,4.94-13.97,3.62-3.65,8.39-5.92,13.21-7.71-3.45,4.41-5.21,10.12-4.83,15.71.14,2.01.63,4.16,2.18,5.45,1.55,1.28,4.39,1.04,5.09-.85-1.38,3.76.64,8.43,4.32,10,3.69,1.57,8.45-.21,10.21-3.81,1.63-3.35.75-7.44,2.02-10.95,1.27-3.51,7.2-5.38,8.25-1.8.47,1.58-.44,3.2-1.07,4.73-1.5,3.63-1.29,8.34,1.73,10.86,3.01,2.52,8.83.81,8.93-3.11-3.98,5.46,4.26,8.64,8.33,8.04,6.67-.99,11.92-8.2,11.09-14.8-.36-2.86-1.65-5.63-1.42-8.51.23-2.88,3.09-5.86,5.72-4.67,1.91,4.54-.45,10.72,3.1,14.14,2.19,2.11,5.95,1.96,8.38.14,2.43-1.82,3.63-4.94,3.75-7.98,3.29.6,7.5.46,8.97-2.54,1.81-3.69-2.24-8.43-.22-12.01,1.38-2.45,5.15-2.7,7.39-1,2.24,1.7,3.14,4.7,3.16,7.52,0,.31,0,.62-.02.92-.27,6.42-3.56,17.38,1.05,22.92,2.48,2.98,6.95,4.1,10.54,2.65-1.76,3.27-1,7.7,1.75,10.2,2.75,2.5,7.23,2.83,10.32.77-.89,4.33-3.25,8.23-4.24,12.54-1,4.3-.1,9.64,3.81,11.7.85.45,1.82.73,2.49,1.41,1.04,1.05,1.08,2.7,1.05,4.18-.34,17.84-.43,35.37-4.29,52.93-.45,2.04-.93,4.17-.44,6.2.51,2.09,2,3.81,2.76,5.82,1.79,4.68-3.57,9.63-5.18,13.68-1.88,4.71-2.78,10.32.4,14.7,2.88,3.97,8.73,5.43,13.13,3.28,4.4-2.15,6.85-7.66,5.49-12.37-1.19-4.12-4.87-7.53-4.75-11.82.11-4,3.58-7.41,3.38-11.41-.18-3.46-3.01-6.12-4.42-9.28-1.38-3.1-1.36-6.62-1.31-10.02.24-16.83-3.32-39.97,4.51-55.62Z"/>
              <g class="cls-9">
                <path class="cls-43" d="m107.78,256.75c2.08-2.7,1.49-6.73-.44-9.53-1.93-2.8-4.92-4.65-7.83-6.43,5.09-1.49,7.7-7.53,7.13-12.8-.57-5.28-3.5-9.95-6.32-14.45-2.81-4.5-5.66-9.26-6.01-14.56-.37-5.51,2.01-10.79,3.29-16.16,2.16-9.09.22-16.92-1.54-25.62-1.39-6.86-5.62-23.07-1.43-29.43,4.14-6.28,14.98-4.6,13.41-15.43-.33-2.31-1.41-4.45-1.86-6.73-.98-5.05,1.32-10.32,4.94-13.97,3.62-3.65,8.39-5.92,13.21-7.71-3.45,4.41-5.21,10.12-4.83,15.71.14,2.01.63,4.16,2.18,5.45,1.55,1.28,4.39,1.04,5.09-.85-1.38,3.76.64,8.43,4.32,10,3.69,1.57,8.45-.21,10.21-3.81,1.63-3.35.75-7.44,2.02-10.95,1.27-3.51,7.2-5.38,8.25-1.8.47,1.58-.44,3.2-1.07,4.73-1.5,3.63-1.29,8.34,1.73,10.86,3.01,2.52,8.83.81,8.93-3.11-3.98,5.46,4.26,8.64,8.33,8.04,6.67-.99,11.92-8.2,11.09-14.8-.36-2.86-1.65-5.63-1.42-8.51.23-2.88,3.09-5.86,5.72-4.67,1.91,4.54-.45,10.72,3.1,14.14,2.19,2.11,5.95,1.96,8.38.14,2.43-1.82,3.63-4.94,3.75-7.98,3.29.6,7.5.46,8.97-2.54,1.81-3.69-2.24-8.43-.22-12.01,1.38-2.45,5.15-2.7,7.39-1,2.24,1.7,3.14,4.7,3.16,7.52,0,.31,0,.62-.02.92-.27,6.42-3.56,17.38,1.05,22.92,2.48,2.98,6.95,4.1,10.54,2.65-1.76,3.27-1,7.7,1.75,10.2,2.75,2.5,7.23,2.83,10.32.77-.89,4.33-3.25,8.23-4.24,12.54-1,4.3-.1,9.64,3.81,11.7.85.45,1.82.73,2.49,1.41,1.04,1.05,1.08,2.7,1.05,4.18-.34,17.84-.43,35.37-4.29,52.93-.45,2.04-.93,4.17-.44,6.2.51,2.09,2,3.81,2.76,5.82,1.79,4.68-3.57,9.63-5.18,13.68-1.81,4.56-2.86,10.52.41,14.72,1.52,1.95,10.57,3.75,9.61,2.08-4.13-7.19-4.49-16.41-.95-23.9,1.4-2.96,3.42-5.97,2.88-9.2-.31-1.88-1.47-3.5-2.29-5.22-2.1-4.43-1.97-9.56-1.6-14.45,1.11-14.82,3.92-29.78,1.38-44.43-.82-4.74-2.2-9.42-2.41-14.23-.35-8.09,2.64-15.95,6.31-23.17-3.3.87-6.61,1.73-9.91,2.6-.88.23-1.97.4-2.57-.28-.34-.39-.4-.96-.37-1.48.12-2.34,1.7-4.55,3.87-5.41-4.28.79-8.57-2.11-10.77-5.87-2.2-3.76-2.78-8.22-3.31-12.54,12.3,12.68,31.67,18,48.71,13.38-19.24-1.95-33.8-10.14-42.47-28.19,2.24,4.67,11.29,9.82,15.71,12.19,6.12,3.3,13.85,4.61,20.63,6.14-4.15-2.77-7.17-7.18-8.26-12.05-.9-4.02-.51-8.24-1.39-12.26-2.13-9.82-11.68-16.78-21.6-18.4-9.92-1.62-20.05,1.18-29.29,5.12,3.67-2.56,7.81-6.91,5.6-10.8-.74-1.29-2.07-2.15-3.44-2.72-8.51-3.55-17.83,2.16-25.28,7.6,3.85-4.15,7.11-8.85,9.63-13.92.91-1.83,1.74-3.85,1.37-5.85-.72-3.87-5.32-5.53-9.23-6.04-16.62-2.15-34.1,3.86-45.88,15.77,5.31-11.83,15.4-18.77,27.5-22.25-7.54,2.17-14.66,3.43-21.95,6.93-8.26,3.97-15.82,11.25-16.54,20.39-1.05-3.66-2.21-7.5-4.95-10.14-2.74-2.64-7.61-3.49-10.25-.74-3.56,3.71-.36,9.98,3.7,13.13-7.9-.79-15.96-1.57-23.7.2-26.53,6.08-28.68,39.68-30.38,61.32,8.76-4.84,16.51-11.51,22.6-19.46,5.31-6.92,9.82-16.1,17.59-20.54-2.44.09-4.53,1.74-6.32,3.4-9.64,8.95-16.93,21.15-29.05,26.27,3.27-1.82,5.51-5.06,7.18-8.41,1.67-3.35,2.88-6.92,4.75-10.17,3.49-6.07,9.12-10.73,15.36-13.89,6.25-3.16,13.11-4.92,20-6.15-3.24,2.41-6.49,4.82-9.73,7.22,2.05-1.23,6.2-1.71,8.57-2.13,2.76-.49,5.66-.57,8.48-.31-8.35,3.96-16.78,8.23-23.21,14.87-6.43,6.64-10.59,16.15-8.6,25.18.31,1.41.73,3-.07,4.2-.52.78-1.44,1.18-2.27,1.62-5.55,2.99-8.32,9.66-8.37,15.96-.05,6.3,2.15,12.39,4.38,18.29,2.22,5.9,4.53,11.92,4.7,18.22.22,7.94-2.96,15.54-4.37,23.36-1.33,7.34.33,13.61,4.21,19.92,2.82,4.6,6.08,9.2,6.82,14.55.1.68.15,1.39-.06,2.05-.41,1.32-1.71,2.11-2.9,2.82-3.6,2.15-7.2,4.81-8.81,8.69-1.6,3.88-.34,9.2,3.58,10.71.43.17.97.38,1.01.84.02.19-.07.38-.14.55-1.15,2.82-.32,6.32,1.98,8.32,3.44,2.99,10.15,1.86,12.86-1.67Z"/>
              </g>
            </g>
            <g>
              <polygon class="cls-41" points="229.4 317.91 168.12 399.14 190.43 426.03 262.09 327.2 229.4 317.91"/>
              <path class="cls-41" d="m217.76,462.57l-43.57-2.22s-94.79-133.54-94.1-133.73c.69-.19,35.8-8.12,35.8-8.12l101.87,144.07Z"/>
            </g>
            <g>
              <path class="cls-31" d="m135.11,303.39c-11.1-.31-22.19,5.44-28.38,14.72-5.73,8.59-7.18,19.32-7.59,29.66-1.21,31.2,8,60.81,10.22,91.71,2.65,36.95-2.08,76.02-10.25,112.08"/>
              <path class="cls-31" d="m206.8,302.77c6.96-.68,13.93,1.88,19.78,5.74,17.77,11.72,25.63,33.87,29.24,54.95,3.45,20.16,4.07,40.8,1.85,61.14"/>
            </g>
          </g>
        </g>
      </g>
      <g class="cls-30">
        <g class="cls-35">
          <rect class="cls-25" x="-140.61" y="291.02" width="607.65" height="1006.95"/>
        </g>
      </g>
    </g>
  </g>
</svg>