<?xml version="1.0" encoding="UTF-8"?>
<svg xmlns="http://www.w3.org/2000/svg" xmlns:xlink="http://www.w3.org/1999/xlink" viewBox="0 0 342.84 376.07">
  <defs>
    <style>
      .cls-1, .cls-2 {
        fill: #fff;
      }

      .cls-3 {
        fill: #d39181;
        opacity: .34;
      }

      .cls-3, .cls-4, .cls-5, .cls-6, .cls-7, .cls-8, .cls-9, .cls-10, .cls-11, .cls-12, .cls-13, .cls-14, .cls-15 {
        mix-blend-mode: multiply;
      }

      .cls-16, .cls-6, .cls-13 {
        fill: #4c3143;
      }

      .cls-17, .cls-9 {
        fill: #e4e3ff;
      }

      .cls-18 {
        clip-path: url(#clippath-2);
      }

      .cls-4, .cls-19 {
        fill: #f5f5ff;
      }

      .cls-20 {
        isolation: isolate;
      }

      .cls-21 {
        stroke: #000;
      }

      .cls-21, .cls-22, .cls-23 {
        fill: none;
      }

      .cls-21, .cls-23 {
        stroke-miterlimit: 10;
        stroke-width: 8.91px;
      }

      .cls-5 {
        opacity: .63;
      }

      .cls-24 {
        clip-path: url(#clippath-1);
      }

      .cls-2 {
        filter: url(#drop-shadow-2);
      }

      .cls-6, .cls-11 {
        opacity: .39;
      }

      .cls-7 {
        opacity: .54;
      }

      .cls-8 {
        opacity: .38;
      }

      .cls-8, .cls-25 {
        fill: #ad7166;
      }

      .cls-26, .cls-15 {
        fill: #cbcbef;
      }

      .cls-10 {
        opacity: .37;
      }

      .cls-10, .cls-27 {
        fill: #935d52;
      }

      .cls-28 {
        clip-path: url(#clippath);
      }

      .cls-29 {
        clip-path: url(#clippath-3);
      }

      .cls-11, .cls-14 {
        fill: #4b496b;
      }

      .cls-12 {
        opacity: .6;
      }

      .cls-13 {
        opacity: .57;
      }

      .cls-30 {
        opacity: .42;
      }

      .cls-14 {
        opacity: .78;
      }

      .cls-23 {
        stroke: #312f44;
      }

      .cls-15 {
        opacity: .61;
      }
    </style>
    <clipPath id="clippath">
      <circle class="cls-22" cx="173.77" cy="185.64" r="181.78"/>
    </clipPath>
    <clipPath id="clippath-1">
      <path class="cls-22" d="m407.07,694.64c-.59-38.98-2.85-77.06-8.74-115.33-.95-7.52-2.15-15.01-3.65-22.44-.36-1.8-.75-3.62-1.24-5.4-11.02-56.95-27.29-112.78-44.93-167.99-1.21-3.78-2.51-7.71-5.31-10.52-2.76-2.77-6.62-4.09-10.33-5.32-23.27-7.72-46.62-14.55-70.03-21.27-11.54-14.47-29.06-25.03-45.83-22.62-.2-1.47-.35-2.96-.54-4.44-.02-.12-.03-.24-.05-.36-.13-1.03-.22-2.06-.31-3.09-.06-.92-.11-1.84-.17-2.79-.1-1.57-.21-3.15-.3-4.73-.09-2.1-.17-4.21-.27-6.32,0-.06,0-.12,0-.18-.07-1.5-.09-2.99-.06-4.47,3-1.32,6-2.66,8.98-4.03,5.58-2.56,17.61-6.61,19.57-13.5.04-.1.1-.19.13-.29.51-1.43,1-2.85,1.46-4.27.47-1.42.92-2.84,1.36-4.26.88-2.84,1.71-5.7,2.53-8.6,0,0,0,0,0-.01,2.88-10.17,5.92-20.27,8.91-30.3,2.49,4.81,11.01,3.27,14.68.51,4.49-3.06,7.88-8,11.05-12.32,7.65-10.45,11.61-23.19,11.88-35.62.19-8.56-.98-23.85-12.25-26.35-1.27-.28-2.54-.36-3.79-.28.43-8.86,4.15-19.93,1.65-28.27.37,1.23,2.21,1.4,3.19.58.99-.81,1.32-2.16,1.56-3.42,2.28-11.8,1.69-24.15-1.69-35.69,3.53.34,7.02,1.15,10.33,2.41-2.24-11.55-7.32-22.53-14.63-31.74-3.07-3.87-6.73-7.69-10.91-10.39-2.75-1.78-11.28-5.83-14.44-4.27,4.41-2.17,9.45-3.05,14.34-2.49-10.63-3.82-21.34-7.67-32.51-9.37-11.17-1.7-22.95-1.14-33.22,3.57,3.41-4.11,4.7-9.88,3.37-15.05-4.88,3.32-10.11,6.09-15.02,9.35-2.09,1.38-3.96,2.98-6.16,4.26-1.26.73-5.86,2.05-6.5,3.15,2.89-4.9,4.28-10.68,3.94-16.36-7.2,7.63-16.04,13.71-25.74,17.72,3.45-3.5,5.24-8.58,4.74-13.48-7.05,6.76-16.74,10.08-26.35,11.84-9.61,1.77-19.44,2.18-29.01,4.15-24.59,5.05-43.63,26.37-48.24,50.82-2.27,12.05-1.73,25.81-10.19,34.68,4.94-.33,9.75-2.38,13.41-5.72-2.36,4.41-5.29,8.51-8.71,12.15,3.53.88,7.5-.38,9.87-3.13,2.62,9.67,4.1,19.65,4.4,29.66-1.38.19-2.73.58-3.94,1.19-5.42,2.74-8.32,8.33-9.6,13.8-4.27,18.2,6.12,33.34,15.29,47.84,2.63,4.15,5.73,8.74,10.11,11.22,6.58,3.72,10.33.31,14.87-4.21.06.18.12.36.18.54.62,3.47,1.86,6.8,3.11,10.11,3.18,8.44,6.11,16.89,9.02,25.39,1.19,3.5,2.39,6.99,3.58,10.49.4,1.17.81,2.36,1.32,3.49.51,1.13,1.12,2.2,1.92,3.15.72.85,1.58,1.57,2.5,2.21s1.9,1.2,2.87,1.75c3.32,1.86,6.7,3.6,10.12,5.28.21,3.71.39,7.41.5,11.12,0,0,0,0,.01.01.08,5.48-.19,11.5-1.38,17.24-10.86-1.6-26.37,6.71-39.27,16.03-1.56,1.13-3.03,2.34-4.45,3.6-3.42.85-6.93,1.72-9.9,2.84-1.41.53-2.69,1.12-3.79,1.79-1.75,1.07-2.94,2.49-3.8,4.06-10.07,2.9-20.15,5.76-30.25,8.57-.99-.83-2.01-1.65-3.05-2.44.16,1.05.36,2.09.59,3.12-3.8,1.05-7.6,2.1-11.41,3.13-.77-.1-1.56-.18-2.38-.2.08.26.15.52.22.78-3.05.83-6.1,1.66-9.15,2.47-6.34,1.68-12.9,3.48-17.94,7.67-5.84,4.85-8.86,12.23-11.49,19.35-15.62,42.25-25.42,86.37-33.27,130.65-7.73,43.58-16.41,86.64-20.98,130.69-1.7,16.42-3.01,33.18.44,49.32.32,1.52.72,3.06,1.22,4.55.39,3.49,1.1,6.84,2.2,9.97.75,2.16,1.74,4.3,3.4,5.84,9.46,8.78,30.14,9.29,42.12,9.25,10.09-.03,20.11-1.4,29.94-3.65-.06,4.67-.11,9.35-.17,14.02-1.17,8.78-2.27,17.54-2.5,18.9-1.17,6.88-14.84,81.46-16.98,81.11,13.29,2.18,26.62,4.11,39.98,5.84-.7.27-1.4.43-2.12.43,7.89.86,15.78,1.56,23.69,2.15,41.36,4.59,82.95,7.05,124.55,7.33.01.59.01,1.18.03,1.77v-1.77c37.85.25,75.72-1.27,113.42-4.6,5.32-.47,10.66-.97,16-1.45,6.17-.22,12.34-.45,18.5-.73,3.82-.17,8.07-.69,12.46-1.18,9.35-.18,18.67.11,27.93,1.26,1.75.68,3.41,1.53,4.95,2.61-.1-.65-.21-1.31-.31-1.96.18.03.36.05.54.08-.2-.03-.39-.16-.58-.34-2.43-15.62-4.88-31.24-7.34-46.86-.29-1.87-.59-3.74-.88-5.6.2.31.41.61.6.93-.28-.47-.52-1.04-.72-1.68-.37-2.35-.74-4.7-1.11-7.04-.31-4.2-.32-8.68-.72-11.29-1.34-8.63-2.71-17.25-4.09-25.88-.39-2.48-.81-4.95-1.2-7.43-.15-1.43-.31-2.86-.45-4.29,14.04,2.24,28.24,2.77,42.46.61,4.48-.68,7.31-3.55,9.08-7.43.31-.49.62-.99.88-1.55,5.77-12.27,4.56-29.19,4.36-42.36Zm-188.22-362.85c-.25-.89-.49-1.79-.72-2.69.26.87.52,1.77.72,2.69Zm-1.1-4.28c-.01-.06-.03-.12-.04-.18.04.08.09.16.13.24-.03-.02-.06-.04-.09-.06ZM79.03,168.28c-.13-.34-.29-.67-.48-.98.12.12.23.24.35.37.04.2.09.41.13.61Zm139.79,159.87c-.41-.26-.87-.55-1.14-.91-.14-.6-.28-1.2-.4-1.81-.08-.48-.15-.95-.22-1.43l1.76,4.15Zm-92.09-.24c-.06.02-.11.03-.17.05l.57-1.44c-.13.47-.26.93-.4,1.4Z"/>
    </clipPath>
    <clipPath id="clippath-2">
      <circle class="cls-22" cx="174.54" cy="620.56" r="181.78"/>
    </clipPath>
    <clipPath id="clippath-3">
      <path class="cls-22" d="m448.9,1099.32c-2-13.27-5.47-26.49-8.92-39.5-5.68-21.37-11.38-42.76-17.49-64.05,0-.04-.01-.07-.02-.11-.71-2.76-1.59-5.49-2.39-8.23-.14-.46-.28-.93-.42-1.39-1.43-4.85-2.88-9.7-4.36-14.54-.05-.16-.1-.32-.15-.49-.7-2.29-1.42-4.58-2.14-6.87.88-.6,1.76-1.21,2.64-1.81,10.38-7.11,20.21-13.87,20.27-13.7-13.66-32.64-27.33-65.28-40.99-97.91-6.59-15.75-13.2-31.52-20.88-46.79-5.7-11.33-14.02-33.25-25.42-39.83-8.91-5.15-23.31-6.79-35.31-8.62-3.12-.62-6.25-1.24-9.37-1.86-4.14-.82-8.28-1.63-12.43-2.41-9.63-1.95-19.29-3.74-28.98-5.3-11.1-9.69-30.98-16.21-43.79-14.8-.24-1.03-.45-2.08-.62-3.14,10.24-1.77,20.51-4.78,31.01-9.64-4.37,4.28-8.74,8.56-13.11,12.83,12.87.5,23.75-8.88,33.16-17.67-1.77,5.49-4.78,10.58-8.76,14.77,3.04-3.2,11.97-5.28,16.08-8.6,4.88-3.94,9.09-8.3,12.34-13.67-1.54,2.9-2.41,6.16-2.48,9.45,6.01-5.25,10.29-12.25,13.56-19.41,2.75-6.01,5.84-18.85,3.02-25.25,2.63,5.96,3.85,12.54,3.55,19.05,2.75-7.85,2.5-16.49.81-24.63-1.59-7.63-4.4-14.94-7.12-22.24-.18-.49-.37-.98-.55-1.47-7.43-20.1-13.41-40.75-18.56-61.56-.15-3.48-.62-6.96-1.98-10.15.09.13.19.26.28.38,0-9.49-2.48-20.35-5.67-29.22,1.61.72,3.49.8,5.15.23-5.08-2.28-6.56-8.64-7.53-14.12-1.52-8.54-3.37-17.1-7-24.98-7.92-17.18-26.96-30.97-44.41-37.17-12.18-4.33-26.19-4.82-37.7,1.07,3.22-3.43,6.43-6.85,9.65-10.28-6.48.69-12.73,3.34-17.74,7.51-8.63-2.52-17.89-2.05-26.7-.28-18.16,3.65-35.18,12.84-48.21,26.01-7.3,7.39-13.33,16.01-17.83,25.37-4.45,9.26-5.64,19.7-10.9,28.42-2.77,4.6-7.03,9.61-12.33,8.74,4.76,1.74,10.35.97,14.46-1.99-2.45,4.15-5.79,7.77-9.72,10.56,3.25,1.13,7,.73,9.95-1.05.43,2.56,1.35,13.24-.63,16.25-.66.49-1.2,1.03-1.6,1.63-4.83,4.13-7.05,10.72-7.1,17.08-.04,4.63.63,9.52,1.83,14.42-4.44,9.55-9.61,18.86-14.09,28.38-8.52,18.1-14.65,39.06-7.94,57.9-.1-8.48,1.87-16.97,5.7-24.54-1.27,7.85-3.03,18.25-.86,26.06.76,2.71,2.11,5.27,2.91,8.02.94,3.22,4.2,8.68,4.14,11.87.11-5.66.22-11.31.32-16.97,2.38,12.18,10.52,23.1,21.52,28.86-2.26-5.94-3.62-12.21-4.02-18.55,7.05,12.27,18.79,21.77,32.27,26.08-2.96-5.16-5.92-10.32-8.89-15.49,6.28,5.76,14.96,8.31,23.47,8.7,7.37.34,14.43-.41,21.59-.68-.04,1.84-.07,3.68-.1,5.52,0,.22-.01.44-.01.66,0,.31,0,.65,0,.97,0,.49-.01.97-.01,1.46,0,1.71-.08,3.23-.25,4.6-.28.06-.55.12-.83.18l1.08-4.78c-12.2-.04-24.22,5.24-33.5,13.57-18.08,5.02-36.05,10.43-53.87,16.3-19.75,6.5-38.43,8.38-47.2,29.58-12.53,30.28-24.43,60.91-37.61,90.9-3.34,7.59-39.13,77.53-37.25,79.07,6.24,5.12,12.93,9.46,19.96,13.17-.85,3.28-1.66,6.57-2.23,9.87-.16.94-.21,1.76-.2,2.55-3.85,16.8-7.2,33.58-10.42,49.9-4.6,23.38-8.16,46.92-10.64,70.56-.26,2.45-.46,4.99-.34,7.47-.39,3.18-.22,6.34.85,9.33.46,1.29,1.13,2.48,1.86,3.63,6.15,9.73,15.57,15.63,26.8,16.06,20.61.8,41.04-4.14,60.95-9.85,4.46-1.28,8.91-2.62,13.35-3.98-9.81,50.92-22.92,100.52-40.7,149.57,6.31,1.58,12.65,3.04,19,4.45-1.09,7-2.13,13.55-3.04,19.11-1.56,7.73-3.43,15.8-4.49,15.84.56-.02,1.12-.06,1.68-.08-.05.21-.09.4-.14.56.06-.22.45-.43,1.12-.61,6.73-.34,13.4-1.06,20.08-1.49,3.76-.1,7.9-.18,12.38-.23.86.03,1.71.04,2.57.1,14.05.93,28.13,1.47,42.21,1.79,27.64.62,55.29.32,82.94.12,52.58-.38,105.16-2.15,157.65-5.32,12.39-.75,24.78-1.59,37.17-2.49,1.84.4,3.48,1.01,4.77,1.93-.34-.72-.65-1.47-.98-2.2.51-.04,1.03-.07,1.54-.11-.21-.39-.42-.79-.62-1.19-3.92-7.71-6.24-16.14-8.54-24.48-1.34-4.88-2.69-9.76-4.03-14.64,6.35-3.12,12.42-6.53,18.4-10.51,2.39-1.48,4.77-2.99,7.11-4.58-.04.02-.16-.08-.31-.23.28-.21.55-.4.83-.61-5.26-7.39-11.43-14.16-17.12-21.33-5.98-8.4-12.36-17.53-16.86-24.18-1.94-3.03-3.78-6.11-5.41-9.26-7.48-14.57-10.51-29.2-12.6-44.89l15.86,2.64c.95-11.27,1.9-22.55,2.85-33.82,5.54,4.26,11.26,8.33,17.21,12.18,24.26,15.69,53.97,27.63,80.78,17.73,2.23-.82,4.54-1.9,5.82-3.99,1.16-1.89,1.26-4.28,1.24-6.54-.03-3.75-.04-8.45-.6-13.01,1.64-11.83,1.04-23.75-.75-35.64Zm-406.14-96.64c.86.11,1.72.23,2.58.34,1.48,16.69.95,33.19-.63,49.62-.76.07-1.51.13-2.27.2-3.35.29-6.72.59-10.11.92,4.02-16.92,7.39-33.98,10.42-51.08Zm176.66-269.08c-.22-.71-.42-1.43-.59-2.17l.59,2.17Z"/>
    </clipPath>
    <filter id="drop-shadow-2" filterUnits="userSpaceOnUse">
      <feOffset dx="2.73" dy="2.73"/>
      <feGaussianBlur result="blur" stdDeviation="2.73"/>
      <feFlood flood-color="#000" flood-opacity=".4"/>
      <feComposite in2="blur" operator="in"/>
      <feComposite in="SourceGraphic"/>
    </filter>
  </defs>
  <g class="cls-20">
    <g id="Capa_6" data-name="Capa 6">
      <g class="cls-28">
        <g class="cls-24">
          <g>
            <g>
              <path class="cls-19" d="m137.68,331.24c.42-.12.84-.24,1.26-.37,7.76-2.26,16.62-6.53,24.71-6.85,15.08-.59,31.85,2.67,46.25,6.98,41.17,12.32,82.19,23.1,122.97,36.64,3.71,1.23,7.57,2.55,10.33,5.32,2.8,2.81,4.11,6.74,5.31,10.52,19.04,59.59,36.49,119.89,47.46,181.56,7.66,43.1,10.43,85.79,11.1,129.61.2,13.17,1.42,30.09-4.36,42.36-5.17,10.98-19.8,7.33-29.03,3.48-8.55-3.57-16.89-7.66-24.95-12.25,1.9,24.36,5.21,48.67,8.54,72.88.64,4.64,4.56,52.94,9.52,53.74-26.44-4.23-53.41-.99-80.08,1.36-99.8,8.8-200.69,5.05-299.56-11.15,2.13.35,15.81-74.23,16.98-81.11.49-2.86,4.78-38.13,5.53-38.2-21.67,1.98-43.63.67-64.91-3.89-3.84-.82-7.82-1.83-10.79-4.4-3.54-3.06-5.06-7.83-6.04-12.41-3.45-16.15-2.14-32.9-.44-49.32,4.57-44.05,13.25-87.11,20.98-130.69,7.85-44.28,17.65-88.39,33.27-130.65,2.63-7.12,5.65-14.5,11.49-19.35,5.05-4.19,11.6-5.98,17.94-7.67,42.43-11.28,84.35-23.91,126.51-36.15Z"/>
              <path class="cls-4" d="m350.9,757.1c2.68,16.86,5.31,33.72,7.97,50.57,2.58,16.36,5.14,32.72,7.69,49.08-12.17-8.52-31.51-3.33-45.35-2.7-17.14.78-34.29,1.29-51.44,1.64-34.32.7-68.64.71-102.96.73-47.32.02-94.75.04-141.79-5.07,9.15,0,16.79-23.52,18.27-29.96,3.2-13.85,1.56-23.7-1.59-37.47-.27-1.16-.53-2.39-.21-3.54.34-1.22,1.29-2.16,2.2-3.04,3.3-3.19,6.59-6.38,9.89-9.57-16.93,4.36-34.11,7.79-51.42,10.27,2.58-17.85,5.17-35.7,7.75-53.55.13-.88.28-1.82.87-2.49.67-.76,1.73-1,2.72-1.2,39.71-8.08,77.48-23.54,114.98-38.92,15.93-6.53,31.9-13.09,46.94-21.47,1.09,32,3.61,63.84,3.41,96.03-.05,8.36-3.01,98.24-1.17,98.46,25.96,3.01,54.49-.61,80.72-1.04-5.86-6.98-8.58-18.84-11.9-27.19-4.57-11.47-9-23-13.24-34.6-8.23-22.53-15.77-45.32-22.35-68.39-2.18-7.66-4.11-16.28.56-23.02,12.79,5.39,26.24,9.55,40.04,12.41-8.56-13.56-17.87-26.75-27.9-39.5,21.33,3.51,42.66,7.03,63.99,10.54-32.71-21.22-68.99-37.71-105.1-54.1-3.48-1.58-7.26-3.2-11.12-2.69-3.31.44-6.06,2.37-8.68,4.2-29.71,20.78-63.35,37.19-99.11,48.37-12.66,3.95-25.89,7.29-39.3,6.62-2.22-9.37-.6-18.53.07-28.07.21-3.05.5-5.71,2.76-7.9.44-.43,6.32-3.69,6.48-2.3-.25-2.11-.5-4.23-.74-6.34-19.23-1.84-38.83.14-57.3,5.8-12.1,3.71-24.25,9.39-31.77,19.57,5.62-28.05,15.02-55.28,25.3-81.79,9.21-23.74,29.35-43.63,27.13-70.9-.17-2.09-.47-4.24.26-6.23.73-1.99,2.87-3.77,5.22-3.5,2.32.27,5.08,2.25,6.53.62-6.77-6.89-13.54-13.78-20.32-20.67,7.02-14.63,14.03-29.26,21.05-43.89.59-1.22,1.18-2.47,1.35-3.79.25-1.96-.47-3.91-1.12-5.8-2.28-6.61-3.88-13.4-4.79-20.27-.69-5.23-.69-11.21,3.55-14.92,6.9,2.66,13.34,6.25,19.01,10.62-.29-14.37-2.59-28.72-6.82-42.6,9.59.22,15.51,6.33,19.95,13.16-3.43-6.02-5.72-12.54-6.74-19.21,18.4,13.9,29.42,35.08,29.37,56.43,1.15-15.82,2.3-31.65,3.46-47.47.38-5.19.78-12.35,5.32-16.26,4.79-4.11,14.64-4.71,20.99-6.33,15.44-3.94,30.76-8.31,45.62-13.72,7.1-2.58,14.24-4.82,21.53-5.54,16.74-1.65,34.87.48,50.75,5.23,23.64,7.07,45.52,18.02,68.86,25.25.99.31,2.05.65,2.63,1.41.39.52.5,1.16.59,1.78,4.65,29.99,7.16,60.52,10.92,90.72-1.58-12.74,4.17-29.09,7.73-41.35,3.8-13.07,8.74-26.36,14.47-38.81.14-.29.29-.61.6-.77.4-.21.91-.09,1.35.03,8.44,2.32,16.63,4.4,20.79,9.02,2.7,2.99,3.71,7.04,2.01,12.91-5.48,18.99-13.18,37.53-16.79,56.86,9.22-14.93,18.44-29.86,27.66-44.79-3.63,5.88-3.89,17.61-6.38,24.34-3.92,10.61-7.12,21.44-9.58,32.39.64-2.84,19.7,1.65,22.4,2.15,4.82.91,9.65,1.81,14.47,2.72-2.25,6.95-8.23,11.91-13.66,16.8-4.18,3.77-8.19,7.73-12.01,11.87-9.05,9.8,2.68,14.2,10.5,20.49,8.44,6.79,16.92,13.59,24.59,21.27,3.04,2.5,6.13,5.06,8.32,8.33,2.73,4.09,3.87,9.01,4.84,13.82,2.4,11.88,4.1,23.89,5.1,35.97-2.34-1.1-5.19-1.03-7.48.18,2.6,4.5,4.45,9.73,3.6,14.86-.85,5.13-5.09,9.93-10.29,10.04,2.05,2.24,4.07,5.93,1.78,7.93-.86.75-2.06.92-3.19,1.05-4.2.51-8.39,1.02-12.59,1.53,16.11,15.77,29.15,37.68,25.18,59.87-10.63-27.13-36.4-47.74-65.21-52.16-4.39-.67-10.05-.57-12.91,3.39-1.17,1.63-2.12,14.6-4.11,14.53,5.87.21,4.9,5.42,8.22,8.02,3.82,3,9.57,1.66,12.72,6.16,1.26,1.81,1.65,4.06,2.01,6.24,2.56,15.72,5.04,31.45,7.64,47.16,1.96,11.81,3.86,23.63,5.74,35.45Z"/>
              <path class="cls-9" d="m53.11,621.3c-.43.98-.98,1.91-1.87,2.47-.98.61-2.2.66-3.36.69-14.93.39-29.86.77-44.79,1.16,5.26-.14,17.61-35.6,19.55-40.67,5.76-15.07,7.44-28.15,8.51-44.29,2.27-34.24,3.1-68.56,3.93-102.86.51-21.09.94-42.73-6.08-62.63,4.48,12.71,15.7,25.08,21.59,37.58,6.63,14.09,12.04,28.76,16.14,43.79,8.01,29.35,11.96,61.17,8.07,91.48-3.2,24.98-12.29,48.77-21.29,72.29-.13.33-.26.66-.4.99Z"/>
              <g class="cls-5">
                <path class="cls-26" d="m279.57,376.07c2.34,9.08,3.46,18.37,4.17,27.69.58,9.33.74,18.68-.33,28-1.3-9.11-1.95-18.61-2.63-27.79-.58-9.19-1.24-18.68-1.21-27.89h0Z"/>
                <path class="cls-26" d="m336.05,375.28c-14.09,20.55-12.83,46.43-14.41,70.26-1.69,20.42-3.63,41.14-4.52,61.6-.71,14.95-1.22,29.92-1.51,44.91-1.97-33.66-.73-67.6,2.72-101.14,2.41-25.57.72-54.47,17.73-75.63h0Z"/>
                <path class="cls-26" d="m22.88,371.89c9.05,9.26,12.56,22.58,13.31,35.21.26,3.65.01,9.05-.04,12.77-.32,25.36.23,50.87-1.28,76.25-1.42,25.4-4.07,50.75-8.32,75.83,4.26-42.13,6.54-84.37,6.67-126.71.14-8.47.25-16.95.63-25.43,1.23-16.48.16-34.69-10.97-47.91h0Z"/>
                <path class="cls-26" d="m52.27,396.95c-2.47-12.94-8.22-24.59-16.13-35.06,11.05,7.54,17.91,21.7,16.13,35.06h0Z"/>
              </g>
            </g>
            <g>
              <g>
                <path class="cls-27" d="m216.34,318.99c.68,8.44,3.7,16.8,6.36,24.85.93,2.82,1.85,4.82,3.68,7.12,1.78,2.25,4.93,4.34,4.46,7.51-.72,4.86-12.29,14.12-15.71,18.22-5.11,6.14-10.11,12.36-14.99,18.66-9.97,12.87-19.44,26.06-28.37,39.54-11.61-32.64-33.76-63.02-63.89-87.62,20.62-5.51,21.87-28.89,21.21-44.91-.4-9.73-.93-19.53-2.21-29.2,31.18.48,62.37.17,93.53-.94-6.42,12.8-5.34,27.1-4.44,40.84.13,2.05.23,4,.39,5.94Z"/>
                <path class="cls-10" d="m216.44,318.94c.01.12.03.24.05.36.38,2.96.61,5.88,1.32,8.79.79,3.25,1.8,6.48,2.48,9.73.67,3.21,2.8,6.45,4.46,9.31,1.03,1.78,2.13,3.52,3.28,5.23.33.48,3.82,4.98,3.68,5.14-22.15,24.74-42.19,50.61-59.93,77.39-11.61-32.64-33.76-63.02-63.89-87.62,1.1.9,9.25-4.09,10.18-4.74,3.59-2.5,6.25-5.22,7.38-9.24-.74,2.66,1.97,4.96,3.89,6.44,8.56,6.61,17.75,12.75,27.46,18.34,1.78,1.03,3.6,2.05,5.02,3.37,2.52,2.35,3.56,5.42,4.52,8.38.4-2.01.81-4.02,1.21-6.03.09-.47.19-.95.53-1.35.44-.52,1.19-.8,1.91-1.07,7.94-2.93,15.53-6.42,22.65-10.41-18.66-9.21-35.6-20.5-50.11-33.42-4.32-3.84-9.02-7.32-13.33-11.18-.31-10.13-.98-20.24-1.99-30.33.14,1.43,5.05,4.25,6.28,5.08,2.03,1.35,3.79,2.89,6.08,3.87,5.04,2.16,10.73,2.96,16.22,3.54,10.61,1.12,21.32,1.74,31.99,1.22,5.26-.25,10.51-.79,15.68-1.7,2.55-.45,5.07-.99,7.56-1.64,1.59-.41,4.7-.41,5.72-1.71-1.17,5.73-1.61,11.29-1.34,17.13,0,.06,0,.12,0,.18.26,5.66.36,11.3,1.05,16.93Z"/>
              </g>
              <g>
                <path class="cls-25" d="m249.36,262.42c-1.64,5.8-3.32,11.42-5.36,17.13-2.23,6.25-14.11,11.23-19.7,13.79-9.81,4.5-19.77,8.71-29.65,13.06-5.07,2.23-10.23,4.49-15.73,5.25-9.61,1.32-21.48-4.55-30.42-7.85-10.32-3.81-20.34-8.43-29.93-13.82-1.95-1.1-3.92-2.25-5.37-3.96-1.6-1.89-2.44-4.29-3.24-6.64-5.3-15.51-10.6-31.01-15.89-46.52-4.54,4.52-8.28,7.93-14.87,4.21-4.38-2.48-7.48-7.07-10.11-11.22-9.17-14.5-19.56-29.64-15.29-47.84,1.28-5.47,4.19-11.06,9.6-13.8,5.42-2.74,13.59-1.19,15.62,4.07-2.53-11.91-5.07-23.91-4.98-36.05.09-12.15,3-24.59,10.54-34.71,7.47-10.02,19.09-15.76,30.41-21.7,12.36-6.48,26.15-10.67,40.24-12.5,20.13-2.62,40.81-.52,60.09,5.1,10.37,3.03,20.47,7.12,29.04,13.17,10.82,7.64,18.67,18.41,22.85,30.2,5.73,16.14,5.84,33.52,3.34,50.22,3.47-3.03,8.25-4.75,13.06-3.68,11.27,2.5,12.44,17.79,12.25,26.35-.27,12.43-4.23,25.17-11.88,35.62-3.17,4.32-6.55,9.26-11.05,12.32-3.67,2.75-12.18,4.29-14.68-.51-2.99,10.04-6.04,20.14-8.91,30.31Z"/>
                <path class="cls-14" d="m254.24,219.22c-2.04,8.43-7.74,20.33-18.04,19.35-3.46-.33-6.58-2.28-9.14-4.64-2.56-2.36-4.68-5.14-7.11-7.64-4.62-4.74-10.52-8.45-17.06-9.5-11.39-1.82-18.23,7.47-28.99,8.82-7.2.91-14.38-1.48-21.62-2.05-13.38-1.06-18.39,7.95-27.66,15.2-11.81,9.23-18.5,1.17-23.49-9.43-5.15-10.96-8.15-22.76-11.72-34.28.72,6.71,1.68,13.42,2.87,20.07,1.08,6.03.88,12.15,1.93,18.16.61,3.51,1.87,6.88,3.13,10.22,4.48,11.9,8.49,23.84,12.6,35.88.8,2.34,1.64,4.75,3.24,6.64,1.45,1.7,3.42,2.86,5.37,3.96,9.59,5.39,19.61,10.01,29.93,13.82,8.95,3.3,20.81,9.16,30.42,7.85,5.49-.75,10.65-3.01,15.73-5.25,9.88-4.35,19.84-8.56,29.65-13.06,5.59-2.56,17.47-7.54,19.7-13.79,2.03-5.71,3.72-11.32,5.36-17.13,2.55-9.03,4.67-17.98,7.65-26.87.34-1.02.69-2.05.81-3.12,1.1-9.81,1.56-19.82,3.55-29.5,1.89-9.19,3.99-18.18,4.97-27.54-4.18,14.57-8.55,29.17-12.1,43.83Zm-40.15,21.78c-2.18,8.99-3.71,17.22-13.13,21.52-5.95,2.71-13.16,2.47-18.91-.63-1.16-.63-2.29-1.37-3.58-1.65-3.4-.72-6.46,1.94-9.42,3.78-8,4.95-19.22,3.95-26.21-2.35-6.07-5.47-9.73-15.99-6.63-23.8,1.63-4.11,8.11-9.21,11.4-3.96.79,1.25,1.19,2.7,1.58,4.13,1.1-.66,2.19-1.33,3.29-1.99.21-.13.49-.25.67-.09.13.11.14.3.13.46-.03.72-.26,1.43-.19,2.14.08.71.64,1.47,1.36,1.39.84-.1,1.27-1.22,2.11-1.3.59-.05,1.06.43,1.52.81,1.22,1,2.92,1.4,4.45,1.03.18-.46-.06-1.05-.51-1.26,4.89,2.28,13.71,5.49,18.55.8.87,1.03,2.11,1.75,3.44,1.99.27-1.04.14-2.18-.36-3.13,1.53-.4,3.09.45,4.67.53s3.43-1.6,2.46-2.84c5.05-1.67,9.68-4.97,13.84-8.17,9.81-7.56,11.1,5.8,9.46,12.6Z"/>
                <path class="cls-11" d="m244.11,278.77c-3.01,3.1-8.47,6.91-12.54,3.29-2.16-1.92-2.67-5.03-3.06-7.89-.87-6.47-1.74-12.93-2.61-19.4-2.34,7.44-6.66,14.1-11.17,20.46-2.29,3.23-4.69,6.46-7.8,8.92-3.11,2.45-7.07,4.08-11,3.63.46-2.02.65-4.59-1.1-5.7-2.1-1.33-4.65.77-6.23,2.69,1.99-2.44,1.05-6.38-1.36-8.41-2.41-2.03-5.79-2.48-8.93-2.22-9.54.8-14.19,7.24-22.07,11.34-7.2,3.75-12.2,1.25-17.89-3.36-4.36-3.54-7.6-8.32-9.66-13.52-1.93-4.86-2.14-9.99-4.15-14.73-4.65,4.68-7.33,11.25-7.28,17.84-6.14-12.41-11.56-25.18-16.2-38.23-2.3-6.45-4.41-12.97-6.32-19.54-.9-3.07-1.68-6.17-2.44-9.26-.76-3.14-2.53-6.44-2.87-9.64.72,6.71,1.68,13.42,2.87,20.07,1.08,6.03.88,12.15,1.93,18.16.61,3.51,1.87,6.88,3.13,10.22,4.48,11.9,8.49,23.84,12.6,35.88.8,2.34,1.64,4.75,3.24,6.64,1.45,1.7,3.42,2.86,5.37,3.96,9.59,5.39,19.61,10.01,29.93,13.82,8.95,3.3,20.81,9.16,30.42,7.85,5.49-.75,10.65-3.01,15.73-5.25,9.88-4.35,19.84-8.56,29.65-13.06,5.86-2.69,18.88-7.02,19.81-14.57Z"/>
                <path class="cls-8" d="m272.68,216.88c-.94,1.09-2.05,2.43-3.45,2.74-1.98.44-3.05-1.58-3.99-1.55,3.05-.1,5.11-2.91,6.02-5.55,1.7-4.95,1.22-10.46-1.31-15.07-.4-.73-.85-1.45-.96-2.26-.1-.71.08-1.43.27-2.13,1.22-4.48,3.06-8.82,5.46-12.91,1-1.7,3.55-5.42,6.28-4.97,2.8.46,3.88,5.11,4.25,7.16,1.43,7.98-.47,16.18-4.39,23.42-2.04,3.77-4.63,7.29-7.62,10.5-.18.19-.36.4-.55.62Z"/>
                <path class="cls-8" d="m77.21,220.42c-10.23-9.66-17.14-24.57-15.03-38.1.34-2.16,1.2-4.64,3.47-5.38,1.57-.51,3.37.03,4.64,1,9.58,7.35,8.23,20.49,10.97,30.24-.53-1.89-2.64-6.48-4.85-7.27-3.32-1.18-4.93,1.87-5.16,4.38-.49,5.52,1.73,11.16,5.95,15.13Z"/>
              </g>
              <g>
                <g>
                  <g class="cls-7">
                    <path class="cls-27" d="m284.26,193.54c.61-4.94.11-9.85-1.5-14.47-.35-.8-.58-2.35-1.68-1.88-1.08.57-1.85,1.79-2.63,2.8-2.19,3.1-3.73,6.67-5.23,10.34-3.2,7.66-6.57,15.36-7.59,23.6-.53,2.81.64,5.74,3.5,2.9,5.67-5.71,3.73-14.72.74-21.48,3.15,5.03,5.63,11.36,3.96,17.43-.84,3.99-5.96,10.99-10,6.05-1.5-2.37-.97-4.81-.78-6.73.54-4.07,1.66-8,3-11.81,1.39-3.79,2.98-7.46,4.6-11.09,1.65-3.6,3.33-7.38,5.97-10.62,1.09-1.24,2.08-2.66,3.75-3.32,3.74-1.18,4.15,3.81,4.65,6.29.59,4.02.37,8.15-.75,11.97h0Z"/>
                  </g>
                  <g class="cls-7">
                    <path class="cls-27" d="m65.14,187.94c-1.64-2.95-2.35-7.19.02-10.02.68-.94,2.05-1.72,3.28-1.26,1.6.59,2.51,1.97,3.61,3.12,1.29,1.53,2.4,3.2,3.37,4.94,1.96,3.48,3.23,7.29,4.26,11.05,1.78,6.55,3.16,13.27,4.11,20,.11.9.31,2.01.39,2.95.32,2.22-1.1,4.89-3.73,4.45-1.86-.32-3.08-1.74-4.22-2.93-1.99-2.28-3.62-4.85-4.77-7.66-2.76-6.49-1.22-12.94,6.68-13.48-.93.26-1.86.53-2.7.98-7.99,3.89-1.72,14.04,2.61,18.46.67.64,2.99,3.08,3.31,1.45.07-2.13-.59-4.42-.87-6.63-1.82-9.26-3.22-18.94-7.12-27.57-.81-1.69-1.77-3.29-2.85-4.81-1.1-1.42-2.35-3.38-3.45-2.84-3.35,1.87-3.06,6.59-1.92,9.81h0Z"/>
                  </g>
                </g>
                <g class="cls-7">
                  <path class="cls-27" d="m157.95,150.75c11.82,18.46,7.24,41.45,7.39,62.02-.03,1.49.07,3.1.12,4.58,0,.98.11,2.6.48,3.14.14.22.19.37.81.44,1.46.05,3.75-.63,5.31-1.12,5.91-1.89,10.65-5.75,15.64-9.55-4.86,6.8-10.98,13.57-20.9,15.34-4.61.27-6.52-4.06-6.67-7.82-.14-1.57-.35-3.28-.41-4.83-.73-12.59,1.18-25.32,1.31-37.7.15-8.32-.77-16.42-3.07-24.5h0Z"/>
                </g>
                <g>
                  <path class="cls-3" d="m224.62,189.31c-1.33-.07-2.67-.12-4-.15-4.45-.09-8.99.11-13.18,1.48-4.2,1.37-8.05,4.07-9.73,7.8-.42.93-.7,1.95-.46,2.92.19.79.71,1.48,1.26,2.11,5.02,5.73,14.06,7.8,21.84,8.32,6.54.43,13.12-.24,19.62-1.09,2.61-.35,5.28-.74,7.61-1.88,2.33-1.14,4.3-3.16,4.52-5.54,1.01-11.07-19.67-13.54-27.48-13.97Z"/>
                  <path class="cls-3" d="m162.75,186.45c.69-9.02,1.66-17.01-.76-25.85-1.73-6.3-4.65-12.77-10.26-16.13-3.58-2.15-7.86-2.77-12.03-3.11-10.65-.88-21.42-.2-31.87,2-7.31,1.57-13.11,4.3-19.51,7.98-.66.38,8.73,5.72,9.76,5.98,4.02,1.01,6.63,2.38,10.24,4.7,3.9,2.51,7.82,5.03,11.99,7.06,8.7,4.22,18.46,6.23,28.11,5.78,3.1-.14,8.26-.89,10.69,1.64,2,2.08,2.98,7.24,3.63,9.96Z"/>
                  <path class="cls-3" d="m252.53,152.54c1.52-.18,2.99-.53,3.98-1.46,3.34-3.14-.46-8.2-2.57-10.97-2.48-3.26-6.01-5-10.08-5.34-9.45-.78-18.96.2-28.32,1.53-3.71.53-7.5.29-11.21.83-2.26.33-5.38.51-7.27,1.93-2.46,1.84-2,3.87-1.95,6.94.12,6.52,1.16,13.02,3.1,19.25.42,1.34,1.04,2.84,2.38,3.27.8.26,1.68.06,2.5-.16,12.44-3.29,23.82-9.54,36.11-13.26,3.03-.92,6.1-1.69,9.22-2.19,1.17-.19,2.67-.2,4.12-.36Z"/>
                  <path class="cls-3" d="m127.86,193.76c-1.33-.07-2.67-.12-4-.15-4.45-.09-8.99.11-13.18,1.48-4.2,1.37-8.05,4.07-9.73,7.8-.42.93-.7,1.95-.46,2.92.19.79.71,1.48,1.26,2.11,5.02,5.73,14.06,7.8,21.84,8.32,6.54.43,13.12-.24,19.62-1.09,2.61-.35,5.28-.74,7.61-1.88,2.33-1.14,4.3-3.16,4.52-5.54,1.01-11.07-19.67-13.54-27.48-13.97Z"/>
                  <g class="cls-7">
                    <path class="cls-27" d="m209.63,231.16c-4.75,14.18-17.83,26.23-33.25,26.86-14.74.59-31.13-7.76-36.14-22.04,10.34,6.13,19.9,9.42,31.33,10.11,14.23,1.23,25.88-7.41,38.06-14.93h0Z"/>
                  </g>
                </g>
                <g>
                  <path d="m216.23,158.1c1.49-1.44,3.5-2.32,5.6-2.13,3.37.32,5.64,3.23,6.15,6.36.42,2.57.61,5.25-.09,7.76-1.78,6.42-10.25,8.3-13.26,1.62-1.38-3.07-1.49-6.46-.68-9.74.36-1.45,1.18-2.82,2.29-3.88Z"/>
                  <path d="m121.51,163.42c.69-.85,1.53-1.55,2.53-1.97,2.81-1.2,6.23.37,7.96,2.89,1.74,2.52,2.12,5.72,2.12,8.78,0,4.58-1.89,8.36-7.01,8.57-2.51.11-5.04-1.14-6.48-3.19-1.72-2.44-1.95-6.95-1.43-9.8.33-1.79,1.08-3.78,2.31-5.29Z"/>
                </g>
                <g>
                  <path class="cls-16" d="m198.97,142.11c-1.29.51-2.57,1.02-3.86,1.53-1.58-3.17-2.15-7.24-1.1-10.67.74-2.44,4.48-5.18,4.74-7.32-.21,1.74-.42,3.49-.63,5.23,2.15-6.08,8.06-10.65,14.49-11.2-.64,2.14-1.98,4.07-3.76,5.42,3.82-2.92,8.82-4.25,13.58-3.62-2.47,2.55-4.94,5.1-7.41,7.65,6.48-4.24,14.94-5.27,22.25-2.72,8.03,2.8,15.67,9.38,19.73,16.69-8.64-1.42-16.97-.81-25.55-1.21-10.25-.48-20.37,1.04-30.54,1.95.55-1.27,1.34-2.44,2.33-3.41-1.42.56-2.85,1.13-4.27,1.69Z"/>
                  <path class="cls-6" d="m198.97,142.11c-1.49.59-3.95,2.47-4.44.63-.18-.66.07-1.81,0-2.54-.12-1.25-.33-2.42-.24-3.69,1.01.97,2.01,1.94,3.02,2.9-.44-2.16.27-4.42,1.45-6.28,1.19-1.85,2.82-3.37,4.44-4.86-.49,1.93-.63,3.94-.41,5.91,1.23-3.98,5.43-6.22,9.43-7.37-.79.23-2.5,3.92-2.8,4.79-.64,1.84.2,4.15,1.1,5.78.24-1.97,1.93-3.43,3.63-4.46,4.11-2.48,9-3.63,13.78-3.24l-3.63,4.45c2.37-1.45,5.31-1.63,8.08-1.32,3.51.4,6.94,1.53,9.99,3.31,3.72,2.16,7.37,4.63,11.34,6.28-1.01-.42-3.34-.04-4.48-.1-1.93-.11-3.86-.16-5.79-.18-3.99-.06-7.99-.03-11.98-.21-10.25-.48-20.37,1.04-30.54,1.95.55-1.27,1.34-2.44,2.33-3.41-1.42.56-2.85,1.13-4.27,1.69Z"/>
                  <path class="cls-16" d="m145.88,145.77c1.31.42,2.61.84,3.92,1.26,1.34-3.27,1.61-7.36.35-10.72-.9-2.39-4.78-4.86-5.19-6.98.33,1.73.66,3.45.98,5.18-2.55-5.92-8.71-10.08-15.09-10.19.78,2.1,2.23,3.93,4.09,5.15-3.98-2.65-9-3.64-13.66-2.69,2.62,2.38,5.23,4.75,7.85,7.13-6.69-3.79-15.12-4.24-22.16-1.2-7.73,3.34-14.82,10.42-18.32,17.99,8.43-2,16.71-1.96,25.15-2.95,10.09-1.18,20.18-.35,30.3-.13-.63-1.23-1.5-2.34-2.54-3.24,1.44.47,2.89.93,4.33,1.4Z"/>
                  <path class="cls-13" d="m145.88,145.77c1.31.42,2.61.84,3.92,1.26.47.15,1.03-4.73,1.05-5.18.1-1.66-.37-3.15-.93-4.68-.23-.65-.26-1.2-.74-1.76-.14-.16-1.51-1.01-1.51-.98.1,1.2.2,2.4.29,3.61-2.76-2.38-5.79-4.88-9.43-5.17.72,1.52,1.6,2.96,2.61,4.3-2.64-1.64-5.73-2.56-8.84-2.63.71,1.97,1.72,3.83,2.97,5.51-6.59-2.74-13.91-3.72-20.99-2.81-9.08,1.17-16.77,6.46-23.3,12.65,7.47-1.68,15.19-1.25,22.78-2.13,10.09-1.18,20.18-.35,30.3-.13-.63-1.23-1.5-2.34-2.54-3.24,1.44.47,2.89.93,4.33,1.4Z"/>
                </g>
              </g>
              <path class="cls-16" d="m264.47,165.95c.26,7.02.63,14.03,1.1,21.03-.37-5.18,3.88-14.69,5.77-19.63,1.05-2.74,4.86-8.28,8.46-7.72,0-9.09,4.35-21,1.69-29.85.37,1.23,2.21,1.4,3.19.58.99-.81,1.32-2.16,1.56-3.42,2.28-11.8,1.69-24.15-1.69-35.69,3.53.34,7.02,1.15,10.33,2.41-2.24-11.55-7.32-22.53-14.63-31.74-3.07-3.87-6.73-7.69-10.91-10.39-2.75-1.78-11.28-5.83-14.44-4.27,4.41-2.17,9.45-3.05,14.34-2.49-10.63-3.82-21.34-7.67-32.51-9.37-11.17-1.7-22.95-1.14-33.22,3.57,3.41-4.11,4.7-9.88,3.37-15.05-4.88,3.32-10.11,6.09-15.02,9.35-2.09,1.38-3.96,2.98-6.16,4.26-1.26.73-5.86,2.05-6.5,3.15,2.89-4.9,4.28-10.68,3.94-16.36-7.2,7.63-16.04,13.71-25.74,17.72,3.45-3.5,5.24-8.58,4.74-13.48-7.05,6.76-16.74,10.08-26.35,11.84-9.61,1.77-19.44,2.18-29.01,4.15-24.59,5.05-43.63,26.37-48.24,50.82-2.27,12.05-1.73,25.81-10.19,34.68,4.94-.33,9.75-2.38,13.41-5.72-2.36,4.41-5.29,8.51-8.71,12.15,3.53.88,7.5-.38,9.87-3.13,2.66,9.82,4.15,19.96,4.42,30.13,7.11.5,10.94,1.46,14.08,8.32,2.18,4.75,3.15,9.92,4.5,14.93,2.41,9.01,4.83,18.03,7.24,27.04-1.33-12.35-2.73-24.7-4-37.06-.92-8.38-3.06-16.49-5.01-24.66-.23-.94-.45-1.95-.13-2.86.45-1.29,1.8-1.98,2.94-2.74,7.22-4.8,7.95-15.1,6.69-23.68-.56-3.79-1.35-7.7-.34-11.39,1-3.68,3.69-6.67,6.62-9.11,10.77-8.96,26.23-11.95,39.56-7.64-1.46-1.78-2.92-3.56-4.37-5.33.68.83,8.86.33,10.31.49,3.11.34,6.3.79,9.37,1.36,6.35,1.2,12.3,3.73,17.34,7.81,9.42-10.54,24.95-15.18,38.61-11.53-1.81-2-4.18-3.48-6.77-4.22,5.93-.14,11.89.61,17.6,2.24-1.2-1.89-2.95-3.43-4.97-4.38,1.49.7,6.93-.9,8.87-.85,3.25.07,6.49.55,9.62,1.42,5.84,1.64,11.09,3.95,13.09,10.11,2.4,7.38-.65,14.97,2.61,22.28,2.08,4.67,4.69,6.72,8.62,9.53,6.79,4.86,5.14,10.69,5.05,19.03-.08,7.79-.3,15.57,0,23.37Z"/>
              <g class="cls-12">
                <path class="cls-16" d="m264.47,165.95c.26,7.02.63,14.03,1.1,21.03-.44-6.18,3.16-15.96,6.48-21.15,1.33-2.07,5.03-3.2,4.94-5.54-.04-1.04-2.38-3.53-2.76-4.91-.5-1.82-.55-3.78-.61-5.65-.15-4.77-.3-9.54-.46-14.3-.11-3.46-.18-7.11,1.44-10.17.97-1.84,2.51-3.36,3.37-5.26.86-1.9.77-4.53-.99-5.64-1.3,1.66-2.59,3.31-3.89,4.97,3.05-9.14,5.47-18.85,3.87-28.35-.75-4.46-2.72-9.05-4.97-12.93-1.15-1.97-2.76-3.61-4.56-5.02-.79-.62-5.52-2.66-5.7-3.26,1.17,3.82,2.35,7.65,3.52,11.47-4.72-8.47-12.35-15.29-21.3-19.04-8.95-3.74-19.16-4.39-28.51-1.81,1.48-1.5,2.96-2.99,4.44-4.49-16.23.33-32.07,9.06-41.02,22.6,2.17-11.86,12.35-19.94,16.19-31.11-9.1,5.21-18.62,9.66-28.46,13.29,2.62-3.98,5.25-7.97,7.87-11.95-6.36,5.86-15.02,8.57-23.56,9.96-20.49,3.35-44.34,4.08-61.22,17.87-7.35,6.01-12.47,14.68-14.17,24.02-.63,3.48-.82,7.09-2.18,10.35-1.33,3.19-3.77,5.91-6.8,7.57,4.16.71,8.63-.78,11.53-3.85-2.35,5.71-5.86,10.93-10.25,15.27,4,1.74,8.89,1.21,12.43-1.34-1.5,2.93-4.43,4.66-6.7,6.93-2.03,2.03-3.63,5.13-4.19,7.95-.84,4.23,3.07,7.94,2.42,11.96-.3,1.85-1.07,1.49-2.35,2.51-1.68,1.33-2.11,3.46-2.06,5.54,7.11.5,10.94,1.46,14.08,8.32,2.18,4.75,3.15,9.92,4.5,14.93,2.41,9.01,4.83,18.03,7.24,27.04-1.33-12.35-2.73-24.7-4-37.06-.92-8.38-3.06-16.49-5.01-24.66-.23-.94-.45-1.95-.13-2.86.45-1.29,1.8-1.98,2.94-2.74,7.22-4.8,7.95-15.1,6.69-23.68-.56-3.79-1.35-7.7-.34-11.39,1-3.68,3.69-6.67,6.62-9.11,10.77-8.96,26.23-11.95,39.56-7.64-1.46-1.78-2.92-3.56-4.37-5.33.68.83,8.86.33,10.31.49,3.11.34,6.3.79,9.37,1.36,6.35,1.2,12.3,3.73,17.34,7.81,9.42-10.54,24.95-15.18,38.61-11.53-1.81-2-4.18-3.48-6.77-4.22,5.93-.14,11.89.61,17.6,2.24-1.2-1.89-2.95-3.43-4.97-4.38,1.49.7,6.93-.9,8.87-.85,3.25.07,6.49.55,9.62,1.42,5.84,1.64,11.09,3.95,13.09,10.11,2.4,7.38-.65,14.97,2.61,22.28,2.08,4.67,4.69,6.72,8.62,9.53,6.79,4.86,5.14,10.69,5.05,19.03-.08,7.79-.3,15.57,0,23.37Z"/>
              </g>
            </g>
            <g>
              <g>
                <path class="cls-26" d="m93.84,357.69c9.27-8.28,17.12-17.51,23.28-27.36.74-1.18,2.46-1.42,3.82-1.53,2.1-.19,4.12-.29,6.1-.99-1.1,2.98-2.04,6.01-2.82,9.08-.27,1.06-.06,1.49.75,2.2,1.16,1.01,2.32,2.02,3.48,3.02,2.33,2.01,4.68,4,7.04,5.99,4.74,3.98,9.53,7.9,14.37,11.76,1.41,1.12,2.82,2.24,4.24,3.36,1.51,1.19,3.04,2.39,4.21,3.79,2.99,3.59,2.68,8.44,3.64,12.53,1.16,4.93,2.31,9.85,3.47,14.78,2.31,9.85,4.62,19.71,6.93,29.56.79-17.56.64-35.15-.43-52.7,10.48-5.24,20.87-11.76,30.02-18.38,6.23-4.52,11.36-9.26,15.96-14.84,2.48-3.01.58-7.28-.26-10.5.39.31.77.62,1.2.88.32.19,1,.68,1.39.68.38.15.8.29,1.06.56.25.26.31.6.37.92,1.03,5.36,5.74,9.81,9.37,14.28,3.61,4.45,7.54,8.74,11.77,12.85-5.14,7.85-6.15,17.91-8.67,26.42-1.22,4.12-2.17,8.27-3.32,12.41-1.89-1.55-4.23-2.77-6.79-3.56-.11-.03.38,15.63.44,17.06.26,5.85-1.87,10.84-3.74,16.42-4.19,12.46-8.6,24.88-13.2,37.25-9.21,24.75-19.25,49.31-30.09,73.66-3.15,7.06-6.36,14.1-9.64,21.13.76-1.37-1.56-5.97-1.97-7.49-.74-2.74-1.5-5.48-2.27-8.22-1.55-5.47-3.17-10.93-4.86-16.37-3.3-10.64-6.86-21.24-10.63-31.79-5.43-15.2-11.31-30.31-17.5-45.34-5.51-13.37-15.21-28.13-13.16-42.47.44-3.05,1.41-6.27-.15-9.09-1-1.81-2.94-3.2-4.99-4.38-3.53-2.02-6.75-2.85-8.88-5.69-2.65-3.53-4.53-7.85-6.57-11.62-.77-1.43-8.53-13.56-7.68-14.21,1.61-1.32,3.18-2.66,4.71-4.03Z"/>
                <path class="cls-15" d="m168.58,552.61c-5.28-11.07-6.54-23-7.75-34.77-.96-9.36-1.9-18.94,1.34-27.99.13.82.25,1.64.38,2.46,5.33-11.64,10.65-23.29,15.98-34.93,2.72-5.95,5.44-11.89,8.16-17.84,2.67-5.84,1.84-9.07-.12-15.06-3.72-11.35-5.84-22.82-13.1-33.21-.38,6.32-.76,12.64-1.14,18.96-.3,5.05,1.04,12.23-1.28,16.98-4.66-6.11-8.72-12.49-12.14-19.07,1.03,15.04,3.37,30.03,6.98,44.84-5.4-2.92-10.43-6.24-15.01-9.89,2.34,1.87,2.17,10.6,2.68,13.28.9,4.69,1.74,9.39,2.53,14.09,1.5,8.86,2.71,17.78,4.06,26.67,2.86,18.81,5.34,37.66,7.45,56.53-3.69-3.44-2.93-6.98-4.05-10.96-1.55-5.47-3.17-10.93-4.86-16.37-3.3-10.64-6.86-21.24-10.63-31.79-5.18-14.5-10.76-28.91-16.64-43.24-2.62-6.39-6.4-12.92-8.19-19.4-2.04-7.42-2.55-15.35-3.21-22.9-.47-5.34-.9-11.05-5.06-15.34-2.49-2.57-6.06-4.35-9.19-6.45-2.15-1.45-19.63-23.04-16.64-25.48,1.61-1.32,3.18-2.66,4.71-4.03,9.27-8.28,17.12-17.51,23.28-27.36.78-1.25,2.59-1.42,4-1.54,2.02-.17,3.98-.39,5.92-.94-1.09,2.89-2.03,5.83-2.83,8.8-.38,1.4.17,1.94,1.24,2.87,9.33,8.12,18.88,16.02,28.65,23.7,1.51,1.19,3.04,2.39,4.21,3.79,2.99,3.59,2.68,8.44,3.64,12.53,1.16,4.93,2.31,9.85,3.47,14.78,2.31,9.85,4.62,19.71,6.93,29.56.79-17.56.64-35.15-.43-52.7,10.48-5.24,20.87-11.76,30.02-18.38,6.23-4.52,11.36-9.26,15.96-14.84,2.44-2.96.65-7.31-.24-10.48.65.69,1.66,1.19,2.57,1.55.38.15.8.29,1.06.56.25.26.31.6.37.92,1.03,5.36,5.74,9.81,9.37,14.28,3.61,4.45,7.54,8.74,11.77,12.85.37.36-5.33,12.99-5.72,14.55-.94,3.7-1.71,8.97-5.52,11.67-1.72,1.22-3.99,1.94-5.55,3.28-2,1.73-2.49,4.17-2.85,6.47-2.09,13.37-2.59,26.88-5.4,40.19-3.54,16.77-11.12,33.16-18.05,49.23-5.09,11.81-10.32,23.58-15.68,35.31-2.53,5.53-5.33,11-7.99,16.45-1.41,2.9-2.37,5.98-3.6,8.94-.68,1.62-4.57,7.42-3.85,8.89Z"/>
                <path class="cls-17" d="m171.96,371.82c.66-2.16,11.22-6.73,13.46-8.08,5.73-3.45,11.24-7.11,16.53-10.95,8.41-6.09,15.78-13.35,19.23-21.84,2.38,3.84,4.99,7.59,7.82,11.25,2.68,3.47,7.24,6.6,5.78,10.62-3.12,8.53-6.58,17.01-10.1,25.45-6.97,16.68-14.77,33.19-24.56,49.02-5.58-19.27-17.32-37.09-28.11-55-.08-.14-.09-.3-.04-.47Z"/>
                <path class="cls-17" d="m158.31,367.01c1.97,2.36,2.87,5.78,2.96,8.55-.53-1.45-1.06-2.89-1.59-4.34-.25-.69-.56-1.44-1.32-1.84-1.15-.61-2.84-.11-3.64.78-.8.88-.95,2.01-1.07,3.09-2.09,18.18-4.85,36.27-4.95,54.55-7.76-10.46-14.03-21.54-21.12-32.28-7.11-10.78-13.83-22.41-22.54-32.48-1.95-2.68-4.93-6.08-5.16-9.24-.21-2.8,2.88-4.76,4.94-7.07,2.52-2.83,4.9-5.76,7.13-8.77,1.01-1.36,2.13-2.74,2.97-4.19.73-1.27.88-2.85,2.18-3.81.51-.37,1.13-.59,1.76-.76.99-.27,2-.44,3.03-.5,1.46-.09,3.89.29,5.01-.78-1.11,3.3-2.24,6.6-3.4,9.89.5.39.91.82,1.38,1.24.6.53,1.21,1.05,1.81,1.58,1.17,1.01,2.33,2.02,3.51,3.02,2.35,2.01,4.71,4.01,7.09,5.99,4.77,3.98,9.59,7.9,14.47,11.76.78.62,1.57,1.24,2.35,1.86,1.51,1.19,3.04,2.39,4.21,3.79Z"/>
                <path class="cls-26" d="m122.2,337.05c-1.82-1.49-3.5-3.08-5.01-4.76-1.41-1.56-.54-2.62,1.41-3.04,2.68-.58,5.46-.51,8.15-1.21-.78,3.55-2.86,6.94-2.59,10.55-.55-.59-1.34-.99-1.97-1.54Z"/>
              </g>
              <g>
                <path class="cls-1" d="m274.9,351.24c2,.72,4.09,1.5,5.43,2.86,1.66,1.68,1.86,3.94,1.99,6.05,1.46,23.99,1.46,48.04,0,72.03-17.82-12.54-36.69-24.17-56.47-34.81,9.15,22.19,23.14,43.89,41.46,62.42-7.5,9.08-14.4,18.46-20.65,28.08-4.19,6.46-8.09,13.02-11.99,19.59-25.09,42.24-50.3,84.74-65.51,129.7-.63-9.25-.57-18.51-1.18-27.86-.76-11.7-1.26-23.42-1.16-35.13.32-37.97,11.62-74.42,24-111.04,12.65-37.43,27.67-74.34,42.48-111.28.27-.67.54-1.38.38-2.07-.16-.65-.68-1.2-1.18-1.74-3.93-4.19-7.48-8.66-10.58-13.39-1.6-2.44-3.08-4.95-4.32-7.55.29.52,1.01.89,1.51,1.21.59.38,1.18.76,1.78,1.13,1.22.75,2.46,1.47,3.72,2.15,2.58,1.41,5.23,2.71,7.93,3.91,3.45,1.54,6.97,2.94,10.54,4.23,10.61,3.84,21.23,7.67,31.84,11.51Z"/>
                <path class="cls-1" d="m74.19,346.1c-1.41.53-2.69,1.12-3.79,1.79-4.13,2.52-5.25,6.93-5.88,10.96-1.67,10.74-2.41,21.57-2.53,32.38-.06,5.43.1,10.85.28,16.27.09,2.67,1.8,9.94.1,12.14,5.19-6.72,14.11-10.58,22.59-14.36,5.24-2.34,11.16-4.35,16.92-5.77,3.32-.82,14.03-.42,16.06-1.62-14.45,8.53-25.65,18.87-37.78,29.16-1.08.92-2.19,1.88-2.63,3.07-.58,1.56.1,3.2.76,4.74,8.44,19.23,16.71,38.51,25.07,57.76,5.51,12.71,11.11,25.39,16.69,38.08,20.91,47.51,46.14,96.18,51.71,146.57,1.29-18.86,1.81-37.75,1.56-56.63-.23-17.49-3.29-34.75-4.81-52.27-1.01-11.65-.33-23.94-2.64-35.39-.71-3.53-1.45-7.05-2.22-10.57-5.43-24.93-12.26-49.68-20.45-74.17-11.32-33.84-26.7-66.87-34.05-101.52-.23-1.08-.45-2.18-.2-3.25.22-.93.78-1.78,1.34-2.62,2.11-3.18,4.22-6.36,6.33-9.54-7.66,3.53-15.69,6.55-23.77,9.47-5.25,1.9-12.96,3.14-18.67,5.3Z"/>
              </g>
            </g>
            <g>
              <path class="cls-23" d="m128.25,323.67c-10.88-1.89-26.63,6.54-39.7,15.98-16.19,11.7-24.94,30.87-28.97,50.01-6.64,31.49-4.93,64.69,4.92,95.33"/>
              <path class="cls-21" d="m216.96,323.76c21.23-3.09,43.67,14.61,53.67,34.74,10,20.13,11.15,43.41,10.84,65.88-.25,18.16-.39,28.24-2.31,46.31"/>
            </g>
          </g>
        </g>
      </g>
      <g class="cls-18">
        <g class="cls-29">
          <rect class="cls-30" x="-74.6" y="356.85" width="579.35" height="960.06"/>
        </g>
      </g>
    </g>
    <g id="Capa_5" data-name="Capa 5">
      <path class="cls-2" d="m170.62,441.76l-25.15-25.15c-2.31-2.32-2.31-6.07,0-8.38,2.32-2.31,6.07-2.31,8.38,0l20.96,20.96,20.96-20.96c2.32-2.31,6.07-2.31,8.38,0,1.16,1.16,1.74,2.67,1.74,4.19s-.58,3.03-1.74,4.19l-25.15,25.15c-2.32,2.31-6.07,2.31-8.38,0Zm0-25.19l-25.15-25.15c-2.31-2.32-2.31-6.07,0-8.38,2.32-2.31,6.07-2.31,8.38,0l20.96,20.96,20.96-20.96c2.32-2.31,6.07-2.31,8.38,0,1.16,1.16,1.74,2.67,1.74,4.19s-.58,3.03-1.74,4.19l-25.15,25.15c-2.32,2.31-6.07,2.31-8.38,0Z"/>
    </g>
  </g>
</svg>