<?xml version="1.0" encoding="UTF-8"?>
<svg xmlns="http://www.w3.org/2000/svg" xmlns:xlink="http://www.w3.org/1999/xlink" viewBox="0 0 342.84 376.07">
  <defs>
    <style>
      .cls-1 {
        opacity: .65;
      }

      .cls-1, .cls-2, .cls-3, .cls-4, .cls-5, .cls-6, .cls-7, .cls-8, .cls-9, .cls-10, .cls-11, .cls-12, .cls-13, .cls-14, .cls-15, .cls-16, .cls-17, .cls-18, .cls-19, .cls-20 {
        mix-blend-mode: multiply;
      }

      .cls-1, .cls-3, .cls-21, .cls-11, .cls-16 {
        fill: #d39181;
      }

      .cls-22 {
        fill: #fff;
      }

      .cls-23 {
        stroke: #4b496b;
        stroke-width: 17.83px;
      }

      .cls-23, .cls-24, .cls-25, .cls-26, .cls-27, .cls-28 {
        fill: none;
      }

      .cls-23, .cls-24, .cls-25, .cls-26, .cls-28 {
        stroke-miterlimit: 10;
      }

      .cls-2 {
        opacity: .34;
      }

      .cls-3 {
        opacity: .64;
      }

      .cls-4 {
        opacity: .48;
      }

      .cls-5 {
        opacity: .6;
      }

      .cls-5, .cls-6, .cls-29 {
        fill: #8ed6c3;
      }

      .cls-6 {
        opacity: .53;
      }

      .cls-30 {
        clip-path: url(#clippath-2);
      }

      .cls-7, .cls-31 {
        fill: #f5f5ff;
      }

      .cls-32 {
        isolation: isolate;
      }

      .cls-33 {
        fill: #6fa595;
      }

      .cls-34, .cls-15 {
        fill: #4b496b;
      }

      .cls-24 {
        stroke: #000;
      }

      .cls-24, .cls-28 {
        stroke-width: 8.91px;
      }

      .cls-8 {
        fill: #eda394;
      }

      .cls-9 {
        opacity: .63;
      }

      .cls-35 {
        clip-path: url(#clippath-1);
      }

      .cls-36 {
        clip-path: url(#clippath-4);
      }

      .cls-10 {
        opacity: .54;
      }

      .cls-25 {
        stroke-linecap: round;
        stroke-width: 20.8px;
      }

      .cls-25, .cls-26, .cls-28 {
        stroke: #312f44;
      }

      .cls-12 {
        fill: #e4e3ff;
      }

      .cls-37, .cls-19 {
        fill: #cbcbef;
      }

      .cls-13 {
        opacity: .84;
      }

      .cls-26 {
        stroke-width: 9.8px;
      }

      .cls-38, .cls-14 {
        fill: #ad7166;
      }

      .cls-39 {
        clip-path: url(#clippath);
      }

      .cls-14 {
        opacity: .55;
      }

      .cls-40 {
        fill: #171723;
      }

      .cls-41 {
        fill: #c6c4c4;
      }

      .cls-15 {
        opacity: .49;
      }

      .cls-16 {
        opacity: .71;
      }

      .cls-42 {
        clip-path: url(#clippath-3);
      }

      .cls-43 {
        fill: #312f44;
      }

      .cls-44 {
        fill: #935d52;
      }

      .cls-45 {
        opacity: .42;
      }

      .cls-46 {
        clip-path: url(#clippath-5);
      }

      .cls-17 {
        fill: #2b2b2b;
        opacity: .46;
      }

      .cls-18 {
        opacity: .68;
      }

      .cls-19 {
        opacity: .61;
      }
    </style>
    <clipPath id="clippath">
      <circle class="cls-27" cx="171.84" cy="-252.14" r="181.78"/>
    </clipPath>
    <clipPath id="clippath-1">
      <path class="cls-27" d="m405.14,256.86c-.59-38.98-2.85-77.06-8.74-115.33-.95-7.52-2.15-15.01-3.65-22.44-.36-1.8-.75-3.62-1.24-5.4-11.02-56.95-27.29-112.78-44.93-167.99-1.21-3.78-2.51-7.71-5.31-10.52-2.76-2.77-6.62-4.09-10.33-5.32-23.27-7.72-46.62-14.55-70.03-21.27-11.54-14.47-29.06-25.03-45.83-22.62-.2-1.47-.35-2.96-.54-4.44-.02-.12-.03-.24-.05-.36-.13-1.03-.22-2.06-.31-3.09-.06-.92-.11-1.84-.17-2.79-.1-1.57-.21-3.15-.3-4.73-.09-2.1-.17-4.21-.27-6.32,0-.06,0-.12,0-.18-.07-1.5-.09-2.99-.06-4.47,3-1.32,6-2.66,8.98-4.03,5.58-2.56,17.61-6.61,19.57-13.5.04-.1.1-.19.13-.29.51-1.43,1-2.85,1.46-4.27.47-1.42.92-2.84,1.36-4.26.88-2.84,1.71-5.7,2.53-8.6,0,0,0,0,0-.01,2.88-10.17,5.92-20.27,8.91-30.3,2.49,4.81,11.01,3.27,14.68.51,4.49-3.06,7.88-8,11.05-12.32,7.65-10.45,11.61-23.19,11.88-35.62.19-8.56-.98-23.85-12.25-26.35-1.27-.28-2.54-.36-3.79-.28.43-8.86,4.15-19.93,1.65-28.27.37,1.23,2.21,1.4,3.19.58.99-.81,1.32-2.16,1.56-3.42,2.28-11.8,1.69-24.15-1.69-35.69,3.53.34,7.02,1.15,10.33,2.41-2.24-11.55-7.32-22.53-14.63-31.74-3.07-3.87-6.73-7.69-10.91-10.39-2.75-1.78-11.28-5.83-14.44-4.27,4.41-2.17,9.45-3.05,14.34-2.49-10.63-3.82-21.34-7.67-32.51-9.37-11.17-1.7-22.95-1.14-33.22,3.57,3.41-4.11,4.7-9.88,3.37-15.05-4.88,3.32-10.11,6.09-15.02,9.35-2.09,1.38-3.96,2.98-6.16,4.26-1.26.73-5.86,2.05-6.5,3.15,2.89-4.9,4.28-10.68,3.94-16.36-7.2,7.63-16.04,13.71-25.74,17.72,3.45-3.5,5.24-8.58,4.74-13.48-7.05,6.76-16.74,10.08-26.35,11.84-9.61,1.77-19.44,2.18-29.01,4.15-24.59,5.05-43.63,26.37-48.24,50.82-2.27,12.05-1.73,25.81-10.19,34.68,4.94-.33,9.75-2.38,13.41-5.72-2.36,4.41-5.29,8.51-8.71,12.15,3.53.88,7.5-.38,9.87-3.13,2.62,9.67,4.1,19.65,4.4,29.66-1.38.19-2.73.58-3.94,1.19-5.42,2.74-8.32,8.33-9.6,13.8-4.27,18.2,6.12,33.34,15.29,47.84,2.63,4.15,5.73,8.74,10.11,11.22,6.58,3.72,10.33.31,14.87-4.21.06.18.12.36.18.54.62,3.47,1.86,6.8,3.11,10.11,3.18,8.44,6.11,16.89,9.02,25.39,1.19,3.5,2.39,6.99,3.58,10.49.4,1.17.81,2.36,1.32,3.49.51,1.13,1.12,2.2,1.92,3.15.72.85,1.58,1.57,2.5,2.21s1.9,1.2,2.87,1.75c3.32,1.86,6.7,3.6,10.12,5.28.21,3.71.39,7.41.5,11.12,0,0,0,0,.01.01.08,5.48-.19,11.5-1.38,17.24-10.86-1.6-26.37,6.71-39.27,16.03-1.56,1.13-3.03,2.34-4.45,3.6-3.42.85-6.93,1.72-9.9,2.84-1.41.53-2.69,1.12-3.79,1.79-1.75,1.07-2.94,2.49-3.8,4.06-10.07,2.9-20.15,5.76-30.25,8.57-.99-.83-2.01-1.65-3.05-2.44.16,1.05.36,2.09.59,3.12-3.8,1.05-7.6,2.1-11.41,3.13-.77-.1-1.56-.18-2.38-.2.08.26.15.52.22.78-3.05.83-6.1,1.66-9.15,2.47-6.34,1.68-12.9,3.48-17.94,7.67-5.84,4.85-8.86,12.23-11.49,19.35C-35.81-1.13-45.62,42.99-53.47,87.26c-7.73,43.58-16.41,86.64-20.98,130.69-1.7,16.42-3.01,33.18.44,49.32.32,1.52.72,3.06,1.22,4.55.39,3.49,1.1,6.84,2.2,9.97.75,2.16,1.74,4.3,3.4,5.84,9.46,8.78,30.14,9.29,42.12,9.25,10.09-.03,20.11-1.4,29.94-3.65-.06,4.67-.11,9.35-.17,14.02-1.17,8.78-2.27,17.54-2.5,18.9-1.17,6.88-14.84,81.46-16.98,81.11,13.29,2.18,26.62,4.11,39.98,5.84-.7.27-1.4.43-2.12.43,7.89.86,15.78,1.56,23.69,2.15,41.36,4.59,82.95,7.05,124.55,7.33.01.59.01,1.18.03,1.77v-1.77c37.85.25,75.72-1.27,113.42-4.6,5.32-.47,10.66-.97,16-1.45,6.17-.22,12.34-.45,18.5-.73,3.82-.17,8.07-.69,12.46-1.18,9.35-.18,18.67.11,27.93,1.26,1.75.68,3.41,1.53,4.95,2.61-.1-.65-.21-1.31-.31-1.96.18.03.36.05.54.08-.2-.03-.39-.16-.58-.34-2.43-15.62-4.88-31.24-7.34-46.86-.29-1.87-.59-3.74-.88-5.6.2.31.41.61.6.93-.28-.47-.52-1.04-.72-1.68-.37-2.35-.74-4.7-1.11-7.04-.31-4.2-.32-8.68-.72-11.29-1.34-8.63-2.71-17.25-4.09-25.88-.39-2.48-.81-4.95-1.2-7.43-.15-1.43-.31-2.86-.45-4.29,14.04,2.24,28.24,2.77,42.46.61,4.48-.68,7.31-3.55,9.08-7.43.31-.49.62-.99.88-1.55,5.77-12.27,4.56-29.19,4.36-42.36ZM216.92-105.99c-.25-.89-.49-1.79-.72-2.69.26.87.52,1.77.72,2.69Zm-1.1-4.28c-.01-.06-.03-.12-.04-.18.04.08.09.16.13.24-.03-.02-.06-.04-.09-.06Zm-138.72-159.24c-.13-.34-.29-.67-.48-.98.12.12.23.24.35.37.04.2.09.41.13.61ZM216.89-109.64c-.41-.26-.87-.55-1.14-.91-.14-.6-.28-1.2-.4-1.81-.08-.48-.15-.95-.22-1.43l1.76,4.15Zm-92.09-.24c-.06.02-.11.03-.17.05l.57-1.44c-.13.47-.26.93-.4,1.4Z"/>
    </clipPath>
    <clipPath id="clippath-2">
      <circle class="cls-27" cx="172.61" cy="182.78" r="181.78"/>
    </clipPath>
    <clipPath id="clippath-3">
      <path class="cls-27" d="m446.97,661.53c-2-13.27-5.47-26.49-8.92-39.5-5.68-21.37-11.38-42.76-17.49-64.05,0-.04-.01-.07-.02-.11-.71-2.76-1.59-5.49-2.39-8.23-.14-.46-.28-.93-.42-1.39-1.43-4.85-2.88-9.7-4.36-14.54-.05-.16-.1-.32-.15-.49-.7-2.29-1.42-4.58-2.14-6.87.88-.6,1.76-1.21,2.64-1.81,10.38-7.11,20.21-13.87,20.27-13.7-13.66-32.64-27.33-65.28-40.99-97.91-6.59-15.75-13.2-31.52-20.88-46.79-5.7-11.33-14.02-33.25-25.42-39.83-8.91-5.15-23.31-6.79-35.31-8.62-3.12-.62-6.25-1.24-9.37-1.86-4.14-.82-8.28-1.63-12.43-2.41-9.63-1.95-19.29-3.74-28.98-5.3-11.1-9.69-30.98-16.21-43.79-14.8-.24-1.03-.45-2.08-.62-3.14,10.24-1.77,20.51-4.78,31.01-9.64-4.37,4.28-8.74,8.56-13.11,12.83,12.87.5,23.75-8.88,33.16-17.67-1.77,5.49-4.78,10.58-8.76,14.77,3.04-3.2,11.97-5.28,16.08-8.6,4.88-3.94,9.09-8.3,12.34-13.67-1.54,2.9-2.41,6.16-2.48,9.45,6.01-5.25,10.29-12.25,13.56-19.41,2.75-6.01,5.84-18.85,3.02-25.25,2.63,5.96,3.85,12.54,3.55,19.05,2.75-7.85,2.5-16.49.81-24.63-1.59-7.63-4.4-14.94-7.12-22.24-.18-.49-.37-.98-.55-1.47-7.43-20.1-13.41-40.75-18.56-61.56-.15-3.48-.62-6.96-1.98-10.15.09.13.19.26.28.38,0-9.49-2.48-20.35-5.67-29.22,1.61.72,3.49.8,5.15.23-5.08-2.28-6.56-8.64-7.53-14.12-1.52-8.54-3.37-17.1-7-24.98-7.92-17.18-26.96-30.97-44.41-37.17-12.18-4.33-26.19-4.82-37.7,1.07,3.22-3.43,6.43-6.85,9.65-10.28-6.48.69-12.73,3.34-17.74,7.51-8.63-2.52-17.89-2.05-26.7-.28-18.16,3.65-35.18,12.84-48.21,26.01-7.3,7.39-13.33,16.01-17.83,25.37-4.45,9.26-5.64,19.7-10.9,28.42-2.77,4.6-7.03,9.61-12.33,8.74,4.76,1.74,10.35.97,14.46-1.99-2.45,4.15-5.79,7.77-9.72,10.56,3.25,1.13,7,.73,9.95-1.05.43,2.56,1.35,13.24-.63,16.25-.66.49-1.2,1.03-1.6,1.63-4.83,4.13-7.05,10.72-7.1,17.08-.04,4.63.63,9.52,1.83,14.42-4.44,9.55-9.61,18.86-14.09,28.38-8.52,18.1-14.65,39.06-7.94,57.9-.1-8.48,1.87-16.97,5.7-24.54-1.27,7.85-3.03,18.25-.86,26.06.76,2.71,2.11,5.27,2.91,8.02.94,3.22,4.2,8.68,4.14,11.87.11-5.66.22-11.31.32-16.97,2.38,12.18,10.52,23.1,21.52,28.86-2.26-5.94-3.62-12.21-4.02-18.55,7.05,12.27,18.79,21.77,32.27,26.08-2.96-5.16-5.92-10.32-8.89-15.49,6.28,5.76,14.96,8.31,23.47,8.7,7.37.34,14.43-.41,21.59-.68-.04,1.84-.07,3.68-.1,5.52,0,.22-.01.44-.01.66,0,.31,0,.65,0,.97,0,.49-.01.97-.01,1.46,0,1.71-.08,3.23-.25,4.6-.28.06-.55.12-.83.18l1.08-4.78c-12.2-.04-24.22,5.24-33.5,13.57-18.08,5.02-36.05,10.43-53.87,16.3-19.75,6.5-38.43,8.38-47.2,29.58-12.53,30.28-24.43,60.91-37.61,90.9-3.34,7.59-39.13,77.53-37.25,79.07,6.24,5.12,12.93,9.46,19.96,13.17-.85,3.28-1.66,6.57-2.23,9.87-.16.94-.21,1.76-.2,2.55-3.85,16.8-7.2,33.58-10.42,49.9-4.6,23.38-8.16,46.92-10.64,70.56-.26,2.45-.46,4.99-.34,7.47-.39,3.18-.22,6.34.85,9.33.46,1.29,1.13,2.48,1.86,3.63,6.15,9.73,15.57,15.63,26.8,16.06,20.61.8,41.04-4.14,60.95-9.85,4.46-1.28,8.91-2.62,13.35-3.98-9.81,50.92-22.92,100.52-40.7,149.57,6.31,1.58,12.65,3.04,19,4.45-1.09,7-2.13,13.55-3.04,19.11-1.56,7.73-3.43,15.8-4.49,15.84.56-.02,1.12-.06,1.68-.08-.05.21-.09.4-.14.56.06-.22.45-.43,1.12-.61,6.73-.34,13.4-1.06,20.08-1.49,3.76-.1,7.9-.18,12.38-.23.86.03,1.71.04,2.57.1,14.05.93,28.13,1.47,42.21,1.79,27.64.62,55.29.32,82.94.12,52.58-.38,105.16-2.15,157.65-5.32,12.39-.75,24.78-1.59,37.17-2.49,1.84.4,3.48,1.01,4.77,1.93-.34-.72-.65-1.47-.98-2.2.51-.04,1.03-.07,1.54-.11-.21-.39-.42-.79-.62-1.19-3.92-7.71-6.24-16.14-8.54-24.48-1.34-4.88-2.69-9.76-4.03-14.64,6.35-3.12,12.42-6.53,18.4-10.51,2.39-1.48,4.77-2.99,7.11-4.58-.04.02-.16-.08-.31-.23.28-.21.55-.4.83-.61-5.26-7.39-11.43-14.16-17.12-21.33-5.98-8.4-12.36-17.53-16.86-24.18-1.94-3.03-3.78-6.11-5.41-9.26-7.48-14.57-10.51-29.2-12.6-44.89l15.86,2.64c.95-11.27,1.9-22.55,2.85-33.82,5.54,4.26,11.26,8.33,17.21,12.18,24.26,15.69,53.97,27.63,80.78,17.73,2.23-.82,4.54-1.9,5.82-3.99,1.16-1.89,1.26-4.28,1.24-6.54-.03-3.75-.04-8.45-.6-13.01,1.64-11.83,1.04-23.75-.75-35.64Zm-406.14-96.64c.86.11,1.72.23,2.58.34,1.48,16.69.95,33.19-.63,49.62-.76.07-1.51.13-2.27.2-3.35.29-6.72.59-10.11.92,4.02-16.92,7.39-33.98,10.42-51.08Zm176.66-269.08c-.22-.71-.42-1.43-.59-2.17l.59,2.17Z"/>
    </clipPath>
    <clipPath id="clippath-4">
      <circle class="cls-27" cx="173.09" cy="590.02" r="181.78"/>
    </clipPath>
    <clipPath id="clippath-5">
      <path class="cls-27" d="m381.78,977.5c-.16-.76-.3-1.54-.43-2.31-.41-2.99-.84-5.97-1.27-8.96-.03-.25-.07-.5-.1-.75-.04-.29-.09-.59-.13-.88-.77-5.26-1.56-10.52-2.36-15.77-.04-.27-.08-.54-.12-.8-.05-.35-.11-.71-.16-1.06,2.99-2.1,5.88-4.36,8.68-6.74,2.4-1.95,4.78-3.95,7.12-6.08-.15-.54-.32-1.08-.47-1.62-.13-.95-.5-2.12-.97-3.34-9.2-32.34-19.25-64.44-30.2-96.23-8.3-24.11-15.54-51.19-35.52-68.03.05-.02.08-.07.13-.09-1.06-.93-2.08-1.67-3.09-2.25-.92-.69-1.82-1.39-2.8-2.03-13.33-8.84-28.78-14.73-44.66-19.5.08-.06.16-.12.24-.18-.09.07-.22.11-.38.14-12-3.6-24.24-6.56-36.02-9.65-2.56-3.36-5.45-6.43-8.73-9.11,1.29-.07,2.57-.19,3.81-.36,7.99-1.15,15.8-3.55,23.06-7.1,5.73-2.81,11.31-6.53,14.54-12.03,3.7-6.29,2.12-13.15,1.76-20.19,8.75,2.44,18.88-1.47,23.73-9.16,4.31-6.83,4.26-14.88,2.07-22.33-.65-2.22-6.89-19.43-8.23-19.04,9.78-2.84,16.05-13.39,15.87-23.57-.15-8.58-4.18-16.67-9.94-23.12-1.07-1.2-2.21-2.35-3.39-3.43,10.36-4.39,16.86-16.42,14.88-27.49-2.2-12.26-12.86-20.92-22.66-28.62-1.23-.97-2.48-1.97-3.72-2.98-.14-.49-.3-.96-.53-1.4-.62-1.23-3.41-2.56-3.25-4.02.14-1.28,4.99-4.12,5.99-5.39,1.91-2.46,3.2-5.42,3.48-8.54.54-6.04-2.87-8.43-5.66-12.98-2.47-4.04-1.87-8.14-1.57-12.74.74-11.15-5.09-22.5-14.59-28.39-9.5-5.89-22.26-6.06-31.92-.44-.11-9.13-7.53-16.95-16.11-20.08-17.48-6.37-51.96,2.29-68.46,10.22-8.26,3.97-15.82,11.25-16.54,20.39-1.05-3.66-2.21-7.5-4.95-10.14-2.74-2.64-7.61-3.49-10.25-.74-3.56,3.71-.36,9.98,3.7,13.13-7.9-.79-15.96-1.57-23.7.2-13.66,3.13-20.84,13.55-24.84,25.88-3.82,10.55-5.42,22.83-5.44,34.15-.02.31-.05.62-.07.92-6.65,3.09-13.67,5.49-19.72,9.62-5.52,3.77-10.07,8.94-13.11,14.89-2.84,5.55-4.23,12.62-.76,17.79,2.74,4.08,7.73,5.9,12.39,7.47-6.17,5.22-12.39,10.5-17.22,16.97-4.83,6.47-8.23,14.34-7.91,22.41.31,8.07,4.88,16.23,12.32,19.36,3.01,1.27,6.36,1.7,9.25,3.23.8.43,1.59.96,2.06,1.74,1.3,2.14-.27,4.81-1.63,6.92-4.82,7.46-7.49,16.65-5.71,25.35,1.79,8.7,8.64,16.58,17.4,18.05,9.28,1.55,18.92-3.91,27.98-1.38.86.24,1.72.56,2.36,1.19,2.01,1.97.66,5.27-.15,7.96-2.26,7.44,1.29,16.22,8.08,19.99,4.99,2.77,11.13,2.88,16.65,1.43,4.3-1.12,8.3-3.11,12.17-5.33,1.88,1.09,3.1,2.57,4.08,4.22.03.17.06.33.1.49-7.85,2.02-14.99,6.91-19.52,13.69-.62.92-1.16,1.88-1.68,2.85-10.38,2.35-24.53,5.55-24.97,5.67-.03,0,.18.36.59.99-6.98,1.92-13.92,3.95-20.84,6.11-7.55,2.32-15.08,4.79-22.61,7.46-7.06,2.5-14.17,5.06-20.49,9.09-10.23,6.52-17.42,15.87-22.96,26.42-.25.48-.53.94-.77,1.42-.07.13-.13.27-.19.4-.31.62-.59,1.25-.89,1.87-.42.88-.84,1.77-1.25,2.66-.22.48-.43.96-.64,1.45-6.94,15.69-11.72,32.65-16.63,49.27-6.93,19.86-23.37,65.85-30.46,83.35-1.08,2.32-2.16,4.63-3.29,6.92,3.51,2.06,7.11,3.98,10.75,5.8-1.45,4.77-2.87,9.55-4.28,14.34-.65,2.23-1.3,4.45-1.95,6.68-.42,1.44-1.97,4.42-1.55,5.93.02.06.05.12.07.18-4.79,17.32-9.21,34.73-13.25,52.24-2.5,10.81-4.85,21.84-4.58,32.9-.8,4.26-.6,8.84.73,12.75,3.28,9.58,14.65,10.51,23.25,11.17,21.18,1.62,42.37,1.64,63.49.32-.48,5.06-.93,10.11-1.43,15.17-1.26,12.83-19.58,144.97-18.5,145.4,4.6,1.86,9.25,3.55,13.93,5.12-1.59,22.81-3.13,45.65-3.96,68.47-.03.45-.05.9-.08,1.35-.36,5.81-3.46,16.03-.49,20.51,0,.39-.02.77-.02,1.16.37,0,.74-.01,1.11-.02.88.67,2.03,1.09,3.58,1.09.58,0,1.21-.05,1.89-.16,2.89-.46,5.79-.82,8.69-1.15,87.38-1.38,174.78-1.71,262.16-.94,8.72.08,17.4.59,26.11.8,2.28.05,4.54-.04,6.81-.14,1.9.07,3.8.13,5.7.2,3.95.15,8.39.55,10.9,3.59-.68-.82-1.18-1.92-1.58-3.2.22.05.43.07.65.12-1.43-16.85-3.91-33.77-5.68-50.63-1.72-14.49-3.71-28.95-5.69-43.4,5.02-1.78,10.06-3.29,15.15-3.87-8.49.96-25.94-118.73-27.2-130.38-.5-4.64-.92-9.28-1.3-13.93,2.79.47,5.6.9,8.41,1.28,20.23,2.75,43.55,6.1,62.42-3.65,2.5-1.29,4.92-2.89,6.9-4.87,1.26-.67,2.42-1.49,3.29-2.62,1.69-2.19,2.02-5.1,2.24-7.86,2.65-32.37-.27-64.7-4.66-96.97.04-.03.07-.05.11-.07Zm-174.92-254.63c-.13-3.02-.22-6.04-.29-9.07.17.28.4.55.67.81l3.86,9.24c-1.41-.34-2.83-.66-4.24-.98Z"/>
    </clipPath>
  </defs>
  <g class="cls-32">
    <g id="Capa_6" data-name="Capa 6">
      <g class="cls-39">
        <g class="cls-35">
          <g>
            <g>
              <path class="cls-31" d="m135.75-106.55c.42-.12.84-.24,1.26-.37,7.76-2.26,16.62-6.53,24.71-6.85,15.08-.59,31.85,2.67,46.25,6.98,41.17,12.32,82.19,23.1,122.97,36.64,3.71,1.23,7.57,2.55,10.33,5.32,2.8,2.81,4.11,6.74,5.31,10.52,19.04,59.59,36.49,119.89,47.46,181.56,7.66,43.1,10.43,85.79,11.1,129.61.2,13.17,1.42,30.09-4.36,42.36-5.17,10.98-19.8,7.33-29.03,3.48-8.55-3.57-16.89-7.66-24.95-12.25,1.9,24.36,5.21,48.67,8.54,72.88.64,4.64,4.56,52.94,9.52,53.74-26.44-4.23-53.41-.99-80.08,1.36-99.8,8.8-200.69,5.05-299.56-11.15,2.13.35,15.81-74.23,16.98-81.11.49-2.86,4.78-38.13,5.53-38.2-21.67,1.98-43.63.67-64.91-3.89-3.84-.82-7.82-1.83-10.79-4.4-3.54-3.06-5.06-7.83-6.04-12.41-3.45-16.15-2.14-32.9-.44-49.32,4.57-44.05,13.25-87.11,20.98-130.69C-45.62,42.99-35.81-1.13-20.2-43.38c2.63-7.12,5.65-14.5,11.49-19.35,5.05-4.19,11.6-5.98,17.94-7.67,42.43-11.28,84.35-23.91,126.51-36.15Z"/>
              <path class="cls-7" d="m348.97,319.32c2.68,16.86,5.31,33.72,7.97,50.57,2.58,16.36,5.14,32.72,7.69,49.08-12.17-8.52-31.51-3.33-45.35-2.7-17.14.78-34.29,1.29-51.44,1.64-34.32.7-68.64.71-102.96.73-47.32.02-94.75.04-141.79-5.07,9.15,0,16.79-23.52,18.27-29.96,3.2-13.85,1.56-23.7-1.59-37.47-.27-1.16-.53-2.39-.21-3.54.34-1.22,1.29-2.16,2.2-3.04,3.3-3.19,6.59-6.38,9.89-9.57-16.93,4.36-34.11,7.79-51.42,10.27,2.58-17.85,5.17-35.7,7.75-53.55.13-.88.28-1.82.87-2.49.67-.76,1.73-1,2.72-1.2,39.71-8.08,77.48-23.54,114.98-38.92,15.93-6.53,31.9-13.09,46.94-21.47,1.09,32,3.61,63.84,3.41,96.03-.05,8.36-3.01,98.24-1.17,98.46,25.96,3.01,54.49-.61,80.72-1.04-5.86-6.98-8.58-18.84-11.9-27.19-4.57-11.47-9-23-13.24-34.6-8.23-22.53-15.77-45.32-22.35-68.39-2.18-7.66-4.11-16.28.56-23.02,12.79,5.39,26.24,9.55,40.04,12.41-8.56-13.56-17.87-26.75-27.9-39.5,21.33,3.51,42.66,7.03,63.99,10.54-32.71-21.22-68.99-37.71-105.1-54.1-3.48-1.58-7.26-3.2-11.12-2.69-3.31.44-6.06,2.37-8.68,4.2-29.71,20.78-63.35,37.19-99.11,48.37-12.66,3.95-25.89,7.29-39.3,6.62-2.22-9.37-.6-18.53.07-28.07.21-3.05.5-5.71,2.76-7.9.44-.43,6.32-3.69,6.48-2.3-.25-2.11-.5-4.23-.74-6.34-19.23-1.84-38.83.14-57.3,5.8-12.1,3.71-24.25,9.39-31.77,19.57,5.62-28.05,15.02-55.28,25.3-81.79C-23.66,123.94-3.51,104.05-5.74,76.77c-.17-2.09-.47-4.24.26-6.23.73-1.99,2.87-3.77,5.22-3.5,2.32.27,5.08,2.25,6.53.62-6.77-6.89-13.54-13.78-20.32-20.67C-7.03,32.37-.02,17.74,7,3.11c.59-1.22,1.18-2.47,1.35-3.79.25-1.96-.47-3.91-1.12-5.8-2.28-6.61-3.88-13.4-4.79-20.27-.69-5.23-.69-11.21,3.55-14.92,6.9,2.66,13.34,6.25,19.01,10.62-.29-14.37-2.59-28.72-6.82-42.6,9.59.22,15.51,6.33,19.95,13.16-3.43-6.02-5.72-12.54-6.74-19.21,18.4,13.9,29.42,35.08,29.37,56.43,1.15-15.82,2.3-31.65,3.46-47.47.38-5.19.78-12.35,5.32-16.26,4.79-4.11,14.64-4.71,20.99-6.33,15.44-3.94,30.76-8.31,45.62-13.72,7.1-2.58,14.24-4.82,21.53-5.54,16.74-1.65,34.87.48,50.75,5.23,23.64,7.07,45.52,18.02,68.86,25.25.99.31,2.05.65,2.63,1.41.39.52.5,1.16.59,1.78,4.65,29.99,7.16,60.52,10.92,90.72-1.58-12.74,4.17-29.09,7.73-41.35,3.8-13.07,8.74-26.36,14.47-38.81.14-.29.29-.61.6-.77.4-.21.91-.09,1.35.03,8.44,2.32,16.63,4.4,20.79,9.02,2.7,2.99,3.71,7.04,2.01,12.91-5.48,18.99-13.18,37.53-16.79,56.86,9.22-14.93,18.44-29.86,27.66-44.79-3.63,5.88-3.89,17.61-6.38,24.34-3.92,10.61-7.12,21.44-9.58,32.39.64-2.84,19.7,1.65,22.4,2.15,4.82.91,9.65,1.81,14.47,2.72-2.25,6.95-8.23,11.91-13.66,16.8-4.18,3.77-8.19,7.73-12.01,11.87-9.05,9.8,2.68,14.2,10.5,20.49,8.44,6.79,16.92,13.59,24.59,21.27,3.04,2.5,6.13,5.06,8.32,8.33,2.73,4.09,3.87,9.01,4.84,13.82,2.4,11.88,4.1,23.89,5.1,35.97-2.34-1.1-5.19-1.03-7.48.18,2.6,4.5,4.45,9.73,3.6,14.86-.85,5.13-5.09,9.93-10.29,10.04,2.05,2.24,4.07,5.93,1.78,7.93-.86.75-2.06.92-3.19,1.05-4.2.51-8.39,1.02-12.59,1.53,16.11,15.77,29.15,37.68,25.18,59.87-10.63-27.13-36.4-47.74-65.21-52.16-4.39-.67-10.05-.57-12.91,3.39-1.17,1.63-2.12,14.6-4.11,14.53,5.87.21,4.9,5.42,8.22,8.02,3.82,3,9.57,1.66,12.72,6.16,1.26,1.81,1.65,4.06,2.01,6.24,2.56,15.72,5.04,31.45,7.64,47.16,1.96,11.81,3.86,23.63,5.74,35.45Z"/>
              <path class="cls-12" d="m350.02,319.32c1.37,8.62,2.75,17.25,4.09,25.88.75,4.8.15,16,2.56,20.01-5.62-9.37-16.14-14.45-26.12-18.9-24.1-10.76-48.57-20.9-74.05-27.79-15.81-4.27-30.2-11.32-45.72-16-1.85-.56-3.79-1.1-5.21-2.4-1.41-1.29-2.13-3.14-2.8-4.93-3.43-9.15-6.85-18.29-10.28-27.44-7.88,6.6-17.98,9.81-27.82,12.77-47.5,14.3-95.63,26.54-144.2,36.66-4.1.86-8.31,1.7-12.46,1.12-1.04-.15-2.16-.44-2.79-1.27-.6-.79-.62-1.87-.6-2.87.11-8.9.21-17.8.32-26.71,47.99-20.14,96.66-38.65,145.9-55.49,1.41-.48,2.86-.97,4.36-.96,2.2.02,4.23,1.12,6.17,2.18,21.84,11.92,45.34,22.08,68.14,31.58,11.32,4.72,23.33,7.79,35.52,9.13,2.87.32,35.33.49,34.99-1-6.87-30.16-15.2-61.88-37.35-83.47-24-23.38-59.19-30.09-92.22-35.74,11.68-14.89,23.36-29.77,35.04-44.66,5.2-6.63,10.45-13.33,14.05-20.95,8.05-17.03,8.54-39.23,23.89-50.14,8.32-5.91,19.08-6.83,29.26-7.55,3.84-.27,8.69.04,10.16,3.6-7.32,6.66-20.47,4.56-26.38,12.5-3.76,5.05-2.89,12.01-3.61,18.26-.99,8.56-7.8,17.86-16.26,16.24-3.05,18.06-4.34,36.41-3.86,54.72,12.94-1.73,27.06-4.07,35.7-13.86,4.95-5.61,7.37-12.94,9.68-20.05,14.28-44.03,28.56-88.05,42.84-132.08-2.21,15.43-2.11,29.57-.81,44.8,1.37,16-2.28,33.61-2.98,49.72-1.48,34.18-1.28,68.43.6,102.6.08,1.53.23,3.2,1.31,4.28.83.84,2.04,1.14,3.19,1.41,13.61,3.2,27.22,6.4,40.84,9.6-2.36-4.55-1.54-10.54,1.95-14.29s9.42-4.99,14.12-2.95c-.43-3.42,3.54-6.55,6.76-5.33-4.58-2.1-8.1-6.38-9.28-11.28,3.34-1.35,7.16-2.15,10.5-.81,5.68,2.27,8.77,17.26,7.87,22.64-.85,5.13-5.09,9.93-10.29,10.04,2.05,2.24,4.07,5.93,1.78,7.93-.86.75-2.06.92-3.19,1.05-4.2.51-8.39,1.02-12.59,1.53,16.11,15.77,29.15,37.68,25.18,59.87-10.63-27.13-36.4-47.74-65.21-52.16-4.39-.67-10.05-.57-12.91,3.39-1.17,1.63-2.12,14.6-4.11,14.53,5.87.21,4.9,5.42,8.22,8.02,3.82,3,9.57,1.66,12.72,6.16,1.26,1.81,1.65,4.06,2.01,6.24,2.56,15.72,5.04,31.45,7.64,47.16,1.96,11.81,3.86,23.63,5.74,35.45Z"/>
              <path class="cls-12" d="m51.19,183.51c-.43.98-.98,1.91-1.87,2.47-.98.61-2.2.66-3.36.69-14.93.39-29.86.77-44.79,1.16,5.26-.14,17.61-35.6,19.55-40.67,5.76-15.07,7.44-28.15,8.51-44.29C31.5,68.62,32.33,34.31,33.16.01c.51-21.09.94-42.73-6.08-62.63,4.48,12.71,15.7,25.08,21.59,37.58,6.63,14.09,12.04,28.76,16.14,43.79,8.01,29.35,11.96,61.17,8.07,91.48-3.2,24.98-12.29,48.77-21.29,72.29-.13.33-.26.66-.4.99Z"/>
              <g class="cls-9">
                <path class="cls-37" d="m8.63,81.12c-4.85-.32-9.42-2.78-12.33-6.68,4.86.31,9.41,2.79,12.33,6.68h0Z"/>
                <path class="cls-37" d="m105.78,44.17c-2.69,3.4-6.39,5.8-10.31,7.53-3.95,1.67-8.21,2.71-12.54,2.39,1.92-1.03,3.83-1.84,5.72-2.68,5.37-2.25,11.67-5.19,17.13-7.23h0Z"/>
                <path class="cls-37" d="m171.35,424.81c-1.39-28.63.81-57.29.56-85.91.18-82.76-.23-174.52-1.16-257.75,4.21,85.85,4.87,171.84,3.44,257.77-.28,28.67-2.98,57.22-2.84,85.89h0Z"/>
                <path class="cls-37" d="m314.07,216.5c-25.45-.41-53.26-8.37-74.89-21.84,12.07,4.84,24.36,9.37,36.85,12.96,12.47,3.66,25.27,6.41,38.04,8.88h0Z"/>
                <path class="cls-37" d="m262.86,222.29c-9.86-1.12-19.45-5.59-26.56-12.52,9.26,3.4,18.06,7.53,26.56,12.52h0Z"/>
                <path class="cls-37" d="m108.43,204.16c-17.63,13.77-43.23,18.25-64.63,12,7.03.57,13.91.64,20.86.15,15.2-1.13,30.12-5.29,43.77-12.15h0Z"/>
                <path class="cls-37" d="m87.38,233.23c-9.32,3.69-19.37,5.46-29.38,5.12,9.31-3.71,19.37-5.45,29.38-5.12h0Z"/>
                <path class="cls-37" d="m67.48,317.72c-11.16,4.07-23.83,4.37-35.17.78,5.15-.38,12.38-.38,17.58-.53,5.22-.08,12.39-.39,17.59-.24h0Z"/>
                <path class="cls-37" d="m161.43,321.39c-19.67,34.13-48.47,64.7-80.92,86.99,7.51-6.56,14.91-13.17,22.11-19.99,21.57-20.36,41.28-43.07,58.8-67h0Z"/>
                <path class="cls-37" d="m304.69,284c-10.3-5.91-24.91-14.36-35.26-19.83-10.24-5.55-25.47-13.12-36.02-18.43,13,3.91,25.44,9.47,37.42,15.81,11.91,6.47,23.44,13.75,33.86,22.44h0Z"/>
                <path class="cls-37" d="m169.3,233.91c-8.84,5.68-17.16,12.08-26.4,17.29-27.51,15.67-60.04,22.75-91.55,19.86,15.74-.36,31.33-2.03,46.59-5.73,12.65-2.95,25.04-7.27,36.85-12.7,11.93-5.4,22.73-12.85,34.52-18.72h0Z"/>
                <path class="cls-37" d="m119.53,279.82c-3.07,3.67-8.53,4.62-12.97,3.33-1.5-.46-2.93-1.18-4.07-2.3,1.59-.03,3.01,0,4.42-.01,4.07.03,8.56-.5,12.62-1.02h0Z"/>
                <path class="cls-37" d="m334.13-62.51c-14.09,20.55-12.83,46.43-14.41,70.26-1.69,20.42-3.63,41.14-4.52,61.6-.71,14.95-1.22,29.92-1.51,44.91-1.97-33.66-.73-67.6,2.72-101.14,2.41-25.57.72-54.47,17.73-75.63h0Z"/>
                <path class="cls-37" d="m20.95-65.9c9.05,9.26,12.56,22.58,13.31,35.21.26,3.65.01,9.05-.04,12.77-.32,25.36.23,50.87-1.28,76.25-1.42,25.4-4.07,50.75-8.32,75.83,4.26-42.13,6.54-84.37,6.67-126.71.14-8.47.25-16.95.63-25.43,1.23-16.48.16-34.69-10.97-47.91h0Z"/>
                <path class="cls-37" d="m369.47,24.57c-8.12,9.57-20.02,16.38-32.67,17.13,5.66-2.6,11.24-4.93,16.66-7.89,5.45-2.89,10.54-6.26,16.02-9.23h0Z"/>
                <path class="cls-37" d="m342.93-18.55c-10.55,20.37-15.13,43.15-19.12,65.53-1.36,7.52-2.68,15.07-4.38,22.57,2.11-29.57,5.81-63.41,23.5-88.1h0Z"/>
                <path class="cls-37" d="m33.24,80.31c-4.85-4.73-9.63-9.26-14.91-13.43-4.49-3.66-11.47-8.39-16.33-11.7,13.14,3.63,25.03,12.93,31.23,25.13h0Z"/>
              </g>
            </g>
            <g>
              <g>
                <path class="cls-37" d="m91.91-80.09c9.27-8.28,17.12-17.51,23.28-27.36.74-1.18,2.46-1.42,3.82-1.53,2.1-.19,4.12-.29,6.1-.99-1.1,2.98-2.04,6.01-2.82,9.08-.27,1.06-.06,1.49.75,2.2,1.16,1.01,2.32,2.02,3.48,3.02,2.33,2.01,4.68,4,7.04,5.99,4.74,3.98,9.53,7.9,14.37,11.76,1.41,1.12,2.82,2.24,4.24,3.36,1.51,1.19,3.04,2.39,4.21,3.79,2.99,3.59,2.68,8.44,3.64,12.53,1.16,4.93,2.31,9.85,3.47,14.78,2.31,9.85,4.62,19.71,6.93,29.56.79-17.56.64-35.15-.43-52.7,10.48-5.24,20.87-11.76,30.02-18.38,6.23-4.52,11.36-9.26,15.96-14.84,2.48-3.01.58-7.28-.26-10.5.39.31.77.62,1.2.88.32.19,1,.68,1.39.68.38.15.8.29,1.06.56.25.26.31.6.37.92,1.03,5.36,5.74,9.81,9.37,14.28,3.61,4.45,7.54,8.74,11.77,12.85-5.14,7.85-6.15,17.91-8.67,26.42-1.22,4.12-2.17,8.27-3.32,12.41-1.89-1.55-4.23-2.77-6.79-3.56-.11-.03.38,15.63.44,17.06.26,5.85-1.87,10.84-3.74,16.42-4.19,12.46-8.6,24.88-13.2,37.25-9.21,24.75-19.25,49.31-30.09,73.66-3.15,7.06-6.36,14.1-9.64,21.13.76-1.37-1.56-5.97-1.97-7.49-.74-2.74-1.5-5.48-2.27-8.22-1.55-5.47-3.17-10.93-4.86-16.37-3.3-10.64-6.86-21.24-10.63-31.79-5.43-15.2-11.31-30.31-17.5-45.34-5.51-13.37-15.21-28.13-13.16-42.47.44-3.05,1.41-6.27-.15-9.09-1-1.81-2.94-3.2-4.99-4.38-3.53-2.02-6.75-2.85-8.88-5.69-2.65-3.53-4.53-7.85-6.57-11.62-.77-1.43-8.53-13.56-7.68-14.21,1.61-1.32,3.18-2.66,4.71-4.03Z"/>
                <path class="cls-19" d="m166.65,114.83c-5.28-11.07-6.54-23-7.75-34.77-.96-9.36-1.9-18.94,1.34-27.99.13.82.25,1.64.38,2.46,5.33-11.64,10.65-23.29,15.98-34.93,2.72-5.95,5.44-11.89,8.16-17.84,2.67-5.84,1.84-9.07-.12-15.06-3.72-11.35-5.84-22.82-13.1-33.21-.38,6.32-.76,12.64-1.14,18.96-.3,5.05,1.04,12.23-1.28,16.98-4.66-6.11-8.72-12.49-12.14-19.07,1.03,15.04,3.37,30.03,6.98,44.84-5.4-2.92-10.43-6.24-15.01-9.89,2.34,1.87,2.17,10.6,2.68,13.28.9,4.69,1.74,9.39,2.53,14.09,1.5,8.86,2.71,17.78,4.06,26.67,2.86,18.81,5.34,37.66,7.45,56.53-3.69-3.44-2.93-6.98-4.05-10.96-1.55-5.47-3.17-10.93-4.86-16.37-3.3-10.64-6.86-21.24-10.63-31.79-5.18-14.5-10.76-28.91-16.64-43.24-2.62-6.39-6.4-12.92-8.19-19.4-2.04-7.42-2.55-15.35-3.21-22.9-.47-5.34-.9-11.05-5.06-15.34-2.49-2.57-6.06-4.35-9.19-6.45-2.15-1.45-19.63-23.04-16.64-25.48,1.61-1.32,3.18-2.66,4.71-4.03,9.27-8.28,17.12-17.51,23.28-27.36.78-1.25,2.59-1.42,4-1.54,2.02-.17,3.98-.39,5.92-.94-1.09,2.89-2.03,5.83-2.83,8.8-.38,1.4.17,1.94,1.24,2.87,9.33,8.12,18.88,16.02,28.65,23.7,1.51,1.19,3.04,2.39,4.21,3.79,2.99,3.59,2.68,8.44,3.64,12.53,1.16,4.93,2.31,9.85,3.47,14.78,2.31,9.85,4.62,19.71,6.93,29.56.79-17.56.64-35.15-.43-52.7,10.48-5.24,20.87-11.76,30.02-18.38,6.23-4.52,11.36-9.26,15.96-14.84,2.44-2.96.65-7.31-.24-10.48.65.69,1.66,1.19,2.57,1.55.38.15.8.29,1.06.56.25.26.31.6.37.92,1.03,5.36,5.74,9.81,9.37,14.28,3.61,4.45,7.54,8.74,11.77,12.85.37.36-5.33,12.99-5.72,14.55-.94,3.7-1.71,8.97-5.52,11.67-1.72,1.22-3.99,1.94-5.55,3.28-2,1.73-2.49,4.17-2.85,6.47-2.09,13.37-2.59,26.88-5.4,40.19-3.54,16.77-11.12,33.16-18.05,49.23-5.09,11.81-10.32,23.58-15.68,35.31-2.53,5.53-5.33,11-7.99,16.45-1.41,2.9-2.37,5.98-3.6,8.94-.68,1.62-4.57,7.42-3.85,8.89Z"/>
              </g>
              <g>
                <path class="cls-43" d="m152.23,31.43c-1.29,4.33-2.39,8.69-2.59,13.12-.16,3.55.36,7.09.88,10.6,5.48,37.17,10.66,74.38,16.38,111.5,9.85-31.96,19.69-63.92,29.54-95.87,1.65-5.36,3.32-10.84,3.23-16.45-.07-3.85-.96-7.64-1.88-11.39-5.29-21.53-11.41-42.85-18.36-63.9-5.49-.14-11.95.18-15.01,4.74-1.14,1.7-1.61,3.75-2.05,5.75-1.81,9.65-4.25,19.23-6.37,28.82-.96,4.35-2.46,8.69-3.76,13.07Z"/>
                <path class="cls-34" d="m187.99-37.49c.35.72.7,1.45,1.04,2.18.34.72.67,1.45.83,2.23.2.99.1,2.01,0,3.02-.87,8.55-1.48,17.1-1.62,25.73,0,.2,0,.42-.11.59-.12.22-.36.34-.58.45-2.66,1.29-5.31,2.58-7.97,3.87-1.77.86-3.61,1.73-5.58,1.74-1.27,0-2.51-.36-3.73-.73-3.88-1.15-7.79-2.32-11.33-4.28-.23-.13-.47-.27-.65-.47-.27-.31-.35-.74-.43-1.15-1.04-5.65-2.03-11.31-2.98-16.98-.88-5.26-2.5-10.73-1.77-16.09.53-3.89.84-7.84,1.25-11.77.04-.34.07-.7.25-.99.22-.36.6-.57.98-.76.42-.21.84-.41,1.27-.61,3.68-1.65,7.66-2.4,11.67-2.56,3.06-.12,6.43-.23,9.46.2.29.04.59.09.82.26.21.15.36.37.5.59,3.18,5,6.07,10.18,8.67,15.51Z"/>
              </g>
              <g>
                <path class="cls-22" d="m272.97-86.54c2,.72,4.09,1.5,5.43,2.86,1.66,1.68,1.86,3.94,1.99,6.05,1.46,23.99,1.46,48.04,0,72.03-17.82-12.54-36.69-24.17-56.47-34.81,9.15,22.19,23.14,43.89,41.46,62.42-7.5,9.08-14.4,18.46-20.65,28.08-4.19,6.46-8.09,13.02-11.99,19.59-25.09,42.24-50.3,84.74-65.51,129.7-.63-9.25-.57-18.51-1.18-27.86-.76-11.7-1.26-23.42-1.16-35.13.32-37.97,11.62-74.42,24-111.04,12.65-37.43,27.67-74.34,42.48-111.28.27-.67.54-1.38.38-2.07-.16-.65-.68-1.2-1.18-1.74-3.93-4.19-7.48-8.66-10.58-13.39-1.6-2.44-3.08-4.95-4.32-7.55.29.52,1.01.89,1.51,1.21.59.38,1.18.76,1.78,1.13,1.22.75,2.46,1.47,3.72,2.15,2.58,1.41,5.23,2.71,7.93,3.91,3.45,1.54,6.97,2.94,10.54,4.23,10.61,3.84,21.23,7.67,31.84,11.51Z"/>
                <path class="cls-22" d="m72.27-91.68c-1.41.53-2.69,1.12-3.79,1.79-4.13,2.52-5.25,6.93-5.88,10.96-1.67,10.74-2.41,21.57-2.53,32.38-.06,5.43.1,10.85.28,16.27.09,2.67,1.8,9.94.1,12.14,5.19-6.72,14.11-10.58,22.59-14.36,5.24-2.34,11.16-4.35,16.92-5.77,3.32-.82,14.03-.42,16.06-1.62-14.45,8.53-25.65,18.87-37.78,29.16-1.08.92-2.19,1.88-2.63,3.07-.58,1.56.1,3.2.76,4.74,8.44,19.23,16.71,38.51,25.07,57.76,5.51,12.71,11.11,25.39,16.69,38.08,20.91,47.51,46.14,96.18,51.71,146.57,1.29-18.86,1.81-37.75,1.56-56.63-.23-17.49-3.29-34.75-4.81-52.27-1.01-11.65-.33-23.94-2.64-35.39-.71-3.53-1.45-7.05-2.22-10.57-5.43-24.93-12.26-49.68-20.45-74.17-11.32-33.84-26.7-66.87-34.05-101.52-.23-1.08-.45-2.18-.2-3.25.22-.93.78-1.78,1.34-2.62,2.11-3.18,4.22-6.36,6.33-9.54-7.66,3.53-15.69,6.55-23.77,9.47-5.25,1.9-12.96,3.14-18.67,5.3Z"/>
              </g>
            </g>
            <g>
              <g>
                <path class="cls-28" d="m126.32-114.11c-10.88-1.89-26.63,6.54-39.7,15.98-16.19,11.7-24.94,30.87-28.97,50.01-6.64,31.49-4.93,64.69,4.92,95.33"/>
                <path class="cls-23" d="m61.48,43.43c1.32,5.01,3.38,12.88,4.7,17.89"/>
                <g>
                  <circle class="cls-22" cx="72.44" cy="86.76" r="29.39" transform="translate(-39.34 103.46) rotate(-58.64)"/>
                  <path class="cls-37" d="m101.72,84.23c.8,9.24-2.92,18.47-9.88,24.6-7.1,6.25-18.47,9.71-27.5,6.2,6.25.76,12.74-.52,18.22-3.61,11.13-6.27,17.06-19.74,13.77-32.21-1.85-6.99-6.61-13.1-12.77-16.83-5.75-3.48-16.34-6.08-22.65-2.6,2.58-1.43,6.11-2.05,9.01-2.3,16.17-1.39,30.41,10.59,31.8,26.76Z"/>
                  <path class="cls-34" d="m87.07,86.28c.93,10.76-7.04,20.24-17.81,21.16-10.76.93-20.24-7.04-21.16-17.81-.93-10.76,7.04-20.24,17.81-21.16,10.76-.93,20.24,7.04,21.16,17.81Z"/>
                  <path class="cls-15" d="m87.07,86.28c.93,10.76-7.04,20.24-17.81,21.16-2.81.24-5.35,0-8.13-.48,7.25.38,14.62-3.54,18.18-9.87,3.56-6.33,3.04-14.78-1.43-20.51-4.46-5.73-12.66-8.3-19.54-5.95,12.2-6.4,27.53,1.9,28.72,15.66Z"/>
                </g>
              </g>
              <g>
                <path class="cls-24" d="m215.03-114.03c21.23-3.09,43.67,14.61,53.67,34.74,10,20.13,11.15,43.41,10.84,65.88-.25,18.16-.39,28.24-2.31,46.31"/>
                <path class="cls-23" d="m279.02-14.32c-.66,14.83-1.77,30.03-1.59,44.87"/>
                <path class="cls-28" d="m288.6,195.32c6.51,3.91,14.69.64,18.51-5.4,3.18-5.04,3.9-11.2,4.48-17.12,2.41-24.68,5.04-49.37,6.61-74.18.55-8.68,1.03-17.4.41-26.08-.76-10.58-3.28-22.88-10.43-31.15-6.7-7.74-19.71-9.67-29.38-10.76-15.29-1.73-31.8,1.67-41.09,14.99-4.39,6.3-7.09,13.61-9.33,20.96-5.69,18.71-8.84,38.38-12.06,57.64-1.91,11.4-3.6,22.82-5.1,34.28-1.15,8.78-3.3,19.15,3.25,26.56,4.25,4.81,11.08,6.27,17.45,7.07"/>
                <path class="cls-25" d="m318.5,74.22c-.46-11.99-2.17-23.41-10.34-32.85-6.7-7.74-19.71-9.67-29.38-10.76-15.29-1.73-31.8,1.67-41.09,14.99-4.14,5.93-5.9,13.16-8.27,19.91"/>
                <g>
                  <path class="cls-34" d="m226.59,191.73c.08,4.21,2.23,8.33,5.63,10.8,1.53,1.11,3.36,1.91,5.25,1.84,3.17-.12,5.84-2.8,6.71-5.84.87-3.05.23-6.35-.97-9.28-4.3-10.52-16.85-10.38-16.61,2.49Z"/>
                  <path class="cls-34" d="m285.13,185.02c2.48-1.84,5.86-2.23,8.4.05,2.2,1.98,3.08,5.03,3.51,7.95.88,6.03-2.09,17.7-10.65,12.15-2.12-1.38-3.45-3.73-4.09-6.18-1-3.82-1.39-9.14,1.25-12.44.46-.58,1-1.1,1.59-1.53Z"/>
                </g>
              </g>
            </g>
            <g>
              <g>
                <g>
                  <path class="cls-44" d="m192.01,188.27c-2.04-11.1-4.96-21.71-7.64-32.67-.44-1.8-1.06-3.83-2.71-4.58,17.41-3.86,34.62-9.17,52.01-13.45,19.84-4.89,38.5-13.41,57.63-20.77,14.5-5.57,27.4-8.45,41.81-1.43,15.69,7.65,31.01,16.02,45.8,25.4,2.36,1.5,4.82,3.14,6.06,5.7,1.24,2.55.65,6.26-1.9,7.37-.78.34.35-1.45-.32-.91.78,3.89,6.13,4.94,7.75,8.55,1.62,3.6-2.54,8.22-6.16,6.85,2.58,2.41,1.04,7.22-2,8.97-3.04,1.75-6.77,1.37-10.24.94,1.59,1.79-1.28,4.17-3.6,4.62-16,3.13-32.49-3.4-48.68-1.59-8.68.97-16.91,4.29-25.17,7.16-11.87,4.12-24.25,7.38-36.78,6.92-12.53-.46-25.33-5.03-33.8-14.54-10.76.28-19.36,7.11-29.94,9.16-.44.09-.92.16-1.31-.06-.55-.3-.71-1.02-.82-1.66Z"/>
                  <path class="cls-14" d="m192.01,188.27c-2.04-11.1-4.96-21.71-7.64-32.67-.44-1.8-1.06-3.83-2.71-4.58,9.03-2,17.96-4.38,26.88-6.8,2.79-.76,8.83-3.75,11.6-2.89,3.08.96,5.02,6.58,5.35,9.36,23.1,1.8,43.93,14.6,66.69,18.91,5.89,1.12,11.87,1.65,17.85,2.19,13.04,1.17,26.09,2.35,39.13,3.52,6.57.59,13.15,1.18,19.75,1.42.24-2.2-2.57-2.75-4.17-3.25-14.44-4.49-28.91-8.98-42.78-15.18,14.33,1.32,27.71,7.44,41.54,11.43,5.95,1.72,12.36,3.03,18.27,1.18,1.11-.35,2.4-1.15,2.21-2.3-.14-.84-1.01-1.32-1.78-1.67-16.9-7.82-34.03-15.12-51.38-21.88,16.52,3.85,31.95,11.85,48.69,14.57,1.53.25,3.38.34,4.34-.88.82-1.05.54-2.65-.29-3.69-.83-1.04-2.06-1.66-3.26-2.25-12.96-6.37-25.93-12.74-38.89-19.11,11.94,5.01,23.93,10.03,36.44,13.34,1.35.36,2.8.69,4.11.22,1.31-.47,2.29-2.1,1.57-3.3,1.66,2.78,3.86,8-.46,9.89-.78.34.35-1.45-.32-.91.78,3.89,6.13,4.94,7.75,8.55,1.62,3.6-2.54,8.22-6.16,6.85,2.58,2.41,1.04,7.22-2,8.97-3.04,1.75-6.77,1.37-10.24.94,1.59,1.79-1.28,4.17-3.6,4.62-16,3.13-32.49-3.4-48.68-1.59-8.68.97-16.91,4.29-25.17,7.16-11.87,4.12-24.25,7.38-36.78,6.92-12.53-.46-25.33-5.03-33.8-14.54-10.76.28-19.36,7.11-29.94,9.16-.44.09-.92.16-1.31-.06-.55-.3-.71-1.02-.82-1.66Z"/>
                  <g>
                    <g class="cls-10">
                      <path class="cls-44" d="m371.83,179.82c-.43-3.89-4.74-5.08-7.96-5.97-3.57-.95-7.11-2.01-10.64-3.09-11.58-3.68-23.57-7.81-34.55-13,11.9,2.44,23.97,6.34,35.44,10.34,3.47,1.26,6.94,2.54,10.36,3.91,3.26,1.29,7.92,3.62,7.34,7.81h0Z"/>
                    </g>
                    <g class="cls-10">
                      <path class="cls-44" d="m385.34,171.69c-.01-3.19-3.25-4.71-5.8-5.74-5.61-2.14-11.2-4.37-16.77-6.62-13.73-5.65-28.03-11.46-41.41-17.87,17.51,4.59,34.38,11.32,50.7,19.1,3.96,2.32,14.39,5.42,13.28,11.12h0Z"/>
                    </g>
                    <g class="cls-10">
                      <path class="cls-44" d="m389.33,159.37c-7.11-5.64-16.39-9.35-24.59-13.06-13.17-6.03-29.26-13.62-42.5-19.41,12.23,2.8,23.88,7.61,35.25,12.82,11.08,5.55,23.42,10.17,31.84,19.65h0Z"/>
                    </g>
                  </g>
                </g>
                <path class="cls-22" d="m-59.87,223.05c3.4-4.97,7.35-9.29,11.72-12.58,9.37-7.07,21.11-10.06,32.5-12.88,74.1-18.36,148.19-36.77,222.28-55.18,1.88,9.5,4.9,18.98,6.18,28.46.53,3.94,4.81,31.31,1.56,33.22-31.04,17.3-60.59,35.98-93.37,49.62-33.14,13.79-67.33,24.67-101.46,35.53-14.44,4.59-29.47,7.6-44.63,7.66-11.98.04-32.66-.47-42.12-9.25-1.65-1.54-2.65-3.68-3.4-5.84-6.1-17.5-.82-41.89,10.73-58.76Z"/>
                <g class="cls-18">
                  <path class="cls-37" d="m57.75,194.83c-11.53,10.94-18.06,26.61-16.92,42.49.33,5.24,1.39,10.46,3.11,15.58-2.85-4.61-4.64-9.9-5.42-15.34-2.5-16.28,5.03-34.13,19.23-42.73h0Z"/>
                  <path class="cls-37" d="m15.05,219.86c-2.12,10.11-3.78,19.97-5.18,30.2-2.78-10.09-.8-21.61,5.18-30.2h0Z"/>
                  <path class="cls-37" d="m-4.18,267.71c4.02,5.81,6.97,12.11,8.81,18.93-5.38-4.69-8.67-11.79-8.81-18.93h0Z"/>
                  <path class="cls-37" d="m113.05,242.17c-3.89-.87-6.95-4.3-7.34-8.27,3.63,1.49,6.28,4.5,7.34,8.27h0Z"/>
                  <path class="cls-37" d="m16.12,190.18c-10.69,4.24-20.79,10.05-29.77,17.16-11.51,9.24-21.16,20.72-28.59,33.5,2.27-6.27,5.5-12.2,9.38-17.67,11.65-16.24,29.28-28.92,48.98-33h0Z"/>
                </g>
              </g>
              <g>
                <g>
                  <path class="cls-38" d="m22,132.79c8.04-6.92,18.42-10.33,28.5-13.59,2.08-.67,4.18-1.35,6.36-1.48,2.62-.15,5.21.49,7.75,1.15,26.77,6.94,53,15.99,78.36,27.03-3.61,7.24-6.91,14.64-9.87,22.17-.76,1.95-8.56,19.95-7.54,20.92-2.34-2.22-5.45-3.38-8.49-4.45-9.45-3.33-19.02-6.29-28.69-8.88-1.39-.37-2.9-.73-4.23-.18-.8.33-1.45.95-2.08,1.55-9.74,9.11-23.2,14.07-36.5,13.46-2.98-.14-5.98-.54-8.95-.24-12.89,1.31-25.61,5.45-38.19,8.17-1.65.36-3.71.57-4.71-.8-.55-.75-.57-1.76-.92-2.63-.5-1.23-1.61-2.09-2.41-3.14-2.4-3.13.49-6.18.34-9.4-.11-2.45-2.44-4.57-2.89-7-.79-4.21,2.95-7.78,6.32-10.41-2.38-1.94-3.69-5.12-3.37-8.18.74-7.12,8.84-8.84,14.05-11.8,6.14-3.48,11.82-7.67,17.17-12.27Z"/>
                  <path class="cls-14" d="m32.58,181.49c5.77-1.87,11.17-4.73,17.01-6.07,5.94-1.36,11.49-4.4,15.8-8.72,5.43,1.37,10.97,2.35,16.54,2.93,4.08.43,8.29.91,12.19-.7,3.41-1.41,5.4-4.67,7.87-7.39,6.3-6.96,13.01-13.55,20.09-19.73,1.13-.98,2.37-1.82,3.57-2.69.19-.14.39-.28.62-.31.22-.03.45.05.66.13,5.43,2.08,10.7,4.63,16.04,6.96-3.61,7.24-6.91,14.64-9.87,22.17-.76,1.95-8.56,19.95-7.54,20.92-2.34-2.22-5.45-3.38-8.49-4.45-9.45-3.33-19.02-6.29-28.69-8.88-1.39-.37-2.9-.73-4.23-.18-.8.33-1.45.95-2.08,1.55-9.74,9.11-23.2,14.07-36.5,13.46-2.98-.14-5.98-.54-8.95-.24-12.89,1.31-25.61,5.45-38.19,8.17-1.65.36-3.71.57-4.71-.8-.55-.75-.57-1.76-.92-2.63-.5-1.23-1.61-2.09-2.41-3.14-2.65-3.45,1.3-8.59-.13-12.81,1.16,3.41,2.78,7.27,6.23,8.28,1.18.35,2.44.3,3.66.23,11.01-.62,21.94-2.67,32.44-6.07Z"/>
                  <g class="cls-10">
                    <path class="cls-44" d="m100.75,179.33c-8.39-2.21-16.86-3.44-24.92-6.76-2.68-1.15-5.3-2.56-7.54-4.46,2.82.8,5.54,1.56,8.29,2.24,8.26,2.18,17.17,3.71,24.17,8.97h0Z"/>
                  </g>
                </g>
                <path class="cls-37" d="m135.16,138.6c-.55-.21-1.14-.42-1.7-.24-.57.18-.94.71-1.27,1.2-12.79,19.3-20.81,41.75-23.17,64.8,12.82,5.64,25.6,11.39,38.33,17.24-1.16-5.96.68-12.06,2.52-17.85,4.7-14.79,9.49-29.56,14.41-44.28.8-2.4,3.27-6.67,2.09-8.89-.98-1.83-8.11-3.22-10.1-3.98-7.03-2.67-14.07-5.33-21.1-8Z"/>
                <path class="cls-22" d="m402.3,274.14c-3.6-51.85-56.15-73.43-98.44-87.54-49.63-16.57-99.27-33.13-148.9-49.7-11.09,28.99-18.91,59.24-23.24,89.99,46.29,18.64,92.57,37.28,138.86,55.91,37.67,15.17,78.85,31.7,120.25,25.39,13.26-2.02,12.1-23.13,11.55-33.02-.02-.35-.04-.69-.06-1.03Z"/>
                <g class="cls-18">
                  <path class="cls-37" d="m394.92,249.42c-9.74-20.83-28.78-34.84-48.63-45.24-12.03-6.43-24.57-11.73-36.89-17.67,8.68,2.83,17.27,5.9,25.69,9.45,24.83,10.41,51.07,26.53,59.82,53.46h0Z"/>
                  <path class="cls-37" d="m313.9,198.94c16.25,6.33,29.15,22.84,31.37,40.13-1.71-4.06-3.54-7.96-5.65-11.7-6.35-11.26-15.26-20.83-25.72-28.43h0Z"/>
                  <path class="cls-37" d="m319.4,227.43c3.5,3.46,4.48,9.27,2.27,13.68-1.92-4.39-2.65-8.91-2.27-13.68h0Z"/>
                  <path class="cls-37" d="m265.78,209.25c.15,12.61-1.18,25.86-7.68,36.95-3.89,6.56-9.85,12.46-17.21,14.71,18.27-11.24,20.87-32.5,24.88-51.66h0Z"/>
                  <path class="cls-37" d="m235.12,239.44c-1.57,8.41-10.13,15.21-18.69,14.77,7.29-3.72,13.38-8.54,18.69-14.77h0Z"/>
                  <path class="cls-37" d="m203.3,236.51c.47,2.4-1.32,4.37-3.76,4.1-.48-2.41,1.32-4.36,3.76-4.1h0Z"/>
                </g>
              </g>
            </g>
          </g>
        </g>
      </g>
      <g class="cls-30">
        <g class="cls-42">
          <g>
            <g>
              <path class="cls-29" d="m413.72,524.56c10.38-7.11,20.21-13.87,20.27-13.7-13.66-32.64-27.33-65.28-40.99-97.91-6.59-15.75-13.2-31.53-20.88-46.79-5.7-11.33-14.02-33.25-25.42-39.83-11.34-6.55-31.58-7.43-44.44-10.23-17.97-3.92-36.06-7.33-54.29-9.88-40.58-5.68-77.8-10.51-117.82-.3-26.27,6.7-52.32,14.3-78.07,22.78-19.75,6.5-38.43,8.38-47.2,29.58-12.53,30.28-24.43,60.91-37.61,90.9-3.34,7.59-39.13,77.53-37.25,79.07,31.16,25.57,73.41,31.76,113.38,36.99,3.11,35.03-2.6,69.23-8.4,103.7-10.22,60.83-24.73,119.58-45.76,177.59,72.42,18.12,147.55,25.16,222.1,21.38,57.59-2.93,116.92-13.08,164.67-45.4-.84.57-36.54-49.98-39.34-55.44-8.99-17.51-11.56-35.11-13.78-54.53-5.56-48.66,2.02-98.32,5.14-146.88,21.24-6.8,42.38-14.47,62.01-25.16,1.99-1.08,13.11-8.69,23.67-15.93Z"/>
              <path class="cls-22" d="m258.02,349.36c7.44-10.82,14.12-21.92,22.75-31.76-18.02-6.07-35.16-11.93-54.04-14.6-21.17-3-42.64-4.27-63.99-2.62-15.21,1.17-28.88,5.9-43.32,10.3-4.56,1.39-36.99,14.39-37.85,13.45,15.87,17.51,29.47,38.48,42.73,58.02,18.14,26.72,35.29,54.11,51.41,82.1,19.51-26.87,39.02-53.74,58.53-80.61,8.19-11.28,15.98-22.78,23.78-34.28Z"/>
              <path class="cls-6" d="m392.52,529.31c-11.41,4.2-23.15,7.53-35.07,9.94,2.18-27.14,4.37-54.28,6.55-81.42,1.23-15.28.97-63.16-7.08-65.47-6.27-1.79-16.7-1.97-23.13-2.1,3.09-12.65,5.64-25.44,7.62-38.32-10.38,6.8-18.5,16.97-22.84,28.59,2.38-13.9,4.77-27.8,7.15-41.7-4.38,3.19-7.04,6.65-9.75,11.13-2.57,4.25-7.1,9.84-7.71,14.92,1.99-16.55,10.28-32.27,22.8-43.28-6.43-1.28-12.85-2.55-19.28-3.83-3.26-.65-6.51-1.29-9.77-1.94-14.79-2.93-29.63-5.73-44.53-7.88-15-2.17-29.82-5.46-44.88-7.23-32.69-3.83-68.73-2.36-99.38,11.08-11.22,4.92-10.7,18.1-11.58,28.76-1.24,15.03-3.52,29.71-3.68,44.86-.15,15.01.76,30.03,2.74,44.92.55,4.11,9.6,41.11,8.5,41.9-9.05,6.48-15.87,16.02-19.05,26.69-11.86-40.04-17.01-83.08-31.32-122.17-1.98-5.4-4.3-10.7-7.24-15.66-1.6-2.7-9.03-9.62-9.24-12.2,1.9,23.86,3.28,47.76,4.14,71.69-4.38-14.7-13.9-27.82-26.52-36.54,14.13,32.75,20.94,68.1,24,103.5,1.5,17.42.57,35.66,2.61,52.84,1.89,15.93,9.38,32.92,15.97,47.39,14.11,30.97,34.61,59.05,60.04,81.7-19.79-3.33-39.99-4.24-60-2.7,36.61,34.23,88.27,50.17,138.34,47.97-37.51,7.99-75.02,15.97-112.53,23.96,11.76,14.05,30.22,20.53,48.15,24.3,36.53,7.67,74.86,6.6,110.9-3.11-48.4,15.75-98.89,25.04-149.73,27.56-17.8.88-36.18,1.05-52.5,8.21,3.61,5.44,10.02,8.21,16.13,10.49,55.23,20.55,116.84,23.56,173.82,8.49-11.69,5.3-22.46,12.62-31.7,21.53,12.34,8.19,28.56,6.63,43.11,3.86,32.36-6.16,65.3-17.68,87.58-41.95-2.95,3.18-3.96,14.14-6.26,18.6-3.04,5.89-6.96,11.3-11.3,16.29-9.63,11.07-21.41,18.1-33.15,26.55,17.45-.55,33.99-7.48,50.06-14.3,15.9-6.74,29.47-13.21,42.99-23.58-7.33-10.3-16.44-19.4-23.54-30.05-5.36-8.05-11.41-16.1-15.85-24.72-8.99-17.51-11.56-35.11-13.78-54.53-5.49-48.1,3.56-96.42,3.64-144.6,16.65-6.57,32.59-14.95,47.46-24.92,5.5-3.69,15.11-7.36,18.04-13.52Z"/>
              <path class="cls-5" d="m328.16,422.39c-1.63-1.62-3.56-2.96-5.46-4.28-3.37-2.34-6.74-4.67-10.11-7.01-1.1-.76-2.26-1.6-2.7-2.87-.39-1.14-.11-2.39.15-3.56,3.54-15.53,3.3-31.44,6.15-47.1.08-.45.13-1-.24-1.28-.19-.14-.43-.16-.66-.18-3.93-.28-7.7-1.23-11.68-1.55-2.84-.22-5.69-.34-8.53-.64-1.6-.17-17.52-1.05-17.66-1.96-2.09-13.33-3.7-27.29-11.88-38.41-1.2-1.63-2.53-3.24-4.34-4.14-1.27-.64-2.7-.88-4.11-1.11-14.62-2.44-28.96-5.67-43.77-7.08-.6-.06-1.24-.1-1.76.2-.5.29-.77.83-1.03,1.35-2.88,5.78-6.95,12.28-12.46,15.92-4.94,3.27-11.63,4.3-17.18,6.74-3.24,1.42-35.4,17.61-36.95,14.33,9.44,20.03.39,48.16-2.48,68.96-3.44,24.94-6.88,49.88-10.32,74.83-8.34-1.44-18.53.45-26.51-2.74-2.34-.94-16.43-12.09-12.18-15.63-15.12,12.56-19.71,36.14-10.42,53.46,9.3,17.32,31.49,26.52,50.31,20.86-.75,6.11-3.04,12.8,3.34,16.7,1,.61,2.16,1.12,2.75,2.13.46.78.48,1.73.49,2.64.11,12.32-14.27,136.63-14.38,136.61,66.39,12.18,133.17,22.24,200.2,30.16-.59,0-1.32-13.86-1.42-14.69-3.72-32.57-.75-65.35,1.55-97.9,1.03-14.55.32-29.61,4.57-43.43,4.45-14.5,2.63-31.31,2.13-46.21-.93-27.48-.49-55,1.32-82.44.42-6.34.76-13.24-2.87-18.45-.57-.81-1.21-1.56-1.91-2.25Z"/>
              <g>
                <g class="cls-4">
                  <path class="cls-33" d="m39.39,348.43c12.92,26.34,13.84,56.56,13.01,85.35-1,27.83-2.53,58.98-4.11,86.77-1.1,19.28-2.35,38.54-3.86,57.79.06-9.66.33-19.31.5-28.96.88-37.34,2.61-78.26,4.4-115.71,1.2-28.67,1.11-58.27-9.93-85.24h0Z"/>
                </g>
                <g class="cls-4">
                  <path class="cls-33" d="m324.83,342.39c-6.73,7.3-8.45,17.43-9.97,26.91-1.54,9.62-2.5,19.31-3.12,29.03-2.21,38.91-.34,78.02,4.97,116.62,2.67,19.31,5.95,38.79,5.46,58.37-.45-9.77-1.57-19.46-3.13-29.09-8.99-48.09-14.21-97.16-9.83-146.08.84-9.77,2.16-19.51,4.09-29.12,2-9.42,4.23-19.78,11.53-26.63h0Z"/>
                </g>
                <g class="cls-4">
                  <path class="cls-33" d="m339.57,353.26c-5.86,8.09-10.62,16.79-14.27,26.01-2.94,7.38-5.45,15.9-7.49,23.57-2.12,8.06-4.02,16.13-6.45,24.16,2.65-26.23,8.16-54.97,28.2-73.74h0Z"/>
                </g>
                <g class="cls-4">
                  <path class="cls-33" d="m68.21,327.41c16.39,16.14,30.99,34.57,43.98,53.55,12.82,19.11,24.5,39.47,33.74,60.53-11.57-19.81-23.55-39.72-36.45-58.7-12.83-19.02-26.87-37.53-41.27-55.39h0Z"/>
                </g>
              </g>
            </g>
            <g>
              <path class="cls-41" d="m298.26,205.17c2.72,7.31,5.53,14.61,7.12,22.24,1.7,8.14,1.94,16.78-.81,24.63.31-6.51-.92-13.09-3.55-19.05,2.82,6.4-.27,19.24-3.02,25.25-3.28,7.17-7.55,14.17-13.56,19.41.08-3.92,1.29-7.82,3.44-11.1-3.35,6.15-7.93,10.98-13.3,15.32-4.11,3.32-13.04,5.4-16.08,8.6,3.97-4.19,6.99-9.27,8.76-14.77-9.41,8.79-20.29,18.16-33.16,17.67,4.37-4.28,8.74-8.56,13.11-12.83-32.61,15.1-62.93,12.42-97.4,9.78-10.8-.83-20.98,1.06-31.83.57-8.51-.39-17.2-2.94-23.47-8.7,2.96,5.16,5.92,10.32,8.89,15.49-13.48-4.31-25.22-13.81-32.27-26.08.4,6.34,1.75,12.62,4.02,18.55-10.99-5.76-19.13-16.68-21.51-28.86-.11,5.66-.22,11.31-.32,16.97.06-3.19-3.2-8.65-4.14-11.87-.8-2.74-2.16-5.31-2.91-8.02-2.17-7.81-.41-18.2.86-26.06-3.82,7.57-5.8,16.06-5.7,24.54-6.71-18.84-.58-39.81,7.94-57.9,8.52-18.1,19.56-35.44,23.23-55.1,2.21-11.82,1.72-23.99,2.81-35.94,1.17-12.88,14.52-15.29,24.15-21.57,20.15-13.15,43.83-20.26,67.43-23.99,21.72-3.43,45.57-3.96,66.81,2.2,9.12,2.64,18.19,6.61,24.64,13.57,8.27,8.93,11.13,21.45,13.67,33.35,6.65,31.1,14.54,62.28,25.62,92.24.18.49.36.98.55,1.47Z"/>
              <path class="cls-17" d="m281.64,208.31c1,5.29,1.8,10.6,2.16,15.97.93,13.63-1.22,28.03-9.26,39.08,1.3-5.69,1.38-11.65.24-17.37-3.16,11.83-10.66,22.44-20.74,29.37,3.66-5.93,5.32-13.08,4.65-20.01-8.99,14.96-25.29,30.81-42.81,34.9-21.12,4.93-44.75,1.7-66.07.07-7.61-.58-15.71.84-22.93-2.23-11.13-4.73-20.62-13.23-26.54-23.77,1.41,4.84,4.03,9.32,7.57,12.91-5.55-1.17-10.17-5-13.92-9.26-3.75-4.26-6.87-9.06-10.86-13.09.37,7.96,2.72,15.82,6.78,22.67-16.51-14.21-25.47-36.72-23.23-58.39-2.84,9.91-3.69,20.39-2.5,30.63-7.07-11.91-6.2-26.98-2.57-40.34,3.63-13.36,9.76-26,12.71-39.53,4.55-20.85-.83-41.24,1.06-62.03,1.17-12.88,14.52-15.29,24.15-21.57,20.15-13.15,43.83-20.26,67.43-23.99,21.72-3.43,45.57-3.96,66.81,2.2,9.12,2.64,18.19,6.61,24.64,13.57,9.47,10.22,10.35,23.75,10.97,37.01,1.09,23.07,2.59,46.2,7.1,68.85,1.61,8.12,3.62,16.19,5.15,24.33Z"/>
              <path class="cls-21" d="m107.12,326.95c12.7,13.64,24.47,25.97,35.45,41.32,12.48,17.45,24.38,35.31,35.66,53.56,20.5-26.67,40.93-53.39,61.85-79.7,2.08-2.62,15.92-22.31,19.1-21.37-10.29-3.03-20.34-6.85-30.04-11.41-2.66-1.25-5.37-2.62-7.25-4.89-9.09-11-5.95-31.55-6.5-44.63,10.81-6.14,22.16-12.82,28.09-23.75,2.89-5.33,4.28-11.34,5.32-17.31,1.27-7.3,2.07-14.68,2.39-22.08-.1,2.39,5.33,3.95,7.01,3.4,2.04-.67,3.58-2.34,4.92-4.02,11.44-14.26,16.21-33.03,16.08-51.31-.03-4.4-.36-8.9-2.11-12.93-1.76-4.03-5.19-7.56-9.52-8.39-4.32-.83-9.32,1.74-10.3,6.03,1.98-8.71.91-18.66-.33-27.45-1.37-9.68-3.66-19.25-7.3-28.33-7.27-18.15-17.68-33.95-37.84-38.26-10.42-2.23-21.22-1.62-31.82-.59-17.95,1.74-35.95,4.7-52.67,11.45-17.62,7.12-35.92,21.08-39.73,40.65-1.72,8.85-1.31,18.54-1.22,27.58.09,9.68,1.33,20.67,3.71,30.06-1.5-3.28-3.76-6.21-6.55-8.49-3.99-3.26-11.31,0-14.81,2.99-4.83,4.13-7.05,10.72-7.11,17.08-.14,15.97,7.97,35.01,18.24,47.14,2,2.36,19.02,12.89,16.11,2.71,3.47,12.75,5.98,26.98,14,37.83,3.53,4.78,8.13,8.66,13.19,11.73,5.22,3.16,10.85,6.81,16.55,8.98.52,11.45-.23,22.85-.25,34.28-.02,9.38-2.24,13.3-10.52,17.01-7.64,3.43-15.41,6.53-23.18,9.64.45.49.9.98,1.37,1.48Z"/>
              <path class="cls-1" d="m93.93,210.47c.32-.02.62-.09.87-.23,2.12-1.16.75-4.13.64-6.31-.75-15.16.92-30.51,2.25-45.59.68-7.7,1.37-15.45,3.37-22.91.96-3.57,2.28-7.16,4.83-9.84,2.63-2.76,6.3-4.26,9.42-6.45,6.23-4.37,10.25-11.74,10.53-19.35.18,6.52.39,13.15,2.47,19.34,2.08,6.18,6.34,11.96,12.45,14.26-3.39-6.82-5.57-14.24-6.39-21.81,3.28,3.01,5.51,6.96,8.23,10.49,2.72,3.53,6.25,6.81,10.64,7.54-1.22-2.93-2.45-5.85-3.67-8.78,6.5,5.62,14.97,8.91,23.55,9.14-3.2-4.87-6.39-9.73-9.59-14.6,5.51,2.2,10.51,5.48,15.76,8.22,16.72,8.72,36.26,11.91,54.89,8.96-3.47-2.84-6.34-6.42-8.36-10.43,5.76,2.15,11.53,4.3,17.29,6.44,3.81,1.42,9.08,2.38,11.12-1.14-2.04,3.52-1.84,11.37-2.76,15.59-1.24,5.65-2.36,11.32-3.11,17.06-.79,6.11-3.07,44.21,9.87,39.99,4.74-1.55,5.42-6.45,8.66-9.21-5.96,5.09-8.55-6.18-8.6-9.45-.11-7.38,0-16.01,2.37-23.04,3.76,3.43,5.8,5.73,5.56,11.4-.2,4.72-2,9.21-3.78,13.59,8.15-10.56,9.46-24.72,10.39-38.03.12-1.76.24-3.58-.4-5.23-.63-1.65-2.23-3.06-3.98-2.88.5-2.06,2.38-3.71,4.48-3.94,2.11-.23,4.3.97,5.23,2.87-.17-1.59-.4-2.87-1.04-4.34-1.76-4.03-5.19-7.56-9.52-8.39-4.32-.83-9.32,1.74-10.3,6.03,1.98-8.71.91-18.66-.33-27.45-1.37-9.68-3.66-19.25-7.3-28.33-7.27-18.15-17.68-33.95-37.84-38.26-10.42-2.23-21.22-1.62-31.82-.59-17.95,1.74-35.95,4.7-52.67,11.45-17.62,7.12-35.92,21.08-39.73,40.65-1.72,8.85-1.31,18.54-1.22,27.58.09,9.68,1.33,20.67,3.71,30.06-1.5-3.28-3.76-6.21-6.55-8.49-3.75-3.06-15.58-.21-15.57,5.27,3.17-.39,6.47.38,9.14,2.13-4.33,2.03-7.03,6.63-7.82,11.34-.78,4.71.1,9.54,1.35,14.15,1.27,4.64,2.91,9.17,4.92,13.55,1.96,4.28,4.52,8.65,8.74,10.74-2.21-4.69-4.46-9.51-4.92-14.68-.45-5.17,1.25-10.85,5.54-13.77,2.86,9.36,4.44,19.1,4.66,28.89.08,3.43-.42,7.57-3.51,9.07-3.62,1.75-7.57-1.5-10.28-4.48,4.33,4.76,7.39,8.47,13.67,10.96,1.03.41,3.04,1.34,4.49,1.25Z"/>
              <path class="cls-3" d="m248.35,323.08c1.4.9-35.3,40.19-39.12,43.47-3.77-.54-49.22-5.7-49.31-4.52-.5,6.4-1,12.8-1.5,19.21-13.9-19.37-30.45-37.28-45.63-55.69,1.1-1.39,2.22-2.76,3.24-4.2-3.45.39-7.32,2.79-10.63,4.11.45.49.9.98,1.37,1.48,12.7,13.64,24.47,25.97,35.45,41.32,12.48,17.45,24.38,35.31,35.66,53.56,20.5-26.67,40.93-53.39,61.85-79.7,2.08-2.62,15.92-22.31,19.1-21.37-6.32-1.86-12.53-4.05-18.69-6.36-5.78-2.17-10.85-5.24-16.45-7.82,8.31,5.37,16.33,11.18,24.66,16.5Z"/>
              <path class="cls-16" d="m136.19,310.74c-2.26,2.64-5.19,4.73-8.43,5.99,3.71.39,7.49.17,11.13-.64.62-.14,1.29-.29,1.89-.05.61.25.99.86,1.3,1.44,1.68,3.26,2.31,7.09,4.63,9.93,2.52,3.08,6.69,4.47,10.67,4.33,3.98-.14,7.79-1.62,11.33-3.44,7.62-3.92,14.3-9.44,20.48-15.36,8.08-7.75,15.42-16.27,22.01-25.33,2.12-2.92,4.23-5.64,4.11-9.3-.21-6.28.18-12.62.13-18.9-3.32,2.22-10.01,5.06-14.79,7.12-5.16,2.22-10.35,4.4-15.49,6.66-2.5,1.1-5.04,2.2-7.74,2.62-4.35.66-8.75-.52-12.96-1.78-8.45-2.54-16.55-6.19-24.74-9.49.67,4.8.21,10.55.12,15.39-.1,5.48-.29,10.97-.35,16.45-.05,3.95.34,9.33-1.98,12.69-.4.58-.83,1.14-1.29,1.68Z"/>
              <path class="cls-11" d="m160.71,229.65c6.89,1.33,14.93.87,20.75-2.11,5.31-2.72,11.97-7.76,14.94-13.06,1.07-1.91,1.8-4.12,3.51-5.48-9.21,2.02-19.17-2.11-27.32,4.26-.92.72-1.86,1.63-3.02,1.61-.58-.01-1.13-.26-1.67-.5-4.8-2.1-10.07-3.11-15.31-3.01-2.62.05-5.24.38-7.78.99-1.01.24-5.97,1.9-6.79,1,2.51,2.78,4.24,5.98,7.09,8.55,3.03,2.74,6.58,4.91,10.41,6.33,1.61.6,3.37,1.08,5.2,1.43Z"/>
              <g class="cls-2">
                <path class="cls-8" d="m197.92,195.42c.48.11.96.22,1.45.32,8.31,1.76,52.53,2.84,42.18-16.15-2.07-3.8-6.52-5.56-10.65-6.85-10.31-3.21-20.8-2.78-31.06.59-5.69,1.87-11.57,7.05-10.58,13.61.47,3.14,2.56,5.99,5.4,7.39,1.03.51,2.14.83,3.26,1.1Z"/>
                <path class="cls-8" d="m106.46,197.98c.95.48,1.92.85,2.85,1.07,8.7,2.13,17.95,2.01,26.59-.33,2.98-.81,5.96-1.92,8.27-3.96,6.57-5.81,3.04-14.44-4.33-16.85-8.75-2.86-18.73-2.49-27.33.68-4.33,1.59-12.01,5.37-12.21,10.81-.14,3.8,2.87,6.91,6.17,8.59Z"/>
              </g>
              <g>
                <g>
                  <g class="cls-13">
                    <path class="cls-21" d="m272.95,149.99c-.03-3-.75-16.36-5.77-10.17-3.82,4.35-4.78,10.15-5.59,15.84-.84,5.85-1.56,11.72-2.13,17.6-.21,2.96-.79,6.08,1.23,8.23.06,0-.13.06.06,0,1.09-.73,2.04-2.81,2.64-4.17,1.35-3.48,2.86-7.18,2.5-11-.14-1.87-.71-3.71-1.77-5.28-1.02-1.61-2.99-2.75-3.59-4.67.45.9,1.21,1.53,2,2.12,4.54,2.86,5.99,8.82,4.84,13.86-.63,3.02-1.44,5.99-2.83,8.8-.55.95-1.04,1.95-2.38,2.83-3.07,1.69-5.37-2.13-5.82-4.64-.68-4.38.2-8.11.5-12.32,1.19-7.95,1.61-16.22,5.12-23.59,1.39-2.7,5.03-8.2,8.66-6.83,3.63,2.05,2.85,9.85,2.33,13.39h0Z"/>
                  </g>
                  <g class="cls-13">
                    <path class="cls-21" d="m69.4,164.09c-.62-4.34-.89-8.95.58-13.18,2.74-6.24,8.97-3.53,11.74,1.15,5.99,9.5,7.58,20.85,8.45,31.79.07,2.14.52,4.59.22,6.84-.23,3.22-4.15,6.1-6.95,3.68-4.51-5.19-5.57-12.93-5.13-19.5.27-4.12,1.51-9.89,6.38-10.64-1.05.3-1.95.94-2.63,1.74-2.13,2.46-2.16,5.83-2.15,8.96.1,6.02,1.52,12.63,5.34,17.23.24.18.36.19.54.18,2.09-.61,1.54-3.13,1.46-5-.78-9.53-1.71-19.26-5.05-28.26-1.47-3.42-3.05-8.07-6.6-9.61-1.76-.67-3.36.46-4.18,2.1-1.71,3.73-1.95,8.35-2.03,12.5h0Z"/>
                  </g>
                </g>
                <g class="cls-13">
                  <path class="cls-21" d="m159.96,148.86c4.71,10.91,5.95,23.32,3.09,34.93-1.04,3.94-2.68,7.85-5.18,11.28,0,0-1.06-4.19-1.06-4.19,2.78,1.73,5.64,2.81,8.96,2.9,3.34.12,7.01-.61,10.75-.93-1.58,1.02-3.19,1.95-4.88,2.79-7.31,3.71-13.22,2.85-20.31-.87,8.51-13.35,7.8-30.6,8.63-45.92h0Z"/>
                </g>
                <g class="cls-20">
                  <path class="cls-21" d="m132.14,210.53c6.58,1.98,12.83,5,19.51,6.21,6.58,1.32,13.16,1.97,19.48,1.19,13.24-1.73,25.02-9.19,36.86-15.57-4.47,5.46-9.74,10.23-15.74,14.17-12.78,8.64-27.46,10.49-41.96,5.15-6.89-2.35-12.61-6.62-18.15-11.14h0Z"/>
                </g>
                <g>
                  <path class="cls-40" d="m108.87,166.7c2.09-17.35,22.7-15.49,32.27-5.44-6.53.15-12.58-1.28-18.79-1.08-1.48.09-3.12.25-4.51.68-3.34,1.11-5.58,3.44-8.97,5.84h0Z"/>
                  <path class="cls-40" d="m195.67,160.25c12.73-12.66,24.63-19.09,37.49-2.38-6.39-1.06-12.12-4.84-18.24-3.31-6.47,1.59-12.29,5.58-19.25,5.68h0Z"/>
                </g>
                <g>
                  <path class="cls-41" d="m195.94,135.16c-1.43-7.93,4.79-15.44,12.12-17.97,12.46-4.57,26.55,2.73,29.57,15.63-4,.56-8.93-.06-12.92-.32-3.45-.26-6.19-.28-8.91-.34-6.95-.13-12.93.54-19.86,2.99h0Z"/>
                  <path class="cls-41" d="m146.56,136.28c-11.38.03-22.07.06-32.79,3.91-4.2,1.43-8,3.52-12.06,5.48-2.48-11.49,7.35-22.24,18.43-24.02,10.94-2.06,23.27,3.66,26.42,14.62h0Z"/>
                </g>
              </g>
              <path class="cls-41" d="m245.67,153.88c.25-4.94.8-9.86,1.62-14.73,1.39-8.17,9.57-25.29-1.02-30.33-17.93-8.53-31.33-24.12-44.17-39.27,6.53,13.4,15.43,25.65,26.16,36,6.28,6.06,13.69,11.56,22.69,12.17-6.6,4.55-16.26-.03-22.45-3.32-21.56-11.42-40.78-32.14-55.39-51.34,7.08,22.62,24.9,39.99,42.07,56.33-14.92-3.09-28.96-10.3-40.16-20.63,7.72,9.65,17.07,17.99,27.54,24.55-11.39.18-21.94-3.97-32.18-8.33-6.83-2.9-18.69-12.82-19.72-20.84,1.25,9.79,4.28,19.34,8.9,28.07-1.66-3.14-8.2-6.2-10.83-9.3-3.36-3.97-6.24-8.43-8.68-13.01,1.03,7.17,2.76,14.24,5.16,21.07-7.81-10.36-11.89-23.48-11.32-36.44-4.67,13.21-7.48,27.93-2.73,41.11-3.39-2.98-5.21-7.39-6.19-11.8-2.63-11.79.31-20.81,3.56-31.88-4.83,10.63-11.95,20.21-20.73,27.91-2.68,2.35-5.59,4.61-7.29,7.75-1.28,2.36-1.78,5.07-2.14,7.73-2.99,22.12,2.5,45.28-4.14,66.58,1.65-5.5.43-15.82-.81-21.38-1.61-7.25-2.56-14.68-4.16-21.99-1.42-6.51-1.47-15.7-10.66-14.38-3.22.46-6.09,2.19-8.87,3.88,2.75-1.67,1.68-14.08,1.22-16.87-2.95,1.79-6.7,2.18-9.95,1.05,3.93-2.79,7.26-6.42,9.72-10.56-4.11,2.96-9.71,3.73-14.46,1.99,5.29.86,9.56-4.15,12.33-8.74,5.26-8.72,6.45-19.16,10.9-28.42,4.5-9.36,10.53-17.99,17.83-25.37,13.03-13.18,30.04-22.36,48.21-26.01,8.81-1.77,18.07-2.25,26.7.28,5.01-4.17,11.26-6.81,17.74-7.51-3.22,3.43-6.43,6.85-9.65,10.28,11.51-5.89,25.51-5.4,37.7-1.07,17.45,6.2,36.49,19.99,44.41,37.17,3.63,7.88,5.48,16.44,7,24.98.98,5.48,2.46,11.84,7.53,14.12-1.66.57-3.55.49-5.15-.23,3.19,8.87,5.67,19.73,5.67,29.22-3.42-4.55-6.68-10.36-13.09-6.59-4.57,2.69-6.72,8.96-8.2,13.71-2.09,6.7-2.79,13.69-4.69,20.37-1.97,6.92-4.35,12.9-4.4,20.28-1.39-8.67-1.85-17.49-1.4-26.26Z"/>
              <path class="cls-17" d="m245.67,153.88c.25-4.94.8-9.86,1.62-14.73,1.39-8.17,9.57-25.29-1.02-30.33-17.93-8.53-31.33-24.12-44.17-39.27,6.53,13.4,15.43,25.65,26.16,36,6.28,6.06,13.69,11.56,22.69,12.17-6.6,4.55-16.26-.03-22.45-3.32-21.56-11.42-40.78-32.14-55.39-51.34,7.08,22.62,24.9,39.99,42.07,56.33-14.92-3.09-28.96-10.3-40.16-20.63,7.72,9.65,17.07,17.99,27.54,24.55-11.39.18-21.94-3.97-32.18-8.33-6.83-2.9-18.69-12.82-19.72-20.84,1.25,9.79,4.28,19.34,8.9,28.07-1.66-3.14-8.2-6.2-10.83-9.3-3.36-3.97-6.24-8.43-8.68-13.01,1.03,7.17,2.76,14.24,5.16,21.07-7.81-10.36-11.89-23.48-11.32-36.44-4.67,13.21-7.48,27.93-2.73,41.11-3.39-2.98-5.21-7.39-6.19-11.8-2.63-11.79.31-20.81,3.56-31.88-4.83,10.63-11.95,20.21-20.73,27.91-2.68,2.35-5.59,4.61-7.29,7.75-1.28,2.36-1.78,5.07-2.14,7.73-2.99,22.12,2.5,45.28-4.14,66.58,1.65-5.5.43-15.82-.81-21.38-1.61-7.25-2.56-14.68-4.16-21.99-.68-3.09-.55-6.21-1.87-9.15-1.19-2.66-4.45-4.09-5.26-6.74-.29-.94-.12-1.94.02-2.91.66-4.57.76-9.22.31-13.81-3.21,1.25-6.8,1.49-10.16.7,11.31-6.06,18.11-17.89,24.31-29.13-5.47,7.98-13.37,14.28-22.37,17.83,9.48-6.86,13.85-18.56,20.22-28.37,7.9-12.17,19.19-21.74,30.83-30.4-2.86,6.13-3.77,13.14-2.58,19.79,3.22-5.56,7-10.79,11.28-15.58-2.71,3.04-.79,15.38.43,18.8,2.15,6.02,4.81,12.09,8.44,17.39.12-9.87,1.18-19.72,3.16-29.39,1.37,14.82,12.51,26.7,23.64,36.59-5.37-14.95-6.05-31.54-1.9-46.88,6.84,12.5,16.93,23.2,29.01,30.75-3.86-10.24-6.57-20.91-8.08-31.75,8.95,11.96,18.48,23.65,30.15,32.98,6.87,5.49,14.5,8.79,21.88,13.26-9.08-10.28-16.45-22.05-21.73-34.71,7.12,4.31,14.3,8.66,20.41,14.31,14.58,13.49,21.73,33,28.05,51.83-6.28,3.07-9.29,9.02-11.29,15.5-2.09,6.7-2.79,13.69-4.69,20.37-1.97,6.92-4.35,12.9-4.4,20.28-1.39-8.67-1.85-17.49-1.4-26.26Z"/>
            </g>
            <g>
              <path class="cls-26" d="m216.81,293.33c12.92-1.43,33.06,5.21,44.1,15.05,11.4,10.16,13.36,27.87,14.92,42.34,5.19,48.08.96,96.07-3.66,144.22"/>
              <path class="cls-26" d="m139.45,298.81c-17.68-.06-34.99,11.05-44.11,26.44-9.12,15.39-11.85,33.7-12.88,51.56-2.18,37.91,2.52,76.2,13.83,112.45"/>
            </g>
            <polygon class="cls-34" points="236.57 366.12 234.79 388.92 318.96 400.02 321.64 376.73 236.57 366.12"/>
          </g>
          <g class="cls-20">
            <path class="cls-21" d="m233.02,161.38c-9.99,8.43-25.5,10.89-37.21,4.69,12.75,1.57,25.14-.48,37.21-4.69h0Z"/>
          </g>
          <g class="cls-20">
            <path class="cls-21" d="m142.56,166.37c-9.99,8.43-25.5,10.89-37.21,4.69,12.75,1.57,25.14-.48,37.21-4.69h0Z"/>
          </g>
        </g>
      </g>
      <g class="cls-36">
        <g class="cls-46">
          <rect class="cls-45" x="-192.25" y="280.93" width="627.38" height="1039.66"/>
        </g>
      </g>
    </g>
  </g>
</svg>