<?xml version="1.0" encoding="UTF-8"?>
<svg xmlns="http://www.w3.org/2000/svg" xmlns:xlink="http://www.w3.org/1999/xlink" viewBox="0 0 342.84 376.07">
  <defs>
    <style>
      .cls-1, .cls-2, .cls-3, .cls-4, .cls-5, .cls-6, .cls-7, .cls-8, .cls-9, .cls-10, .cls-11, .cls-12, .cls-13, .cls-14, .cls-15, .cls-16, .cls-17, .cls-18, .cls-19, .cls-20, .cls-21, .cls-22, .cls-23, .cls-24, .cls-25, .cls-26 {
        mix-blend-mode: multiply;
      }

      .cls-1, .cls-7, .cls-24 {
        opacity: .53;
      }

      .cls-1, .cls-27 {
        fill: #d39181;
      }

      .cls-2 {
        opacity: .47;
      }

      .cls-2, .cls-11, .cls-28 {
        fill: #845642;
      }

      .cls-29, .cls-9, .cls-21 {
        fill: #f4bdb3;
      }

      .cls-30 {
        fill: #fff;
      }

      .cls-31, .cls-32 {
        stroke-width: 10.61px;
      }

      .cls-31, .cls-32, .cls-33, .cls-34 {
        stroke: #312f44;
      }

      .cls-31, .cls-32, .cls-33, .cls-34, .cls-35 {
        stroke-miterlimit: 10;
      }

      .cls-31, .cls-32, .cls-33, .cls-34, .cls-35, .cls-36 {
        fill: none;
      }

      .cls-31, .cls-35 {
        stroke-linecap: round;
      }

      .cls-3 {
        opacity: .78;
      }

      .cls-4, .cls-37 {
        fill: #4b496b;
      }

      .cls-4, .cls-20, .cls-23 {
        opacity: .43;
      }

      .cls-5, .cls-11 {
        opacity: .28;
      }

      .cls-38 {
        fill: #ace2e0;
      }

      .cls-6 {
        opacity: .48;
      }

      .cls-7, .cls-39 {
        fill: #8ed6c3;
      }

      .cls-40 {
        clip-path: url(#clippath-2);
      }

      .cls-8, .cls-41 {
        fill: #f5f5ff;
      }

      .cls-42 {
        isolation: isolate;
      }

      .cls-43 {
        fill: #6fa595;
      }

      .cls-44 {
        clip-path: url(#clippath-6);
      }

      .cls-9 {
        opacity: .5;
      }

      .cls-10 {
        opacity: .63;
      }

      .cls-45 {
        clip-path: url(#clippath-7);
      }

      .cls-46 {
        clip-path: url(#clippath-1);
      }

      .cls-47 {
        clip-path: url(#clippath-4);
      }

      .cls-12 {
        opacity: .69;
      }

      .cls-12, .cls-14, .cls-48, .cls-19, .cls-20, .cls-25 {
        fill: #e2a996;
      }

      .cls-33 {
        stroke-width: 10.28px;
      }

      .cls-34 {
        stroke-width: 3.54px;
      }

      .cls-49 {
        fill: #cbcbef;
      }

      .cls-50, .cls-16 {
        fill: #5971b5;
      }

      .cls-13 {
        fill: #5c9aad;
        opacity: .37;
      }

      .cls-35 {
        stroke: #7196cc;
        stroke-width: 7.07px;
      }

      .cls-14, .cls-26 {
        opacity: .46;
      }

      .cls-51, .cls-15 {
        fill: #7196cc;
      }

      .cls-15 {
        opacity: .39;
      }

      .cls-52 {
        clip-path: url(#clippath);
      }

      .cls-16 {
        opacity: .56;
      }

      .cls-53 {
        clip-path: url(#clippath-3);
      }

      .cls-17 {
        fill: #d0d0ea;
        opacity: .68;
      }

      .cls-18 {
        fill: #935d52;
      }

      .cls-54 {
        opacity: .42;
      }

      .cls-19 {
        opacity: .45;
      }

      .cls-55 {
        clip-path: url(#clippath-5);
      }

      .cls-56 {
        fill: #c6873c;
      }

      .cls-23 {
        fill: #73bfa6;
      }

      .cls-25 {
        opacity: .82;
      }
    </style>
    <clipPath id="clippath">
      <circle class="cls-36" cx="170.68" cy="-642.65" r="181.78"/>
    </clipPath>
    <clipPath id="clippath-1">
      <path class="cls-36" d="m445.04-163.9c-2-13.27-5.47-26.49-8.92-39.5-5.68-21.37-11.38-42.76-17.49-64.05,0-.04-.01-.07-.02-.11-.71-2.76-1.59-5.49-2.39-8.23-.14-.46-.28-.93-.42-1.39-1.43-4.85-2.88-9.7-4.36-14.54-.05-.16-.1-.32-.15-.49-.7-2.29-1.42-4.58-2.14-6.87.88-.6,1.76-1.21,2.64-1.81,10.38-7.11,20.21-13.87,20.27-13.7-13.66-32.64-27.33-65.28-40.99-97.91-6.59-15.75-13.2-31.52-20.88-46.79-5.7-11.33-14.02-33.25-25.42-39.83-8.91-5.15-23.31-6.79-35.31-8.62-3.12-.62-6.25-1.24-9.37-1.86-4.14-.82-8.28-1.63-12.43-2.41-9.63-1.95-19.29-3.74-28.98-5.3-11.1-9.69-30.98-16.21-43.79-14.8-.24-1.03-.45-2.08-.62-3.14,10.24-1.77,20.51-4.78,31.01-9.64-4.37,4.28-8.74,8.56-13.11,12.83,12.87.5,23.75-8.88,33.16-17.67-1.77,5.49-4.78,10.58-8.76,14.77,3.04-3.2,11.97-5.28,16.08-8.6,4.88-3.94,9.09-8.3,12.34-13.67-1.54,2.9-2.41,6.16-2.48,9.45,6.01-5.25,10.29-12.25,13.56-19.41,2.75-6.01,5.84-18.85,3.02-25.25,2.63,5.96,3.85,12.54,3.55,19.05,2.75-7.85,2.5-16.49.81-24.63-1.59-7.63-4.4-14.94-7.12-22.24-.18-.49-.37-.98-.55-1.47-7.43-20.1-13.41-40.75-18.56-61.56-.15-3.48-.62-6.96-1.98-10.15.09.13.19.26.28.38,0-9.49-2.48-20.35-5.67-29.22,1.61.72,3.49.8,5.15.23-5.08-2.28-6.56-8.64-7.53-14.12-1.52-8.54-3.37-17.1-7-24.98-7.92-17.18-26.96-30.97-44.41-37.17-12.18-4.33-26.19-4.82-37.7,1.07,3.22-3.43,6.43-6.85,9.65-10.28-6.48.69-12.73,3.34-17.74,7.51-8.63-2.52-17.89-2.05-26.7-.28-18.16,3.65-35.18,12.84-48.21,26.01-7.3,7.39-13.33,16.01-17.83,25.37-4.45,9.26-5.64,19.7-10.9,28.42-2.77,4.6-7.03,9.61-12.33,8.74,4.76,1.74,10.35.97,14.46-1.99-2.45,4.15-5.79,7.77-9.72,10.56,3.25,1.13,7,.73,9.95-1.05.43,2.56,1.35,13.24-.63,16.25-.66.49-1.2,1.03-1.6,1.63-4.83,4.13-7.05,10.72-7.1,17.08-.04,4.63.63,9.52,1.83,14.42-4.44,9.55-9.61,18.86-14.09,28.38-8.52,18.1-14.65,39.06-7.94,57.9-.1-8.48,1.87-16.97,5.7-24.54-1.27,7.85-3.03,18.25-.86,26.06.76,2.71,2.11,5.27,2.91,8.02.94,3.22,4.2,8.68,4.14,11.87.11-5.66.22-11.31.32-16.97,2.38,12.18,10.52,23.1,21.52,28.86-2.26-5.94-3.62-12.21-4.02-18.55,7.05,12.27,18.79,21.77,32.27,26.08-2.96-5.16-5.92-10.32-8.89-15.49,6.28,5.76,14.96,8.31,23.47,8.7,7.37.34,14.43-.41,21.59-.68-.04,1.84-.07,3.68-.1,5.52,0,.22-.01.44-.01.66,0,.31,0,.65,0,.97,0,.49-.01.97-.01,1.46,0,1.71-.08,3.23-.25,4.6-.28.06-.55.12-.83.18l1.08-4.78c-12.2-.04-24.22,5.24-33.5,13.57-18.08,5.02-36.05,10.43-53.87,16.3-19.75,6.5-38.43,8.38-47.2,29.58-12.53,30.28-24.43,60.91-37.61,90.9-3.34,7.59-39.13,77.53-37.25,79.07,6.24,5.12,12.93,9.46,19.96,13.17-.85,3.28-1.66,6.57-2.23,9.87-.16.94-.21,1.76-.2,2.55-3.85,16.8-7.2,33.58-10.42,49.9-4.6,23.38-8.16,46.92-10.64,70.56-.26,2.45-.46,4.99-.34,7.47-.39,3.18-.22,6.34.85,9.33.46,1.29,1.13,2.48,1.86,3.63,6.15,9.73,15.57,15.63,26.8,16.06,20.61.8,41.04-4.14,60.95-9.85,4.46-1.28,8.91-2.62,13.35-3.98C18.22-77.55,5.11-27.96-12.68,21.09-6.37,22.67-.03,24.14,6.32,25.55c-1.09,7-2.13,13.55-3.04,19.11-1.56,7.73-3.43,15.8-4.49,15.84.56-.02,1.12-.06,1.68-.08-.05.21-.09.4-.14.56.06-.22.45-.43,1.12-.61,6.73-.34,13.4-1.06,20.08-1.49,3.76-.1,7.9-.18,12.38-.23.86.03,1.71.04,2.57.1,14.05.93,28.13,1.47,42.21,1.79,27.64.62,55.29.32,82.94.12,52.58-.38,105.16-2.15,157.65-5.32,12.39-.75,24.78-1.59,37.17-2.49,1.84.4,3.48,1.01,4.77,1.93-.34-.72-.65-1.47-.98-2.2.51-.04,1.03-.07,1.54-.11-.21-.39-.42-.79-.62-1.19-3.92-7.71-6.24-16.14-8.54-24.48-1.34-4.88-2.69-9.76-4.03-14.64,6.35-3.12,12.42-6.53,18.4-10.51,2.39-1.48,4.77-2.99,7.11-4.58-.04.02-.16-.08-.31-.23.28-.21.55-.4.83-.61-5.26-7.39-11.43-14.16-17.12-21.33-5.98-8.4-12.36-17.53-16.86-24.18-1.94-3.03-3.78-6.11-5.41-9.26-7.48-14.57-10.51-29.2-12.6-44.89l15.86,2.64c.95-11.27,1.9-22.55,2.85-33.82,5.54,4.26,11.26,8.33,17.21,12.18,24.26,15.69,53.97,27.63,80.78,17.73,2.23-.82,4.54-1.9,5.82-3.99,1.16-1.89,1.26-4.28,1.24-6.54-.03-3.75-.04-8.45-.6-13.01,1.64-11.83,1.04-23.75-.75-35.64ZM38.9-260.54c.86.11,1.72.23,2.58.34,1.48,16.69.95,33.19-.63,49.62-.76.07-1.51.13-2.27.2-3.35.29-6.72.59-10.11.92,4.02-16.92,7.39-33.98,10.42-51.08Zm176.66-269.08c-.22-.71-.42-1.43-.59-2.17l.59,2.17Z"/>
    </clipPath>
    <clipPath id="clippath-2">
      <circle class="cls-36" cx="171.16" cy="-235.4" r="181.78"/>
    </clipPath>
    <clipPath id="clippath-3">
      <path class="cls-36" d="m379.85,152.07c-.16-.76-.3-1.54-.43-2.31-.41-2.99-.84-5.97-1.27-8.96-.03-.25-.07-.5-.1-.75-.04-.29-.09-.59-.13-.88-.77-5.26-1.56-10.52-2.36-15.77-.04-.27-.08-.54-.12-.8-.05-.35-.11-.71-.16-1.06,2.99-2.1,5.88-4.36,8.68-6.74,2.4-1.95,4.78-3.95,7.12-6.08-.15-.54-.32-1.08-.47-1.62-.13-.95-.5-2.12-.97-3.34-9.2-32.34-19.25-64.44-30.2-96.23-8.3-24.11-15.54-51.19-35.52-68.03.05-.02.08-.07.13-.09-1.06-.93-2.08-1.67-3.09-2.25-.92-.69-1.82-1.39-2.8-2.03-13.33-8.84-28.78-14.73-44.66-19.5.08-.06.16-.12.24-.18-.09.07-.22.11-.38.14-12-3.6-24.24-6.56-36.02-9.65-2.56-3.36-5.45-6.43-8.73-9.11,1.29-.07,2.57-.19,3.81-.36,7.99-1.15,15.8-3.55,23.06-7.1,5.73-2.81,11.31-6.53,14.54-12.03,3.7-6.29,2.12-13.15,1.76-20.19,8.75,2.44,18.88-1.47,23.73-9.16,4.31-6.83,4.26-14.88,2.07-22.33-.65-2.22-6.89-19.43-8.23-19.04,9.78-2.84,16.05-13.39,15.87-23.57-.15-8.58-4.18-16.67-9.94-23.12-1.07-1.2-2.21-2.35-3.39-3.43,10.36-4.39,16.86-16.42,14.88-27.49-2.2-12.26-12.86-20.92-22.66-28.62-1.23-.97-2.48-1.97-3.72-2.98-.14-.49-.3-.96-.53-1.4-.62-1.23-3.41-2.56-3.25-4.02.14-1.28,4.99-4.12,5.99-5.39,1.91-2.46,3.2-5.42,3.48-8.54.54-6.04-2.87-8.43-5.66-12.98-2.47-4.04-1.87-8.14-1.57-12.74.74-11.15-5.09-22.5-14.59-28.39-9.5-5.89-22.26-6.06-31.92-.44-.11-9.13-7.53-16.95-16.11-20.08-17.48-6.37-51.96,2.29-68.46,10.22-8.26,3.97-15.82,11.25-16.54,20.39-1.05-3.66-2.21-7.5-4.95-10.14-2.74-2.64-7.61-3.49-10.25-.74-3.56,3.71-.36,9.98,3.7,13.13-7.9-.79-15.96-1.57-23.7.2-13.66,3.13-20.84,13.55-24.84,25.88-3.82,10.55-5.42,22.83-5.44,34.15-.02.31-.05.62-.07.92-6.65,3.09-13.67,5.49-19.72,9.62-5.52,3.77-10.07,8.94-13.11,14.89-2.84,5.55-4.23,12.62-.76,17.79,2.74,4.08,7.73,5.9,12.39,7.47-6.17,5.22-12.39,10.5-17.22,16.97-4.83,6.47-8.23,14.34-7.91,22.41.31,8.07,4.88,16.23,12.32,19.36,3.01,1.27,6.36,1.7,9.25,3.23.8.43,1.59.96,2.06,1.74,1.3,2.14-.27,4.81-1.63,6.92-4.82,7.46-7.49,16.65-5.71,25.35,1.79,8.7,8.64,16.58,17.4,18.05,9.28,1.55,18.92-3.91,27.98-1.38.86.24,1.72.56,2.36,1.19,2.01,1.97.66,5.27-.15,7.96-2.26,7.44,1.29,16.22,8.08,19.99,4.99,2.77,11.13,2.88,16.65,1.43,4.3-1.12,8.3-3.11,12.17-5.33,1.88,1.09,3.1,2.57,4.08,4.22.03.17.06.33.1.49-7.85,2.02-14.99,6.91-19.52,13.69-.62.92-1.16,1.88-1.68,2.85-10.38,2.35-24.53,5.55-24.97,5.67-.03,0,.18.36.59.99-6.98,1.92-13.92,3.95-20.84,6.11-7.55,2.32-15.08,4.79-22.61,7.46-7.06,2.5-14.17,5.06-20.49,9.09-10.23,6.52-17.42,15.87-22.96,26.42-.25.48-.53.94-.77,1.42-.07.13-.13.27-.19.4-.31.62-.59,1.25-.89,1.87-.42.88-.84,1.77-1.25,2.66-.22.48-.43.96-.64,1.45C-18.83-14.47-23.6,2.49-28.52,19.12c-6.93,19.86-23.37,65.85-30.46,83.35-1.08,2.32-2.16,4.63-3.29,6.92,3.51,2.06,7.11,3.98,10.75,5.8-1.45,4.77-2.87,9.55-4.28,14.34-.65,2.23-1.3,4.45-1.95,6.68-.42,1.44-1.97,4.42-1.55,5.93.02.06.05.12.07.18-4.79,17.32-9.21,34.73-13.25,52.24-2.5,10.81-4.85,21.84-4.58,32.9-.8,4.26-.6,8.84.73,12.75,3.28,9.58,14.65,10.51,23.25,11.17,21.18,1.62,42.37,1.64,63.49.32-.48,5.06-.93,10.11-1.43,15.17-1.26,12.83-19.58,144.97-18.5,145.4,4.6,1.86,9.25,3.55,13.93,5.12-1.59,22.81-3.13,45.65-3.96,68.47-.03.45-.05.9-.08,1.35-.36,5.81-3.46,16.03-.49,20.51,0,.39-.02.77-.02,1.16.37,0,.74-.01,1.11-.02.88.67,2.03,1.09,3.58,1.09.58,0,1.21-.05,1.89-.16,2.89-.46,5.79-.82,8.69-1.15,87.38-1.38,174.78-1.71,262.16-.94,8.72.08,17.4.59,26.11.8,2.28.05,4.54-.04,6.81-.14,1.9.07,3.8.13,5.7.2,3.95.15,8.39.55,10.9,3.59-.68-.82-1.18-1.92-1.58-3.2.22.05.43.07.65.12-1.43-16.85-3.91-33.77-5.68-50.63-1.72-14.49-3.71-28.95-5.69-43.4,5.02-1.78,10.06-3.29,15.15-3.87-8.49.96-25.94-118.73-27.2-130.38-.5-4.64-.92-9.28-1.3-13.93,2.79.47,5.6.9,8.41,1.28,20.23,2.75,43.55,6.1,62.42-3.65,2.5-1.29,4.92-2.89,6.9-4.87,1.26-.67,2.42-1.49,3.29-2.62,1.69-2.19,2.02-5.1,2.24-7.86,2.65-32.37-.27-64.7-4.66-96.97.04-.03.07-.05.11-.07ZM204.93-102.55c-.13-3.02-.22-6.04-.29-9.07.17.28.4.55.67.81l3.86,9.24c-1.41-.34-2.83-.66-4.24-.98Z"/>
    </clipPath>
    <clipPath id="clippath-4">
      <circle class="cls-36" cx="171.31" cy="187.14" r="181.78"/>
    </clipPath>
    <clipPath id="clippath-5">
      <path class="cls-36" d="m385.26,579.6c-2.87-35.87-13-70.58-20.29-105.69-4.25-20.49-8.88-40.94-14.52-61.18-5.64-20.2-10.83-40.02-21.35-58.79-1.37-2.45-2.88-4.94-5.31-6.64-2.28-1.59-5.15-2.33-7.94-3.04-4.38-1.11-8.8-2.18-13.23-3.24.04-.25.1-.51.14-.76-.26.2-.5.41-.76.61-1.5-.36-3.01-.71-4.51-1.06,1.11-2.6,2.01-5.3,2.65-8.1,3.34-14.84-1.09-30.64-9.17-43.53,8.48-1.3,13.65-10.12,15.78-18.43,5.02-19.56-.53-41.51-14.24-56.34-6.52-7.05-14.62-12.47-21.28-19.38.52-2.47.87-4.97,1.02-7.48.6-10-1.98-29.16-13.29-32.98-.29-1.16-.5-2.32-.65-3.49.02-2.48.04-4.96.04-7.42.01-7.11-.18-14.15-1.45-21.01-.72-3.88-1.79-7.71-3.36-11.46-.16-.5-.31-1-.47-1.5-7.88-23.48-23.31-33.58-43.81-38.19,9.82-3.62,16.88-13.77,17.14-24.2.07-1.6-.03-3.21-.29-4.81-.81-4.85-3.16-9.6-7.13-12.51-3.87-2.84-9.37-3.6-13.56-1.29.38-.73.54-1.52.51-2.33.11-2.84-2.18-5.91-5.1-6.75-3.58-1.04-7.38.29-10.7,2.07,1.34-1.53,2.39-3.31,3.02-5.24-.05,0-.11.01-.16.02.05-.13.11-.26.16-.4-6.35.28-12.46,3.78-15.94,9.1.08-.35.14-.7.14-1.05.29-2.97-2.05-5.99-4.94-7.13-3.28-1.3-6.96-.81-10.43-.2-11.36,2.01-23.01,5.45-31.34,13.42-8.33,7.98-12.21,21.57-6.15,31.39,2.88,4.66,7.51,7.86,12.52,10.2-2.72.64-5.42,1.36-8.09,2.18-15.62,4.77-31.19,12.6-42.34,24.24-.25.26-.5.53-.75.79-7.05,7.6-12.23,16.77-14.38,27.73-.5,2.54-1.47,6.08-1.35,9.23-.23,1.94-.43,3.89-.55,5.85-.11,1.79-.14,3.57-.11,5.32.06,4.88.61,9.63,1.31,14.34-1.76-.58-3.69-.71-5.48-.27-4.57,1.12-8.03,4.94-10.24,9.09-8.07,15.16-3.45,32.33,5.09,46.48-.49.83-.96,1.67-1.41,2.5-7.24,9.39-15.78,17.77-23.26,26.99-8.86,10.92-16.45,23.7-17.22,37.74-.77,14.04,7.08,29.28,20.58,33.23-8.88,7.5-7.91,21.73-2.87,32.22-.33.12-.65.23-.98.35-1.34.49-2.75.98-4.19,1.47-.23.02-.46.07-.68.13-6.73,1.84-13.25,3.55-17.57,6.6-.08-.1-.14-.2-.22-.3l.08.4c-.32.23-.63.47-.92.71-1.65.87-3.23,1.78-4.64,2.79-2.03,1.46-3.19,3.64-4.26,5.74-11.54,22.62-20.1,45.28-26.85,69.35-7.92,28.24-13.84,56.87-18.92,85.6-2.58,14.59-4.94,29.21-7.24,43.83-2.81,17.9-6.77,34.9-3.87,53.02-.68,8.06-1.05,21.71,9.51,23.36,27.16,4.24,54.5-1.46,80.55-9.16-2.84,9.08-5.82,18.1-8.91,27.1.06,0,.11-.02.17-.02-2.22,6.46-4.47,12.91-6.76,19.34-2.93,8.23-20.01,102.8-4.64,104.25,3.1.29,6.2.56,9.31.85-1.94,24.05-4.45,43.57-8.17,51.61,106.99,3.5,214.07,4.09,321.09,1.78-6.8-16.51-17.34-144.44-22.29-172.76.54.14,1.08.28,1.62.43-2.21-6.26-3.69-12.06-4.73-17.86.16-3.02.05-6.04-.17-9.07,10.71,2.28,21.69,3.65,32.73,3.49,10.64-.16,29-.87,37.24-7.68,1.44-1.19,2.28-2.83,2.91-4.48,1.14-2.98,1.64-6.02,1.65-9.07.15-.78.27-1.56.34-2.34,1.13-12.37-.86-25.9-1.86-38.32Z"/>
    </clipPath>
    <clipPath id="clippath-6">
      <circle class="cls-36" cx="170.04" cy="633.26" r="181.78"/>
    </clipPath>
    <clipPath id="clippath-7">
      <path class="cls-36" d="m397.75,997.14c1.53-.82,3.04-1.67,4.55-2.54,4.56-2.14,9.15-4.2,13.83-5.96-11.37-31.21-25.99-61.28-36.71-92.98-10.36-30.65-20.15-61.53-32.21-91.57-2.6-6.48-5.6-13.29-11.37-17.21-3.53-2.4-7.78-3.47-11.93-4.45-19.06-4.48-38.37-7.87-57.82-10.17-1.72-.2-11.46-1.82-21-3.35-9.8-7.01-21.69-10.68-33.36-8.25-3.44-14.97-4.25-30.35-4.26-45.76,5.96-2.28,11.47-5.37,15.87-9.98,9.17-9.61,13.16-24.74,15.14-37.54.68-4.38,1.05-8.87,1.2-13.4,2.27,2.46,6.73,3.16,9.96,1.59,5.92-2.89,10.65-11.72,13-17.58,2.91-7.24,4.49-15.13,4.65-22.93.16-7.94-2.29-16.26-8.11-21.66-.19-.18-.41-.32-.61-.47.05,0,.1-.03.16-.03-.06,0-.15,0-.25-.04-1.05-.76-2.23-1.21-3.48-1.39-.18-.05-.35-.08-.49-.09-.77-.04-1.5-.01-2.22.07l.17-.53c-.44,0-.85.03-1.26.07,1.39-12.27,1.63-24.99,1.17-37.63.2.25.4.49.58.76,0-1.21.01-2.42.02-3.63.23-6.23.15-12.46-.19-18.69-.44-9.11-1.77-18.14-3.87-26.99-.63-2.69-1.36-5.41-2.8-7.7-1.28-2.04-3.07-3.65-4.88-5.15-10.39-8.66-22.29-14.98-34.59-19.77-13.31-5.18-25.66-7.18-39.82-7.12-20.84.09-41.65,4.74-60.82,13.58-5.04,2.33-10.3,5.81-15.29,10.02.06-.06.12-.14.18-.19-4.39,3.47-8.05,7.41-11.46,11.74-.36.44-.7.89-1.05,1.34-.2.26-.41.51-.61.78-.28.37-.55.76-.82,1.14-.11.16-.23.31-.34.47-.65.91-1.27,1.85-1.88,2.79-.04.06-.08.13-.12.19-1.79,2.82-3.37,5.79-4.64,8.91-.08.19-.15.37-.23.55-.38.96-.74,1.93-1.05,2.92-2.94,9.24-2.86,19.56-1.65,29.4.24,1.96.54,3.89.85,5.8.11.99.22,1.99.31,2.97.05-.05.11-.1.16-.16,0,.04.01.07.02.11,0-.04,0-.08,0-.13.1-.11.21-.2.32-.31.4,6.57.88,13.13,1.53,19.67.46,4.56.97,9.12,1.55,13.67.49,3.85,1.53,7.94,1.67,11.86,0,0,0,0,0,0h0c0,.22.01.42.01.63-.1,0-.19.02-.29.02-.35.03-.69.03-1.04.09-.28.05-.52.15-.79.21-.16.04-.33.08-.49.13-13.2,3.55-11.68,23.16-8.77,33.29,3.77,13.12,12.94,29.34,26.71,33.78.93.3,1.91.56,2.88.45,1.9-.2,3.28-1.64,4.36-3.3.22,1.55.46,3.09.72,4.62-.22-.21-.45-.4-.67-.61.3.43.56.91.79,1.41.72,4.22,1.62,8.4,2.73,12.55.06.27.12.56.19.82,2.3,8.39,6.46,15.07,13.82,20.35,4.46,3.2,9.45,5.61,14.59,7.69,1.8,13,2.82,26.11,3.04,39.23.06,3.62.04,7.23-.02,10.85-13.68,0-23.47,3.67-35.13,10.68-2.16,1.3-4.17,2.84-6.07,4.55-2.9.77-5.02,1.32-5.69,1.47-14.9,3.36-29.27,6.61-43.47,11.67-.39-.27-.77-.36-1.14-.24-2.56.86-5.1,1.79-7.61,2.78.13.22.24.46.36.68-.57.24-1.14.44-1.71.69-2.82,1.21-5.66,2.5-8,4.49-3,2.56-4.97,6.11-6.79,9.61-32.08,61.45-41.89,132.11-68.55,196.11.4-.91,6.27.11,14.89,2.18,1.35.35,2.69.7,4.03,1.05-.15.52-.3,1.04-.45,1.56-.62,2.16-1.25,4.31-1.86,6.47-.07.25-.15.5-.22.75-.06.23-.12.46-.18.69-1.88,6.69-3.7,13.4-5.44,20.12-.15.4-.29.81-.45,1.2.05.01.09.03.14.04-4.32,16.71-8.25,33.49-11.76,50.33-2.43,11.63-4.67,23.5-2.94,35.18.24,1.64.61,3.3,1.25,4.84.18.85.38,1.69.64,2.5,3.32,10.54,14.81,11.55,23.52,12.28,17.44,1.45,34.9,1.73,52.32,1-1.83,11.76-3.72,23.49-5.76,35.18-.05.27-.1.55-.15.82-.66,2.58-1.15,4.44-1.05,5.92-8.86,50.45-18.27,100.8-28.26,151.04-.31,1.58,99.82,15.32,108.7,16.08,25.52,2.2,51.37,4.79,77.02,4.99,36.65.29,73.3.37,109.94-.03,26.02,0,51.75-1.93,77.7-2.01-.31-3.57-1.05-11.56-2.11-22.82-3.45-35.89-6.19-81.73-10.87-113.21-.03.02-.08.04-.11.06-.7-7.07-1.41-14.21-2.12-21.38.73-.92.73-2.07.53-3.49-1.05-7.2-2.05-14.4-3.04-21.61-.38-3.82-.77-7.64-1.15-11.44,19.28,2.8,40.71,5.17,58.32-4.72,1.91-1.07,3.77-2.35,5.44-3.84,2.13-.78,4.18-1.74,5.57-3.35,1.8-2.08,2.15-4.85,2.39-7.47,3.98-43.46-3.84-86.85-11.24-130.08.51-5.44-1.52-12.77-2.91-18.66Zm-182.02-229.38c-.61-.37-1.17-.78-1.65-1.31-1.26-1.38-1.76-3.26-2.19-5.08-.05-.22-.09-.44-.14-.66l3.99,7.04Zm-84.62,2.75c-.57.35-1.95,1.12-3.83,2.12l3.96-8.13c-.03,2-.06,4.01-.14,6.01Z"/>
    </clipPath>
  </defs>
  <g class="cls-42">
    <g id="Capa_6" data-name="Capa 6">
      <g class="cls-52">
        <g class="cls-46">
          <g>
            <path class="cls-43" d="m.34,60.98c1.31-5.09,169.39-.51,186-.93,31.52-.79,63.03-1.9,94.53-3.34,15.75-.72,31.49-1.51,47.23-2.39,8.03-.45,25.82-4.74,33.12.46-12.92-27.16-14.79-62.56-23.22-91.58C232.13-17.08,122.15-19.75,17.36-44.57c-.59-.14-14.5,95.81-17.02,105.55Z"/>
            <path class="cls-13" d="m361.16,51.28c-3.92-7.71-6.24-16.14-8.54-24.48-5.45-19.81-10.9-39.62-16.36-59.44-2.03-7.34-22.55,0-28.85.91-12.48,1.81-25,3.31-37.56,4.5-25.11,2.39-50.33,3.55-75.55,3.49-50.44-.12-100.87-5.13-150.34-15.01-2.24-.45-26.68-5.44-26.61-5.8C14.27-28,8.33-10.76,7.56,6.08c-.39,8.61,0,16.15-1.69,24.91-.55,2.83-5.16,29.45-7.07,29.51,12.66-.43,25.06-2.58,37.69-1.75,14.05.93,28.13,1.47,42.21,1.79,27.64.62,55.29.32,82.94.12,52.58-.38,105.16-2.15,157.65-5.32,14.17-.86,28.34-1.81,42.5-2.87-.21-.39-.42-.79-.62-1.19Z"/>
            <g>
              <path class="cls-39" d="m411.79-300.87c10.38-7.11,20.21-13.87,20.27-13.7-13.66-32.64-27.33-65.28-40.99-97.91-6.59-15.75-13.2-31.53-20.88-46.79-5.7-11.33-14.02-33.25-25.42-39.83-11.34-6.55-31.58-7.43-44.44-10.23-17.97-3.92-36.06-7.33-54.29-9.88-40.58-5.68-77.8-10.51-117.82-.3-26.27,6.7-52.32,14.3-78.07,22.78-19.75,6.5-38.43,8.38-47.2,29.58-12.53,30.28-24.43,60.91-37.61,90.9-3.34,7.59-39.13,77.53-37.25,79.07,31.16,25.57,73.41,31.76,113.38,36.99,3.11,35.03-2.6,69.23-8.4,103.7C22.87-95.67,8.35-36.91-12.68,21.09c72.42,18.12,147.55,25.16,222.1,21.38,57.59-2.93,116.92-13.08,164.67-45.4-.84.57-36.54-49.98-39.34-55.44-8.99-17.51-11.56-35.11-13.78-54.53-5.56-48.66,2.02-98.32,5.14-146.88,21.24-6.8,42.38-14.47,62.01-25.16,1.99-1.08,13.11-8.69,23.67-15.93Z"/>
              <path class="cls-7" d="m390.59-296.12c-11.41,4.2-23.15,7.53-35.07,9.94,2.18-27.14,4.37-54.28,6.55-81.42,1.23-15.28.97-63.16-7.08-65.47-6.27-1.79-16.7-1.97-23.13-2.1,3.09-12.65,5.64-25.44,7.62-38.32-10.38,6.8-18.5,16.97-22.84,28.59,2.38-13.9,4.77-27.8,7.15-41.7-4.38,3.19-7.04,6.65-9.75,11.13-2.57,4.25-7.1,9.84-7.71,14.92,1.99-16.55,10.28-32.27,22.8-43.28-6.43-1.28-12.85-2.55-19.28-3.83-3.26-.65-6.51-1.29-9.77-1.94-14.79-2.93-29.63-5.73-44.53-7.88-15-2.17-29.82-5.46-44.88-7.23-32.69-3.83-68.73-2.36-99.38,11.08-11.22,4.92-10.7,18.1-11.58,28.76-1.24,15.03-3.52,29.71-3.68,44.86-.15,15.01.76,30.03,2.74,44.92.55,4.11,9.6,41.11,8.5,41.9-9.05,6.48-15.87,16.02-19.05,26.69-11.86-40.04-17.01-83.08-31.32-122.17-1.98-5.4-4.3-10.7-7.24-15.66-1.6-2.7-9.03-9.62-9.24-12.2,1.9,23.86,3.28,47.76,4.14,71.69-4.38-14.7-13.9-27.82-26.52-36.54,14.13,32.75,20.94,68.1,24,103.5,1.5,17.42.57,35.66,2.61,52.84,1.89,15.93,9.38,32.92,15.97,47.39,14.11,30.97,34.61,59.05,60.04,81.7-19.79-3.33-39.99-4.24-60-2.7,36.61,34.23,88.27,50.17,138.34,47.97-37.51,7.99-75.02,15.97-112.53,23.96,11.76,14.05,30.22,20.53,48.15,24.3,36.53,7.67,74.86,6.6,110.9-3.11-48.4,15.75-98.89,25.04-149.73,27.56-17.8.88-36.18,1.05-52.5,8.21,3.61,5.44,10.02,8.21,16.13,10.49C114.7,1.28,176.31,4.29,233.29-10.78c-11.69,5.3-22.46,12.62-31.7,21.53,12.34,8.19,28.56,6.63,43.11,3.86,32.36-6.16,65.3-17.68,87.58-41.95-2.95,3.18-3.96,14.14-6.26,18.6-3.04,5.89-6.96,11.3-11.3,16.29-9.63,11.07-21.41,18.1-33.15,26.55,17.45-.55,33.99-7.48,50.06-14.3,15.9-6.74,29.47-13.21,42.99-23.58-7.33-10.3-16.44-19.4-23.54-30.05-5.36-8.05-11.41-16.1-15.85-24.72-8.99-17.51-11.56-35.11-13.78-54.53-5.49-48.1,3.56-96.42,3.64-144.6,16.65-6.57,32.59-14.95,47.46-24.92,5.5-3.69,15.11-7.36,18.04-13.52Z"/>
              <g class="cls-6">
                <path class="cls-43" d="m236.8,6.68c16.37-4.55,31.86-10.88,46.74-19.06-12.25,11.96-29.63,19.03-46.74,19.06h0Z"/>
              </g>
            </g>
          </g>
        </g>
      </g>
      <g class="cls-40">
        <g class="cls-53">
          <g>
            <g>
              <path class="cls-50" d="m4.52,509.92c-9.82-.02-4.64-15.15-4.17-22.75.76-12.43,1.52-24.86,2.28-37.29.36-5.96,3.72-71.18,4.36-71.18,22.33,1.57,43.98,10.15,66.29,10.41,29.21.34,58.92,1.39,88.1-.07,25.67-1.28,51.37-2.49,76.95-5.18,13.92-1.46,56.85-16.3,67.34-4.53,4.57,5.12,5.68,12.4,6.59,19.22,2.68,20.08,5.36,40.17,7.84,60.27,1.24,10.05,2.43,20.11,3.55,30.18.61,5.51-.61,18.58,3.13,23.1-2.52-3.04-6.96-3.44-10.9-3.59-87.19-3.42-174.48-4.12-261.71-2.09-15.96.37-31.98.84-47.75,3.33-.69.11-1.32.16-1.89.16Z"/>
              <path class="cls-16" d="m320.17,458.41c1.78,16.87,4.25,33.78,5.68,50.63-7.51-1.81-14.95-.4-22.48-.57-8.71-.2-17.39-.72-26.11-.8-92.48-.81-184.96-.42-277.43,1.18.5-43.36,4.5-86.84,7.15-130.14,22.33,1.57,43.98,10.15,66.29,10.41,29.21.34,58.92,1.39,88.1-.07,25.67-1.28,51.37-2.49,76.95-5.18,13.92-1.46,56.85-16.3,67.34-4.53,4.57,5.12,5.68,12.4,6.59,19.22,2.66,19.95,5.54,39.86,7.91,59.85Z"/>
            </g>
            <g>
              <path class="cls-48" d="m-72.5,194.55c-2.79,12.09-5.43,24.44-4.39,36.81.23,2.69.66,5.45,2.04,7.77,3.9,6.53,13.09,6.82,20.68,6.32,10.59-.7,21.73-1.58,30.53-7.5,7.55-5.09,12.39-13.26,16.53-21.37,20.25-39.63,29.87-83.68,39.29-127.18,1.93-8.93,3.87-18.17,1.99-27.11-1.8-8.53-6.92-15.94-12.22-22.86C16.21,31.92,2.34,8.9-8.57,11.07c-12.31,2.45-17.12,27.3-20.58,36.86-11.15,30.78-21.12,62-29.86,93.55-4.87,17.59-9.37,35.29-13.48,53.07Z"/>
              <path class="cls-25" d="m-55.35,203.17c-2.54,6.16-3.47,12.98-2.58,19.58.34,2.53.97,5.09,2.39,7.21,1.76,2.62,3.89,3.44,6.82,3.58,3.36.17,6.67.91,10.07,1.03,6.33.21,12.84-.81,18.58-3.56,6.87-3.3,9.62-8.43,12.97-15,20.25-39.63,29.87-83.68,39.29-127.18,1.93-8.93,3.87-18.17,1.99-27.11-1.8-8.53-6.92-15.94-12.22-22.86C16.21,31.35,2.34,8.34-8.57,10.5c-12.31,2.45-17.12,27.3-20.58,36.86-6.52,17.99-12.56,36.15-18.26,54.42-2.88,9.22-5.67,18.48-8.4,27.75-.65,2.23-1.3,4.45-1.95,6.68-.42,1.44-1.97,4.42-1.55,5.93.74,2.72,7.42,5.37,9.77,6.66,15.27,8.36,32.17,13.15,48.96,17.35-8.71,4.55-18.09,7.66-27,11.79-8.91,4.13-17.58,9.48-23.39,17.41-1.77,2.42-3.24,5.05-4.38,7.82Z"/>
              <path class="cls-48" d="m300.37,191.55c3.02,19.2,7.71,38.89,19.71,54.19,6.4,8.16,15.22,14.69,25.05,18.06,12.02,4.12,18.58,1.73,30.18-2.67,2.53-.96,5.2-2.02,6.86-4.16,1.69-2.19,2.02-5.1,2.24-7.86,4.42-53.96-6.61-107.79-14.21-161.39-3.92-27.67-7.54-56.99-24.67-79.07-3.25-4.19-7.18-8.19-12.25-9.72-12.92-3.9-22.57,11.39-25.08,21.71-13.64,56.12-16.83,113.69-7.83,170.91Z"/>
              <path class="cls-12" d="m300.37,191.55c3.02,19.2,7.71,38.89,19.71,54.19,1.25,1.6,2.6,3.09,4.01,4.54.71.74,3.1,2.02,3.45,2.64-2.54-4.61-5.17-9.59-4.67-14.83.31-3.23,1.79-6.24,3.47-9.02,7.55-12.49,19.28-21.76,29.99-31.67.49-.45,1.01-.96,1.08-1.63.09-.8-.49-1.5-1.04-2.08-2.94-3.09-6.5-5.38-9.8-8.09-5.62-4.61-11.24-9.22-16.86-13.83,8.82-1.79,17.45-4.42,25.85-7.64,8.75-3.36,16.71-6.43,24.31-12.08-.83-3.91-1.23-8.06-1.8-12.02-.85-5.82-1.73-11.64-2.62-17.46-1.77-11.62-3.58-23.23-5.23-34.87-3.92-27.67-7.54-56.99-24.67-79.07-3.25-4.19-7.18-8.19-12.25-9.72-12.92-3.9-22.57,11.39-25.08,21.71-13.64,56.12-16.83,113.69-7.83,170.91Z"/>
            </g>
            <g>
              <path class="cls-51" d="m290.16,423.03c-13.08,3.23-26.37,5.56-39.73,7.25-30.34,3.85-60.98,4.38-91.52,4.49-57.01.21-115.52-1.18-168.43-22.53-1.07-.43,17.24-132.57,18.5-145.4,2.45-24.9,4.7-49.81,6.74-74.75.49-5.94,6.94-57.9,2.46-58.17-28.23-1.74-56.02-10.21-80.46-24.54,1.6.94,34.12-90.75,36.76-99.04C-17.18-15.9-10.12-48.49,14.81-64.37c6.32-4.02,13.43-6.59,20.49-9.09,38.26-13.55,76.72-22.17,116.29-30.99,25.58-5.7,51.29.79,75.88,7.71,29.93,8.42,64.4,14.43,90.69,31.85,24.46,16.21,32.21,46.08,41.27,72.39,11.51,33.42,22.06,67.17,31.64,101.19-26.43,24.09-56.43,35.95-91.57,39.9-.65,20.31-.59,40.46-.59,60.71.14,23.85.96,47.72,3.53,71.44,1.26,11.65,18.71,131.34,27.2,130.38-11.66,1.32-23.05,7.56-34.52,10.61-1.65.44-3.3.86-4.96,1.27Z"/>
              <path class="cls-15" d="m278.34-15.39c-20,22.99-43.26,46.54-59.87,72.12-8.4,12.94-13.37,28.79-20.5,42.52-2.47,4.75-20.34,42.98-24.66,42.52,24.94,2.67,50.03,3.9,75.11,3.68-12.44,10.97-23.47,23.55-32.75,37.33,9.45-1.65,18.89-3.3,28.34-4.94-1.24,22.91-2.48,45.81-3.72,68.72-.22,4.1-.47,8.3-2.12,12.05-2.07,4.69-6.11,8.16-10.01,11.46-18.66,15.75-37.32,31.5-55.98,47.25,30.85,1.65,62.04-3.49,90.76-14.96-17.29,30.46-39.93,57.84-66.56,80.48,34.05-.14,68.11-.28,102.16-.43,1.08,5.46,3.13,10.73,6.02,15.47-16.6,6.27-33.58,11.53-50.82,15.74,4.36,3.49,9.5,5.98,14.93,7.24-34.87,14.98-72.47,13.77-109.77,13.91-57.01.21-115.52-1.18-168.43-22.53-1.07-.43,17.24-132.57,18.5-145.4,2.45-24.9,4.7-49.81,6.74-74.75.49-5.94,6.94-57.9,2.46-58.17-28.23-1.74-56.02-10.21-80.46-24.54,11.75-23.82,20.61-48.92,28.81-74.15C-25.75,11.49-20.02-14.14-8.92-36.54c6.23-12.56,16.32-23.22,28.64-29.95,5.24-2.86,10.83-5.02,16.44-7.08,37.55-13.73,76.51-22.22,115.43-30.89,25.58-5.7,51.29.79,75.88,7.71,7.73,2.18,15.5,4.21,23.17,6.59,3.8,1.18,7.73,2.04,11.61,3.01,1.68.42,10.22,3.52,11.49,2.58-2.53,1.89-5.06,3.78-7.59,5.67,4.57,4.5,10.44,7.79,16.03,10.93,5.56,3.12,11.53,6.04,17.88,7.08,4.4.72,8.48-.66,12.5-2.3,4.72-1.93,7.77-.67,11.49,2.57-2.48,1.01-2.9,5.84-5.33,6.47,2.2-.57,4.54-.58,6.74-.01-8.95,14.2-13.2,31.03-14.25,47.82-1.05,16.79.97,33.62,3.78,50.2,1.79,10.52,4.95,22.44,14.5,27.08,6.07,2.95,13.21,2.1,19.89,1.18.5,7.69-1.48,15.52-5.57,22.03,4.77-2.29,10.58-2.24,15.3.14-7.28,9.83-15.86,18.68-25.44,26.25,18.51-6.31,36.31-14.73,52.94-25.06-1.04.64,5.7,11.5,3.64,13.56-11.85,11.75-25.89,20.35-41.17,26.93-15.8,6.81-33.86,7.26-49.14,13.64-.85-.6-1.32-1.43-1.4-2.5-6.74-54.17-13.47-108.34-20.21-162.51Z"/>
              <g>
                <g class="cls-26">
                  <path class="cls-50" d="m24.1-65.26c16.42,32.13,14.12,69.68,10.62,104.53-2.87,24.97-5.91,50.38-9.24,75.26-2.98,20.04-9.04,39.46-9.25,59.82-.68-10.11.41-20.28,1.87-30.29,1.5-10.02,3.4-19.95,4.64-29.91,2.34-21.76,5.89-53.62,8.55-75.25,3.68-34.69,6.83-71.26-7.19-104.17h0Z"/>
                </g>
                <g class="cls-26">
                  <path class="cls-50" d="m42.6-72.48c7.04,14.34,6.89,30.94,8.02,46.53,1.75,20.23,1.61,40.79-1.63,60.86,0-13.54,0-26.97-.63-40.46-.29-9.01-1.21-17.93-1.5-26.96-.42-13.45-.27-26.95-4.27-39.98h0Z"/>
                </g>
                <g class="cls-26">
                  <path class="cls-50" d="m40.95,252.91c9.18,4.88,22.03,12.44,31.19,17.61,9.16,5.28,22.12,12.43,31.03,17.89-11.47-3.67-22.31-8.94-32.78-14.82-10.39-6.03-20.44-12.68-29.44-20.68h0Z"/>
                </g>
                <g class="cls-26">
                  <path class="cls-50" d="m40.21,322.07c22.21,4.25,44.75,8.33,67.17,11.33,22.41,3.1,45.21,5.2,67.75,7.07-22.65.99-45.75-.61-68.23-3.56-22.46-3.17-45.13-7.82-66.69-14.83h0Z"/>
                </g>
                <g class="cls-26">
                  <path class="cls-50" d="m321.61-52.28c-18.02,11.95-20.3,35.5-21.95,55.31-2.77,41.31-2.82,82.85-.41,124.2.55,10.39,1.48,20.85.45,31.24-.87,10.35-2.57,20.62-1.7,31.02-2.01-12.88.27-25.93.12-38.86-.73-18.15-3.22-36.14-3.63-54.36-.46-20.79-.62-41.57.22-62.36.48-10.39,1.11-20.79,2.21-31.14,2.09-19.86,5.59-44.28,24.69-55.07h0Z"/>
                </g>
                <g class="cls-26">
                  <path class="cls-50" d="m292.81,101.13c-2.32-24.25-4.74-48.72-5.84-73.06-.9-24.31-.42-49.32,4.8-73.14-2.38,24.17-2.31,48.76-1.27,73,.93,24.33,2.82,48.85,2.31,73.21h0Z"/>
                </g>
                <g class="cls-26">
                  <path class="cls-50" d="m288.75,135.9c15.21,3.41,28.28-4.57,42.16-9.32,18-5.85,35.73-12.37,53.06-20.07-15.9,10.5-33.86,17.67-51.99,23.35-13.78,4.58-28.66,12.01-43.23,6.04h0Z"/>
                </g>
                <g class="cls-26">
                  <path class="cls-50" d="m319.64,122.97c4.88-2.98,9.73-5.53,14.54-8.49,4.85-2.89,9.35-5.99,14.25-8.95-6.08,9.72-17.38,16.5-28.79,17.43h0Z"/>
                </g>
                <g class="cls-26">
                  <path class="cls-50" d="m326.97,88.55c1.43-4.42,5.25-7.75,9.84-8.52-1.42,4.43-5.26,7.73-9.84,8.52h0Z"/>
                </g>
                <g class="cls-26">
                  <path class="cls-50" d="m264.1-44.56c-6.43,11.54-14.28,22.18-22.64,32.38-8.49,10.09-17.51,19.76-27.67,28.2,6.98-9.03,17.61-21.53,24.95-30.45,7.46-8.89,17.73-21.54,25.36-30.12h0Z"/>
                </g>
                <g class="cls-26">
                  <path class="cls-50" d="m227.29,61.77c6.95-2.36,15.66,1.38,18.61,8.12-6.33-2.95-12.15-5.46-18.61-8.12h0Z"/>
                </g>
                <g class="cls-26">
                  <path class="cls-50" d="m154.83,112.67c9.69-5.67,20.05-9.98,30.58-13.78,10.59-3.64,21.36-6.78,32.47-8.43-10.13,4.31-20.93,8.05-31.29,11.76-10.43,3.6-21.14,7.44-31.76,10.44h0Z"/>
                </g>
                <g class="cls-26">
                  <path class="cls-50" d="m160.3,162.01c19.52-6.98,39.76-11.72,60.09-15.64,20.22-3.75,40.65-7.24,59.25-16.52-17.26,11.84-38.36,16.12-58.59,19.99-17.67,3.22-42.92,8.46-60.74,12.17h0Z"/>
                </g>
                <g class="cls-26">
                  <path class="cls-50" d="m268.09,221.33c-.37,5.25-4.38,9.39-7.97,12.85-3.73,3.46-7.5,6.9-11.42,10.14-23.49,19.51-49.75,35.42-76.79,49.49,8.29-5.89,16.75-11.49,25.2-17.09,16.6-11,34.03-22.58,49.88-34.55,4.04-3.04,8.03-6.14,12-9.29,3.86-3.1,7.95-6.49,9.11-11.54h0Z"/>
                </g>
                <g class="cls-26">
                  <path class="cls-50" d="m186.93,253.91c8.59-7.4,18.01-14.39,27.07-21.21,9.14-6.72,18.54-13.72,28.11-19.81-7.91,8.4-16.81,15.72-26,22.65-9.29,6.8-18.85,13.21-29.17,18.38h0Z"/>
                </g>
                <g class="cls-26">
                  <path class="cls-50" d="m266.3,293.36c-20.23,42.81-61.28,71.24-102.54,91.85-13.9,6.96-28.09,13.24-42.41,19.2,20.53-10.92,41.36-21.15,61.29-33.09,33.03-19.57,64.06-44.37,83.66-77.96h0Z"/>
                </g>
                <g class="cls-26">
                  <path class="cls-50" d="m90.22,375.35c5.57-1.1,13.4-2.03,19.05-2.85,5.68-.77,13.41-2.03,19.09-2.51-5.72,3.28-12.12,5.06-18.6,6.01-6.49.87-13.14.92-19.54-.65h0Z"/>
                </g>
              </g>
            </g>
            <g>
              <path class="cls-29" d="m205.83-95.48c.12.3.27.58.44.86,1.16,1.9,3.26,2.99,5.27,3.93,10.29,4.81,21.15,8.36,32.29,10.56-12.54,17.25-25,34.57-38.06,51.42-6.58,8.49-13.29,16.87-20.15,25.14-2.27,2.74-21.77,22.27-20.95,24.46-7.25-18.96-23.63-36.64-35.62-53.01-12.14-16.57-26.29-31.89-35.3-50.52,12.47-3.28,24.68-7.59,36.45-12.88.96-.43,1.97-.91,2.55-1.8.64-.98.62-2.23.58-3.4-.71-20.13-.79-40.11-1.8-60.28.28,5.64,31.72,5.89,35.55,5.89,13.39-.01,26.78-1.82,39.69-5.41-2.12.59-2.01,27.68-2.1,30.78-.26,9.79-.13,19.69.35,29.48.08,1.62.19,3.31.81,4.79Z"/>
              <path class="cls-21" d="m205.83-95.48c.12.3.27.58.44.86,1.16,1.9,3.26,2.99,5.27,3.93,10.29,4.81,21.15,8.36,32.29,10.56-12.54,17.25-25,34.57-38.06,51.42-6.58,8.49-13.29,16.87-20.15,25.14-2.27,2.74-21.77,22.27-20.95,24.46-7.25-18.96-23.63-36.64-35.62-53.01-12.14-16.57-26.29-31.89-35.3-50.52.22.45,11.13-3.22,12.19-3.56,3.64-1.17,6.47-3.23,9.54-.76,6.57,5.3,12.44,11.94,18.37,17.94,12.03,12.18,23.67,24.76,35.16,37.46,10.51-14.33,20.29-29.2,29.29-44.53-14.05-5.94-27.62-13.01-40.54-21.12-9.14-5.74-19.79-12.98-24.15-23.38-2.34-5.56-1.11-13.55-1.28-19.57-.19-6.95-.43-13.91-.78-20.85.28,5.64,31.72,5.89,35.55,5.89,13.39-.01,26.78-1.82,39.69-5.41-2.12.59-2.01,27.68-2.1,30.78-.26,9.79-.13,19.69.35,29.48.08,1.62.19,3.31.81,4.79Z"/>
            </g>
            <g>
              <polygon class="cls-51" points="227.48 -96.73 166.2 -15.51 188.5 11.39 260.16 -87.44 227.48 -96.73"/>
              <path class="cls-51" d="m215.83,47.93l-43.57-2.22S77.47-87.83,78.16-88.02c.69-.19,35.8-8.12,35.8-8.12L215.83,47.93Z"/>
              <line class="cls-35" x1="225.61" y1="48.08" x2="115.06" y2="43.99"/>
            </g>
            <g>
              <g>
                <path class="cls-32" d="m133.19-111.26c-11.1-.31-22.19,5.44-28.38,14.72-5.73,8.59-7.18,19.32-7.59,29.66-1.21,31.2,8,60.81,10.22,91.71,2.65,36.95-2.08,76.02-10.25,112.08"/>
                <ellipse class="cls-37" cx="93.74" cy="145.93" rx="28.41" ry="28.6"/>
              </g>
              <g>
                <path class="cls-34" d="m254.36,141.22c4.99.47,9.6-2.85,12.77-6.75,7.94-9.77,9.16-22.01,10.24-33.98,1.39-15.47,3.79-30.92,5.67-46.34,1.86-15.2,1.67-29.41-9.61-39.69-6.06-5.52-14.36-7.81-22.45-8.98-8.29-1.21-17.3-1.28-24.36,3.25-8.18,5.26-11.75,15.35-13.98,24.86-3.56,15.14-5.15,30.65-6.11,46.15-.98,15.92-8.46,42.98,7.48,53.63"/>
                <g>
                  <path class="cls-37" d="m257.42,145.46c-.62.95-1.45,1.73-2.46,2.23-4.23,2.08-8.54-.97-8.57-5.41-.01-1.91.57-3.78,1.33-5.53.63-1.46,1.5-2.95,2.94-3.59.65-.29,1.38-.37,2.1-.34,2.13.09,4.19,1.25,5.39,3.03,1.93,2.87,1.08,6.86-.72,9.6Z"/>
                  <path class="cls-37" d="m222.39,138.44c-.62.95-1.45,1.73-2.46,2.23-4.23,2.08-8.54-.97-8.57-5.41-.01-1.91.57-3.78,1.33-5.53.63-1.46,1.5-2.95,2.94-3.59.65-.29,1.38-.37,2.1-.34,2.13.09,4.19,1.25,5.39,3.03,1.93,2.87,1.08,6.86-.72,9.6Z"/>
                </g>
                <path class="cls-32" d="m204.87-111.88c6.96-.68,13.93,1.88,19.78,5.74,17.77,11.72,25.63,33.87,29.24,54.95,3.45,20.16,4.07,40.8,1.85,61.14"/>
                <path class="cls-31" d="m281.35,70.94c3.09-14.14,3.45-29.57-.13-43.73-5.18-20.47-29.82-24.87-47.17-20.61-20.92,5.14-20.25,34.4-23.68,51.03"/>
              </g>
            </g>
            <g>
              <g>
                <path class="cls-48" d="m312.9,78.73c5.24-.7,10.5-.53,15.79-.63,1.51-.03,3.05-.05,4.49.38,1.44.44,2.81,1.43,3.31,2.86.51,1.45-.11,3.03-1.42,3.79,4.82.86,9.62-.43,14.4,0,1.49.13,3.16.44,3.98,1.7.96,1.46.26,3.44-.7,4.9-1.29,1.95-3.03,3.59-5.05,4.76,1.1.61,2.56-.14,3.7.4,1.61.76,1.22,3.19.34,4.74-2.17,3.81-5.84,6.73-10.02,7.98,1.07.16,1.25,1.64,1.06,2.72-1.35,7.35-7.72,9.97-14.25,12.1-6.52,2.13-13.17,3.83-19.91,5.08-2.47.46-5.12.94-6.9,2.73-1.03,1.04-1.65,2.41-2.25,3.75-2.57,5.76-5.13,11.52-7.7,17.28-5.54,12.43-11.91,25.77-23.96,31.98-3.05,1.58-6.35,2.61-9.63,3.64-18.02,5.66-36.04,11.31-54.05,16.97-.68.21-1.45.42-2.08.07-.61-.34-.85-1.09-1.02-1.77-2.71-10.43-3.76-22.33-11.76-29.5,10.08-4.62,16.58-14.43,23.43-23.18,9.95-12.69,21.56-23.93,31.84-36.35,4.98-6.02,9.67-12.31,13.57-19.09,4.51-7.83,6.42-10.9,16.01-12.17,12.93-1.71,25.86-3.43,38.79-5.15Z"/>
                <path class="cls-19" d="m313.41,83.59c6.34-.68,12.68-1.35,19.03-2.03,1.9-.2,5.65.81,3.47,3.53-1.05,1.3-2.91,1.52-4.57,1.64-15.45,1.14-30.86,2.85-46.18,5.13-3.34.35-8.21,1.02-10.83,3.36-5.15,4.58-9.35,10.48-11.09,17.17-.71,2.72-.42,4.81,1.92,6.57,1.8-5.16,3.73-10.52,7.67-14.3,5.85-5.61,14.5-6.49,22.14-6.83,9.9-.43,19.78-1.9,29.67-2.55,6.71-.44,13.56-.48,19.94-2.62,1.65-.55,3.34-1.31,4.35-2.73,1.01-1.42,1.05-3.67-.34-4.72,1.73.15,3.77-.06,4.86,1.6,3.97,6.07-9.12,10.81-12.67,11.51-10.94,2.15-22,3.73-33.11,4.73-8.07.72-16.22,1.15-24.05,3.22-2.06.55-4.16,1.24-5.75,2.67-1.19,1.07-2.01,2.48-2.82,3.87-2.43,4.19-5.32,8.07-7.5,12.42-.67,1.33-1.28,2.94-.61,4.27,3.57,7.05,12.81-9.86,14.47-12.23,3.17-4.52,5.95-5.3,11.41-5.94,14.1-1.66,28.21-3.33,42.31-4.99,6.54-.77,13.96-2.07,17.49-7.66.57,3.23-3.42,6.96-5.65,8.66-3.39,2.58-8.45,2.76-12.56,3.72-10.89,2.54-21.97,4.25-33.12,5.09-3.02.23-6.12.41-8.87,1.7-3.68,1.73-6.2,5.19-8.56,8.51-1.54,2.17-3.09,4.35-4.63,6.52-.92,1.29-1.86,2.63-2.21,4.19-.35,1.55.04,3.38,1.35,4.28,1.28.88,3.07.61,4.37-.24,1.3-.85,2.2-2.17,3.05-3.48,4.06-6.24,8.27-13.3,15.35-15.55,3.28-1.04,6.79-.9,10.23-.95,7.33-.11,14.64-1.17,21.7-3.15,3.65-1.02,7.54-2.53,9.46-5.82-1.61,2.77-1.35,5.3-4.34,7.71-2.78,2.24-6.32,3.44-9.66,4.54-6.52,2.13-13.17,3.83-19.91,5.08-2.47.46-5.12.94-6.9,2.73-1.03,1.04-1.65,2.41-2.25,3.75-2.57,5.76-5.13,11.52-7.7,17.28-5.54,12.43-11.91,25.77-23.96,31.98-3.05,1.58-6.35,2.61-9.63,3.64-18.02,5.66-36.04,11.31-54.05,16.97-.68.21-1.45.42-2.08.07-.61-.34-.85-1.09-1.02-1.77-2.71-10.43-3.76-22.33-11.76-29.5,10.08-4.62,16.58-14.43,23.43-23.18,9.95-12.69,21.56-23.93,31.84-36.35,4.98-6.02,9.67-12.31,13.57-19.09.87-1.51,5.94-11.8,8.66-6.63.71,1.35.46,3.02.99,4.46,6.04-5.84,15.03-7.03,23.36-7.92,7.43-.79,14.86-1.58,22.3-2.38Z"/>
                <g>
                  <g class="cls-22">
                    <path class="cls-48" d="m345.96,84.82c-16.63,1.8-33.48,5.3-50.09,7.09-8.8,1.01-19.13-.04-25.01,7.82-2.41,2.76-4.55,6.02-7.55,8.36,2.43-2.89,4.04-6.22,6.17-9.42,4.5-7.38,12.58-8.96,20.46-9.61,3.71-.32,7.37-.81,11.09-1.3,14.71-1.82,30.11-4.13,44.93-2.94h0Z"/>
                  </g>
                  <g class="cls-22">
                    <path class="cls-48" d="m352.36,97.36c-1.9-.75-3.87-.21-5.79.2,0,0-5.86,1.24-5.86,1.24-3.91.78-7.82,1.54-11.75,2.23-5.92,1.04-11.77,2.11-17.75,2.89-5.92.73-11.96.92-17.82,1.62-3.76.45-7.79,1.01-11.3,2.24-7.18,2.89-9.98,11.71-15.03,17.23,3.08-5.19,4.83-11.13,8.83-15.84,5.98-7.24,20.6-7.18,29.03-8.17,7.91-.53,15.74-1.89,23.63-2.69,3.96-.46,7.93-.85,11.9-1.22,0,0,5.97-.49,5.97-.49,1.95-.15,4.2-.34,5.94.77h0Z"/>
                  </g>
                  <g class="cls-22">
                    <path class="cls-48" d="m278.06,134.66c1.92-4.07,4.33-8.44,6.51-12.39,1.46-2.87,3.83-6.04,7.15-7,4.65-1.47,9.4-1.27,14.11-1.97,6.13-.61,12.24-1.43,18.35-2.22,0,0,9.18-1.27,9.18-1.27,2.96-.19,6.62-1.68,9.21.41-1.41-.74-2.97-.46-4.4-.06l-4.45,1.35c-3,.85-6.02,1.63-9.06,2.29-6.08,1.37-12.26,2.31-18.45,3.02-3.09.3-6.25.56-9.29.76-3.01.17-5.74.7-7.65,2.53-1.77,1.69-3.92,5.17-5.49,7.18-1.87,2.49-3.72,4.98-5.72,7.38h0Z"/>
                  </g>
                </g>
              </g>
              <g>
                <path class="cls-48" d="m188.8,213.19c-77.75,26.79-159.94,44.46-241.89,38.17-8.6-.66-19.97-1.58-23.25-11.17-4.15-12.12,4.2-27.86,12.41-36.4,7.38-7.67,16.69-13.18,26.11-18.15,8.52-4.49,17.32-8.65,26.69-10.84,11.06-2.58,22.18-1.61,33.31-2.51,11.49-.93,22.93-1.39,34.48-1.18,23.34.43,46.6,2.74,69.91,3.79,23.4,1.05,46.86.83,70.23-.66,4.78,11.68,5.96,24.82,3.35,37.18-6.73,2-13.46,3.99-20.19,5.99"/>
                <path class="cls-14" d="m188.8,213.19c-77.75,26.79-159.94,44.46-241.89,38.17-8.6-.66-19.97-1.58-23.25-11.17-1.92-5.62-1.54-12.65.88-18.08-1.33,7.67,5.89,12.11,12.31,14.15,7.63,2.43,15.66,3.33,23.65,3.9,17.84,1.27,35.75.96,53.61.21,31.31-1.31,62.03-2.98,91.27-15.11.69-.28-9.58-13.87-10.35-14.7-7.45-8.02-16.56-14.29-25.56-20.4-8.02-5.44-15.46-9.02-25.22-8.76-32.21.88-63.56,8.46-95.12,14.56,2.43-4.15,6.45-7.1,10.56-9.6,7.93-4.82,16.61-8.41,25.62-10.62,4.27-1.05,8.93-2.11,13.43-2.71,4.67-.62,9.43.13,13.98-.46-.1.35-.22.68-.29,1.03,2.49-1.42,7.09-1.12,9.95-1.39,3.7-.35,7.41-.61,11.13-.8,7.43-.37,14.88-.44,22.32-.32,14.95.25,29.87,1.28,44.78,2.27,8.65.58,17.31,1.14,25.97,1.53,23.4,1.05,46.86.83,70.23-.66,4.78,11.68,5.96,24.82,3.35,37.18-6.73,2-13.46,3.99-20.19,5.99"/>
              </g>
              <g>
                <path class="cls-29" d="m177.19,154.09c29.42,5.24,58.95,9.79,88.56,13.83,27.38,3.73,54.86,5.12,80.32,16.91,4.15,1.92,8.2,4.04,12.15,6.35,4.46,2.61,8.84,5.52,12.28,9.39,5.07,5.71,7.74,13.1,10.14,20.35,2.5,7.56,3.41,15.67,3.31,23.61-.05,3.44-.22,6.97-1.59,10.12-1.95,4.46-6.08,7.59-10.39,9.82-18.87,9.75-42.19,6.4-62.42,3.65-23.05-3.13-45.61-9.34-67.46-17.28-16.12-5.86-32.05-12.24-47.82-19.01-9.9-4.24-19.63-7.52-29.43-12.3-21.58-10.55-43.44-20.6-64.83-31.7-13.34-6.93-27.06-16.82-42.66-16.82-8.14,0-16.29-.08-24.43.32-1.88.09-22.15,1.69-22.22,2.09,1.91-10.74,4.72-21.29,6.74-31.99,2.04-10.86,3.42-21.7,6.37-32.39,0,.02,10.88-.61,11.88-.82,4.16-.89,8.5-1.9,12.73-.82,3.11.8,5.83,2.66,8.47,4.48,7.32,5.05,14.65,10.11,21.44,15.87,1.59,1.35,3.18,2.75,5.02,3.73,1.74.92,3.66,1.43,5.56,1.93,29.03,7.64,58.58,15.4,88.28,20.68Z"/>
                <path class="cls-9" d="m362.46,194.22c2.96,2.1,5.79,4.37,8.44,6.84,4.39,4.1,1.19,6.97-2.89,10.28-4.1,3.32-9.12,5.39-14.15,6.83-17.94,5.16-37.09,3.18-55.49.08-65.73-11.04-128.34-35.52-190.96-58.44-15.64-5.73-31.42-11.35-47.87-14.19-10.23-1.77-22.69-9.17-28.61,3.05-3.28,6.78-8.85,15.94-8.72,23.64.02.95-11.05,1.18-12.01,1.09,2.26-5.21,3.15-10.85,4.04-16.42.78-4.93,2.43-9.77,3.08-14.62,1.51-11.21,3.49-22.42,6.5-33.33,0,.02,10.88-.61,11.88-.82,4.16-.89,8.5-1.9,12.73-.82,3.11.8,5.83,2.66,8.47,4.48,7.32,5.05,14.65,10.11,21.44,15.87,1.59,1.35,3.18,2.75,5.02,3.73,1.74.92,3.66,1.43,5.56,1.93,29.03,7.64,58.58,15.4,88.28,20.68,29.33,5.22,58.77,9.77,88.29,13.79,26.05,3.55,52.29,4.98,76.83,15.32,7.02,2.96,13.89,6.58,20.15,11.01Z"/>
              </g>
            </g>
          </g>
        </g>
      </g>
      <g class="cls-47">
        <g class="cls-55">
          <g>
            <path class="cls-56" d="m256.88,121.65c-1.2-6.49-3.36-12.82-7.22-18.91-5.1-8.04-12.67-13.93-20.47-19.2-3.88-2.63-7.95-5.8-12.11-7.93-3.4-1.74-7.26-1.95-10.14-4.78,12.44-3.15,21.29-16.69,19.16-29.34-.81-4.85-3.16-9.6-7.13-12.51-3.97-2.91-9.66-3.66-13.89-1.14,2.31-3.23-.46-8.13-4.27-9.24-3.82-1.1-7.88.47-11.34,2.42,1.66-1.67,2.93-3.73,3.67-5.96-6.42.29-12.6,3.85-16.06,9.26,1.18-3.32-1.4-7.04-4.67-8.34-3.28-1.3-6.96-.81-10.43-.2-11.36,2.01-23.01,5.45-31.34,13.42-8.33,7.98-12.21,21.57-6.15,31.39,3.6,5.83,9.94,9.39,16.34,11.84-14.55.4-34.18,9.78-46.02,17.85-17.01,11.59-24.03,30.39-25.25,50.55-.87,14.33,3.24,27.23,4.25,41.22.79,10.92-5.13,21.98-11.22,30.95-7.91,11.63-18.26,21.36-27.13,32.27-8.86,10.92-16.45,23.7-17.22,37.74-.77,14.04,7.08,29.28,20.58,33.23-8.92,7.54-7.9,21.88-2.79,32.39,11.61,23.9,41.29,37.36,66.92,30.36,8.77-2.4,17.27-6.91,26.34-6.35,9.87.6,18.23,7.04,26.92,11.76,17.64,9.59,38.53,12.53,58.4,9.72,19.88-2.82,38.75-11.2,55.13-22.81,13.89-9.84,26.66-22.98,30.41-39.59,3.34-14.84-1.09-30.64-9.17-43.53,8.48-1.3,13.65-10.12,15.78-18.43,5.02-19.56-.53-41.51-14.24-56.34-6.58-7.11-14.76-12.56-21.46-19.56-9.92-10.35-12.65-24.74-12.75-38.69-.08-11.34.61-22.65-1.4-33.52Z"/>
            <g class="cls-24">
              <path class="cls-56" d="m256.88,122.03c-1.2-6.49-3.36-12.82-7.22-18.91-5.1-8.04-12.67-13.93-20.47-19.2-3.88-2.62-7.95-5.8-12.11-7.93-3.4-1.74-7.26-1.95-10.14-4.78,12.44-3.15,21.29-16.69,19.16-29.34-.81-4.85-3.16-9.6-7.13-12.51-3.97-2.91-9.66-3.66-13.89-1.14,2.31-3.23-.46-8.13-4.27-9.24-3.82-1.1-7.88.47-11.34,2.42,1.66-1.67,2.93-3.73,3.67-5.96-6.42.29-12.6,3.85-16.06,9.26,1.18-3.32-1.4-7.04-4.67-8.34-2.88-1.14-5.93-1.21-8.49.57,1.85-.56,3.69.07,4.51,1.96.77,1.79.52,3.84.74,5.78.23,1.94,1.3,4.11,3.24,4.37,2.41.33,5.49-2.26,6.86-.25,2.3-1.5,4.66-3.02,7.34-3.64,2.67-.62,5.77-.15,7.63,1.87,1.91,2.08,2.07,5.32,1.11,7.98-.96,2.66-2.86,4.85-4.76,6.94-1.83,2.02-3.84,4.11-6.48,4.82-4.21,1.15-8.48-1.55-11.66-4.54-3.18-2.99-6.16-6.56-10.34-7.8-3.56-1.06-7.46-.2-10.76,1.49-4.53,2.32-8.29,6.35-9.68,11.25-1.39,4.89-.14,10.6,3.6,14.05-5.56-1.74-11.12-3.48-16.68-5.22-.73-.23-1.51-.46-2.26-.3-10.06,2.14,12.44,16.31,14.51,17.1-14.55.4-34.18,9.78-46.02,17.85-17.01,11.59-24.03,30.39-25.25,50.55-.87,14.33,3.24,27.23,4.25,41.22,1.55,21.41-26.56,39-19.12,59.99,2.54,7.16,9.36,12.6,16.9,13.48.8.09,1.67.16,2.3.66,1.9,1.5-.11,4.43-2.01,5.92-8.61,6.75-17.09,14.85-19.69,25.47-2.6,10.63,3.39,23.93,14.24,25.34-11.34,11.19-12.91,30.32-5.05,44.18,6.4,11.27,18.13,18.82,30.65,21.52,13.31,2.87,23.98-6.78,37.24-5.97,9.87.6,18.23,7.04,26.92,11.76,17.64,9.59,38.53,12.53,58.4,9.72,21.72-3.08,39.55-10.53,52.96-27.6,12.43-15.82,18.42-35.91,11.41-55.56-1.59-4.45-3.84-8.8-7.41-11.88-3.58-3.08-8.67-4.7-13.15-3.21,4.56-.17,8.55-3.46,10.78-7.44,2.23-3.98,2.99-8.6,3.62-13.12.36-2.58.65-5.36-.59-7.65-2.98-5.53-11.39-3.69-16.77-.44-5.38,3.25-12.13,7.24-17.37,3.77-3.97-2.63-4.55-8.41-3.04-12.93,6.11-18.29,34.64-20.49,41.3-38.59,4.15-11.26-3.23-20.32-8.6-29.46-6.5-11.06-9.36-21.95-9.45-34.84-.08-11.34.61-22.65-1.4-33.52Z"/>
            </g>
            <g>
              <path class="cls-41" d="m202.67,314.67c-6.81-2.47-13.67-4.61-20.66-5.3-16.06-1.58-33.45.46-48.69,5-21.45,6.4-42.67,14.74-63.32,22.1-11.66,4.16-23.44,8.06-35.05,12.33-8.94,3.29-20.58,6.36-28.15,11.81-2.03,1.46-3.19,3.64-4.26,5.74-11.54,22.62-20.1,45.28-26.85,69.35-7.92,28.24-13.84,56.87-18.92,85.6-2.58,14.59-4.94,29.21-7.24,43.83-2.93,18.63-7.11,36.27-3.5,55.22.63,3.32,1.51,6.73,3.68,9.33,3.1,3.71,8.35,5.05,13.17,4.57,4.81-.48,9.31-2.53,13.68-4.6,18.31-8.67,36.16-18.3,53.46-28.85,3.69,5.45,8.25,12.35,8.62,19.11.21,3.84-.89,7.61-2,11.29-8.44,27.9-7.7,177.9-19.9,204.26,106.99,3.5,214.07,4.09,321.09,1.78-7.15-17.36-18.44-158.04-23.02-176.34-5.12-20.78-10.27-41.83-9.98-63.23-.03,2.21,31.2,11.2,34.28,12.05,8.09,2.22,15.48,6.23,23.13,9.58,5.49,2.41,17.06,12.45,22.66,5.48,1.53-1.9,2.01-4.44,2.23-6.88,1.13-12.37-.86-25.9-1.86-38.32-2.87-35.87-13-70.58-20.29-105.69-4.25-20.49-8.88-40.94-14.52-61.18-5.64-20.2-10.83-40.02-21.35-58.79-1.37-2.45-2.88-4.94-5.31-6.64-2.28-1.59-5.15-2.33-7.94-3.04-37.55-9.5-77.08-16.52-113.17-29.59Z"/>
              <path class="cls-8" d="m254.96,798.59c4.43-.06,8.86-.17,13.29-.34,5.22-.2,10.48-.48,15.69-1.09,11.93-1.38,20.18-12.59,18.43-24.47-3.75-25.53-7.68-67.43-14.06-69.99-2.87-1.15-6.14-1.86-6.83-6.2-.33-2.06.18-4.2,1.3-5.96,3.02-4.74,8.43-6.58,12.53-10.07,19.08-16.21-23.15-14.96-30.62-15.01-17.98-.14-35.94-2.7-53.25-7.56-8-2.25-15.64-4.63-22.96-8.53-2.44-1.3-22.81-10.7-22.63-12.73-2.05,24.59-3.81,49.64-3.91,74.25,0,.59-.03,1.25-.45,1.68-.48.48-1.26.44-1.93.37-11.27-1.25-22.41-3.65-33.2-7.15,2.43-5.08,4.46-10.58,6.01-15.98,2.09-7.32,3.94-15.57-.53-22.01-12.27,5.15-25.17,9.14-38.41,11.86,8.21-12.96,17.15-25.57,26.77-37.76-20.47,3.36-40.93,6.72-61.39,10.08,31.38-20.29,66.19-36.06,100.83-51.73,3.34-1.51,6.96-3.06,10.67-2.57,3.17.42,5.82,2.27,8.33,4.02,28.51,19.87,60.78,35.56,95.09,46.24,12.14,3.78,24.84,6.97,37.7,6.33,2.13-8.95.57-17.72-.07-26.84-.16-2.31-.34-4.7-1.62-6.73-1.28-2.02-3.99-3.55-6.53-2.91.31-3.01-.02-6.06-.98-8.96,5.69,1.44,15.94,5.35,21.65,4.32-.6-1.09-9.69-13.34-8.53-13.76,5.75-2.06,56.92-15.56,56.77-16.92-3.64-32.58-36.44-59.95-33.77-92.6.16-1.99.45-4.05-.25-5.96-.7-1.9-2.75-3.61-5.01-3.34-2.23.26-4.88,2.15-6.26.6,6.5-6.59,12.99-13.18,19.49-19.76-6.73-13.99-13.46-27.98-20.19-41.96-.56-1.17-1.13-2.36-1.29-3.62-.24-1.88.45-3.74,1.07-5.55,2.19-6.32,3.73-12.82,4.6-19.38.66-5,.67-10.72-3.4-14.27-6.62,2.54-12.8,5.98-18.24,10.15.28-13.74,2.48-27.46,6.55-40.73-9.2.21-14.88,6.05-19.14,12.58,3.29-5.75,5.48-11.99,6.47-18.37-17.65,13.29-28.23,33.54-28.18,53.95-1.11-15.13-2.21-30.26-3.32-45.39-.36-4.96-.75-11.81-5.1-15.54-4.59-3.93-14.05-4.5-20.14-6.05-14.81-3.76-29.51-7.95-43.77-13.11-6.81-2.47-13.67-4.61-20.66-5.3-16.06-1.58-33.45.46-48.69,5-22.68,6.76-43.67,17.23-66.06,24.14-.95.29-1.97.62-2.53,1.35-.37.5-.48,1.11-.57,1.7-4.46,28.67-6.87,57.87-10.48,86.74,1.52-12.18-4-27.82-7.42-39.53-3.65-12.5-8.39-25.2-13.88-37.11-.13-.28-.28-.58-.58-.73-.38-.2-.87-.09-1.3.03-8.09,2.21-15.95,4.21-19.95,8.62-2.59,2.86-3.56,6.73-1.93,12.34,5.26,18.16,12.64,35.88,16.1,54.37-8.84-14.27-17.69-28.55-26.53-42.82,3.48,5.62,3.73,16.83,6.12,23.27,3.76,10.15,6.83,20.5,9.19,30.97-6.74-.94-13.8-.09-20,2.42-1.29.52-2.6,1.16-3.39,2.2-1.82,2.43-.01,5.61,1.77,8.06,5.13,7.02,10.26,14.04,15.39,21.05.78,1.07,1.6,2.25,1.46,3.52-.15,1.38-1.38,2.45-2.52,3.42-22.99,19.43-38.94,45.19-45,72.7-1.55,7.04-1.22,16.25,6.33,19.01,3.37,1.23,7.21.67,10.79,0,23.4-4.35,45.69-12.32,68.59-18.39,22.89-6.08,47.09-10.29,70.68-6.84.63.09,1.3.21,1.74.61.94.86.22,2.27-.58,3.24-3.63,4.4-8.23,8.11-12.91,11.68-11.39,8.66-23.37,16.53-35.81,23.6-2.99,1.7-37.32,19.14-37.55,18.6,1.83,4.27,3.67,8.54,5.5,12.81.71,1.64,1.42,3.33,1.51,5.12.09,1.7-.41,3.38-.9,5.01-.6,2.01-1.22,4.01-1.84,6.01-4.98,16.05-10.47,31.95-16.11,47.78-2.93,8.23-20.01,102.8-4.64,104.25,50.38,4.77,100.83,8.86,151.33,12.26,29.31,1.98,58.68,3.73,88.04,3.31Z"/>
              <path class="cls-17" d="m317.15,664.92c-5.04-14.23-6.38-26.11-7.03-40.93-.17-3.9-2.57-7.57-7-6.45.31-3.01-.02-6.06-.98-8.96,5.69,1.44,15.94,5.35,21.65,4.32-.6-1.09-9.69-13.34-8.53-13.76,3.98-1.43,41.41-17.35,39.16-20.41-7.39-10.07-16.17-19.06-23.68-29.04-18.78-24.97-29.07-55.52-33.82-86.4-4.75-30.88-4.23-62.31-3.18-93.54-18.78,69.15-13.99,144.47,13.41,210.68.91,2.19,1.85,4.59,1.18,6.87-.99,3.33-4.87,4.74-8.27,5.45-12.45,2.61-25.3,2.33-38.02,2.05-20.83-.47-42.03-1-61.8-7.56-19.78-6.56-38.28-20.18-45.56-39.7-2.6-6.98-4.08-15.06-9.99-19.6-2.82-2.17-6.32-3.21-9.74-4.22-20.9-6.15-41.81-12.3-62.71-18.45-2.26-.66-4.63-1.39-6.25-3.1-1.41-1.47-2.07-3.48-2.69-5.42-14.23-44.76-23.72-91.7-47.11-132.43,7.31,29.72,11.55,60.2,12.63,90.8-5.28-15.39-13.18-29.88-23.26-42.66,9.98,22.95,15.91,47.65,17.44,72.62.48,7.88.44,16.18-3.28,23.15-8.78,16.46-32.4,17.38-46.29,29.83-2.39,2.14-4.56,4.79-5.12,7.96-.56,3.16.99,6.86,4.04,7.86-3.32,4.04,2.92,11,7.29,8.13.31,9.96,20.58,2.1,25.75.7,13.73-3.71,27.25-8.16,41-11.81,22.89-6.08,47.09-10.29,70.68-6.84.63.09,1.3.21,1.74.61.94.86.22,2.27-.58,3.24-3.63,4.4-8.23,8.11-12.91,11.68-11.39,8.66-23.37,16.53-35.81,23.6-2.99,1.7-37.32,19.14-37.55,18.6,1.83,4.27,3.67,8.54,5.5,12.81.71,1.64,1.42,3.33,1.51,5.12.08,1.7-.41,3.38-.9,5.01-.6,2.01-1.22,4.01-1.84,6.01-2.99,9.62-6.15,19.19-9.43,28.72,11.35-1.61,22.48-3.17,33.38-6.73,34.07-11.12,67.66-23.71,100.65-37.73.82,41.23,4.27,82.42,10.34,123.21,4.04-35.04,8.08-70.08,12.12-105.12,44.9,9.37,89.53,19.99,133.84,31.84Z"/>
              <g class="cls-10">
                <path class="cls-49" d="m66.49,357.47c.24,8.95-.3,17.79-.87,26.69-.66,8.89-1.33,17.72-2.81,26.55-1.24-8.9-1.18-17.86-.6-26.79.66-8.92,1.84-17.81,4.29-26.45h0Z"/>
                <path class="cls-49" d="m12.3,356.72c13.34,15.82,16.2,37.44,20.02,57.1,4.75,26.68,8.1,53.62,9.67,80.67,0,0,.46,10.15.46,10.15.17,3.38.24,6.77.3,10.15-3.98-33.58-8.16-67.07-13.63-100.43-3.45-19.72-5.25-40.66-16.83-57.64h0Z"/>
                <path class="cls-49" d="m312.53,347.12c-11.4,4.41-14.95,18.62-17.56,29.36-6.51,27.27-3.86,55.56-1.47,83.21,2.28,23.89,6.04,47.61,10.76,71.14-4.49-15.4-8.01-31.1-10.65-46.93-2.68-15.85-4.4-31.85-5.37-47.89-1.23-20.06-1.02-40.57,4.57-60.05,3.07-10.76,7.79-25.39,19.73-28.83h0Z"/>
                <path class="cls-49" d="m284.56,377.43c-2.13-12.8,4.59-26.65,15.47-33.52-7.26,10.26-12.71,21.22-15.47,33.52h0Z"/>
                <path class="cls-49" d="m26.19,359.82c10.46,16.01,15.46,36.12,13.39,55.16-1.54-9.42-3.08-18.68-5.37-27.9-2.2-9.24-5.11-18.17-8.02-27.26h0Z"/>
              </g>
            </g>
            <g>
              <path class="cls-28" d="m133.9,298.27c-.29,11.71-4.87,22.29-11.52,32.27,16.31,20.72,31.05,42.39,44.11,64.81,8.54-27.34,24.85-52.78,47.03-73.38-6.57-2-11.58-6.94-14.45-12.51-2.87-5.56-3.83-11.73-4.31-17.82-.69-8.64-.5-17.34.57-25.95-3.44,4.85-10.61,6.31-17.06,7.09-16.47,1.98-34.11,2.11-48.72-4.85,3.79,9.7,4.61,20.15,4.35,30.35Z"/>
              <path class="cls-2" d="m133.9,298.27c-.29,11.71-4.87,22.29-11.52,32.27,16.31,20.72,31.05,42.39,44.11,64.81,8.54-27.34,24.85-52.78,47.03-73.38-.81.75-6.81-3.43-7.49-3.97-2.16-1.71-3.88-3.74-5.4-5.89-.59,1.41-1.7,2.5-2.89,3.55-6.3,5.54-13.06,10.67-20.21,15.36-1.31.86-2.65,1.72-3.7,2.82-1.86,1.97-2.62,4.54-3.32,7.02-.3-1.68-.59-3.37-.89-5.05-.07-.39-.14-.8-.39-1.13-.32-.43-.88-.67-1.41-.89-5.84-2.46-11.43-5.38-16.67-8.72,13.74-7.71,26.2-17.17,36.88-27.98,2.03-2.06,4.03-4.19,5.47-6.61,1.5-2.53.91-4.33.87-7.09-.05-3.12.02-6.23.2-9.35.12-2.01-.45-6.64.76-8.34-3.44,4.85-10.61,6.31-17.06,7.09-16.47,1.98-34.11,2.11-48.72-4.85,3.79,9.7,4.61,20.15,4.35,30.35Z"/>
              <path class="cls-28" d="m211.74,270.98c3.96-2.77,7.7-5.84,10.64-9.64,7.5-9.72,9.46-24.23,13-35.77.97,3.46,5.07,5.29,8.63,4.8,3.56-.5,6.61-2.75,9.27-5.17,10.78-9.82,18.08-24.01,18.95-38.63.64-10.62-2.32-31.59-15.51-33.52-2.81-.41-6.29.52-7.08,3.24.14-17.12,1.31-37.18-9.85-51.02-6.88-8.53-17.38-13.24-27.61-18.13-11.17-5.34-23.57-8.65-36.2-9.91-18.03-1.8-36.46.5-53.55,5.84-9.2,2.87-18.13,6.66-25.66,12.12-9.5,6.89-16.28,16.43-19.77,26.76-2.49,7.37-2.81,15.11-2.46,22.82.31,6.92.46,14.67,1.84,21.47-.93-4.61-6.52-7.15-11.09-6.03-4.57,1.12-8.03,4.94-10.24,9.09-10.39,19.51.24,42.34,13.2,57.77,2.2,2.62,4.65,5.17,7.76,6.6s7.04,1.52,9.76-.57c3.78,8.44,5.09,17.95,8.74,26.33,6.56,15.06,28.32,21.31,41.93,27.43,15.47,6.95,30.44,9.11,45.97,1.33,8.77-4.4,17.29-9.28,25.51-14.63,1.29-.84,2.58-1.7,3.85-2.58Z"/>
              <path class="cls-11" d="m124.66,281.95c4.19,1.74,8.25,3.33,11.76,4.91,15.47,6.95,30.44,9.11,45.97,1.33,8.77-4.4,17.29-9.28,25.51-14.63,1.29-.84,2.58-1.7,3.85-2.58,3.96-2.77,7.7-5.84,10.64-9.64,5.59-7.24,7.9-16.45,10.14-25.15,2.52-9.81,3.13-18.56,3.33-28.69.19-9.67,1.84-19.26,4.34-28.58,1.26-4.7,2.73-9.34,4.35-13.92,1.56-4.41,4.21-9.02,5.21-13.56.73-3.28,0-7.38-.07-10.77-.1-4.24-.34-8.48-.94-12.67-1.16-8.15-3.72-16.23-8.96-22.72-6.88-8.53-17.38-13.24-27.61-18.13-11.17-5.34-23.57-8.65-36.2-9.91-18.03-1.8-36.46.5-53.55,5.84-9.2,2.87-18.13,6.66-25.66,12.12-9.5,6.89-16.28,16.43-19.77,26.76-2.49,7.37-2.81,15.11-2.46,22.82.55,12.24,1.52,24.3,4.41,36.25-1.26-5.2.47-12.51,1.74-17.58,1.27-5.08,3.77-8.38,7.28-12.23,6.86-7.53,16.1-12.9,26.09-15,7.64-1.6,15.69-1.37,23.02-4.05,5.5-2.01,10.38-5.65,13.89-10.33.92-1.22,1.77-2.55,3.06-3.37,1.44-.92,3.23-1.09,4.94-1.19,13.97-.79,28.11,1.56,41.07,6.82,6.82,2.77,15.67,6.68,18.75,13.89,1.03,2.41,1.34,5.07,1.61,7.68,2.33,22.11,2.87,44.4,1.63,66.6-.57,10.09-1.51,20.19-3.59,30.08-.79,3.76-1.77,7.54-3.63,10.9-1.95,3.53-4.8,6.47-7.73,9.24-7.77,7.35-16.37,13.82-25.59,19.26-5.49,3.24-11.35,6.15-17.69,6.85-12.69,1.4-25.82-5.09-38.21-7.04"/>
              <path class="cls-1" d="m74.32,213.34c.86.93,1.88,2.06,3.14,2.3,1.78.33,2.69-1.45,3.53-1.44-2.73-.02-4.62-2.41-5.49-4.68-1.62-4.26-1.31-9.05.85-13.12.34-.64.73-1.28.81-1.98.07-.62-.1-1.24-.28-1.84-1.19-3.86-2.92-7.59-5.15-11.08-.93-1.45-3.29-4.62-5.71-4.17-2.49.46-3.35,4.53-3.64,6.32-1.11,6.96.76,14.04,4.41,20.24,1.9,3.22,4.28,6.22,7.02,8.94.16.16.33.34.5.53Z"/>
              <path class="cls-1" d="m248.95,211.83c8.93-8.63,14.79-21.74,12.62-33.44-.35-1.87-1.16-4-3.21-4.59-1.42-.41-3.01.1-4.12.98-8.4,6.61-6.92,17.99-9.17,26.52.44-1.65,2.22-5.69,4.18-6.43,2.94-1.1,4.44,1.5,4.7,3.68.56,4.78-1.31,9.73-5,13.28Z"/>
              <g>
                <g>
                  <g class="cls-3">
                    <path class="cls-27" d="m63.48,193.35c-1.46-4.11-1.64-8.81-.62-13.13.29-1.91,1.55-3.82,3.82-3.1,1.53.54,2.5,1.76,3.52,2.83,2.48,2.75,4.09,6.03,5.66,9.11,3.11,6.3,6.2,12.79,7.32,19.87.19,1.66.76,3.92-.69,6.18-1.69,2.48-5.04,1.73-6.66-.21-5.54-5.69-3.45-14.5.54-20.32-2.36,5.93-3.81,13.78,1.33,18.42,3.02,2.55,2.82-1.39,2.28-3.51-1.25-6.65-4.23-12.84-7.04-19.03-1.92-4.04-3.58-8.38-7.03-11.1-.75-.38-.89.84-1.17,1.41-1.4,4.02-1.81,8.26-1.26,12.58h0Z"/>
                  </g>
                  <g class="cls-3">
                    <path class="cls-27" d="m259.04,183.35c.88-2.78.93-6.92-2-8.29-.56-.12-.88.19-1.29.62-1.53,1.81-2.83,3.95-3.82,6.12-2.64,6.01-3.65,12.74-4.86,19.19-.59,3.16-1.1,6.62-1.51,9.81-.03.29,0,.56.03.71.05.16.04.13,0,.11.15.07.43-.06.73-.24,4.42-3.44,11.39-13.65,3.72-17.2-.74-.37-1.55-.61-2.37-.83,1.68.08,3.47.35,4.97,1.44,3.27,2.27,2.79,6.96,1.52,10.19-.95,2.52-2.35,4.82-4.08,6.89-1,1.1-2.08,2.36-3.74,2.78-2.53.6-4.23-1.72-4.02-4,.03-.91.19-1.8.27-2.65.7-5.92,1.79-11.83,3.28-17.61.87-3.31,1.95-6.7,3.68-9.78,1.3-2.35,2.85-4.48,4.83-6.32.37-.33.82-.66,1.41-.86,1.12-.44,2.46.2,3.11,1.06,2.22,2.44,1.65,6.28.15,8.87h0Z"/>
                  </g>
                </g>
                <g class="cls-3">
                  <path class="cls-27" d="m149.31,185.89c3.04,4.77,3.31,11.1.8,16.24-1.32,3.24-3.36,6.42-3.33,9.75.08,4.16,3.34,7.03,6.92,8.93,1.69.92,3.55,1.64,5.61,2.33-2.02.81-4.25,1.08-6.5.92-9.91-.63-15.8-10.21-11.26-19.25,1.31-2.84,3.15-5.21,4.73-7.83,1.93-3.3,2.51-7.14,3.04-11.08h0Z"/>
                </g>
                <g class="cls-3">
                  <path class="cls-27" d="m117.35,239.48c9.17,2.24,19.22,3.09,28.41,2.13,1.71-.3,3.06-.75,4.38-1.6.89-.6,1.95-1.33,3.31-1.61,1.86-.41,3.44.12,5.08.48,11.56,2.44,23.28.02,33.53-6.36-1.81,2.86-4.32,5.3-7.14,7.31-8.29,5.83-19.26,7.88-29.13,5.43-.38-.11-.82-.14-.94-.17.08-.02.05-.04-.14.07-5.47,3.92-12.51,3.22-18.67,2.11-6.65-1.15-13.39-3.54-18.7-7.79h0Z"/>
                </g>
                <g>
                  <path class="cls-20" d="m116.24,209.05c1.19-.1,2.38-.17,3.57-.22,3.97-.18,8.03-.11,11.81.98s7.27,3.35,8.85,6.55c.39.8.67,1.68.47,2.53-.16.69-.6,1.3-1.08,1.86-4.36,5.09-12.39,7.11-19.33,7.73-5.83.53-11.72.1-17.54-.49-2.34-.24-4.73-.52-6.84-1.45-2.11-.93-3.91-2.65-4.15-4.71-1.13-9.59,17.29-12.22,24.24-12.78Z"/>
                  <path class="cls-20" d="m202.51,202.71c1.19-.1,2.38-.17,3.57-.22,3.97-.18,8.03-.11,11.81.98,3.78,1.09,7.27,3.35,8.85,6.55.39.8.67,1.68.47,2.53-.16.69-.6,1.3-1.08,1.86-4.36,5.09-12.39,7.11-19.33,7.73-5.83.53-11.72.1-17.54-.49-2.34-.24-4.73-.52-6.84-1.45-2.11-.93-3.91-2.65-4.15-4.71-1.13-9.59,17.29-12.22,24.24-12.78Z"/>
                  <path class="cls-20" d="m151.98,214.04c.3-.08.59-.18.88-.3,1.06-.42,2.05-1.02,3.16-1.25,1.24-.26,2.54-.05,3.75.35,2.25.74,4.53,2.68,4.18,5.22-.34,2.45-2.47,4.68-4.85,5.24-3.39.8-8.72-1.08-11.62-2.84-2.7-1.64-4.71-4.73-4.25-7.97.28,1.04,2.7,1.43,3.7,1.66,1.66.39,3.42.36,5.06-.1Z"/>
                  <path class="cls-20" d="m161.26,222.47c2.76-1.61,4.5-4.68,5.41-7.65.53-1.73.51-3.65.17-5.42-.26-1.37-1.78-3.32-1.8-4.53.05,2.59.08,5.25-.83,7.67-1.6,4.27-6.51,5.88-10.73,6.01-2.88.09-5.77-.27-8.54-1.04.52.15,1.73,2.16,2.24,2.62,1.02.91,2.18,1.65,3.43,2.21,2.53,1.13,4.98,1.14,7.67.89,1.94-.18,1.29.23,2.97-.76Z"/>
                  <path class="cls-18" d="m124.54,244.05c7.76,7.55,15.55,14.35,26.76,15.43,8.34.81,16.32-1.41,23.3-5.96,3.56-2.32,6.3-5.19,8.93-8.52,1.42-1.8,5.02-9.88,6.77-10.52-6.23,2.27-10.61-1.21-15.72-4.08-6.59-3.7-15.94-1.11-19.69,5.45-2.72-3.32-7.14-5.16-11.41-4.74-5.07.49-6.65,3.65-10.21,6.41-1.45,1.12-10.71,4.56-12.11,2.96,1.08,1.23,2.21,2.42,3.39,3.57Z"/>
                </g>
                <g>
                  <path d="m118.11,182.07c-.99-.38-2.09-.48-3.16-.47-3.48.01-6.96.99-9.94,2.8,5.01,3.24,2.85,13.95,11.26,12.91.77-.09,1.53-.31,2.19-.72,3.13-1.93,3.95-6.97,3.11-10.21-.42-1.61-1.33-3.15-2.77-3.98-.22-.13-.45-.23-.68-.32Z"/>
                  <path d="m205.08,177.67c-1.85-.28-3.71-.22-5.49.38-5.43,1.81-6.78,9.23-3.07,13.36,4.77,5.31,11.78,1.64,11.96-4.91.04-1.32-.15-2.65.07-3.95.22-1.3.96-2.63,2.21-3.04-1.79-.85-3.73-1.54-5.69-1.84Z"/>
                </g>
                <g>
                  <path class="cls-56" d="m133.49,150.04c-1.42-1.73-3.19-3.18-5.18-4.22.38.62.76,1.25,1.14,1.87-2.34-1.24-4.95-1.97-7.6-2.12.95.83,1.9,1.66,2.85,2.48-5.74-2.6-12.48-1.27-18.45-.08-4.62.92-9.23,2.61-13.02,5.46-4.4,3.31-5.7,7.71-7.67,12.67,4.59-5.7,12.21-8.06,19.5-8.73,5.23-.48,10.67-.58,15.91-.46,4.71.1,9.36-.03,14.07.19.25.01.51.02.72-.12.16-.11.25-.29.33-.46,1.36-3.1.14-7.1-2.72-8.9.73,1.07,1.1,2.37,1.05,3.66-.29-.43-.6-.84-.93-1.24Z"/>
                  <path class="cls-56" d="m178.83,157.11c-.28-.03-.56-.07-.83-.13-3.13-.65-4.48-3.05-4.04-6.08.19-1.33.75-2.57,1.31-3.79-.09,1.14.08,2.29.49,3.35-.16-1.33.74-2.57,1.78-3.43,1.04-.85,2.27-1.48,3.18-2.46-.37.93-.74,1.86-1.11,2.79,2.01-1.72,4.56-2.8,7.19-3.04-.74.63-1.45,1.29-2.14,1.97,8.36-2.76,18.44-2.4,27.03-.93,4.03.69,8.13,1.95,11.27,4.68,1.46,1.27,2.63,2.83,3.67,4.45.8,1.25,1.73,5.01,2.83,5.73-13.41-8.72-30.61-6.08-45.6-3.54-1.66.28-3.36.59-5.02.42Z"/>
                </g>
              </g>
              <path class="cls-56" d="m237.06,174.3c.29-11.43.34-22.86-.68-34.1-1.39-15.17-18.06-23.96-31.74-27.02-4.52-1.01-52.94-7.85-53.9-4.17,2.05-7.82,4.42-15.56,7.11-23.18-4.18,10.28-9.52,20.27-17.23,28.24-12.5,12.91-31.25,13.38-46.22,21.81-9.03,5.09-12.91,12.48-14.26,22.49-1.06,7.89-2.48,22.51.88,29.93-8.75-19.31-13.7-41.51-9.58-62.55,5.56-28.38,31.46-44.82,57.47-52.76,20.5-6.26,42.35-7.25,63.67-5.08,28.78,2.92,50.58,11.32,60.47,40.8,2.77,8.27,4.14,16.92,4.66,25.61.39,6.56-.41,13.13,1.29,19.58-3.6.32-6.79,2.63-8.9,5.56-8.54,11.85-13.58,27.24-13.72,41.87.09-8.93.46-17.97.69-27.02Z"/>
              <g class="cls-5">
                <path class="cls-56" d="m249.48,133.02c-9.66-25.12-35.48-43.13-62.39-43.54,1.61,2.33,3.22,4.67,4.83,7-6.45-.63-13.33-1.45-18.25-5.66-4.92-4.21-6.26-13.12-.92-16.79-18.44,2.02-33.79,14.5-47.97,26.46,2.84-10.39,10.17-19.47,19.72-24.44-23.64,6.33-45.24,20.1-60.95,38.88-5.95,7.11-11.22,15.33-12.06,24.56-2.72-3.58-.82-9.85-.05-13.76,5.56-28.38,31.46-44.82,57.47-52.76,20.5-6.26,42.35-7.25,63.67-5.08,28.78,2.92,50.58,11.32,60.47,40.8,2.56,7.63,4.13,15.88,2.98,23.93-1.32-7.94-4.53-15.57-9.29-22.07,2.23,7.25,3.16,14.9,2.74,22.47Z"/>
              </g>
            </g>
            <g>
              <g>
                <path class="cls-39" d="m223.85,330.69c-6.82-6.94-12.6-14.66-17.14-22.91-1.25-2.27-6.75-.79-8.88-1.39,1.05,2.67,2.33,5.41,4.04,7.79-7.24,7.22-14.71,14.27-22.38,21.14-1.11,1-2.24,2-3.1,3.17-2.2,3.01-1.98,7.07-2.68,10.5-.85,4.13-1.7,8.25-2.55,12.38-1.91,9.27-4.29,18.52-3.65,28.06-3.27-11.96-5.82-24.1-9.02-36.02-.55-2.06-1.11-4.17-2.27-5.96-1.43-2.22-3.64-3.78-5.68-5.45-5.83-4.75-10.63-10.74-14.07-17.42-1.61-3.12-3.17-6.22-3.73-9.71-.27-1.68-.34-3.4-.19-5.1.08-.88.21-1.76.4-2.62.1-.47.24-1.87.61-2.19-2.32,1.97-3.79,4.39-5.23,7.02-1.55,2.83-3.61,5.28-5.47,7.89-2.66,3.73-5.55,7.32-8.66,10.76,3.78,6.58,4.52,15,6.38,22.13.9,3.45,1.6,6.93,2.44,10.4,1.39-1.3,3.11-2.32,5-2.98.08-.03-.28,13.09-.33,14.29-.19,4.9,1.37,9.08,2.76,13.75,3.09,10.43,6.33,20.83,9.72,31.2,6.78,20.72,14.17,41.3,22.15,61.69,2.32,5.91,4.68,11.81,7.1,17.69-.56-1.15,1.15-5,1.45-6.27.54-2.3,1.1-4.59,1.67-6.88,1.14-4.58,2.34-9.15,3.58-13.71,2.43-8.91,5.05-17.79,7.82-26.62,4-12.73,8.32-25.38,12.88-37.97,4.06-11.2,11.2-23.56,9.68-35.57-.32-2.56-1.04-5.25.11-7.62.74-1.51,2.17-2.68,3.67-3.67,2.6-1.69,4.97-2.39,6.54-4.77,1.95-2.95,3.34-6.57,4.84-9.73.57-1.2,6.28-11.35,5.65-11.9-1.18-1.1-2.34-2.23-3.47-3.38Z"/>
                <path class="cls-23" d="m139.25,328.63c-4.86-7.39-9.18-15.36-5.7-24.34-1.24,2.09-3.52,3.34-5.13,5.17-2.61,2.98-3.19,7.08-5.32,10.34-2.5,3.83-5.82,7.45-8.89,10.84-.27.3,3.92,10.88,4.21,12.18.69,3.1,1.26,7.51,4.06,9.77,1.27,1.02,2.94,1.62,4.08,2.75,1.47,1.44,1.84,3.49,2.1,5.42,1.54,11.2,1.91,22.51,3.97,33.66,2.6,14.04,8.18,27.77,13.29,41.23,3.75,9.89,7.6,19.75,11.54,29.57,1.86,4.63,3.93,9.21,5.88,13.78,1.04,2.43,1.74,5.01,2.65,7.49.5,1.36,3.36,6.22,2.84,7.45,3.89-9.27,4.81-19.27,5.7-29.12.71-7.84,1.4-15.86-.99-23.44-.09.69-.19,1.37-.28,2.06-3.92-9.75-7.84-19.5-11.76-29.25-2-4.98-4-9.96-6.01-14.94-1.97-4.89-1.36-7.6.09-12.61,1.69-5.86,3.63-11.64,5.41-17.47,3.06,9.18,5.46,18.58,7.15,28.11.88-5.92,2.5-11.73,4.79-17.26,1.04-2.52,2.24-5.03,2.61-7.73,0,12.85-2.05,25.67-4.74,38.21,3.97-2.44,7.68-5.22,11.05-8.28-1.72,1.56-1.59,8.88-1.97,11.12-.66,3.93-1.28,7.86-1.86,11.8-1.1,7.42-2,14.89-2.99,22.33-2.11,15.75-3.93,31.54-5.48,47.34,2.72-2.88,2.15-5.85,2.98-9.18,1.14-4.58,2.34-9.15,3.58-13.71,2.43-8.91,5.05-17.79,7.82-26.62,3.81-12.14,7.92-24.21,12.25-36.22,1.93-5.36,4.71-10.82,6.03-16.24,1.5-6.21,1.87-12.85,2.36-19.18.35-4.48.67-9.26,3.73-12.85,1.83-2.15,4.46-3.64,6.76-5.4,1.58-1.21,14.45-19.3,12.25-21.34-1.18-1.1-2.34-2.23-3.47-3.38-6.82-6.94-12.6-14.66-17.14-22.91-1.25-2.27-6.75-.79-8.88-1.39,1.05,2.67,2.33,5.41,4.04,7.79-7.24,7.22-14.71,14.27-22.38,21.14-1.11,1-2.24,2-3.1,3.17-2.2,3.01-1.98,7.07-2.68,10.5-.85,4.13-1.7,8.25-2.55,12.38-1.63,7.58-3.08,15-3.75,22.73-3.11-12.38-6.71-24.63-10.77-36.73-.25-.73-.5-1.48-.98-2.09-.5-.64-1.21-1.08-1.9-1.53-5.88-3.86-10.65-9.24-14.51-15.12Z"/>
                <path class="cls-38" d="m157.31,345.63c-.58-.81-1.41-1.41-2.2-2.03-4.01-3.11-6.57-7.26-9.97-10.83-3.02-3.18-6.11-6.21-8.83-9.66-1.89-2.4-3.74-4.88-5.1-7.63-1.31-2.64-1.8-6.59.56-8.9-1.09,1.07-3.06,1.76-4.35,2.64-1.5,1.02-2.98,2.12-4.32,3.34-2.58,2.34-4.85,5.41-6.81,8.29-.49.72-.98,1.48-1.17,2.33-.24,1.09.03,2.23.31,3.31,5.93,23.66,12.04,47.76,24.99,68.42,1.83-16.08,7.08-31.83,15.31-45.62-.4.66,1.56,5.02,1.81,5.89.52,1.74.65,3.4,1.04,5.14.98,4.33,2.25,8.61,3.37,12.91,2.24,8.6,4.49,17.21,6.73,25.81-2.82-17.19-5.76-34.17-10.37-50.96-.21-.77-.43-1.55-.85-2.23-.05-.07-.1-.15-.15-.22Z"/>
                <path class="cls-38" d="m176.39,338.49c-1.45,1.98-2.11,4.84-2.18,7.16.39-1.21.78-2.42,1.17-3.63.19-.58.41-1.2.97-1.54.85-.51,2.09-.09,2.68.65.59.74.7,1.69.79,2.59,1.54,15.22,3.57,30.38,3.64,45.68,5.72-8.76,10.33-18.04,15.55-27.04,5.24-9.03,10.18-18.77,16.59-27.2,1.44-2.24,3.63-5.09,3.8-7.74.15-2.35-2.12-3.99-3.63-5.92-3.41-4.36-6.44-8.95-9.06-13.71-1.25-2.27-6.75-.79-8.88-1.39,1.05,2.67,2.33,5.41,4.04,7.79-7.24,7.22-14.71,14.27-22.38,21.14-1.11,1-2.24,2-3.1,3.17Z"/>
                <path class="cls-4" d="m202.98,313.41c1.34-1.25,2.57-2.58,3.69-3.98,3.29-4.16-8.54-2.31-8.82-3.03.57,1.45,1.19,2.89,1.91,4.28.61,1.17,1.93,2.55,1.95,3.86.44-.37.86-.75,1.28-1.13Z"/>
              </g>
              <g>
                <path class="cls-30" d="m90.58,325.29c-1.48.61-3.01,1.25-4,2.39-1.22,1.41-1.37,3.3-1.46,5.06-1.08,20.09-1.08,40.23,0,60.32,13.11-10.5,27.01-20.24,41.57-29.16-6.73,18.58-17.03,36.76-30.52,52.28,5.52,7.6,10.6,15.46,15.2,23.52,3.09,5.41,5.96,10.91,8.83,16.41,18.47,35.37,37.03,70.97,48.22,108.62.47-7.75.42-15.51.87-23.33.56-9.8.93-19.61.86-29.42-.08-11.35-.19-22.98-5.01-33.29-5.33-11.39-7.17-25.56-10.59-37.68-7.35-26.04-15.3-51.9-23.85-77.57-3.79-11.37-7.7-22.7-11.72-34-1.8-5.06-2.63-7.12,1.07-11.32,3-3.41,7.36-9.31,11.47-11.32-13.53,6.59-27.01,12.76-40.94,18.49Z"/>
                <path class="cls-30" d="m239.02,320.89c1.04.45,1.98.94,2.79,1.5,3.04,2.11,3.87,5.8,4.33,9.18,1.23,9,1.77,18.06,1.86,27.12.04,4.55-.07,9.09-.2,13.63-.07,2.24-1.32,8.32-.07,10.16-3.82-5.62-10.39-8.86-16.63-12.03-3.86-1.96-8.21-3.65-12.46-4.83-2.44-.68-10.32-.35-11.82-1.36,10.63,7.15,18.88,15.81,27.81,24.42.79.77,1.61,1.57,1.94,2.57.42,1.3-.07,2.68-.56,3.97-6.21,16.11-12.3,32.25-18.45,48.38-4.06,10.64-8.17,21.26-12.28,31.89-15.39,39.79-33.96,80.55-38.07,122.75-.95-15.79-1.33-31.61-1.15-47.43.17-14.65,2.42-29.1,3.54-43.77.74-9.76.24-20.05,1.95-29.64.52-2.95,1.07-5.9,1.63-8.85,4-20.88,9.03-41.61,15.05-62.11,8.33-28.34,19.65-56,25.07-85.02.17-.9.33-1.82.15-2.72-.16-.78-.57-1.49-.98-2.19-1.55-2.66-3.11-5.33-4.66-7.99,5.64,2.96,11.55,5.49,17.49,7.93,3.86,1.59,9.54,2.63,13.74,4.44Z"/>
              </g>
            </g>
            <g>
              <path class="cls-33" d="m101.98,451.05c-1.47-16.01-5.72-72.58-7.19-88.59-.94-10.29-1.29-20.22-.27-30.51.87-8.8,3.2-12.24,8.82-19.16,5.3-6.54,18.29-9.69,30.33-10.69"/>
              <path class="cls-33" d="m195.57,298.42c27.91-.3,52.27,15.46,56,39.31,1.94,12.39-7.59,86.15-9.23,98.58"/>
            </g>
          </g>
        </g>
      </g>
      <g class="cls-44">
        <g class="cls-45">
          <rect class="cls-54" x="-163.35" y="305.78" width="615.33" height="1019.69"/>
        </g>
      </g>
    </g>
  </g>
</svg>