<?xml version="1.0" encoding="UTF-8"?>
<svg xmlns="http://www.w3.org/2000/svg" xmlns:xlink="http://www.w3.org/1999/xlink" viewBox="0 0 342.84 376.07">
  <defs>
    <style>
      .cls-1, .cls-2, .cls-3, .cls-4, .cls-5, .cls-6, .cls-7, .cls-8, .cls-9, .cls-10, .cls-11, .cls-12, .cls-13, .cls-14, .cls-15, .cls-16, .cls-17, .cls-18 {
        mix-blend-mode: multiply;
      }

      .cls-1, .cls-19, .cls-5, .cls-9 {
        fill: #8ed6c3;
      }

      .cls-20, .cls-21 {
        fill: #fff;
      }

      .cls-22 {
        stroke: #000;
      }

      .cls-22, .cls-23, .cls-24, .cls-25, .cls-26, .cls-27, .cls-28 {
        fill: none;
      }

      .cls-22, .cls-23, .cls-24, .cls-25, .cls-26, .cls-28 {
        stroke-miterlimit: 10;
      }

      .cls-22, .cls-25 {
        stroke-width: 10.41px;
      }

      .cls-2, .cls-29 {
        fill: #6fa595;
      }

      .cls-2, .cls-30 {
        opacity: .42;
      }

      .cls-31 {
        clip-path: url(#clippath-2);
      }

      .cls-3, .cls-32 {
        fill: #f5f5ff;
      }

      .cls-33 {
        isolation: isolate;
      }

      .cls-34, .cls-10 {
        fill: #4b496b;
      }

      .cls-35, .cls-6 {
        fill: #bc7d6c;
      }

      .cls-36 {
        fill: #ad6f61;
      }

      .cls-4, .cls-5 {
        opacity: .63;
      }

      .cls-37 {
        clip-path: url(#clippath-1);
      }

      .cls-38 {
        clip-path: url(#clippath-4);
      }

      .cls-23 {
        stroke: #fff;
        stroke-linecap: round;
        stroke-width: 3.47px;
      }

      .cls-6, .cls-21, .cls-17 {
        opacity: .46;
      }

      .cls-7 {
        opacity: .54;
      }

      .cls-24 {
        stroke-width: 10.28px;
      }

      .cls-24, .cls-25, .cls-26 {
        stroke: #312f44;
      }

      .cls-39 {
        fill: #cbcbef;
      }

      .cls-8 {
        opacity: .35;
      }

      .cls-26 {
        stroke-width: 6.85px;
      }

      .cls-40, .cls-12 {
        fill: #5971b5;
      }

      .cls-9 {
        opacity: .72;
      }

      .cls-41 {
        clip-path: url(#clippath);
      }

      .cls-10 {
        opacity: .33;
      }

      .cls-42 {
        fill: #171723;
      }

      .cls-11 {
        opacity: .69;
      }

      .cls-43 {
        fill: #845642;
      }

      .cls-12 {
        opacity: .56;
      }

      .cls-28 {
        stroke: #4b496b;
        stroke-width: 17.13px;
      }

      .cls-44 {
        clip-path: url(#clippath-3);
      }

      .cls-13, .cls-14 {
        opacity: .68;
      }

      .cls-13, .cls-45 {
        fill: #d0d0ea;
      }

      .cls-46 {
        fill: #4f7f6e;
      }

      .cls-47 {
        fill: #935d52;
      }

      .cls-48 {
        clip-path: url(#clippath-5);
      }

      .cls-15 {
        fill: #73bfa6;
      }

      .cls-15, .cls-18 {
        opacity: .43;
      }

      .cls-49 {
        fill: #c4c4c4;
      }

      .cls-16 {
        opacity: .53;
      }
    </style>
    <clipPath id="clippath">
      <circle class="cls-27" cx="173.09" cy="-684.76" r="181.78"/>
    </clipPath>
    <clipPath id="clippath-1">
      <path class="cls-27" d="m381.78-297.29c-.16-.76-.3-1.54-.43-2.31-.41-2.99-.84-5.97-1.27-8.96-.03-.25-.07-.5-.1-.75-.04-.29-.09-.59-.13-.88-.77-5.26-1.56-10.52-2.36-15.77-.04-.27-.08-.54-.12-.8-.05-.35-.11-.71-.16-1.06,2.99-2.1,5.88-4.36,8.68-6.74,2.4-1.95,4.78-3.95,7.12-6.08-.15-.54-.32-1.08-.47-1.62-.13-.95-.5-2.12-.97-3.34-9.2-32.34-19.25-64.44-30.2-96.23-8.3-24.11-15.54-51.19-35.52-68.03.05-.02.08-.07.13-.09-1.06-.93-2.08-1.67-3.09-2.25-.92-.69-1.82-1.39-2.8-2.03-13.33-8.84-28.78-14.73-44.66-19.5.08-.06.16-.12.24-.18-.09.07-.22.11-.38.14-12-3.6-24.24-6.56-36.02-9.65-2.56-3.36-5.45-6.43-8.73-9.11,1.29-.07,2.57-.19,3.81-.36,7.99-1.15,15.8-3.55,23.06-7.1,5.73-2.81,11.31-6.53,14.54-12.03,3.7-6.29,2.12-13.15,1.76-20.19,8.75,2.44,18.88-1.47,23.73-9.16,4.31-6.83,4.26-14.88,2.07-22.33-.65-2.22-6.89-19.43-8.23-19.04,9.78-2.84,16.05-13.39,15.87-23.57-.15-8.58-4.18-16.67-9.94-23.12-1.07-1.2-2.21-2.35-3.39-3.43,10.36-4.39,16.86-16.42,14.88-27.49-2.2-12.26-12.86-20.92-22.66-28.62-1.23-.97-2.48-1.97-3.72-2.98-.14-.49-.3-.96-.53-1.4-.62-1.23-3.41-2.56-3.25-4.02.14-1.28,4.99-4.12,5.99-5.39,1.91-2.46,3.2-5.42,3.48-8.54.54-6.04-2.87-8.43-5.66-12.98-2.47-4.04-1.87-8.14-1.57-12.74.74-11.15-5.09-22.5-14.59-28.39-9.5-5.89-22.26-6.06-31.92-.44-.11-9.13-7.53-16.95-16.11-20.08-17.48-6.37-51.96,2.29-68.46,10.22-8.26,3.97-15.82,11.25-16.54,20.39-1.05-3.66-2.21-7.5-4.95-10.14-2.74-2.64-7.61-3.49-10.25-.74-3.56,3.71-.36,9.98,3.7,13.13-7.9-.79-15.96-1.57-23.7.2-13.66,3.13-20.84,13.55-24.84,25.88-3.82,10.55-5.42,22.83-5.44,34.15-.02.31-.05.62-.07.92-6.65,3.09-13.67,5.49-19.72,9.62-5.52,3.77-10.07,8.94-13.11,14.89-2.84,5.55-4.23,12.62-.76,17.79,2.74,4.08,7.73,5.9,12.39,7.47-6.17,5.22-12.39,10.5-17.22,16.97-4.83,6.47-8.23,14.34-7.91,22.41.31,8.07,4.88,16.23,12.32,19.36,3.01,1.27,6.36,1.7,9.25,3.23.8.43,1.59.96,2.06,1.74,1.3,2.14-.27,4.81-1.63,6.92-4.82,7.46-7.49,16.65-5.71,25.35,1.79,8.7,8.64,16.58,17.4,18.05,9.28,1.55,18.92-3.91,27.98-1.38.86.24,1.72.56,2.36,1.19,2.01,1.97.66,5.27-.15,7.96-2.26,7.44,1.29,16.22,8.08,19.99,4.99,2.77,11.13,2.88,16.65,1.43,4.3-1.12,8.3-3.11,12.17-5.33,1.88,1.09,3.1,2.57,4.08,4.22.03.17.06.33.1.49-7.85,2.02-14.99,6.91-19.52,13.69-.62.92-1.16,1.88-1.68,2.85-10.38,2.35-24.53,5.55-24.97,5.67-.03,0,.18.36.59.99-6.98,1.92-13.92,3.95-20.84,6.11-7.55,2.32-15.08,4.79-22.61,7.46-7.06,2.5-14.17,5.06-20.49,9.09-10.23,6.52-17.42,15.87-22.96,26.42-.25.48-.53.94-.77,1.42-.07.13-.13.27-.19.4-.31.62-.59,1.25-.89,1.87-.42.88-.84,1.77-1.25,2.66-.22.48-.43.96-.64,1.45-6.94,15.69-11.72,32.65-16.63,49.27-6.93,19.86-23.37,65.85-30.46,83.35-1.08,2.32-2.16,4.63-3.29,6.92,3.51,2.06,7.11,3.98,10.75,5.8-1.45,4.77-2.87,9.55-4.28,14.34-.65,2.23-1.3,4.45-1.95,6.68-.42,1.44-1.97,4.42-1.55,5.93.02.06.05.12.07.18-4.79,17.32-9.21,34.73-13.25,52.24-2.5,10.81-4.85,21.84-4.58,32.9-.8,4.26-.6,8.84.73,12.75,3.28,9.58,14.65,10.51,23.25,11.17,21.18,1.62,42.37,1.64,63.49.32-.48,5.06-.93,10.11-1.43,15.17-1.26,12.83-19.58,144.97-18.5,145.4,4.6,1.86,9.25,3.55,13.93,5.12C4.73-9.18,3.2,13.66,2.36,36.47c-.03.45-.05.9-.08,1.35-.36,5.81-3.46,16.03-.49,20.51,0,.39-.02.77-.02,1.16.37,0,.74-.01,1.11-.02.88.67,2.03,1.09,3.58,1.09.58,0,1.21-.05,1.89-.16,2.89-.46,5.79-.82,8.69-1.15,87.38-1.38,174.78-1.71,262.16-.94,8.72.08,17.4.59,26.11.8,2.28.05,4.54-.04,6.81-.14,1.9.07,3.8.13,5.7.2,3.95.15,8.39.55,10.9,3.59-.68-.82-1.18-1.92-1.58-3.2.22.05.43.07.65.12-1.43-16.85-3.91-33.77-5.68-50.63-1.72-14.49-3.71-28.95-5.69-43.4,5.02-1.78,10.06-3.29,15.15-3.87-8.49.96-25.94-118.73-27.2-130.38-.5-4.64-.92-9.28-1.3-13.93,2.79.47,5.6.9,8.41,1.28,20.23,2.75,43.55,6.1,62.42-3.65,2.5-1.29,4.92-2.89,6.9-4.87,1.26-.67,2.42-1.49,3.29-2.62,1.69-2.19,2.02-5.1,2.24-7.86,2.65-32.37-.27-64.7-4.66-96.97.04-.03.07-.05.11-.07Zm-174.92-254.63c-.13-3.02-.22-6.04-.29-9.07.17.28.4.55.67.81l3.86,9.24c-1.41-.34-2.83-.66-4.24-.98Z"/>
    </clipPath>
    <clipPath id="clippath-2">
      <circle class="cls-27" cx="173.24" cy="-262.22" r="181.78"/>
    </clipPath>
    <clipPath id="clippath-3">
      <path class="cls-27" d="m387.19,130.24c-2.87-35.87-13-70.58-20.29-105.69-4.25-20.49-8.88-40.94-14.52-61.18-5.64-20.2-10.83-40.02-21.35-58.79-1.37-2.45-2.88-4.94-5.31-6.64-2.28-1.59-5.15-2.33-7.94-3.04-4.38-1.11-8.8-2.18-13.23-3.24.04-.25.1-.51.14-.76-.26.2-.5.41-.76.61-1.5-.36-3.01-.71-4.51-1.06,1.11-2.6,2.01-5.3,2.65-8.1,3.34-14.84-1.09-30.64-9.17-43.53,8.48-1.3,13.65-10.12,15.78-18.43,5.02-19.56-.53-41.51-14.24-56.34-6.52-7.05-14.62-12.47-21.28-19.38.52-2.47.87-4.97,1.02-7.48.6-10-1.98-29.16-13.29-32.98-.29-1.16-.5-2.32-.65-3.49.02-2.48.04-4.96.04-7.42.01-7.11-.18-14.15-1.45-21.01-.72-3.88-1.79-7.71-3.36-11.46-.16-.5-.31-1-.47-1.5-7.88-23.48-23.31-33.58-43.81-38.19,9.82-3.62,16.88-13.77,17.14-24.2.07-1.6-.03-3.21-.29-4.81-.81-4.85-3.16-9.6-7.13-12.51-3.87-2.84-9.37-3.6-13.56-1.29.38-.73.54-1.52.51-2.33.11-2.84-2.18-5.91-5.1-6.75-3.58-1.04-7.38.29-10.7,2.07,1.34-1.53,2.39-3.31,3.02-5.24-.05,0-.11.01-.16.02.05-.13.11-.26.16-.4-6.35.28-12.46,3.78-15.94,9.1.08-.35.14-.7.14-1.05.29-2.97-2.05-5.99-4.94-7.13-3.28-1.3-6.96-.81-10.43-.2-11.36,2.01-23.01,5.45-31.34,13.42-8.33,7.98-12.21,21.57-6.15,31.39,2.88,4.66,7.51,7.86,12.52,10.2-2.72.64-5.42,1.36-8.09,2.18-15.62,4.77-31.19,12.6-42.34,24.24-.25.26-.5.53-.75.79-7.05,7.6-12.23,16.77-14.38,27.73-.5,2.54-1.47,6.08-1.35,9.23-.23,1.94-.43,3.89-.55,5.85-.11,1.79-.14,3.57-.11,5.32.06,4.88.61,9.63,1.31,14.34-1.76-.58-3.69-.71-5.48-.27-4.57,1.12-8.03,4.94-10.24,9.09-8.07,15.16-3.45,32.33,5.09,46.48-.49.83-.96,1.67-1.41,2.5-7.24,9.39-15.78,17.77-23.26,26.99-8.86,10.92-16.45,23.7-17.22,37.74-.77,14.04,7.08,29.28,20.58,33.23-8.88,7.5-7.91,21.73-2.87,32.22-.33.12-.65.23-.98.35-1.34.49-2.75.98-4.19,1.47-.23.02-.46.07-.68.13-6.73,1.84-13.25,3.55-17.57,6.6-.08-.1-.14-.2-.22-.3l.08.4c-.32.23-.63.47-.92.71-1.65.87-3.23,1.78-4.64,2.79-2.03,1.46-3.19,3.64-4.26,5.74C-7.06-60.37-15.62-37.72-22.38-13.65c-7.92,28.24-13.84,56.87-18.92,85.6-2.58,14.59-4.94,29.21-7.24,43.83-2.81,17.9-6.77,34.9-3.87,53.02-.68,8.06-1.05,21.71,9.51,23.36,27.16,4.24,54.5-1.46,80.55-9.16-2.84,9.08-5.82,18.1-8.91,27.1.06,0,.11-.02.17-.02-2.22,6.46-4.47,12.91-6.76,19.34-2.93,8.23-20.01,102.8-4.64,104.25,3.1.29,6.2.56,9.31.85-1.94,24.05-4.45,43.57-8.17,51.61,106.99,3.5,214.07,4.09,321.09,1.78-6.8-16.51-17.34-144.44-22.29-172.76.54.14,1.08.28,1.62.43-2.21-6.26-3.69-12.06-4.73-17.86.16-3.02.05-6.04-.17-9.07,10.71,2.28,21.69,3.65,32.73,3.49,10.64-.16,29-.87,37.24-7.68,1.44-1.19,2.28-2.83,2.91-4.48,1.14-2.98,1.64-6.02,1.65-9.07.15-.78.27-1.56.34-2.34,1.13-12.37-.86-25.9-1.86-38.32Z"/>
    </clipPath>
    <clipPath id="clippath-4">
      <circle class="cls-27" cx="171.97" cy="183.9" r="181.78"/>
    </clipPath>
    <clipPath id="clippath-5">
      <path class="cls-27" d="m399.68,547.78c1.53-.82,3.04-1.67,4.55-2.54,4.56-2.14,9.15-4.2,13.83-5.96-11.37-31.21-25.99-61.28-36.71-92.98-10.36-30.65-20.15-61.53-32.21-91.57-2.6-6.48-5.6-13.29-11.37-17.21-3.53-2.4-7.78-3.47-11.93-4.45-19.06-4.48-38.37-7.87-57.82-10.17-1.72-.2-11.46-1.82-21-3.35-9.8-7.01-21.69-10.68-33.36-8.25-3.44-14.97-4.25-30.35-4.26-45.76,5.96-2.28,11.47-5.37,15.87-9.98,9.17-9.61,13.16-24.74,15.14-37.54.68-4.38,1.05-8.87,1.2-13.4,2.27,2.46,6.73,3.16,9.96,1.59,5.92-2.89,10.65-11.72,13-17.58,2.91-7.24,4.49-15.13,4.65-22.93.16-7.94-2.29-16.26-8.11-21.66-.19-.18-.41-.32-.61-.47.05,0,.1-.03.16-.03-.06,0-.15,0-.25-.04-1.05-.76-2.23-1.21-3.48-1.39-.18-.05-.35-.08-.49-.09-.77-.04-1.5-.01-2.22.07l.17-.53c-.44,0-.85.03-1.26.07,1.39-12.27,1.63-24.99,1.17-37.63.2.25.4.49.58.76,0-1.21.01-2.42.02-3.63.23-6.23.15-12.46-.19-18.69-.44-9.11-1.77-18.14-3.87-26.99-.63-2.69-1.36-5.41-2.8-7.7-1.28-2.04-3.07-3.65-4.88-5.15-10.39-8.66-22.29-14.98-34.59-19.77-13.31-5.18-25.66-7.18-39.82-7.12-20.84.09-41.65,4.74-60.82,13.58-5.04,2.33-10.3,5.81-15.29,10.02.06-.06.12-.14.18-.19-4.39,3.47-8.05,7.41-11.46,11.74-.36.44-.7.89-1.05,1.34-.2.26-.41.51-.61.78-.28.37-.55.76-.82,1.14-.11.16-.23.31-.34.47-.65.91-1.27,1.85-1.88,2.79-.04.06-.08.13-.12.19-1.79,2.82-3.37,5.79-4.64,8.91-.08.19-.15.37-.23.55-.38.96-.74,1.93-1.05,2.92-2.94,9.24-2.86,19.56-1.65,29.4.24,1.96.54,3.89.85,5.8.11.99.22,1.99.31,2.97.05-.05.11-.1.16-.16,0,.04.01.07.02.11,0-.04,0-.08,0-.13.1-.11.21-.2.32-.31.4,6.57.88,13.13,1.53,19.67.46,4.56.97,9.12,1.55,13.67.49,3.85,1.53,7.94,1.67,11.86,0,0,0,0,0,0h0c0,.22.01.42.01.63-.1,0-.19.02-.29.02-.35.03-.69.03-1.04.09-.28.05-.52.15-.79.21-.16.04-.33.08-.49.13-13.2,3.55-11.68,23.16-8.77,33.29,3.77,13.12,12.94,29.34,26.71,33.78.93.3,1.91.56,2.88.45,1.9-.2,3.28-1.64,4.36-3.3.22,1.55.46,3.09.72,4.62-.22-.21-.45-.4-.67-.61.3.43.56.91.79,1.41.72,4.22,1.62,8.4,2.73,12.55.06.27.12.56.19.82,2.3,8.39,6.46,15.07,13.82,20.35,4.46,3.2,9.45,5.61,14.59,7.69,1.8,13,2.82,26.11,3.04,39.23.06,3.62.04,7.23-.02,10.85-13.68,0-23.47,3.67-35.13,10.68-2.16,1.3-4.17,2.84-6.07,4.55-2.9.77-5.02,1.32-5.69,1.47-14.9,3.36-29.27,6.61-43.47,11.67-.39-.27-.77-.36-1.14-.24-2.56.86-5.1,1.79-7.61,2.78.13.22.24.46.36.68-.57.24-1.14.44-1.71.69-2.82,1.21-5.66,2.5-8,4.49-3,2.56-4.97,6.11-6.79,9.61-32.08,61.45-41.89,132.11-68.55,196.11.4-.91,6.27.11,14.89,2.18,1.35.35,2.69.7,4.03,1.05-.15.52-.3,1.04-.45,1.56-.62,2.16-1.25,4.31-1.86,6.47-.07.25-.15.5-.22.75-.06.23-.12.46-.18.69-1.88,6.69-3.7,13.4-5.44,20.12-.15.4-.29.81-.45,1.2.05.01.09.03.14.04-4.32,16.71-8.25,33.49-11.76,50.33-2.43,11.63-4.67,23.5-2.94,35.18.24,1.64.61,3.3,1.25,4.84.18.85.38,1.69.64,2.5,3.32,10.54,14.81,11.55,23.52,12.28,17.44,1.45,34.9,1.73,52.32,1-1.83,11.76-3.72,23.49-5.76,35.18-.05.27-.1.55-.15.82-.66,2.58-1.15,4.44-1.05,5.92-8.86,50.45-18.27,100.8-28.26,151.04-.31,1.58,99.82,15.32,108.7,16.08,25.52,2.2,51.37,4.79,77.02,4.99,36.65.29,73.3.37,109.94-.03,26.02,0,51.75-1.93,77.7-2.01-.31-3.57-1.05-11.56-2.11-22.82-3.45-35.89-6.19-81.73-10.87-113.21-.03.02-.08.04-.11.06-.7-7.07-1.41-14.21-2.12-21.38.73-.92.73-2.07.53-3.49-1.05-7.2-2.05-14.4-3.04-21.61-.38-3.82-.77-7.64-1.15-11.44,19.28,2.8,40.71,5.17,58.32-4.72,1.91-1.07,3.77-2.35,5.44-3.84,2.13-.78,4.18-1.74,5.57-3.35,1.8-2.08,2.15-4.85,2.39-7.47,3.98-43.46-3.84-86.85-11.24-130.08.51-5.44-1.52-12.77-2.91-18.66Zm-182.02-229.38c-.61-.37-1.17-.78-1.65-1.31-1.26-1.38-1.76-3.26-2.19-5.08-.05-.22-.09-.44-.14-.66l3.99,7.04Zm-84.62,2.75c-.57.35-1.95,1.12-3.83,2.12l3.96-8.13c-.03,2-.06,4.01-.14,6.01Z"/>
    </clipPath>
  </defs>
  <g class="cls-33">
    <g id="Capa_6" data-name="Capa 6">
      <g class="cls-41">
        <g class="cls-37">
          <g>
            <path class="cls-40" d="m6.45,60.57c-9.82-.02-4.64-15.15-4.17-22.75C3.04,25.39,3.8,12.96,4.56.53c.36-5.96,3.72-71.18,4.36-71.18,22.33,1.57,43.98,10.15,66.29,10.41,29.21.34,58.92,1.39,88.1-.07,25.67-1.28,51.37-2.49,76.95-5.18,13.92-1.46,56.85-16.3,67.34-4.53,4.57,5.12,5.68,12.4,6.59,19.22,2.68,20.08,5.36,40.17,7.84,60.27,1.24,10.05,2.43,20.11,3.55,30.18.61,5.51-.61,18.58,3.13,23.1-2.52-3.04-6.96-3.44-10.9-3.59-87.19-3.42-174.48-4.12-261.71-2.09-15.96.37-31.98.84-47.75,3.33-.69.11-1.32.16-1.89.16Z"/>
            <path class="cls-12" d="m322.1,9.05c1.78,16.87,4.25,33.78,5.68,50.63-7.51-1.81-14.95-.4-22.48-.57-8.71-.2-17.39-.72-26.11-.8-92.48-.81-184.96-.42-277.43,1.18C2.26,16.14,6.27-27.35,8.92-70.65c22.33,1.57,43.98,10.15,66.29,10.41,29.21.34,58.92,1.39,88.1-.07,25.67-1.28,51.37-2.49,76.95-5.18,13.92-1.46,56.85-16.3,67.34-4.53,4.57,5.12,5.68,12.4,6.59,19.22,2.66,19.95,5.54,39.86,7.91,59.85Z"/>
            <g>
              <g class="cls-16">
                <path class="cls-40" d="m136.75,55.51c-13.38-4.78-10.96-21.22-11.7-32.55-.39-12.11-.2-24.26,1.55-36.28,1.13,12.64,1.56,25.71,2.06,38.4.45,10.75-2.58,23.69,8.09,30.44h0Z"/>
              </g>
              <g class="cls-16">
                <path class="cls-40" d="m143.36,1.37c2.18,17.45-2.74,36.25,9.71,50.88-16.56-11.13-12.74-34-9.71-50.88h0Z"/>
              </g>
              <g class="cls-16">
                <path class="cls-40" d="m291.04,25.24c4.32-1.2,8.51-1.77,12.85-2.46,4.35-.62,8.52-1.31,13-1.45-3.62,2.8-8.02,4.24-12.47,4.95-4.47.63-9.08.54-13.38-1.04h0Z"/>
              </g>
              <g class="cls-16">
                <path class="cls-40" d="m167.56,9.18c21.15-1.6,52.42-3.9,73.24-5.97,21.08-1.93,51.74-5.56,73.04-8.02-23.82,5.6-48.35,9.12-72.7,11.54-24.37,2.22-49.12,3.41-73.57,2.45h0Z"/>
              </g>
            </g>
          </g>
        </g>
      </g>
      <g class="cls-31">
        <g class="cls-44">
          <g>
            <g>
              <path class="cls-32" d="m204.6-134.68c-6.81-2.47-13.67-4.61-20.66-5.3-16.06-1.58-33.45.46-48.69,5-21.45,6.4-42.67,14.74-63.32,22.1-11.66,4.16-23.44,8.06-35.05,12.33-8.94,3.29-20.58,6.36-28.15,11.81-2.03,1.46-3.19,3.64-4.26,5.74C-7.06-60.37-15.62-37.72-22.38-13.65c-7.92,28.24-13.84,56.87-18.92,85.6-2.58,14.59-4.94,29.21-7.24,43.83-2.93,18.63-7.11,36.27-3.5,55.22.63,3.32,1.51,6.73,3.68,9.33,3.1,3.71,8.35,5.05,13.17,4.57,4.81-.48,9.31-2.53,13.68-4.6,18.31-8.67,36.16-18.3,53.46-28.85,3.69,5.45,8.25,12.35,8.62,19.11.21,3.84-.89,7.61-2,11.29-8.44,27.9-7.7,177.9-19.9,204.26,106.99,3.5,214.07,4.09,321.09,1.78-7.15-17.36-18.44-158.04-23.02-176.34-5.12-20.78-10.27-41.83-9.98-63.23-.03,2.21,31.2,11.2,34.28,12.05,8.09,2.22,15.48,6.23,23.13,9.58,5.49,2.41,17.06,12.45,22.66,5.48,1.53-1.9,2.01-4.44,2.23-6.88,1.13-12.37-.86-25.9-1.86-38.32-2.87-35.87-13-70.58-20.29-105.69-4.25-20.49-8.88-40.94-14.52-61.18-5.64-20.2-10.83-40.02-21.35-58.79-1.37-2.45-2.88-4.94-5.31-6.64-2.28-1.59-5.15-2.33-7.94-3.04-37.55-9.5-77.08-16.52-113.17-29.59Z"/>
              <path class="cls-3" d="m256.89,349.23c4.43-.06,8.86-.17,13.29-.34,5.22-.2,10.48-.48,15.69-1.09,11.93-1.38,20.18-12.59,18.43-24.47-3.75-25.53-7.68-67.43-14.06-69.99-2.87-1.15-6.14-1.86-6.83-6.2-.33-2.06.18-4.2,1.3-5.96,3.02-4.74,8.43-6.58,12.53-10.07,19.08-16.21-23.15-14.96-30.62-15.01-17.98-.14-35.94-2.7-53.25-7.56-8-2.25-15.64-4.63-22.96-8.53-2.44-1.3-22.81-10.7-22.63-12.73-2.05,24.59-3.81,49.64-3.91,74.25,0,.59-.03,1.25-.45,1.68-.48.48-1.26.44-1.93.37-11.27-1.25-22.41-3.65-33.2-7.15,2.43-5.08,4.46-10.58,6.01-15.98,2.09-7.32,3.94-15.57-.53-22.01-12.27,5.15-25.17,9.14-38.41,11.86,8.21-12.96,17.15-25.57,26.77-37.76-20.47,3.36-40.93,6.72-61.39,10.08,31.38-20.29,66.19-36.06,100.83-51.73,3.34-1.51,6.96-3.06,10.67-2.57,3.17.42,5.82,2.27,8.33,4.02,28.51,19.87,60.78,35.56,95.09,46.24,12.14,3.78,24.84,6.97,37.7,6.33,2.13-8.95.57-17.72-.07-26.84-.16-2.31-.34-4.7-1.62-6.73-1.28-2.02-3.99-3.55-6.53-2.91.31-3.01-.02-6.06-.98-8.96,5.69,1.44,15.94,5.35,21.65,4.32-.6-1.09-9.69-13.34-8.53-13.76,5.75-2.06,56.92-15.56,56.77-16.92-3.64-32.58-36.44-59.95-33.77-92.6.16-1.99.45-4.05-.25-5.96-.7-1.9-2.75-3.61-5.01-3.34-2.23.26-4.88,2.15-6.26.6,6.5-6.59,12.99-13.18,19.49-19.76-6.73-13.99-13.46-27.98-20.19-41.96-.56-1.17-1.13-2.36-1.29-3.62-.24-1.88.45-3.74,1.07-5.55,2.19-6.32,3.73-12.82,4.6-19.38.66-5,.67-10.72-3.4-14.27-6.62,2.54-12.8,5.98-18.24,10.15.28-13.74,2.48-27.46,6.55-40.73-9.2.21-14.88,6.05-19.14,12.58,3.29-5.75,5.48-11.99,6.47-18.37-17.65,13.29-28.23,33.54-28.18,53.95-1.11-15.13-2.21-30.26-3.32-45.39-.36-4.96-.75-11.81-5.1-15.54-4.59-3.93-14.05-4.5-20.14-6.05-14.81-3.76-29.51-7.95-43.77-13.11-6.81-2.47-13.67-4.61-20.66-5.3-16.06-1.58-33.45.46-48.69,5-22.68,6.76-43.67,17.23-66.06,24.14-.95.29-1.97.62-2.53,1.35-.37.5-.48,1.11-.57,1.7-4.46,28.67-6.87,57.87-10.48,86.74,1.52-12.18-4-27.82-7.42-39.53-3.65-12.5-8.39-25.2-13.88-37.11-.13-.28-.28-.58-.58-.73-.38-.2-.87-.09-1.3.03-8.09,2.21-15.95,4.21-19.95,8.62-2.59,2.86-3.56,6.73-1.93,12.34,5.26,18.16,12.64,35.88,16.1,54.37C17.4-37.88,8.55-52.15-.29-66.42c3.48,5.62,3.73,16.83,6.12,23.27,3.76,10.15,6.83,20.5,9.19,30.97-6.74-.94-13.8-.09-20,2.42-1.29.52-2.6,1.16-3.39,2.2-1.82,2.43-.01,5.61,1.77,8.06C-1.47,7.51,3.66,14.53,8.78,21.54c.78,1.07,1.6,2.25,1.46,3.52-.15,1.38-1.38,2.45-2.52,3.42-22.99,19.43-38.94,45.19-45,72.7-1.55,7.04-1.22,16.25,6.33,19.01,3.37,1.23,7.21.67,10.79,0,23.4-4.35,45.69-12.32,68.59-18.39,22.89-6.08,47.09-10.29,70.68-6.84.63.09,1.3.21,1.74.61.94.86.22,2.27-.58,3.24-3.63,4.4-8.23,8.11-12.91,11.68-11.39,8.66-23.37,16.53-35.81,23.6-2.99,1.7-37.32,19.14-37.55,18.6,1.83,4.27,3.67,8.54,5.5,12.81.71,1.64,1.42,3.33,1.51,5.12.09,1.7-.41,3.38-.9,5.01-.6,2.01-1.22,4.01-1.84,6.01-4.98,16.05-10.47,31.95-16.11,47.78-2.93,8.23-20.01,102.8-4.64,104.25,50.38,4.77,100.83,8.86,151.33,12.26,29.31,1.98,58.68,3.73,88.04,3.31Z"/>
              <path class="cls-13" d="m319.07,215.57c-5.04-14.23-6.38-26.11-7.03-40.93-.17-3.9-2.57-7.57-7-6.45.31-3.01-.02-6.06-.98-8.96,5.69,1.44,15.94,5.35,21.65,4.32-.6-1.09-9.69-13.34-8.53-13.76,3.98-1.43,41.41-17.35,39.16-20.41-7.39-10.07-16.17-19.06-23.68-29.04-18.78-24.97-29.07-55.52-33.82-86.4-4.75-30.88-4.23-62.31-3.18-93.54-18.78,69.15-13.99,144.47,13.41,210.68.91,2.19,1.85,4.59,1.18,6.87-.99,3.33-4.87,4.74-8.27,5.45-12.45,2.61-25.3,2.33-38.02,2.05-20.83-.47-42.03-1-61.8-7.56-19.78-6.56-38.28-20.18-45.56-39.7-2.6-6.98-4.08-15.06-9.99-19.6-2.82-2.17-6.32-3.21-9.74-4.22-20.9-6.15-41.81-12.3-62.71-18.45-2.26-.66-4.63-1.39-6.25-3.1-1.41-1.47-2.07-3.48-2.69-5.42C51,2.65,41.52-44.3,18.13-85.03c7.31,29.72,11.55,60.2,12.63,90.8-5.28-15.39-13.18-29.88-23.26-42.66C17.47-13.94,23.4,10.75,24.93,35.73c.48,7.88.44,16.18-3.28,23.15-8.78,16.46-32.4,17.38-46.29,29.83-2.39,2.14-4.56,4.79-5.12,7.96-.56,3.16.99,6.86,4.04,7.86-3.32,4.04,2.92,11,7.29,8.13.31,9.96,20.58,2.1,25.75.7,13.73-3.71,27.25-8.16,41-11.81,22.89-6.08,47.09-10.29,70.68-6.84.63.09,1.3.21,1.74.61.94.86.22,2.27-.58,3.24-3.63,4.4-8.23,8.11-12.91,11.68-11.39,8.66-23.37,16.53-35.81,23.6-2.99,1.7-37.32,19.14-37.55,18.6,1.83,4.27,3.67,8.54,5.5,12.81.71,1.64,1.42,3.33,1.51,5.12.08,1.7-.41,3.38-.9,5.01-.6,2.01-1.22,4.01-1.84,6.01-2.99,9.62-6.15,19.19-9.43,28.72,11.35-1.61,22.48-3.17,33.38-6.73,34.07-11.12,67.66-23.71,100.65-37.73.82,41.23,4.27,82.42,10.34,123.21,4.04-35.04,8.08-70.08,12.12-105.12,44.9,9.37,89.53,19.99,133.84,31.84Z"/>
              <g class="cls-4">
                <path class="cls-39" d="m326.5,44.69c2.54-4.02,7.07-6.48,11.83-6.39-2.53,4.03-7.07,6.47-11.83,6.39h0Z"/>
                <path class="cls-39" d="m233.3,9.35c7.66,2.62,14.8,5.62,21.92,9.48-8.16.82-16.96-2.92-21.92-9.48h0Z"/>
                <path class="cls-39" d="m167.56,308.72c1.83-16.49-1.47-32.95-1.22-49.47.41-71.5.26-143.15,4.63-214.54-.11,72.02-.39,150.88-2.54,222.79.07,13.72,1.53,27.61-.87,41.23h0Z"/>
                <path class="cls-39" d="m33.46,174.12c18.31-3.77,36.56-8.23,54.2-14.42,5.89-2.04,11.73-4.25,17.64-6.46-20.48,13.22-47.49,20.91-71.85,20.88h0Z"/>
                <path class="cls-39" d="m82.6,179.66c3.95-2.73,8.11-4.73,12.37-6.78,4.3-1.98,8.49-3.89,13.11-5.2-6.46,6.89-16.08,11.36-25.49,11.98h0Z"/>
                <path class="cls-39" d="m230.75,162.32c19.32,9.32,40.66,12.96,62.01,11.47-20.57,6.4-45.19,2.11-62.01-11.47h0Z"/>
                <path class="cls-39" d="m250.95,190.12c4.87-.52,9.62-.02,14.39.76,4.75.86,9.4,2,13.8,4.13-4.87.53-9.62.03-14.39-.76-4.75-.87-9.4-2-13.8-4.13h0Z"/>
                <path class="cls-39" d="m42.46,238.67c9.87-8.51,20.92-15.52,32.35-21.72,11.51-6.05,23.48-11.34,36.03-14.85-11.24,5.94-23.23,11.84-34.41,17.87-11.26,5.95-22.79,12.59-33.97,18.7h0Z"/>
                <path class="cls-39" d="m172.35,190.77c11.39,5.49,21.78,12.55,33.24,17.68,11.33,5.15,23.19,9.27,35.3,12.1,14.62,3.57,29.53,5.22,44.62,5.74-30.22,3.1-61.55-3.69-87.92-18.78-8.87-5.02-16.82-11.2-25.24-16.74h0Z"/>
                <path class="cls-39" d="m220.1,234.67c4.07.23,8.07.62,12.08.75,1.34.06,2.7.09,4.27.24-1.05,1.19-2.43,1.94-3.87,2.42-4.29,1.37-9.71.37-12.48-3.41h0Z"/>
                <path class="cls-39" d="m14.23-92.64c13.34,15.82,16.2,37.44,20.02,57.1,4.75,26.68,8.1,53.62,9.67,80.67,0,0,.46,10.15.46,10.15.17,3.38.24,6.77.3,10.15C40.7,31.86,36.52-1.64,31.05-35c-3.45-19.72-5.25-40.66-16.83-57.64h0Z"/>
                <path class="cls-39" d="m314.46-102.23c-11.4,4.41-14.95,18.62-17.56,29.36-6.51,27.27-3.86,55.56-1.47,83.21,2.28,23.89,6.04,47.61,10.76,71.14-4.49-15.4-8.01-31.1-10.65-46.93-2.68-15.85-4.4-31.85-5.37-47.89-1.23-20.06-1.02-40.57,4.57-60.05,3.07-10.76,7.79-25.39,19.73-28.83h0Z"/>
                <path class="cls-39" d="m-22.26-11.06C-11.33-4.1-.12,1.63,11.66,6.99-1.35,6.32-14.54-.5-22.26-11.06h0Z"/>
                <path class="cls-39" d="m5.77-50.61c7.29,9.19,12.23,19.97,16.49,30.81,4.12,10.9,7.6,21.94,10.78,33.17-4.33-7.63-7.6-15.73-10.83-23.84-5.19-13.42-10.33-27.11-16.44-40.14h0Z"/>
                <path class="cls-39" d="m302.89,43.91c5.56-11.85,17.28-21,29.96-24.03-10.61,7.42-20.57,15.1-29.96,24.03h0Z"/>
              </g>
            </g>
            <g>
              <g>
                <path class="cls-19" d="m225.78-118.66c-6.82-6.94-12.6-14.66-17.14-22.91-1.25-2.27-6.75-.79-8.88-1.39,1.05,2.67,2.33,5.41,4.04,7.79-7.24,7.22-14.71,14.27-22.38,21.14-1.11,1-2.24,2-3.1,3.17-2.2,3.01-1.98,7.07-2.68,10.5-.85,4.13-1.7,8.25-2.55,12.38-1.91,9.27-4.29,18.52-3.65,28.06-3.27-11.96-5.82-24.1-9.02-36.02-.55-2.06-1.11-4.17-2.27-5.96-1.43-2.22-3.64-3.78-5.68-5.45-5.83-4.75-10.63-10.74-14.07-17.42-1.61-3.12-3.17-6.22-3.73-9.71-.27-1.68-.34-3.4-.19-5.1.08-.88.21-1.76.4-2.62.1-.47.24-1.87.61-2.19-2.32,1.97-3.79,4.39-5.23,7.02-1.55,2.83-3.61,5.28-5.47,7.89-2.66,3.73-5.55,7.32-8.66,10.76,3.78,6.58,4.52,15,6.38,22.13.9,3.45,1.6,6.93,2.44,10.4,1.39-1.3,3.11-2.32,5-2.98.08-.03-.28,13.09-.33,14.29-.19,4.9,1.37,9.08,2.76,13.75,3.09,10.43,6.33,20.83,9.72,31.2,6.78,20.72,14.17,41.3,22.15,61.69,2.32,5.91,4.68,11.81,7.1,17.69-.56-1.15,1.15-5,1.45-6.27.54-2.3,1.1-4.59,1.67-6.88,1.14-4.58,2.34-9.15,3.58-13.71,2.43-8.91,5.05-17.79,7.82-26.62,4-12.73,8.32-25.38,12.88-37.97,4.06-11.2,11.2-23.56,9.68-35.57-.32-2.56-1.04-5.25.11-7.62.74-1.51,2.17-2.68,3.67-3.67,2.6-1.69,4.97-2.39,6.54-4.77,1.95-2.95,3.34-6.57,4.84-9.73.57-1.2,6.28-11.35,5.65-11.9-1.18-1.1-2.34-2.23-3.47-3.38Z"/>
                <path class="cls-15" d="m141.18-120.73c-4.86-7.39-9.18-15.36-5.7-24.34-1.24,2.09-3.52,3.34-5.13,5.17-2.61,2.98-3.19,7.08-5.32,10.34-2.5,3.83-5.82,7.45-8.89,10.84-.27.3,3.92,10.88,4.21,12.18.69,3.1,1.26,7.51,4.06,9.77,1.27,1.02,2.94,1.62,4.08,2.75,1.47,1.44,1.84,3.49,2.1,5.42,1.54,11.2,1.91,22.51,3.97,33.66,2.6,14.04,8.18,27.77,13.29,41.23,3.75,9.89,7.6,19.75,11.54,29.57,1.86,4.63,3.93,9.21,5.88,13.78,1.04,2.43,1.74,5.01,2.65,7.49.5,1.36,3.36,6.22,2.84,7.45,3.89-9.27,4.81-19.27,5.7-29.12.71-7.84,1.4-15.86-.99-23.44-.09.69-.19,1.37-.28,2.06-3.92-9.75-7.84-19.5-11.76-29.25-2-4.98-4-9.96-6.01-14.94-1.97-4.89-1.36-7.6.09-12.61,1.69-5.86,3.63-11.64,5.41-17.47,3.06,9.18,5.46,18.58,7.15,28.11.88-5.92,2.5-11.73,4.79-17.26,1.04-2.52,2.24-5.03,2.61-7.73,0,12.85-2.05,25.67-4.74,38.21,3.97-2.44,7.68-5.22,11.05-8.28-1.72,1.56-1.59,8.88-1.97,11.12-.66,3.93-1.28,7.86-1.86,11.8-1.1,7.42-2,14.89-2.99,22.33-2.11,15.75-3.93,31.54-5.48,47.34,2.72-2.88,2.15-5.85,2.98-9.18,1.14-4.58,2.34-9.15,3.58-13.71,2.43-8.91,5.05-17.79,7.82-26.62,3.81-12.14,7.92-24.21,12.25-36.22,1.93-5.36,4.71-10.82,6.03-16.24,1.5-6.21,1.87-12.85,2.36-19.18.35-4.48.67-9.26,3.73-12.85,1.83-2.15,4.46-3.64,6.76-5.4,1.58-1.21,14.45-19.3,12.25-21.34-1.18-1.1-2.34-2.23-3.47-3.38-6.82-6.94-12.6-14.66-17.14-22.91-1.25-2.27-6.75-.79-8.88-1.39,1.05,2.67,2.33,5.41,4.04,7.79-7.24,7.22-14.71,14.27-22.38,21.14-1.11,1-2.24,2-3.1,3.17-2.2,3.01-1.98,7.07-2.68,10.5-.85,4.13-1.7,8.25-2.55,12.38-1.63,7.58-3.08,15-3.75,22.73-3.11-12.38-6.71-24.63-10.77-36.73-.25-.73-.5-1.48-.98-2.09-.5-.64-1.21-1.08-1.9-1.53-5.88-3.86-10.65-9.24-14.51-15.12Z"/>
              </g>
              <g>
                <path class="cls-20" d="m92.51-124.07c-1.48.61-3.01,1.25-4,2.39-1.22,1.41-1.37,3.3-1.46,5.06-1.08,20.09-1.08,40.23,0,60.32,13.11-10.5,27.01-20.24,41.57-29.16-6.73,18.58-17.03,36.76-30.52,52.28,5.52,7.6,10.6,15.46,15.2,23.52,3.09,5.41,5.96,10.91,8.83,16.41,18.47,35.37,37.03,70.97,48.22,108.62.47-7.75.42-15.51.87-23.33.56-9.8.93-19.61.86-29.42-.08-11.35-.19-22.98-5.01-33.29-5.33-11.39-7.17-25.56-10.59-37.68-7.35-26.04-15.3-51.9-23.85-77.57-3.79-11.37-7.7-22.7-11.72-34-1.8-5.06-2.63-7.12,1.07-11.32,3-3.41,7.36-9.31,11.47-11.32-13.53,6.59-27.01,12.76-40.94,18.49Z"/>
                <path class="cls-20" d="m240.95-128.46c1.04.45,1.98.94,2.79,1.5,3.04,2.11,3.87,5.8,4.33,9.18,1.23,9,1.77,18.06,1.86,27.12.04,4.55-.07,9.09-.2,13.63-.07,2.24-1.32,8.32-.07,10.16-3.82-5.62-10.39-8.86-16.63-12.03-3.86-1.96-8.21-3.65-12.46-4.83-2.44-.68-10.32-.35-11.82-1.36,10.63,7.15,18.88,15.81,27.81,24.42.79.77,1.61,1.57,1.94,2.57.42,1.3-.07,2.68-.56,3.97-6.21,16.11-12.3,32.25-18.45,48.38-4.06,10.64-8.17,21.26-12.28,31.89-15.39,39.79-33.96,80.55-38.07,122.75-.95-15.79-1.33-31.61-1.15-47.43.17-14.65,2.42-29.1,3.54-43.77.74-9.76.24-20.05,1.95-29.64.52-2.95,1.07-5.9,1.63-8.85,4-20.88,9.03-41.61,15.05-62.11,8.33-28.34,19.65-56,25.07-85.02.17-.9.33-1.82.15-2.72-.16-.78-.57-1.49-.98-2.19-1.55-2.66-3.11-5.33-4.66-7.99,5.64,2.96,11.55,5.49,17.49,7.93,3.86,1.59,9.54,2.63,13.74,4.44Z"/>
              </g>
            </g>
            <g>
              <g>
                <path class="cls-24" d="m103.91,1.69c-1.47-16.01-5.72-72.58-7.19-88.59-.94-10.29-1.29-20.22-.27-30.51.87-8.8,3.2-12.24,8.82-19.16,5.3-6.54,18.29-9.69,30.33-10.69"/>
                <g>
                  <g>
                    <path class="cls-45" d="m79.19,16.76c1.1,13.35,13.06,23.26,26.71,22.13,13.65-1.13,23.82-12.86,22.72-26.21-1.1-13.35-13.06-23.26-26.71-22.13-13.65,1.13-23.82,12.86-22.72,26.21Z"/>
                    <path class="cls-34" d="m86.89,16.12c.76,9.19,8.99,16.01,18.39,15.24,9.4-.78,16.4-8.85,15.64-18.05-.76-9.19-8.99-16.01-18.39-15.24-9.4.78-16.4,8.86-15.64,18.05Z"/>
                  </g>
                  <path class="cls-10" d="m100.65-8.93c-4.69,2.35-8.34,6.63-9.86,11.57,4.91-3.33,11.16-4.7,17.04-3.75,2.52.41,5.07,1.29,6.8,3.12,5.33,5.67-2.07,8.81-6.99,9.5-2.98.41-6.23.69-8.43,2.7-2.38,2.17-2.74,5.98-1.2,8.78,1.53,2.79,4.65,4.55,7.87,4.96,3.22.41,6.5-.41,9.43-1.79-3.9,4.68-10.27,6.46-16.23,8,5.93,2.37,12.84,2.32,18.75-.14-1.54.64-2.97,2.43-4.64,3.18-2.23,1.01-4.84,1.49-7.26,1.69-13.65,1.13-25.61-8.78-26.71-22.13-.52-6.34,1.57-12.74,5.77-17.62,2.05-2.38,4.56-4.37,7.36-5.83,1.36-.71,2.81-1.35,4.3-1.75,1.03-.28,3.23-.08,4.04-.48Z"/>
                </g>
              </g>
              <g>
                <path class="cls-26" d="m253.87,124.44c4.79,3.22,11.47.52,14.94-4.31,3.47-4.83,4.53-11.13,5.36-17.18,4.67-33.84,15.63-93.77-20.64-111.79-9.61-4.78-27.57-9.2-37.37-3.75-15.26,8.48-18.79,28.59-20.15,45.38-1.76,21.57-4.54,44.3-.34,65.66,2.61,13.28,8.94,24.54,23.1,23.46"/>
                <path class="cls-28" d="m278.75,31.59c-.99-8.42-4.19-17.58-8.43-24.69-4.11-6.89-9.9-12.31-16.79-15.73-9.61-4.78-27.57-9.2-37.37-3.75-5.95,3.31-10.48,8.74-13.58,15.1-2.75,5.64-5.23,11.25-6.36,17.58"/>
                <g>
                  <path class="cls-42" d="m254.83,116.33c-1.83-1.89-4.84-2.41-6.99-.97-1.82,1.22-2.77,3.51-3.26,5.76-1.18,5.39.74,14.52,7.54,10.34,4.5-2.77,6.73-10.99,2.71-15.13Z"/>
                  <path class="cls-42" d="m226.34,115.89c.76,1.48,1.05,3.26.99,4.98-.13,3.61-1.27,9.07-5.08,10.1-8.34,2.27-7.33-11.14-5.05-15.93,1.6-3.38,5.72-3.23,8.12-.62.41.44.74.94,1.02,1.48Z"/>
                </g>
              </g>
            </g>
            <g>
              <g>
                <g>
                  <path class="cls-43" d="m152.09,113.09c1.61-8.46,4.01-16.55,6.2-24.9.36-1.37.88-2.92,2.33-3.52-15.54-2.66-30.92-6.42-46.44-9.4-17.71-3.4-34.44-9.58-51.57-14.86-12.98-4-24.49-5.99-37.17-.43-13.8,6.05-27.25,12.64-40.22,19.98-2.07,1.17-4.23,2.46-5.28,4.42-1.05,1.96-.46,4.76,1.82,5.56.7.25-.33-1.09.27-.7-.62,2.97-5.35,3.84-6.73,6.61-1.37,2.76,2.4,6.2,5.59,5.1-2.25,1.87-.8,5.5,1.94,6.78,2.73,1.28,6.04.94,9.11.56-1.38,1.38,1.21,3.14,3.28,3.45,14.27,2.12,28.79-3.09,43.21-1.97,7.72.6,15.1,2.99,22.49,5.04,10.62,2.94,21.68,5.23,32.8,4.68,11.12-.54,22.41-4.21,29.75-11.55,9.56.05,17.33,5.1,26.76,6.49.39.06.82.1,1.16-.06.49-.24.61-.79.7-1.27Z"/>
                  <g>
                    <g class="cls-7">
                      <path class="cls-47" d="m-7.8,109.47c-.66-4.61,6.53-6.3,9.72-7.67,12.05-4.38,24.37-8.05,37.09-9.9-11.6,5.55-23.87,9.37-36.31,12.45-3.17,1.03-9.83,1.11-10.5,5.12h0Z"/>
                    </g>
                    <g class="cls-7">
                      <path class="cls-47" d="m-19.94,103.51c-1.19-4.5,8.75-7.47,11.88-9.23,14.26-6.36,29.05-11.65,44.4-14.7-14.1,6.71-28.69,12.07-43.42,17.18-2.45.84-4.93,1.64-7.4,2.43-2.18.76-5.31,1.56-5.46,4.32h0Z"/>
                    </g>
                    <g class="cls-7">
                      <path class="cls-47" d="m-23.71,94.23c7.55-7.95,18.32-11.65,28.07-16.07,9.98-4.12,20.25-7.8,30.94-9.61-9.87,4.42-19.69,8.58-29.62,12.78-9.82,4.35-20.21,7.16-29.39,12.91h0Z"/>
                    </g>
                  </g>
                </g>
                <path class="cls-20" d="m371.44,138.58c-5.59-4.98-11.91-9.33-18.75-12.9-16.98-8.85-36.64-12.72-55.92-16.45-52.83-10.24-105.67-20.47-158.5-30.71-1.5,7.24-4.01,14.47-4.97,21.69-.4,3-3.7,23.83-.78,25.23,27.88,12.64,54.47,26.36,83.84,36.2,29.69,9.95,60.26,17.67,90.77,25.38,12.91,3.26,26.31,5.31,39.78,5.11,10.64-.16,29-.87,37.24-7.68,1.44-1.19,2.28-2.83,2.91-4.48,5.5-14.43-3.28-30.32-15.4-41.2-.07-.07-.15-.13-.22-.2Z"/>
                <g class="cls-14">
                  <path class="cls-39" d="m335.13,118.03c5.06.45,9.82,2.24,14.27,4.57,4.42,2.4,8.56,5.36,11.72,9.34-4.7-1.75-8.95-4.02-13.33-6.32-4.34-2.36-8.6-4.64-12.66-7.59h0Z"/>
                  <path class="cls-39" d="m271.47,115.97c16.68,6.94,24.4,28.9,13.33,43.85,5.75-16.91-.1-32.47-13.33-43.85h0Z"/>
                  <path class="cls-39" d="m309.85,134.3c4.5,4.29,6.54,10.69,6.39,16.8-.09,2.05-.42,4.1-1.24,6.04-.61-2.01-1.02-3.92-1.45-5.8-1.11-5.38-2.81-11.6-3.71-17.03h0Z"/>
                  <path class="cls-39" d="m327.8,170.31c.51,5.72-2.53,11.6-7.48,14.5,1.02-5.54,3.59-10.44,7.48-14.5h0Z"/>
                  <path class="cls-39" d="m223.2,152.75c.49-3.39,2.97-5.9,6.37-6.39.12,3.53-2.85,6.48-6.37,6.39h0Z"/>
                  <path class="cls-39" d="m308.36,111.8c22.02,2.67,43.67,17.02,52.76,37.53-13.26-17.76-32.05-30.1-52.76-37.53h0Z"/>
                </g>
              </g>
              <g>
                <g>
                  <path class="cls-43" d="m282.56,65.65c-6.86-5.43-15.82-8.24-24.54-10.92-1.79-.55-3.61-1.11-5.51-1.25-2.28-.17-4.56.27-6.79.72-23.49,4.77-46.56,11.15-68.92,19.07,2.98,5.59,5.7,11.29,8.11,17.09.62,1.5,7.01,15.37,6.1,16.09,2.09-1.65,4.83-2.47,7.5-3.23,8.31-2.35,16.72-4.42,25.21-6.21,1.22-.26,2.55-.5,3.69-.06.69.27,1.24.76,1.78,1.22,8.29,7.13,19.92,11.18,31.52,10.97,2.61-.05,5.22-.3,7.81,0,11.21,1.25,22.2,4.65,33.11,6.97,1.43.3,3.22.51,4.12-.52.5-.56.54-1.33.86-1.98.46-.93,1.45-1.56,2.18-2.34,2.16-2.34-.29-4.72-.08-7.17.15-1.87,2.23-3.44,2.68-5.28.78-3.2-2.4-5.98-5.28-8.06,2.11-1.43,3.33-3.83,3.12-6.17-.48-5.44-7.51-6.91-11.99-9.27-5.27-2.77-10.14-6.07-14.7-9.68Z"/>
                  <g class="cls-7">
                    <path class="cls-47" d="m212.86,99.59c6.14-4.5,13.92-5.54,21.19-6.81,2.41-.38,4.81-.77,7.36-1.11-1.98,1.65-4.3,2.8-6.66,3.71-7.1,2.6-14.42,3.32-21.89,4.21h0Z"/>
                  </g>
                </g>
                <path class="cls-39" d="m183.78,67.87c.48-.15,1-.29,1.49-.15.49.15.81.56,1.08.94,10.72,14.96,17.21,32.23,18.75,49.84-11.31,4.05-22.57,8.18-33.8,12.39,1.14-4.52-.33-9.21-1.8-13.66-3.77-11.37-7.61-22.72-11.57-34.03-.65-1.84-2.7-5.15-1.62-6.82.89-1.38,7.14-2.3,8.9-2.84,6.19-1.89,12.38-3.79,18.57-5.68Z"/>
                <path class="cls-20" d="m-52.15,165.98C-47.85,126.53-1.55,111.11,35.63,101.17c43.64-11.66,87.28-23.32,130.92-34.97,9.03,22.31,15.16,45.52,18.25,69.04-40.77,13.3-81.54,26.61-122.31,39.91-33.18,10.83-69.45,22.62-105.4,17.01-11.51-1.8-10.04-17.87-9.33-25.4.02-.26.05-.52.08-.78Z"/>
                <g class="cls-14">
                  <path class="cls-39" d="m-45.16,147.28c11.44-28.46,48.55-39.78,75.96-46.29-7.02,3.04-14.15,5.73-21.18,8.56-20.6,8.42-42.65,17.96-54.78,37.72h0Z"/>
                  <path class="cls-39" d="m26.6,110.38c-11.61,7.87-21.52,17.58-28.25,29.98,2.14-14.36,14.36-26.5,28.25-29.98h0Z"/>
                  <path class="cls-39" d="m21.17,131.99c.77,3.78,0,7.28-2.28,10.38-2.43-3.29-1.28-8.4,2.28-10.38h0Z"/>
                  <path class="cls-39" d="m68.32,119.17c3.82,15.88,5.6,30.17,20.54,39.86-8.04-1.81-14.42-8.58-17.55-16.04-3.16-7.56-3.64-15.79-2.99-23.82h0Z"/>
                  <path class="cls-39" d="m94.38,142.79c5.06,4.59,10.23,7.95,15.96,11.62-7.11,1.12-15.08-4.36-15.96-11.62h0Z"/>
                  <path class="cls-39" d="m122.19,141.17c2.38-.8,4.01.81,3.19,3.19-2.38.81-3.99-.82-3.19-3.19h0Z"/>
                </g>
              </g>
            </g>
          </g>
        </g>
      </g>
      <g class="cls-38">
        <g class="cls-48">
          <g>
            <g>
              <path class="cls-36" d="m133.2,304.24c.09,5.64.04,11.27-.16,16.91-2.98,1.82-28.29,15.38-30.36,11.65,19.3,35.07,40.35,70.26,71.17,95.8,12.76-16.4,24.43-33.8,36.24-50.76,5.62-8.08,11.95-15.42,16.19-24.27,1.31-2.73,16.19-23.96,18.08-23.11-8.12-3.63-16.25-7.26-24.37-10.89-1.44-.64-2.92-1.32-3.98-2.48-1.26-1.38-1.76-3.26-2.19-5.08-5.06-21.47-4.62-43.81-4.14-65.87,0,.9-73.83,5.61-81.45,6.59,3.03,17,4.69,34.24,4.98,51.51Z"/>
              <path class="cls-35" d="m124.54,260.54c2.91,1.21,5.93,2.2,8.94,3.04,20.3,5.66,42.09,5.87,62.49.58,9.74-2.52,19.4-6.42,26.71-13.34,12.94-12.26,16.15-31.43,17.52-49.2.58,4.75,7.08,6.71,11.37,4.61,5.92-2.89,10.65-11.72,13-17.58,2.91-7.24,4.49-15.13,4.65-22.93.16-7.94-2.29-16.26-8.11-21.66-5.4-5.02-15.69-.06-16.37,6.84,1.43-14.35,1.46-28.84.11-43.19-1.59-16.87-5.78-34.8-18.45-46.06-10.1-8.97-23.99-12.22-37.39-13.88-18.34-2.26-37.3-2.05-54.89,3.64-17.59,5.69-33.74,17.32-42.22,33.74-5.92,11.47-7.71,22.78-7.53,35.59.1,6.77.66,13.54,1.7,20.23,1.64,6.55,1.02,13.51,2.27,20.22-2.37-5.3-8.56-8.58-14.27-7.59-14.63,2.56-13.05,23.17-10.05,33.63,3.77,13.12,12.94,29.34,26.71,33.78.93.3,1.91.56,2.88.45,2.61-.28,4.24-2.88,5.47-5.21-2.09,3.96,1.87,14.74,3.2,18.67,2.02,5.97,3.99,11.55,8.33,16.31,3.8,4.17,8.67,7.11,13.91,9.3Z"/>
              <path class="cls-6" d="m91.9,204.54c.37-.92.6-1.91.8-2.87,2.05-9.86,2.62-20.03,1.69-30.06-.42-4.54-1.19-8.8-1.43-13.4-.27-5.26-.65-10.51-1.25-15.73,3.43-3.25,4.82-5.77,4.73-10.7-.11-6.23-.21-12.46-.32-18.7,2.5,1.94,6.51,1.48,8.52-.96,2.01-2.44,1.68-6.46-.7-8.55,5.47,1.14,11.16,1.15,16.63.04-1.12-1.45-2.25-2.89-3.37-4.34,19.77,1.74,38.74,3.63,57.81-3.22-2.16-1.97-4.58-3.66-7.18-5,13.16,3.26,26.22,6.9,39.17,10.91-1.56-2.15-2.74-4.57-3.48-7.12,6.42,2.61,12.55,5.91,18.28,9.81.96.65,1.93,1.35,2.5,2.36.61,1.09.68,2.39.71,3.64.21,6.79.4,14.11,4.52,19.52,2.01,2.65,4.81,4.58,7.07,7.03,5.85,6.32,4.95,16.65,4.3,24.54-.82,10.01-1.59,19.46,1.48,29.17.58,1.84,1.52,3.89,3.38,4.36-.18-4.68.11-9.39.87-14.01.39-2.4.87-11.41,4.83-7.78,2,1.83,2.81,4.69,2.69,7.4s-1.05,5.31-2.09,7.81c2.26-5.47,4.93-10.67,6.33-16.46,1.11-4.58,2.39-12.18-.07-16.55-1.33-2.37-3.53-2.5-5.63-1.02.17-2.46.74-4.95,2.06-7.04,1.32-2.09,3.45-3.74,5.89-4.1-.5.07-3.09-1.45-4.22-1.51-1.84-.09-3.51.11-5.22.86-3.19,1.4-6.12,4.4-6.48,8,1.43-14.35,1.46-28.84.11-43.19-1.59-16.87-5.78-34.8-18.45-46.06-10.1-8.97-23.99-12.22-37.39-13.88-18.34-2.26-37.3-2.05-54.89,3.64-17.59,5.69-33.74,17.32-42.22,33.74-5.92,11.47-7.71,22.78-7.53,35.59.1,6.77.66,13.54,1.7,20.23.92,5.91,2.02,12.19,2.14,18.16-.04-1.93-5.8-4.61-7.31-5.03-2.84-.79-6.13-.95-8.93.11,4.8.94,7.49,4.14,9.42,8.44,2.14,4.76,3.24,9.99,3.21,15.21-1.83-2.76-4.06-5.26-6.58-7.4-1.16-.98-2.56-1.94-4.07-1.75-1.37.18-2.48,1.32-2.97,2.61-.49,1.3-.47,2.72-.34,4.1.5,5.42,2.2,10.97,4.83,15.72,1.33,2.4,2.87,4.67,4.63,6.78.84,1.01,1.72,1.97,2.65,2.9.63.62,2.32,1.63,2.64,2.4-2.2-5.31-5.28-12.35-.03-16.93,2.97,6.54,4.56,13.7,4.65,20.88.87-.67,1.45-1.6,1.86-2.63Z"/>
              <g>
                <g class="cls-11">
                  <path class="cls-36" d="m153.32,138.4c9.08,14.97,10.33,34.02,5.42,50.62-.21.6-.26.91-.36.88-.06-.03-.11.02-.04.17,1.49,2,3.91,3.26,6.85,3.63-2.98,1.52-8.74,1.05-10.6-2.47-.52-1.29-.34-2.32-.34-2.99l.14-3.84c.75-15.5-.31-30.42-1.07-45.99h0Z"/>
                </g>
                <g>
                  <path d="m108.4,170.38c1.4-11.99,12.35-22.79,24.76-17.01,3.32,1.64,5.6,5.09,7.69,7.72,1.11,1.39,2.35,2.55,4.31,3.31-1.98.83-4.45.37-6.34-.57-3.3-1.5-5.96-4.29-9.2-4.86-8.94-1.92-14.88,5.83-21.22,11.4h0Z"/>
                  <path d="m221.34,164.77c-6.16-4.25-11.39-9.82-18.99-9.3-3.19.48-5.74,1.96-8.66,3.58-3.45,1.94-7.16,4.18-11.22,4.81,0,0,3.87-4.66,3.87-4.66,4.11-4.96,9.07-10.15,16.06-10.65,9.4-.67,16.93,7.84,18.94,16.23h0Z"/>
                </g>
                <g>
                  <path class="cls-49" d="m122.78,119.38c3.39.14,6.65.86,10.2,2.83-2.29-1.77-4.57-3.54-6.86-5.31,5.59-.61,11.4,2.51,13.99,7.49-.82-1.76-1.37-3.64-1.65-5.57.03.22,6.34,4.45,7.13,5.75,1.59,2.65,4.8,9.58,1.28,11.87-1.62,1.05-3.69,1-5.63.96-9.32-.2-18.66.78-27.73,2.91-6.29,1.48-12.61,3.52-19.06,3.05,1.78-7.42,7.54-14.85,14.86-17.49-1.31.47-2.83.31-4-.44,4.02-2.62,8.86-3.95,13.65-3.76-1.72-.22-3.38-.87-4.79-1.88,3.11-.29,5.9-.55,8.61-.44Z"/>
                  <path class="cls-49" d="m201.92,115.87c-3.36.5-6.52,1.56-9.84,3.9,2.08-2,4.17-4.01,6.25-6.01-5.62,0-11.07,3.71-13.11,8.94.62-1.84.98-3.77,1.04-5.71,0,.22-5.83,5.1-6.47,6.48-1.3,2.81-3.75,10.04,0,11.94,1.72.88,3.78.6,5.7.35,9.24-1.19,18.63-1.21,27.88-.06,6.41.8,12.92,2.16,19.28,1.01-2.56-7.19-9.08-13.96-16.64-15.8,1.35.33,2.84,0,3.93-.86-4.27-2.17-9.23-2.98-13.98-2.28,1.69-.4,3.27-1.22,4.57-2.38-3.12.05-5.93.08-8.61.48Z"/>
                </g>
                <g>
                  <g class="cls-11">
                    <path class="cls-36" d="m72.96,181.5c-1.58-3.24-3.06-9.25-.74-12.45,1.01-1.32,3.22-1.41,4.48-.51,1.71,1,2.74,2.78,3.83,4.2,1.38,1.91,2.68,3.88,3.89,5.92,3.66,6.11,6.46,12.97,7.35,20.11.37,2.91.29,5.89.05,8.82,0,0-1.5-.09-1.5-.09-2.79-.13-5.22-1.86-6.74-4.04-4.19-6.02-3.16-14.73,1.63-20.02-3.28,5.72-3.53,13.25.5,18.38,1.3,1.54,3,2.57,4.71,2.57,0,0-1.6,1.46-1.6,1.46.09-4.47-.55-8.91-1.86-13.18-1.93-6.54-5.16-12.62-8.69-18.44-1.01-1.5-2.1-3.92-3.79-4.21-3.1.26-2.25,9.25-1.54,11.48h0Z"/>
                  </g>
                  <g class="cls-11">
                    <path class="cls-36" d="m258.55,166.95c.05-3.52-.34-7-1.3-10.28-.29-.88-.64-1.95-1.44-1.96-.8.3-1.22,1.33-1.8,2.17-2.12,3.62-3.14,7.74-3.92,11.92-1.28,6.84-1.64,13.8-2.59,20.76-.14.88-.31,2.07.06,2.87.09.14.07.11.05.12,0,0,.02,0,.03.01-.14-.02-.31.01-.43.07.79-.66,1.6-1.93,2.25-2.94,1.34-2.16,2.59-4.48,3.69-6.79.33-.75.68-1.39.77-2.21.43-3.22-.8-7.01-3.98-8.49,3.75.88,5.69,4.97,5.68,8.6-.36,3.5-2.29,7.07-3.81,10.24-.91,1.56-1.61,3.28-3.3,4.3-2.98,1.14-4.58-2.34-4.38-4.75,1.22-11.04,1.18-22.37,6.32-32.72,1.37-2.28,4.03-7.31,7.21-4.45.84.94,1.08,1.94,1.24,2.88.54,3.57.46,7.21-.35,10.64h0Z"/>
                  </g>
                </g>
              </g>
              <path class="cls-49" d="m110.22,92.26c1.15,1.27,8.32,1.32,10.15,1.7,5.05,1.05,10.18,1.71,15.33,2,10.3.57,20.69-.4,30.7-2.89-3.59-3.98-7.52-7.66-11.71-11,14.11,6.14,29.01,10.45,44.22,12.78-2.06-3.14-4.12-6.28-6.17-9.42,6,3.72,12.29,7.15,18.78,9.93-.83-2.13-2.09-4.08-3.67-5.73,6.64,2.32,12.58,4.78,18.45,8.67,1.48.98,2.98,2.04,3.85,3.58,2,3.52.03,7.85-.4,11.87-.76,6.99,3.96,14.19,10.67,16.29-2.86,16.89-2.98,34.24-.35,51.17,3.15-10.39,1.39-20.91,5.65-31.16,1.45-3.48,3.67-7.22,7.37-7.96,2.4-20.69,1.49-42.67-.5-63.43-.54-5.64-1.3-11.5-4.41-16.24-3.64-5.55-9.93-8.7-16.07-11.22-4.98-2.04-10.07-3.83-15.24-5.35-24.49-7.22-52.65-9.68-77.42-3.27-15.59,4.04-30.53,10.54-44.14,19.16-8.51,5.39-19.36,10.96-23.38,20.78-2.15,5.27-2.03,11.15-1.78,16.83.41,9.35,1.09,18.69,2.02,28,.46,4.56.97,9.12,1.55,13.67.54,4.23,1.75,8.73,1.69,12.99,3.45.42,7.12.94,9.74,3.23,7.87,6.88,7.7,22.58,9.52,32.12.02-17.43-1.75-34.86-5.29-51.93,8.37-8.66,1.61-21.13,2.03-31.39,2.77-.07,5.65-.37,8.02-1.8,2.38-1.43,4.11-4.26,3.46-6.96,3.65,1.49,7.8,1.72,11.59.64-1.25-2.01-2.68-3.91-4.27-5.66Z"/>
              <g>
                <g>
                  <path class="cls-23" d="m75.39,152.86c3.09.59,6.1,1.6,8.92,2.99,4.91,2.43,7.38,8.68,8.91,13.55.89,2.83,1.46,5.64,1.92,8.56.73,4.62,1.36,9.12,2.33,13.72"/>
                  <path class="cls-23" d="m239.12,190.11c-.13-10.89.9-21.77,3.26-32.38,1.41-6.32,3.72-16.34,12.02-16.16"/>
                </g>
                <path class="cls-19" d="m144.51,270.1c-3.03-.94-6.03-1.98-8.99-3.07-6.99-2.57-13.95-5.45-19.95-9.75-7.36-5.28-11.52-11.96-13.82-20.35-4.64-16.93-5.57-34.53-6.47-51.98,17.2,4.14,36.31,4.97,51.75-3.18,4.97-2.62,9.5-6.25,15.02-7.54,10.19-2.37,20.21,3.73,30.04,7.36,8.08,2.98,16.73,4.26,25.33,4.19,4.33-.04,8.66-.42,12.94-1.1,1.39-.22,9.81-2.87,10.5-1.3.07.16.08.33.1.5.99,11.21,1.16,23.06-.55,34.17-1.98,12.8-5.97,27.93-15.14,37.54-8.87,9.29-22.22,12.42-34.78,15.12-15.96,3.43-30.19,4.3-45.99-.58Z"/>
                <path class="cls-9" d="m144.51,270.15c-3.03-.94-6.03-1.98-8.99-3.07-6.99-2.57-13.95-5.45-19.95-9.75-7.36-5.28-11.52-11.96-13.82-20.35-1.17-4.28-1.13-11.09-3.71-14.78,14.13,13.53,33.44,20.57,52.13,27.23-5.78-3.67-11.14-7.96-15.95-12.75,11.69,5.15,24.83,6.9,37.6,5.92,12.77-.97,25.21-4.59,36.81-9.72-3.25,3.42-6.49,6.84-9.74,10.26,16.97-7.09,33.08-18.41,40.12-34.82-2.24,5.22-2.53,11.54-4.34,17-3.66,11.03-10.76,22.38-19.83,30.02-5.69,4.79-12.21,8.64-19.04,11.75-8.42,3.83-17.48,6.65-26.82,6.96-8.31.28-16.5-1.42-24.48-3.88Z"/>
                <path class="cls-20" d="m129.63,194.89c-.31.06-.62.11-.93.17-10.57,1.81-22.28-.08-32.95-1.49l-.37-8.59c17.2,4.14,36.31,4.97,51.75-3.18,4.97-2.62,9.5-6.25,15.02-7.54,10.19-2.37,20.21,3.73,30.05,7.36,7.98,2.94,16.51,4.23,25,4.2,8.36-.03,16.65-2.22,24.67-4.33-1.13.3.66,9.74-.88,10.95-.53.42-1.24.52-1.92.6-14.87,1.86-30.49,2.04-44.85-2.82-9.27-3.14-23.5-13.2-33.44-8.12-4.85,2.48-9.73,4.92-14.65,7.24-5.24,2.46-10.74,4.47-16.49,5.56Z"/>
                <g>
                  <path class="cls-1" d="m129.59,214.4c2.22-.26,4.3-.54,6.62-1.35,3.43-1.2,6.76-2.62,10.12-3.99,7.84-3.18,16.02-6.09,24.56-6.27,10.64-.22,20.88,3.8,31.41,5.4,10.47,1.6,21.3.77,31.33-2.4-8.92,5.98-19.84,9.21-30.78,9.09-9.2-.1-18.27-2.49-27.47-2.58-15.13-.14-29.6,5.93-44.71,6.66-9.56.46-17.98-1.15-26.92-4.48,7.91.84,15.49,1.28,23.37.22.85-.12,1.67-.21,2.47-.3Z"/>
                  <path class="cls-1" d="m173.17,221.86c14.05-1.87,27.82-5.22,41.53-8.68-3.41-.12-7.15-1.3-10.55-1.81-4.04-.61-8.08-1.17-12.14-1.6-7.9-.83-15.89-1.18-23.8-.44-17.88,1.69-34.93,8.9-52.91,9.14,1.84-.24,4.92,1.06,6.76,1.46,16.79,3.63,33.67,4.2,50.71,1.98.14-.02.27-.04.41-.05Z"/>
                  <path class="cls-1" d="m135.2,230.49c3.14.63,6.28,1.26,9.45,1.82,13.6,2.39,27.59,2.85,41.24.9,16.81-2.4,33.1-8.51,46.64-18.29-11.04,14.44-28.57,24.82-46.59,29.31-13.72,3.42-28.57,3.28-42-1.29-13.6-4.63-25.54-13.62-39.67-16.41,6.72,1.33,14.03.93,20.87,2.07,3.37.57,6.71,1.23,10.04,1.89Z"/>
                  <path class="cls-1" d="m145.13,253.51c27.9,6,59.01-2.84,79.61-21.34-8.77,11.23-20.96,18.13-33.43,24.97-12.57,6.89-27.9,8.84-42.24,5.65-15.33-3.4-28.89-12.42-39.37-23.48,7.16,4.2,14.74,7.74,22.6,10.55,4.07,1.46,8.38,2.69,12.83,3.64Z"/>
                </g>
              </g>
              <g>
                <path class="cls-19" d="m69.22,99.38c-1-9.89-1.58-19.97,1.42-29.4,5.38-16.89,22.36-33.78,37.3-40.68,19.17-8.84,39.98-13.49,60.82-13.58,14.16-.06,26.51,1.94,39.82,7.12,12.31,4.79,24.2,11.12,34.59,19.77,1.81,1.51,3.59,3.11,4.88,5.15,1.44,2.29,2.17,5.01,2.8,7.7,2.09,8.85,3.43,17.89,3.87,26.99.41,7.34.46,14.69.06,22.03-1.26-2.83-5.93-4.81-8.57-6.22-6.96-3.73-13.92-7.46-20.88-11.2-10.69-5.73-22.5-7.24-34.28-8.52-12.73-1.38-25.57-1.73-38.33-.77-15.8,1.19-31.51,4.41-46.49,10.02-7.44,4.02-15.13,7.06-22.39,11.61-4.39,2.75-10.2,4.87-13.69,8.73-.29-2.89-.63-5.82-.93-8.77Z"/>
                <path class="cls-2" d="m68.98,99.38c-1.2-9.84-1.29-20.15,1.65-29.4,1.98-6.22,5.28-11.89,9.08-16.98,3.87-5.19,8.02-9.82,13.12-13.86-.91.72-1.69,2.41-2.43,3.35-.9,1.14-1.75,2.33-2.58,3.53-1.7,2.46-3.28,5-4.76,7.6-3.01,5.33-5.55,10.92-7.58,16.7,2.55-5.87,6.1-11.23,10.42-15.73.34-.36.73-.73,1.21-.75.88-.05,1.39,1.06,1.59,1.99,1.08,5.2-.38,10.58-1.89,15.65-2.42,8.14-4.99,16.22-7.9,24.17,8.6-9.73,20.48-15.23,32.34-19.33,33.93-11.76,70.61-14.13,105.6-6.85-2.52-3.38-6.57-4.88-10.42-6.1-9.62-3.04-19.44-5.35-29.36-6.88-6.31-.98-12.74-1.66-18.72-4.04-.79-.31-1.67-.77-1.87-1.66-.25-1.06.63-2.02,1.46-2.65,3.75-2.84,8.22-4.33,12.66-5.55,14.39-3.96,29.22-5.61,44-7.12-20.05-2.65-40.36-3.05-60.48-1.18-9.38.87-18.79,2.24-27.7,5.51-6.25,2.29-12.25,5.52-18.73,6.88-.05-2.16,1.8-3.73,3.48-4.89,27.09-18.73,66.16-31.1,97.43-18.93,12.31,4.79,24.2,11.12,34.59,19.77,1.81,1.51,3.59,3.11,4.88,5.15,1.44,2.29,2.17,5.01,2.8,7.7,2.09,8.85,3.43,17.89,3.87,26.99.36,7.42.19,14.87.17,22.32-2.1-3.11-5.46-4.78-8.68-6.51-6.96-3.73-13.92-7.46-20.88-11.2-10.69-5.73-22.5-7.24-34.28-8.52-12.73-1.38-25.57-1.73-38.33-.77-15.8,1.19-31.51,4.41-46.49,10.02-7.44,4.02-15.13,7.06-22.39,11.61-2.7,1.69-5.48,3.24-8.22,4.85-.97.57-5.55,2.43-5.29,3.83-.51-2.84-.98-5.76-1.34-8.72Z"/>
                <g>
                  <g class="cls-8">
                    <path class="cls-46" d="m72.56,76.32c1.71-7.31,5.21-14.24,9.84-20.16.76-1.01,1.91-1.98,3.38-1.73,0,0,1.13.2,1.13.2,1.73,7.59-2.17,14.76-4.62,21.7-2.49,6.41-5.11,12.76-8.2,18.92,1.74-8.36,4.26-16.66,6.87-24.79,1.47-4.63,3.58-9.27,2.91-14.19,0,0,1.33,1.38,1.33,1.38.12.02.26-.03.23-.04,0-.01-.11.05-.22.14-5.08,5.57-9.08,11.89-12.65,18.57h0Z"/>
                  </g>
                  <g class="cls-8">
                    <path class="cls-46" d="m97.9,48.11c18.58-18.4,46.49-28,72.43-24.06-6.53.37-12.95,1.04-19.28,2.18-19.04,3.4-37.03,11.23-53.15,21.88h0Z"/>
                  </g>
                  <g class="cls-8">
                    <path class="cls-46" d="m160.49,32.75c5.95-3.21,13.37-3.75,19.71-1.39-6.27,2.43-13.16,2.9-19.71,1.39h0Z"/>
                  </g>
                  <g class="cls-8">
                    <path class="cls-46" d="m191.05,65.53c21.19.84,45.27,7.17,57.35,26.07-16.35-15.73-36.34-20.06-57.35-26.07h0Z"/>
                  </g>
                  <g class="cls-8">
                    <path class="cls-46" d="m237.59,57.55c4.22,2.37,6.97,6.82,7.15,11.66-4.23-2.35-6.95-6.82-7.15-11.66h0Z"/>
                  </g>
                </g>
              </g>
            </g>
            <g>
              <path class="cls-19" d="m173.34,911.81c-25.64-.2-51.49-2.79-77.02-4.99-8.87-.76-109.01-14.5-108.7-16.08,10.43-52.48,20.25-105.08,29.45-157.78,8.72-49.95,14.7-100.75,24.99-150.34-8.23-3.34-91.17-28.56-92.7-25.04,26.66-64,36.47-134.66,68.55-196.11,1.83-3.5,3.79-7.05,6.79-9.61,2.34-1.99,5.18-3.28,8-4.49,17.5-7.49,35.13-11.43,53.56-15.58,3.13-.71,37.43-9.97,37.23-10.36,15.26,29.91,32.04,59.04,50.24,87.24-.82-1.32,8.93-14.52,10.19-16.56,5.08-8.22,10.45-16.24,15.43-24.53,9.95-16.56,19.22-33.54,27.77-50.87.27-.54,37.35,5.78,40.88,6.2,19.44,2.3,38.76,5.7,57.82,10.17,4.16.98,8.4,2.05,11.93,4.45,5.77,3.92,8.77,10.73,11.37,17.21,12.06,30.04,21.85,60.92,32.21,91.57,10.72,31.7,25.34,61.76,36.71,92.98-14.75,5.55-28.59,13.89-43.54,19.34-15.77,5.75-32.2,9.67-48.87,11.61,2.81-.33,32.87,311.01,35.33,339.55-25.95.07-51.67,2.01-77.7,2.01-36.65.4-73.3.32-109.94.03Z"/>
              <path class="cls-5" d="m154.47,617.01c-.66-1.37-1.28-2.76-1.86-4.17-2.73-6.62-4-15.45,1.59-19.91,2.7-2.16,6.34-2.64,9.79-2.77,14.68-.56,29.05,3.75,43.45,6.67,37.03,7.5,78.95,4.56,107.53-20.22-3.61,21.2-12.42,41.49-25.42,58.59,5.6-7.36,15.17-12.71,21.5-19.68,6.25-6.89,11.72-14.47,17.66-21.71,4.23,51.88,10.09,103.63,17.58,155.14.27,1.85.2,3.25-1.41,4.26-6.53-5.12-35.78,4.52-45.03,5.46-55.47,5.64-112.02.49-165.56-15.1,33.78,16.47,70.72,30.52,108.27,34.25,18.12,1.8,36.35,2.46,54.55,1.96,14.35-.39,38.61,1.74,50.88-6.02,4.67,31.48,7.42,77.33,10.87,113.21-66.26,6.18-135.02,5.6-201.56,6.45-41.28.52-82.85,0-123.35-8.02-8.41-1.66-16.95-3.73-24.18-8.34,5.28-9.19,17.9-10.16,28.49-10.15,80.85.05,161.7-6.64,241.44-19.99-38.76-2.75-77.75-1.64-116.44-5.16-23.69-2.16-47.36-6.11-69.99-13.59-22.19-7.33-41.92-17.35-64.54-23.47,5.34,1.44,21.59-7.39,27.23-9.15,8.79-2.75,17.7-5.69,26.57-8.07,18.76-5.03,39.02-6.7,58.37-7.04-20.65-1.15-40.43-7.9-59.43-15.69-19.43-7.97-40.69-12.11-59.78-19.75-8.62-3.46-5.76-5.58-3.61-16.16,2.35-11.58,4.55-23.19,6.63-34.82,6.48-36.26,20.29-73.46,21.54-110.18,0,0-14.07-4.48-18.99-6.09-24.66-8.03-48.75-14.29-75.24-21.13,7.68,1.69,15.19-.21,21.64-4.49,5.03-3.34,10.43-7.03,14.6-11.39-2.98-2.07-7.76-1.68-11.23-3.28-4.51-2.08-8.52-5.33-11.47-9.34,19.38-13.73,36.87-30.14,51.82-48.61-2.59.66-5.25,1.08-7.92,1.26-.84.06-1.81.04-2.39-.57-.94-1.01-.15-2.62.65-3.75,11.74-16.53,20.95-35.3,23.71-55.4,2.84-20.66-1.38-43.11-12.13-60.99,5.74-.56,11.37,2.43,15.38,6.58,4.01,4.16,6.67,9.41,9.28,14.57-.39-12.31-3.82-24.5-9.92-35.19,2.51-.99,5.05-1.92,7.61-2.78,5.42-1.82,14.71,42.66,15.87,48.78,3.36,17.7,5.22,35.7,5.52,53.72,6.92-.81,10.18-8.9,11.49-15.76,5.53-28.95,2.43-57.08.69-86.43,6.2,9.71,13.15,18.94,20.77,27.57.93,1.06,1.93,2.14,3.26,2.62,8.84,3.15,2.18-39.32.52-44.16-.07-.2,22.46-7.46,24.17-8.12,18.36,35.97,38.04,72.4,62.94,104.15,33.77-23.99,60.96-57.22,77.83-95.12,1.03-2.32,2.5-5.01,5.02-5.19-1.52,27.91-12.03,55.26-29.6,76.97,20.37-17.84,40.74-35.69,61.11-53.53-19.6,46.9-52.33,106.02-108.03,112.41,2.17-.25,8.11,3.92,10.44,4.76,4.62,1.65,9.4,2.8,14.25,3.5,7.15,1.04,18,2.59,24.51-.72,1.78,19.98,14.1,38.49,32.46,46.85,1.5.68,3.15,1.31,4.75.92,2.27-.56,3.56-2.92,4.51-5.07,6.44-14.56,10.24-30.29,11.16-46.19.39-6.67.26-13.44-1.51-19.88-3.28-11.9-12.41-22.03-23.89-26.48,10.92-2.51,23.08,1.57,30.3,10.16-.76-.76,12.16-32.35,12.84-36.07,2.16-11.83,3.33-23.69,6.19-35.43,1.92-7.88,4.53-16.22,10.89-21.24,1.21.38,1.88,1.74,1.91,3.01.02,1.27-.46,2.49-.88,3.69-3.28,9.43-2.93,19.68-2.54,29.66,2.46-5.19,5.82-9.96,9.88-14.02.4,15.67-1.75,31.13-3.61,46.64-2.99,25.12-3.74,50.49-2.28,75.74.85,14.82,4.22,9.79,15.48,5.14,6.39-2.64,13.2-5.09,19.23-8.5-9.82,13.94-22.47,25.88-36.93,34.87,20.05,5.61,40.78-4.92,58.49-15.89-9.49,17.75-26.16,31.5-45.35,37.43,1.16-.36,6.77,3.41,8.1,3.99,2.75,1.21,5.56,2.3,8.41,3.27,5.18,1.76,10.44,3.08,15.83,3.9,11.72,1.79,24.72-.28,35.81-4.39-26.02,16.58-56.03,26.8-86.74,29.53-2.15.18-8.84-56.53-8.49-63.55-5.26,6.78-9.14,14.62-11.34,22.92-1.11,4.17-1.87,8.62-4.52,12.02-2.65,3.4-8.03,5.17-11.3,2.36-.76,4.43-1.55,8.93-3.58,12.94s-5.51,7.52-9.9,8.44c-4.51.95-9.08-.92-13.31-2.75-7.09-3.06-15.34-7.78-15.36-15.53,0-2.69,1.05-5.25,1.47-7.9.91-5.78-1.33-11.7-4.81-16.4-13.53-18.28-42.62-16.05-62.78-24.34-21.87-8.99-41.94-22.54-58.02-39.97,7.51,12.33,7.02,29.09-1.2,40.95-8.22,11.86-23.72,18.16-37.85,15.39-14.14-2.77-26.12-14.46-29.28-28.56,2.66,11.84-1.14,28.76-1.61,40.97-.55,14.23-1.11,28.47-1.82,42.7-1.34,26.85-4.99,53.6-6.64,80.24,2.86-4.95,4.98-10.34,6.26-15.91,23.72,45.2,68.59,78.63,118.58,88.35-20.9-20.91-41.97-42.05-57.87-66.99,29.28,7.73,59.44,12.09,89.7,13-18.04-14.91-36.71-30.66-46.8-51.63Z"/>
              <path class="cls-21" d="m174.61,431.95c-.8.89-14.86-19.05-15.7-20.21-4.88-6.79-9.62-13.68-14.2-20.68-8.96-13.68-17.33-27.75-25.07-42.16-4.27-7.94-8.96-15.48-14.02-22.69,2.71-.04,17.02-6.5,17.89-4.8,15.26,29.91,32.04,59.04,50.24,87.24-.82-1.32,8.93-14.52,10.19-16.56,5.08-8.22,10.45-16.24,15.43-24.53,9.95-16.56,19.22-33.54,27.77-50.87.27-.54,15.57,1.98,17.22,2.42-9.49,20.65-24.45,42-36.42,61.32-10.44,16.83-20.45,36.65-33.33,51.51Z"/>
              <g>
                <g class="cls-18">
                  <path class="cls-29" d="m27.04,364.93c15.86,11.95,17.43,35.52,20.3,53.72,2.4,19.35,3.39,38.95,1.99,58.42-1.4-19.4-2.89-38.71-5.43-57.98-2.77-17.99-3.31-40.62-16.86-54.16h0Z"/>
                </g>
                <g class="cls-18">
                  <path class="cls-29" d="m326.54,340.12c-1.71,4.62-2.33,9.51-2.96,14.38-.54,4.46-1.34,10.26-1.76,14.63-1.93,17.02-3.23,34.23-4.03,51.34-2.05,46.54.23,93.3,5.74,139.54.56,4.47,1.33,10.16,1.86,14.63-1.96-9.64-3.65-19.34-5.17-29.06-5.77-38.92-7.81-78.57-5.96-117.89.89-19.65,2.86-39.36,5.89-58.79.66-4.41,1.78-10.15,2.54-14.55.86-4.82,1.8-9.75,3.86-14.23h0Z"/>
                </g>
                <g class="cls-18">
                  <path class="cls-29" d="m339.93,357.85c-4.72,11.06-8.86,22.2-12.09,33.73-1.95,6.62-4.11,16.38-5.78,23.18-2.89,11.61-5.27,23.23-5.3,35.31-2.13-11.94-.39-24.27,2.1-36.03,3.93-19.68,9.92-39.32,21.07-56.18h0Z"/>
                </g>
                <g class="cls-18">
                  <path class="cls-29" d="m41.43,343.56c4.53,10.47,5.48,21.96,6.84,33.16,3.67,32.29,6.66,65.11,1.96,97.46-1.85,18.13.34,36.68-1.27,54.95-1.22,16.94-3.78,33.75-6.03,50.55-1.48,11.27-4.2,22.24-5.75,33.44.78-11.27,3.14-22.39,4.06-33.63,2.1-22.17,5.32-45.19,5.1-67.39-.08-12.63-.9-25.53.46-38.3,3.07-20.91,3.12-42.07,2.05-63.15-.75-14.07-1.81-28.16-2.93-42.23-.5-8.45-1.73-16.84-4.5-24.87h0Z"/>
                </g>
                <g>
                  <g class="cls-18">
                    <path class="cls-29" d="m75.83,349.11c26.22,47.43,61.75,93.07,112.71,115.08,7.14,3.2,14.57,5.74,22.14,7.87-7.75-1.36-15.35-3.6-22.78-6.29-52.54-19.74-89.62-66.76-112.07-116.66h0Z"/>
                  </g>
                  <g class="cls-18">
                    <path class="cls-29" d="m228.45,407.57c6.03-9.2,12.09-18.57,17.68-28.02,7.31-12.23,14.81-25.91,21.98-38.28,1.82-3.18,3.45-6.44,4.36-10.04-.15,3.73-1.41,7.36-2.83,10.79-2.95,6.82-6.18,13.44-9.59,20.02-8.66,16.34-18.69,32.19-31.6,45.53h0Z"/>
                  </g>
                </g>
              </g>
              <g>
                <path class="cls-25" d="m133.2,315.09c-13.7,0-23.49,3.66-35.16,10.68-14.46,8.69-23.04,27.58-27.82,43.43-7.86,26.07-8.83,54.21-2.77,80.76"/>
                <path class="cls-22" d="m213.64,311.31c18.57-3.88,37.72,7.68,48.09,23.61,10.37,15.93,13.65,35.39,15.61,54.31,1.58,15.29,2.47,23.78,2.65,39.16"/>
              </g>
            </g>
          </g>
          <g class="cls-17">
            <path class="cls-35" d="m127.57,113.8c22.42-13.47,51.81-16.17,76.07-6.19-6.43-1.19-12.83-2.06-19.25-2.45-19.3-1.22-38.64,2.12-56.82,8.64h0Z"/>
          </g>
          <g class="cls-17">
            <path class="cls-35" d="m140.62,116.43c16.12-10.47,38.01-12.49,55.59-4.52-18.74-3.1-37.56-1.37-55.59,4.52h0Z"/>
          </g>
          <rect class="cls-30" x="-161.42" y="-143.58" width="615.33" height="1019.69"/>
        </g>
      </g>
    </g>
  </g>
</svg>